<?xml version="1.0" encoding="utf-8" standalone="no"?>
<!DOCTYPE svg PUBLIC "-//W3C//DTD SVG 1.1//EN"
  "http://www.w3.org/Graphics/SVG/1.1/DTD/svg11.dtd">
<svg height="545.523625pt" version="1.1" viewBox="0 0 1408.15625 545.523625" width="1408.15625pt" xmlns="http://www.w3.org/2000/svg" xmlns:xlink="http://www.w3.org/1999/xlink">
 <metadata>
  <rdf:RDF xmlns:cc="http://creativecommons.org/ns#" xmlns:dc="http://purl.org/dc/elements/1.1/" xmlns:rdf="http://www.w3.org/1999/02/22-rdf-syntax-ns#">
   <cc:Work>
    <dc:type rdf:resource="http://purl.org/dc/dcmitype/StillImage"/>
    <dc:date>2021-11-23T11:55:32.747563</dc:date>
    <dc:format>image/svg+xml</dc:format>
    <dc:creator>
     <cc:Agent>
      <dc:title>Matplotlib v3.4.3, https://matplotlib.org/</dc:title>
     </cc:Agent>
    </dc:creator>
   </cc:Work>
  </rdf:RDF>
 </metadata>
 <defs>
  <style type="text/css">*{stroke-linecap:butt;stroke-linejoin:round;}</style>
 </defs>
 <g id="figure_1">
  <g id="patch_1">
   <path d="M 0 545.523625 
L 1408.15625 545.523625 
L 1408.15625 0 
L 0 0 
z
" style="fill:none;"/>
  </g>
  <g id="axes_1">
   <g id="patch_2">
    <path d="M 88.47625 484.739875 
L 711.83625 484.739875 
L 711.83625 33.259875 
L 88.47625 33.259875 
z
" style="fill:#ffffff;"/>
   </g>
   <g id="PolyCollection_1">
    <defs>
     <path d="M 116.810795 -133.335916 
L 116.810795 -81.305568 
L 123.178109 -103.270726 
L 129.545423 -114.720282 
L 135.912736 -127.330378 
L 142.28005 -141.226272 
L 148.647363 -124.474393 
L 155.014677 -131.912072 
L 161.381991 -149.760562 
L 167.749304 -131.670602 
L 174.116618 -159.661816 
L 180.483931 -186.222034 
L 186.851245 -174.94375 
L 193.218558 -182.750248 
L 199.585872 -196.925622 
L 205.953186 -211.482384 
L 212.320499 -190.241452 
L 218.687813 -215.887532 
L 225.055126 -223.603691 
L 231.42244 -232.943028 
L 237.789754 -240.423966 
L 244.157067 -242.537363 
L 250.524381 -237.815792 
L 256.891694 -230.59583 
L 263.259008 -226.845606 
L 269.626322 -258.191492 
L 275.993635 -276.209314 
L 282.360949 -275.322981 
L 288.728262 -264.377149 
L 295.095576 -286.043018 
L 301.462889 -288.564531 
L 307.830203 -305.623107 
L 314.197517 -294.339957 
L 320.56483 -309.186294 
L 326.932144 -309.490027 
L 333.299457 -269.329636 
L 339.666771 -318.988509 
L 346.034085 -325.372578 
L 352.401398 -316.767029 
L 358.768712 -311.511128 
L 365.136025 -339.154607 
L 371.503339 -331.871558 
L 377.870652 -345.410975 
L 384.237966 -340.929367 
L 390.60528 -331.994658 
L 396.972593 -348.408702 
L 403.339907 -362.347648 
L 409.70722 -369.07714 
L 416.074534 -325.643805 
L 422.441848 -369.302569 
L 428.809161 -368.130338 
L 435.176475 -370.97363 
L 441.543788 -353.581781 
L 447.911102 -370.111141 
L 454.278415 -375.405129 
L 460.645729 -386.211967 
L 467.013043 -376.088733 
L 473.380356 -393.014135 
L 479.74767 -379.181512 
L 486.114983 -414.560255 
L 492.482297 -360.897203 
L 498.849611 -424.284409 
L 505.216924 -403.619362 
L 511.584238 -399.837684 
L 517.951551 -400.741843 
L 524.318865 -420.036045 
L 530.686178 -378.02358 
L 537.053492 -374.679239 
L 543.420806 -398.848839 
L 549.788119 -427.273832 
L 556.155433 -423.703168 
L 562.522746 -419.201682 
L 568.89006 -412.813568 
L 575.257374 -433.308665 
L 581.624687 -418.136981 
L 587.992001 -431.469365 
L 594.359314 -425.914427 
L 600.726628 -428.308214 
L 607.093942 -438.244193 
L 613.461255 -395.476458 
L 619.828569 -451.974591 
L 626.195882 -434.939175 
L 632.563196 -457.439145 
L 638.930509 -418.556089 
L 645.297823 -439.658614 
L 651.665137 -447.46761 
L 658.03245 -445.588501 
L 664.399764 -453.755535 
L 670.767077 -438.910756 
L 677.134391 -436.833865 
L 683.501705 -390.900468 
L 683.501705 -445.842404 
L 683.501705 -445.842404 
L 677.134391 -471.202253 
L 670.767077 -466.567362 
L 664.399764 -476.949763 
L 658.03245 -475.691257 
L 651.665137 -473.534927 
L 645.297823 -458.321915 
L 638.930509 -466.016988 
L 632.563196 -484.512536 
L 626.195882 -467.05477 
L 619.828569 -474.106144 
L 613.461255 -466.206922 
L 607.093942 -470.629891 
L 600.726628 -463.23321 
L 594.359314 -456.409374 
L 587.992001 -455.397092 
L 581.624687 -461.364197 
L 575.257374 -445.663272 
L 568.89006 -447.282087 
L 562.522746 -466.209361 
L 556.155433 -454.077975 
L 549.788119 -446.615181 
L 543.420806 -439.283292 
L 537.053492 -452.956268 
L 530.686178 -457.330033 
L 524.318865 -449.894682 
L 517.951551 -447.489981 
L 511.584238 -445.395105 
L 505.216924 -431.866561 
L 498.849611 -441.147765 
L 492.482297 -438.732605 
L 486.114983 -440.551709 
L 479.74767 -420.801124 
L 473.380356 -417.432047 
L 467.013043 -425.922663 
L 460.645729 -413.285531 
L 454.278415 -413.28702 
L 447.911102 -402.527348 
L 441.543788 -420.644433 
L 435.176475 -405.766482 
L 428.809161 -398.686495 
L 422.441848 -395.000366 
L 416.074534 -393.144358 
L 409.70722 -405.678316 
L 403.339907 -398.471114 
L 396.972593 -378.677212 
L 390.60528 -394.555714 
L 384.237966 -399.95463 
L 377.870652 -372.488818 
L 371.503339 -379.948257 
L 365.136025 -384.617246 
L 358.768712 -353.47081 
L 352.401398 -372.42771 
L 346.034085 -363.985974 
L 339.666771 -353.402811 
L 333.299457 -356.104098 
L 326.932144 -343.49577 
L 320.56483 -349.400642 
L 314.197517 -351.14825 
L 307.830203 -347.495 
L 301.462889 -335.401187 
L 295.095576 -334.835458 
L 288.728262 -340.447667 
L 282.360949 -333.515249 
L 275.993635 -317.016291 
L 269.626322 -323.567213 
L 263.259008 -310.677326 
L 256.891694 -305.074756 
L 250.524381 -293.554707 
L 244.157067 -275.756459 
L 237.789754 -279.986822 
L 231.42244 -286.629795 
L 225.055126 -268.139847 
L 218.687813 -267.709467 
L 212.320499 -261.367936 
L 205.953186 -250.226697 
L 199.585872 -232.940759 
L 193.218558 -231.856335 
L 186.851245 -217.623702 
L 180.483931 -229.29182 
L 174.116618 -200.918025 
L 167.749304 -180.086707 
L 161.381991 -178.491441 
L 155.014677 -189.245575 
L 148.647363 -175.771911 
L 142.28005 -167.796622 
L 135.912736 -161.890061 
L 129.545423 -150.816599 
L 123.178109 -132.158191 
L 116.810795 -133.335916 
z
" id="m22274bfe76" style="stroke:#00c0c7;stroke-opacity:0.1;"/>
    </defs>
    <g clip-path="url(#p0933693b5e)">
     <use style="fill:#00c0c7;fill-opacity:0.1;stroke:#00c0c7;stroke-opacity:0.1;" x="0" xlink:href="#m22274bfe76" y="545.523625"/>
    </g>
   </g>
   <g id="PolyCollection_2">
    <defs>
     <path d="M 116.810795 -126.724148 
L 116.810795 -101.430637 
L 123.178109 -105.358248 
L 129.545423 -105.948332 
L 135.912736 -114.261508 
L 142.28005 -113.915545 
L 148.647363 -113.169067 
L 155.014677 -112.135796 
L 161.381991 -125.999704 
L 167.749304 -115.285811 
L 174.116618 -135.110106 
L 180.483931 -148.458478 
L 186.851245 -168.135604 
L 193.218558 -127.135199 
L 199.585872 -138.016372 
L 205.953186 -153.071235 
L 212.320499 -194.363841 
L 218.687813 -157.567344 
L 225.055126 -124.169154 
L 231.42244 -134.120725 
L 237.789754 -157.905111 
L 244.157067 -138.380097 
L 250.524381 -158.721938 
L 256.891694 -149.244838 
L 263.259008 -159.586433 
L 269.626322 -165.59586 
L 275.993635 -143.110761 
L 282.360949 -164.161874 
L 288.728262 -137.81018 
L 295.095576 -163.832894 
L 301.462889 -187.203852 
L 307.830203 -209.801966 
L 314.197517 -184.988137 
L 320.56483 -193.990037 
L 326.932144 -180.249982 
L 333.299457 -229.583592 
L 339.666771 -242.871176 
L 346.034085 -212.567651 
L 352.401398 -249.354134 
L 358.768712 -226.989888 
L 365.136025 -262.828496 
L 371.503339 -240.479478 
L 377.870652 -263.697736 
L 384.237966 -256.241413 
L 390.60528 -262.379574 
L 396.972593 -261.56626 
L 403.339907 -282.56371 
L 409.70722 -268.654061 
L 416.074534 -262.509611 
L 422.441848 -253.724194 
L 428.809161 -278.042265 
L 435.176475 -283.771734 
L 441.543788 -281.053632 
L 447.911102 -294.823474 
L 454.278415 -280.113555 
L 460.645729 -291.416702 
L 467.013043 -289.43643 
L 473.380356 -283.310152 
L 479.74767 -294.894732 
L 486.114983 -297.550612 
L 492.482297 -313.33008 
L 498.849611 -286.342856 
L 505.216924 -311.627016 
L 511.584238 -293.364359 
L 517.951551 -306.415928 
L 524.318865 -318.130889 
L 530.686178 -329.25626 
L 537.053492 -286.01016 
L 543.420806 -304.655261 
L 549.788119 -344.016855 
L 556.155433 -341.549704 
L 562.522746 -316.74657 
L 568.89006 -330.448447 
L 575.257374 -323.757848 
L 581.624687 -360.90826 
L 587.992001 -343.267227 
L 594.359314 -349.849632 
L 600.726628 -370.678606 
L 607.093942 -362.681045 
L 613.461255 -369.176152 
L 619.828569 -351.597449 
L 626.195882 -379.710977 
L 632.563196 -360.089309 
L 638.930509 -380.346281 
L 645.297823 -378.982811 
L 651.665137 -378.62528 
L 658.03245 -389.046268 
L 664.399764 -359.458337 
L 670.767077 -386.721651 
L 677.134391 -384.466415 
L 683.501705 -381.36812 
L 683.501705 -477.0075 
L 683.501705 -477.0075 
L 677.134391 -471.262997 
L 670.767077 -479.636696 
L 664.399764 -479.108528 
L 658.03245 -476.738734 
L 651.665137 -476.499285 
L 645.297823 -475.732222 
L 638.930509 -471.41382 
L 632.563196 -467.628104 
L 626.195882 -459.964776 
L 619.828569 -481.242266 
L 613.461255 -478.085396 
L 607.093942 -464.355915 
L 600.726628 -491.741932 
L 594.359314 -454.41104 
L 587.992001 -472.328035 
L 581.624687 -450.938208 
L 575.257374 -454.929116 
L 568.89006 -474.606087 
L 562.522746 -456.685782 
L 556.155433 -474.266075 
L 549.788119 -459.468856 
L 543.420806 -445.830689 
L 537.053492 -469.251566 
L 530.686178 -450.438784 
L 524.318865 -446.965909 
L 517.951551 -440.201519 
L 511.584238 -436.934807 
L 505.216924 -448.725509 
L 498.849611 -442.456793 
L 492.482297 -443.078335 
L 486.114983 -439.288467 
L 479.74767 -429.097639 
L 473.380356 -427.089531 
L 467.013043 -432.88631 
L 460.645729 -431.561289 
L 454.278415 -407.921893 
L 447.911102 -429.301207 
L 441.543788 -416.564868 
L 435.176475 -418.301216 
L 428.809161 -393.334675 
L 422.441848 -423.077472 
L 416.074534 -372.601682 
L 409.70722 -399.238706 
L 403.339907 -406.675132 
L 396.972593 -359.75325 
L 390.60528 -367.451905 
L 384.237966 -372.311065 
L 377.870652 -376.630367 
L 371.503339 -365.183303 
L 365.136025 -375.867778 
L 358.768712 -371.395822 
L 352.401398 -390.577037 
L 346.034085 -365.265845 
L 339.666771 -361.865433 
L 333.299457 -362.804047 
L 326.932144 -337.974535 
L 320.56483 -372.023732 
L 314.197517 -341.905861 
L 307.830203 -344.373174 
L 301.462889 -360.771601 
L 295.095576 -326.675747 
L 288.728262 -312.343793 
L 282.360949 -325.817526 
L 275.993635 -344.398845 
L 269.626322 -318.429573 
L 263.259008 -322.807171 
L 256.891694 -307.337215 
L 250.524381 -296.856761 
L 244.157067 -297.704872 
L 237.789754 -271.476132 
L 231.42244 -292.340869 
L 225.055126 -269.456781 
L 218.687813 -267.138932 
L 212.320499 -256.363477 
L 205.953186 -232.868097 
L 199.585872 -234.439902 
L 193.218558 -212.098566 
L 186.851245 -224.772075 
L 180.483931 -206.211499 
L 174.116618 -179.381617 
L 167.749304 -144.076584 
L 161.381991 -159.780665 
L 155.014677 -154.382386 
L 148.647363 -179.006304 
L 142.28005 -149.019231 
L 135.912736 -138.661782 
L 129.545423 -141.241508 
L 123.178109 -128.291828 
L 116.810795 -126.724148 
z
" id="m943db8e5dc" style="stroke:#5144d3;stroke-opacity:0.1;"/>
    </defs>
    <g clip-path="url(#p0933693b5e)">
     <use style="fill:#5144d3;fill-opacity:0.1;stroke:#5144d3;stroke-opacity:0.1;" x="0" xlink:href="#m943db8e5dc" y="545.523625"/>
    </g>
   </g>
   <g id="PolyCollection_3">
    <defs>
     <path d="M 116.810795 -114.299526 
L 116.810795 -108.351147 
L 123.178109 -108.751953 
L 129.545423 -108.792943 
L 135.912736 -119.220013 
L 142.28005 -119.766576 
L 148.647363 -134.373562 
L 155.014677 -122.717414 
L 161.381991 -135.73674 
L 167.749304 -141.594112 
L 174.116618 -130.44134 
L 180.483931 -177.685504 
L 186.851245 -133.32086 
L 193.218558 -154.533606 
L 199.585872 -161.415364 
L 205.953186 -177.689983 
L 212.320499 -200.958074 
L 218.687813 -206.934025 
L 225.055126 -220.762276 
L 231.42244 -207.597027 
L 237.789754 -224.993787 
L 244.157067 -226.570926 
L 250.524381 -219.601347 
L 256.891694 -248.852917 
L 263.259008 -243.477315 
L 269.626322 -240.964067 
L 275.993635 -251.049601 
L 282.360949 -250.489731 
L 288.728262 -259.366221 
L 295.095576 -269.156536 
L 301.462889 -256.794131 
L 307.830203 -234.677686 
L 314.197517 -274.491312 
L 320.56483 -259.265494 
L 326.932144 -273.996185 
L 333.299457 -281.855369 
L 339.666771 -284.205646 
L 346.034085 -308.605426 
L 352.401398 -270.014005 
L 358.768712 -308.896982 
L 365.136025 -296.564491 
L 371.503339 -298.41806 
L 377.870652 -265.946779 
L 384.237966 -319.428061 
L 390.60528 -321.909243 
L 396.972593 -265.143732 
L 403.339907 -308.2117 
L 409.70722 -314.189794 
L 416.074534 -326.188142 
L 422.441848 -328.604588 
L 428.809161 -316.36373 
L 435.176475 -334.39675 
L 441.543788 -328.649126 
L 447.911102 -316.602274 
L 454.278415 -347.148905 
L 460.645729 -327.437621 
L 467.013043 -349.700864 
L 473.380356 -353.466529 
L 479.74767 -358.010587 
L 486.114983 -369.7325 
L 492.482297 -333.563874 
L 498.849611 -353.08251 
L 505.216924 -373.676389 
L 511.584238 -356.251533 
L 517.951551 -355.290629 
L 524.318865 -359.453679 
L 530.686178 -346.367131 
L 537.053492 -378.263428 
L 543.420806 -356.023348 
L 549.788119 -375.319061 
L 556.155433 -349.682472 
L 562.522746 -383.460772 
L 568.89006 -365.283478 
L 575.257374 -383.026318 
L 581.624687 -364.762584 
L 587.992001 -396.08182 
L 594.359314 -361.264733 
L 600.726628 -390.824105 
L 607.093942 -392.927297 
L 613.461255 -371.982204 
L 619.828569 -390.460825 
L 626.195882 -376.700059 
L 632.563196 -367.081044 
L 638.930509 -407.03054 
L 645.297823 -392.953605 
L 651.665137 -414.864148 
L 658.03245 -397.178696 
L 664.399764 -393.712652 
L 670.767077 -408.432593 
L 677.134391 -390.285684 
L 683.501705 -397.714929 
L 683.501705 -438.035615 
L 683.501705 -438.035615 
L 677.134391 -436.644168 
L 670.767077 -451.707166 
L 664.399764 -436.27294 
L 658.03245 -427.193155 
L 651.665137 -429.978009 
L 645.297823 -443.06156 
L 638.930509 -436.866543 
L 632.563196 -447.367528 
L 626.195882 -432.985339 
L 619.828569 -437.79213 
L 613.461255 -428.044536 
L 607.093942 -425.755208 
L 600.726628 -436.392419 
L 594.359314 -427.956658 
L 587.992001 -422.512477 
L 581.624687 -421.768496 
L 575.257374 -418.411733 
L 568.89006 -417.297192 
L 562.522746 -432.090386 
L 556.155433 -422.577988 
L 549.788119 -394.981945 
L 543.420806 -415.159727 
L 537.053492 -409.76087 
L 530.686178 -413.745975 
L 524.318865 -403.305635 
L 517.951551 -417.480171 
L 511.584238 -389.792569 
L 505.216924 -402.997568 
L 498.849611 -401.429457 
L 492.482297 -412.303814 
L 486.114983 -402.156231 
L 479.74767 -395.083768 
L 473.380356 -402.589059 
L 467.013043 -402.164894 
L 460.645729 -383.676539 
L 454.278415 -393.848501 
L 447.911102 -378.414122 
L 441.543788 -394.593486 
L 435.176475 -387.54796 
L 428.809161 -369.523249 
L 422.441848 -376.732019 
L 416.074534 -354.538732 
L 409.70722 -364.640631 
L 403.339907 -368.600992 
L 396.972593 -354.984985 
L 390.60528 -349.158973 
L 384.237966 -337.130116 
L 377.870652 -356.084687 
L 371.503339 -354.082598 
L 365.136025 -342.705128 
L 358.768712 -339.457951 
L 352.401398 -333.884638 
L 346.034085 -345.558563 
L 339.666771 -329.969104 
L 333.299457 -340.062688 
L 326.932144 -339.649323 
L 320.56483 -299.030169 
L 314.197517 -337.333353 
L 307.830203 -302.757039 
L 301.462889 -321.171676 
L 295.095576 -311.543685 
L 288.728262 -304.940114 
L 282.360949 -282.893777 
L 275.993635 -296.749438 
L 269.626322 -301.233832 
L 263.259008 -298.235446 
L 256.891694 -297.4025 
L 250.524381 -269.18726 
L 244.157067 -273.621575 
L 237.789754 -271.424718 
L 231.42244 -261.445829 
L 225.055126 -254.795292 
L 218.687813 -254.995573 
L 212.320499 -235.038688 
L 205.953186 -220.018673 
L 199.585872 -218.525897 
L 193.218558 -202.385648 
L 186.851245 -205.295457 
L 180.483931 -210.414897 
L 174.116618 -184.13859 
L 167.749304 -190.318479 
L 161.381991 -176.902638 
L 155.014677 -174.353442 
L 148.647363 -165.431708 
L 142.28005 -164.608783 
L 135.912736 -146.449178 
L 129.545423 -142.233898 
L 123.178109 -116.121535 
L 116.810795 -114.299526 
z
" id="mba48f84920" style="stroke:#da3490;stroke-opacity:0.1;"/>
    </defs>
    <g clip-path="url(#p0933693b5e)">
     <use style="fill:#da3490;fill-opacity:0.1;stroke:#da3490;stroke-opacity:0.1;" x="0" xlink:href="#mba48f84920" y="545.523625"/>
    </g>
   </g>
   <g id="PolyCollection_4">
    <defs>
     <path d="M 116.810795 -113.978808 
L 116.810795 -107.560458 
L 123.178109 -107.027066 
L 129.545423 -108.383368 
L 135.912736 -112.450727 
L 142.28005 -112.599389 
L 148.647363 -132.972229 
L 155.014677 -122.562756 
L 161.381991 -137.689883 
L 167.749304 -123.818425 
L 174.116618 -140.868665 
L 180.483931 -157.872517 
L 186.851245 -132.141604 
L 193.218558 -159.842778 
L 199.585872 -174.545951 
L 205.953186 -132.31399 
L 212.320499 -157.516161 
L 218.687813 -188.947271 
L 225.055126 -188.607874 
L 231.42244 -202.307507 
L 237.789754 -209.973618 
L 244.157067 -158.077157 
L 250.524381 -208.800543 
L 256.891694 -225.701133 
L 263.259008 -221.203906 
L 269.626322 -236.46018 
L 275.993635 -244.990977 
L 282.360949 -242.518089 
L 288.728262 -245.237083 
L 295.095576 -238.449296 
L 301.462889 -270.492576 
L 307.830203 -272.884796 
L 314.197517 -251.767881 
L 320.56483 -284.010187 
L 326.932144 -249.99929 
L 333.299457 -289.30491 
L 339.666771 -269.862217 
L 346.034085 -291.883131 
L 352.401398 -278.339413 
L 358.768712 -286.777649 
L 365.136025 -286.119925 
L 371.503339 -295.498705 
L 377.870652 -277.422382 
L 384.237966 -293.494003 
L 390.60528 -297.193622 
L 396.972593 -265.497176 
L 403.339907 -308.571517 
L 409.70722 -307.232487 
L 416.074534 -309.074817 
L 422.441848 -301.239737 
L 428.809161 -348.370792 
L 435.176475 -323.13284 
L 441.543788 -302.500113 
L 447.911102 -324.928709 
L 454.278415 -317.759191 
L 460.645729 -324.834124 
L 467.013043 -329.469075 
L 473.380356 -341.947672 
L 479.74767 -360.551118 
L 486.114983 -345.632295 
L 492.482297 -323.426368 
L 498.849611 -349.705403 
L 505.216924 -339.980678 
L 511.584238 -349.66817 
L 517.951551 -331.43837 
L 524.318865 -376.576674 
L 530.686178 -373.582549 
L 537.053492 -340.81641 
L 543.420806 -406.288197 
L 549.788119 -364.30901 
L 556.155433 -365.672353 
L 562.522746 -371.734645 
L 568.89006 -372.009132 
L 575.257374 -360.439163 
L 581.624687 -379.550928 
L 587.992001 -394.456636 
L 594.359314 -391.691233 
L 600.726628 -381.90042 
L 607.093942 -381.543029 
L 613.461255 -373.558655 
L 619.828569 -382.021638 
L 626.195882 -367.376247 
L 632.563196 -395.429441 
L 638.930509 -410.314993 
L 645.297823 -399.98238 
L 651.665137 -404.784836 
L 658.03245 -392.366469 
L 664.399764 -411.765866 
L 670.767077 -404.306577 
L 677.134391 -390.593224 
L 683.501705 -405.009109 
L 683.501705 -454.028063 
L 683.501705 -454.028063 
L 677.134391 -459.094014 
L 670.767077 -443.043178 
L 664.399764 -444.908621 
L 658.03245 -449.602664 
L 651.665137 -424.852968 
L 645.297823 -445.867857 
L 638.930509 -462.539164 
L 632.563196 -437.618191 
L 626.195882 -445.661014 
L 619.828569 -423.606241 
L 613.461255 -443.35971 
L 607.093942 -448.341755 
L 600.726628 -444.411983 
L 594.359314 -443.618276 
L 587.992001 -428.19518 
L 581.624687 -433.57454 
L 575.257374 -426.797573 
L 568.89006 -414.503047 
L 562.522746 -428.336198 
L 556.155433 -412.863399 
L 549.788119 -424.339036 
L 543.420806 -419.962461 
L 537.053492 -409.896359 
L 530.686178 -423.180535 
L 524.318865 -431.891468 
L 517.951551 -414.032387 
L 511.584238 -412.801322 
L 505.216924 -391.950316 
L 498.849611 -402.160356 
L 492.482297 -390.819137 
L 486.114983 -416.597778 
L 479.74767 -402.712235 
L 473.380356 -379.663111 
L 467.013043 -391.656571 
L 460.645729 -376.048032 
L 454.278415 -375.889997 
L 447.911102 -375.071378 
L 441.543788 -376.021588 
L 435.176475 -376.911351 
L 428.809161 -365.654196 
L 422.441848 -395.143866 
L 416.074534 -354.842337 
L 409.70722 -364.144453 
L 403.339907 -347.589728 
L 396.972593 -336.416811 
L 390.60528 -354.96681 
L 384.237966 -326.193679 
L 377.870652 -345.365144 
L 371.503339 -336.141016 
L 365.136025 -316.411511 
L 358.768712 -334.762378 
L 352.401398 -311.093294 
L 346.034085 -319.204377 
L 339.666771 -323.628009 
L 333.299457 -311.556894 
L 326.932144 -296.91768 
L 320.56483 -315.654524 
L 314.197517 -303.175918 
L 307.830203 -300.36194 
L 301.462889 -288.823767 
L 295.095576 -264.099591 
L 288.728262 -303.399922 
L 282.360949 -297.556544 
L 275.993635 -276.434191 
L 269.626322 -262.825051 
L 263.259008 -268.59908 
L 256.891694 -264.145957 
L 250.524381 -250.041813 
L 244.157067 -249.296458 
L 237.789754 -243.708633 
L 231.42244 -245.074249 
L 225.055126 -216.358952 
L 218.687813 -230.554796 
L 212.320499 -203.548819 
L 205.953186 -194.526703 
L 199.585872 -222.022315 
L 193.218558 -195.841579 
L 186.851245 -223.410443 
L 180.483931 -205.775665 
L 174.116618 -195.032139 
L 167.749304 -196.186231 
L 161.381991 -190.385707 
L 155.014677 -159.071888 
L 148.647363 -156.657742 
L 142.28005 -147.027627 
L 135.912736 -131.960595 
L 129.545423 -135.353801 
L 123.178109 -140.956636 
L 116.810795 -113.978808 
z
" id="mc415a63244" style="stroke:#9089fa;stroke-opacity:0.1;"/>
    </defs>
    <g clip-path="url(#p0933693b5e)">
     <use style="fill:#9089fa;fill-opacity:0.1;stroke:#9089fa;stroke-opacity:0.1;" x="0" xlink:href="#mc415a63244" y="545.523625"/>
    </g>
   </g>
   <g id="matplotlib.axis_1">
    <g id="xtick_1">
     <g id="line2d_1">
      <defs>
       <path d="M 0 0 
L 0 3.5 
" id="m7bd2922aff" style="stroke:#000000;stroke-width:0.8;"/>
      </defs>
      <g>
       <use style="stroke:#000000;stroke-width:0.8;" x="116.810795" xlink:href="#m7bd2922aff" y="484.739875"/>
      </g>
     </g>
     <g id="text_1">
      <!-- 0 -->
      <g transform="translate(109.812045 508.456438)scale(0.22 -0.22)">
       <defs>
        <path d="M 2034 4250 
Q 1547 4250 1301 3770 
Q 1056 3291 1056 2328 
Q 1056 1369 1301 889 
Q 1547 409 2034 409 
Q 2525 409 2770 889 
Q 3016 1369 3016 2328 
Q 3016 3291 2770 3770 
Q 2525 4250 2034 4250 
z
M 2034 4750 
Q 2819 4750 3233 4129 
Q 3647 3509 3647 2328 
Q 3647 1150 3233 529 
Q 2819 -91 2034 -91 
Q 1250 -91 836 529 
Q 422 1150 422 2328 
Q 422 3509 836 4129 
Q 1250 4750 2034 4750 
z
" id="DejaVuSans-30" transform="scale(0.015625)"/>
       </defs>
       <use xlink:href="#DejaVuSans-30"/>
      </g>
     </g>
    </g>
    <g id="xtick_2">
     <g id="line2d_2">
      <g>
       <use style="stroke:#000000;stroke-width:0.8;" x="244.157067" xlink:href="#m7bd2922aff" y="484.739875"/>
      </g>
     </g>
     <g id="text_2">
      <!-- 20 -->
      <g transform="translate(230.159567 508.456438)scale(0.22 -0.22)">
       <defs>
        <path d="M 1228 531 
L 3431 531 
L 3431 0 
L 469 0 
L 469 531 
Q 828 903 1448 1529 
Q 2069 2156 2228 2338 
Q 2531 2678 2651 2914 
Q 2772 3150 2772 3378 
Q 2772 3750 2511 3984 
Q 2250 4219 1831 4219 
Q 1534 4219 1204 4116 
Q 875 4013 500 3803 
L 500 4441 
Q 881 4594 1212 4672 
Q 1544 4750 1819 4750 
Q 2544 4750 2975 4387 
Q 3406 4025 3406 3419 
Q 3406 3131 3298 2873 
Q 3191 2616 2906 2266 
Q 2828 2175 2409 1742 
Q 1991 1309 1228 531 
z
" id="DejaVuSans-32" transform="scale(0.015625)"/>
       </defs>
       <use xlink:href="#DejaVuSans-32"/>
       <use x="63.623047" xlink:href="#DejaVuSans-30"/>
      </g>
     </g>
    </g>
    <g id="xtick_3">
     <g id="line2d_3">
      <g>
       <use style="stroke:#000000;stroke-width:0.8;" x="371.503339" xlink:href="#m7bd2922aff" y="484.739875"/>
      </g>
     </g>
     <g id="text_3">
      <!-- 40 -->
      <g transform="translate(357.505839 508.456438)scale(0.22 -0.22)">
       <defs>
        <path d="M 2419 4116 
L 825 1625 
L 2419 1625 
L 2419 4116 
z
M 2253 4666 
L 3047 4666 
L 3047 1625 
L 3713 1625 
L 3713 1100 
L 3047 1100 
L 3047 0 
L 2419 0 
L 2419 1100 
L 313 1100 
L 313 1709 
L 2253 4666 
z
" id="DejaVuSans-34" transform="scale(0.015625)"/>
       </defs>
       <use xlink:href="#DejaVuSans-34"/>
       <use x="63.623047" xlink:href="#DejaVuSans-30"/>
      </g>
     </g>
    </g>
    <g id="xtick_4">
     <g id="line2d_4">
      <g>
       <use style="stroke:#000000;stroke-width:0.8;" x="498.849611" xlink:href="#m7bd2922aff" y="484.739875"/>
      </g>
     </g>
     <g id="text_4">
      <!-- 60 -->
      <g transform="translate(484.852111 508.456438)scale(0.22 -0.22)">
       <defs>
        <path d="M 2113 2584 
Q 1688 2584 1439 2293 
Q 1191 2003 1191 1497 
Q 1191 994 1439 701 
Q 1688 409 2113 409 
Q 2538 409 2786 701 
Q 3034 994 3034 1497 
Q 3034 2003 2786 2293 
Q 2538 2584 2113 2584 
z
M 3366 4563 
L 3366 3988 
Q 3128 4100 2886 4159 
Q 2644 4219 2406 4219 
Q 1781 4219 1451 3797 
Q 1122 3375 1075 2522 
Q 1259 2794 1537 2939 
Q 1816 3084 2150 3084 
Q 2853 3084 3261 2657 
Q 3669 2231 3669 1497 
Q 3669 778 3244 343 
Q 2819 -91 2113 -91 
Q 1303 -91 875 529 
Q 447 1150 447 2328 
Q 447 3434 972 4092 
Q 1497 4750 2381 4750 
Q 2619 4750 2861 4703 
Q 3103 4656 3366 4563 
z
" id="DejaVuSans-36" transform="scale(0.015625)"/>
       </defs>
       <use xlink:href="#DejaVuSans-36"/>
       <use x="63.623047" xlink:href="#DejaVuSans-30"/>
      </g>
     </g>
    </g>
    <g id="xtick_5">
     <g id="line2d_5">
      <g>
       <use style="stroke:#000000;stroke-width:0.8;" x="626.195882" xlink:href="#m7bd2922aff" y="484.739875"/>
      </g>
     </g>
     <g id="text_5">
      <!-- 80 -->
      <g transform="translate(612.198382 508.456438)scale(0.22 -0.22)">
       <defs>
        <path d="M 2034 2216 
Q 1584 2216 1326 1975 
Q 1069 1734 1069 1313 
Q 1069 891 1326 650 
Q 1584 409 2034 409 
Q 2484 409 2743 651 
Q 3003 894 3003 1313 
Q 3003 1734 2745 1975 
Q 2488 2216 2034 2216 
z
M 1403 2484 
Q 997 2584 770 2862 
Q 544 3141 544 3541 
Q 544 4100 942 4425 
Q 1341 4750 2034 4750 
Q 2731 4750 3128 4425 
Q 3525 4100 3525 3541 
Q 3525 3141 3298 2862 
Q 3072 2584 2669 2484 
Q 3125 2378 3379 2068 
Q 3634 1759 3634 1313 
Q 3634 634 3220 271 
Q 2806 -91 2034 -91 
Q 1263 -91 848 271 
Q 434 634 434 1313 
Q 434 1759 690 2068 
Q 947 2378 1403 2484 
z
M 1172 3481 
Q 1172 3119 1398 2916 
Q 1625 2713 2034 2713 
Q 2441 2713 2670 2916 
Q 2900 3119 2900 3481 
Q 2900 3844 2670 4047 
Q 2441 4250 2034 4250 
Q 1625 4250 1398 4047 
Q 1172 3844 1172 3481 
z
" id="DejaVuSans-38" transform="scale(0.015625)"/>
       </defs>
       <use xlink:href="#DejaVuSans-38"/>
       <use x="63.623047" xlink:href="#DejaVuSans-30"/>
      </g>
     </g>
    </g>
    <g id="text_6">
     <!-- Time in seconds -->
     <g transform="translate(311.260781 533.748312)scale(0.22 -0.22)">
      <defs>
       <path d="M -19 4666 
L 3928 4666 
L 3928 4134 
L 2272 4134 
L 2272 0 
L 1638 0 
L 1638 4134 
L -19 4134 
L -19 4666 
z
" id="DejaVuSans-54" transform="scale(0.015625)"/>
       <path d="M 603 3500 
L 1178 3500 
L 1178 0 
L 603 0 
L 603 3500 
z
M 603 4863 
L 1178 4863 
L 1178 4134 
L 603 4134 
L 603 4863 
z
" id="DejaVuSans-69" transform="scale(0.015625)"/>
       <path d="M 3328 2828 
Q 3544 3216 3844 3400 
Q 4144 3584 4550 3584 
Q 5097 3584 5394 3201 
Q 5691 2819 5691 2113 
L 5691 0 
L 5113 0 
L 5113 2094 
Q 5113 2597 4934 2840 
Q 4756 3084 4391 3084 
Q 3944 3084 3684 2787 
Q 3425 2491 3425 1978 
L 3425 0 
L 2847 0 
L 2847 2094 
Q 2847 2600 2669 2842 
Q 2491 3084 2119 3084 
Q 1678 3084 1418 2786 
Q 1159 2488 1159 1978 
L 1159 0 
L 581 0 
L 581 3500 
L 1159 3500 
L 1159 2956 
Q 1356 3278 1631 3431 
Q 1906 3584 2284 3584 
Q 2666 3584 2933 3390 
Q 3200 3197 3328 2828 
z
" id="DejaVuSans-6d" transform="scale(0.015625)"/>
       <path d="M 3597 1894 
L 3597 1613 
L 953 1613 
Q 991 1019 1311 708 
Q 1631 397 2203 397 
Q 2534 397 2845 478 
Q 3156 559 3463 722 
L 3463 178 
Q 3153 47 2828 -22 
Q 2503 -91 2169 -91 
Q 1331 -91 842 396 
Q 353 884 353 1716 
Q 353 2575 817 3079 
Q 1281 3584 2069 3584 
Q 2775 3584 3186 3129 
Q 3597 2675 3597 1894 
z
M 3022 2063 
Q 3016 2534 2758 2815 
Q 2500 3097 2075 3097 
Q 1594 3097 1305 2825 
Q 1016 2553 972 2059 
L 3022 2063 
z
" id="DejaVuSans-65" transform="scale(0.015625)"/>
       <path id="DejaVuSans-20" transform="scale(0.015625)"/>
       <path d="M 3513 2113 
L 3513 0 
L 2938 0 
L 2938 2094 
Q 2938 2591 2744 2837 
Q 2550 3084 2163 3084 
Q 1697 3084 1428 2787 
Q 1159 2491 1159 1978 
L 1159 0 
L 581 0 
L 581 3500 
L 1159 3500 
L 1159 2956 
Q 1366 3272 1645 3428 
Q 1925 3584 2291 3584 
Q 2894 3584 3203 3211 
Q 3513 2838 3513 2113 
z
" id="DejaVuSans-6e" transform="scale(0.015625)"/>
       <path d="M 2834 3397 
L 2834 2853 
Q 2591 2978 2328 3040 
Q 2066 3103 1784 3103 
Q 1356 3103 1142 2972 
Q 928 2841 928 2578 
Q 928 2378 1081 2264 
Q 1234 2150 1697 2047 
L 1894 2003 
Q 2506 1872 2764 1633 
Q 3022 1394 3022 966 
Q 3022 478 2636 193 
Q 2250 -91 1575 -91 
Q 1294 -91 989 -36 
Q 684 19 347 128 
L 347 722 
Q 666 556 975 473 
Q 1284 391 1588 391 
Q 1994 391 2212 530 
Q 2431 669 2431 922 
Q 2431 1156 2273 1281 
Q 2116 1406 1581 1522 
L 1381 1569 
Q 847 1681 609 1914 
Q 372 2147 372 2553 
Q 372 3047 722 3315 
Q 1072 3584 1716 3584 
Q 2034 3584 2315 3537 
Q 2597 3491 2834 3397 
z
" id="DejaVuSans-73" transform="scale(0.015625)"/>
       <path d="M 3122 3366 
L 3122 2828 
Q 2878 2963 2633 3030 
Q 2388 3097 2138 3097 
Q 1578 3097 1268 2742 
Q 959 2388 959 1747 
Q 959 1106 1268 751 
Q 1578 397 2138 397 
Q 2388 397 2633 464 
Q 2878 531 3122 666 
L 3122 134 
Q 2881 22 2623 -34 
Q 2366 -91 2075 -91 
Q 1284 -91 818 406 
Q 353 903 353 1747 
Q 353 2603 823 3093 
Q 1294 3584 2113 3584 
Q 2378 3584 2631 3529 
Q 2884 3475 3122 3366 
z
" id="DejaVuSans-63" transform="scale(0.015625)"/>
       <path d="M 1959 3097 
Q 1497 3097 1228 2736 
Q 959 2375 959 1747 
Q 959 1119 1226 758 
Q 1494 397 1959 397 
Q 2419 397 2687 759 
Q 2956 1122 2956 1747 
Q 2956 2369 2687 2733 
Q 2419 3097 1959 3097 
z
M 1959 3584 
Q 2709 3584 3137 3096 
Q 3566 2609 3566 1747 
Q 3566 888 3137 398 
Q 2709 -91 1959 -91 
Q 1206 -91 779 398 
Q 353 888 353 1747 
Q 353 2609 779 3096 
Q 1206 3584 1959 3584 
z
" id="DejaVuSans-6f" transform="scale(0.015625)"/>
       <path d="M 2906 2969 
L 2906 4863 
L 3481 4863 
L 3481 0 
L 2906 0 
L 2906 525 
Q 2725 213 2448 61 
Q 2172 -91 1784 -91 
Q 1150 -91 751 415 
Q 353 922 353 1747 
Q 353 2572 751 3078 
Q 1150 3584 1784 3584 
Q 2172 3584 2448 3432 
Q 2725 3281 2906 2969 
z
M 947 1747 
Q 947 1113 1208 752 
Q 1469 391 1925 391 
Q 2381 391 2643 752 
Q 2906 1113 2906 1747 
Q 2906 2381 2643 2742 
Q 2381 3103 1925 3103 
Q 1469 3103 1208 2742 
Q 947 2381 947 1747 
z
" id="DejaVuSans-64" transform="scale(0.015625)"/>
      </defs>
      <use xlink:href="#DejaVuSans-54"/>
      <use x="57.958984" xlink:href="#DejaVuSans-69"/>
      <use x="85.742188" xlink:href="#DejaVuSans-6d"/>
      <use x="183.154297" xlink:href="#DejaVuSans-65"/>
      <use x="244.677734" xlink:href="#DejaVuSans-20"/>
      <use x="276.464844" xlink:href="#DejaVuSans-69"/>
      <use x="304.248047" xlink:href="#DejaVuSans-6e"/>
      <use x="367.626953" xlink:href="#DejaVuSans-20"/>
      <use x="399.414062" xlink:href="#DejaVuSans-73"/>
      <use x="451.513672" xlink:href="#DejaVuSans-65"/>
      <use x="513.037109" xlink:href="#DejaVuSans-63"/>
      <use x="568.017578" xlink:href="#DejaVuSans-6f"/>
      <use x="629.199219" xlink:href="#DejaVuSans-6e"/>
      <use x="692.578125" xlink:href="#DejaVuSans-64"/>
      <use x="756.054688" xlink:href="#DejaVuSans-73"/>
     </g>
    </g>
   </g>
   <g id="matplotlib.axis_2">
    <g id="ytick_1">
     <g id="line2d_6">
      <defs>
       <path d="M 0 0 
L -3.5 0 
" id="m06a1b2b535" style="stroke:#000000;stroke-width:0.8;"/>
      </defs>
      <g>
       <use style="stroke:#000000;stroke-width:0.8;" x="88.47625" xlink:href="#m06a1b2b535" y="435.203847"/>
      </g>
     </g>
     <g id="text_7">
      <!-- 0.10 -->
      <g transform="translate(32.491875 443.562129)scale(0.22 -0.22)">
       <defs>
        <path d="M 684 794 
L 1344 794 
L 1344 0 
L 684 0 
L 684 794 
z
" id="DejaVuSans-2e" transform="scale(0.015625)"/>
        <path d="M 794 531 
L 1825 531 
L 1825 4091 
L 703 3866 
L 703 4441 
L 1819 4666 
L 2450 4666 
L 2450 531 
L 3481 531 
L 3481 0 
L 794 0 
L 794 531 
z
" id="DejaVuSans-31" transform="scale(0.015625)"/>
       </defs>
       <use xlink:href="#DejaVuSans-30"/>
       <use x="63.623047" xlink:href="#DejaVuSans-2e"/>
       <use x="95.410156" xlink:href="#DejaVuSans-31"/>
       <use x="159.033203" xlink:href="#DejaVuSans-30"/>
      </g>
     </g>
    </g>
    <g id="ytick_2">
     <g id="line2d_7">
      <g>
       <use style="stroke:#000000;stroke-width:0.8;" x="88.47625" xlink:href="#m06a1b2b535" y="369.048654"/>
      </g>
     </g>
     <g id="text_8">
      <!-- 0.15 -->
      <g transform="translate(32.491875 377.406935)scale(0.22 -0.22)">
       <defs>
        <path d="M 691 4666 
L 3169 4666 
L 3169 4134 
L 1269 4134 
L 1269 2991 
Q 1406 3038 1543 3061 
Q 1681 3084 1819 3084 
Q 2600 3084 3056 2656 
Q 3513 2228 3513 1497 
Q 3513 744 3044 326 
Q 2575 -91 1722 -91 
Q 1428 -91 1123 -41 
Q 819 9 494 109 
L 494 744 
Q 775 591 1075 516 
Q 1375 441 1709 441 
Q 2250 441 2565 725 
Q 2881 1009 2881 1497 
Q 2881 1984 2565 2268 
Q 2250 2553 1709 2553 
Q 1456 2553 1204 2497 
Q 953 2441 691 2322 
L 691 4666 
z
" id="DejaVuSans-35" transform="scale(0.015625)"/>
       </defs>
       <use xlink:href="#DejaVuSans-30"/>
       <use x="63.623047" xlink:href="#DejaVuSans-2e"/>
       <use x="95.410156" xlink:href="#DejaVuSans-31"/>
       <use x="159.033203" xlink:href="#DejaVuSans-35"/>
      </g>
     </g>
    </g>
    <g id="ytick_3">
     <g id="line2d_8">
      <g>
       <use style="stroke:#000000;stroke-width:0.8;" x="88.47625" xlink:href="#m06a1b2b535" y="302.89346"/>
      </g>
     </g>
     <g id="text_9">
      <!-- 0.20 -->
      <g transform="translate(32.491875 311.251742)scale(0.22 -0.22)">
       <use xlink:href="#DejaVuSans-30"/>
       <use x="63.623047" xlink:href="#DejaVuSans-2e"/>
       <use x="95.410156" xlink:href="#DejaVuSans-32"/>
       <use x="159.033203" xlink:href="#DejaVuSans-30"/>
      </g>
     </g>
    </g>
    <g id="ytick_4">
     <g id="line2d_9">
      <g>
       <use style="stroke:#000000;stroke-width:0.8;" x="88.47625" xlink:href="#m06a1b2b535" y="236.738267"/>
      </g>
     </g>
     <g id="text_10">
      <!-- 0.25 -->
      <g transform="translate(32.491875 245.096548)scale(0.22 -0.22)">
       <use xlink:href="#DejaVuSans-30"/>
       <use x="63.623047" xlink:href="#DejaVuSans-2e"/>
       <use x="95.410156" xlink:href="#DejaVuSans-32"/>
       <use x="159.033203" xlink:href="#DejaVuSans-35"/>
      </g>
     </g>
    </g>
    <g id="ytick_5">
     <g id="line2d_10">
      <g>
       <use style="stroke:#000000;stroke-width:0.8;" x="88.47625" xlink:href="#m06a1b2b535" y="170.583073"/>
      </g>
     </g>
     <g id="text_11">
      <!-- 0.30 -->
      <g transform="translate(32.491875 178.941355)scale(0.22 -0.22)">
       <defs>
        <path d="M 2597 2516 
Q 3050 2419 3304 2112 
Q 3559 1806 3559 1356 
Q 3559 666 3084 287 
Q 2609 -91 1734 -91 
Q 1441 -91 1130 -33 
Q 819 25 488 141 
L 488 750 
Q 750 597 1062 519 
Q 1375 441 1716 441 
Q 2309 441 2620 675 
Q 2931 909 2931 1356 
Q 2931 1769 2642 2001 
Q 2353 2234 1838 2234 
L 1294 2234 
L 1294 2753 
L 1863 2753 
Q 2328 2753 2575 2939 
Q 2822 3125 2822 3475 
Q 2822 3834 2567 4026 
Q 2313 4219 1838 4219 
Q 1578 4219 1281 4162 
Q 984 4106 628 3988 
L 628 4550 
Q 988 4650 1302 4700 
Q 1616 4750 1894 4750 
Q 2613 4750 3031 4423 
Q 3450 4097 3450 3541 
Q 3450 3153 3228 2886 
Q 3006 2619 2597 2516 
z
" id="DejaVuSans-33" transform="scale(0.015625)"/>
       </defs>
       <use xlink:href="#DejaVuSans-30"/>
       <use x="63.623047" xlink:href="#DejaVuSans-2e"/>
       <use x="95.410156" xlink:href="#DejaVuSans-33"/>
       <use x="159.033203" xlink:href="#DejaVuSans-30"/>
      </g>
     </g>
    </g>
    <g id="ytick_6">
     <g id="line2d_11">
      <g>
       <use style="stroke:#000000;stroke-width:0.8;" x="88.47625" xlink:href="#m06a1b2b535" y="104.42788"/>
      </g>
     </g>
     <g id="text_12">
      <!-- 0.35 -->
      <g transform="translate(32.491875 112.786161)scale(0.22 -0.22)">
       <use xlink:href="#DejaVuSans-30"/>
       <use x="63.623047" xlink:href="#DejaVuSans-2e"/>
       <use x="95.410156" xlink:href="#DejaVuSans-33"/>
       <use x="159.033203" xlink:href="#DejaVuSans-35"/>
      </g>
     </g>
    </g>
    <g id="ytick_7">
     <g id="line2d_12">
      <g>
       <use style="stroke:#000000;stroke-width:0.8;" x="88.47625" xlink:href="#m06a1b2b535" y="38.272687"/>
      </g>
     </g>
     <g id="text_13">
      <!-- 0.40 -->
      <g transform="translate(32.491875 46.630968)scale(0.22 -0.22)">
       <use xlink:href="#DejaVuSans-30"/>
       <use x="63.623047" xlink:href="#DejaVuSans-2e"/>
       <use x="95.410156" xlink:href="#DejaVuSans-34"/>
       <use x="159.033203" xlink:href="#DejaVuSans-30"/>
      </g>
     </g>
    </g>
    <g id="text_14">
     <!-- Test accuracy -->
     <g transform="translate(23.916563 333.786125)rotate(-90)scale(0.22 -0.22)">
      <defs>
       <path d="M 1172 4494 
L 1172 3500 
L 2356 3500 
L 2356 3053 
L 1172 3053 
L 1172 1153 
Q 1172 725 1289 603 
Q 1406 481 1766 481 
L 2356 481 
L 2356 0 
L 1766 0 
Q 1100 0 847 248 
Q 594 497 594 1153 
L 594 3053 
L 172 3053 
L 172 3500 
L 594 3500 
L 594 4494 
L 1172 4494 
z
" id="DejaVuSans-74" transform="scale(0.015625)"/>
       <path d="M 2194 1759 
Q 1497 1759 1228 1600 
Q 959 1441 959 1056 
Q 959 750 1161 570 
Q 1363 391 1709 391 
Q 2188 391 2477 730 
Q 2766 1069 2766 1631 
L 2766 1759 
L 2194 1759 
z
M 3341 1997 
L 3341 0 
L 2766 0 
L 2766 531 
Q 2569 213 2275 61 
Q 1981 -91 1556 -91 
Q 1019 -91 701 211 
Q 384 513 384 1019 
Q 384 1609 779 1909 
Q 1175 2209 1959 2209 
L 2766 2209 
L 2766 2266 
Q 2766 2663 2505 2880 
Q 2244 3097 1772 3097 
Q 1472 3097 1187 3025 
Q 903 2953 641 2809 
L 641 3341 
Q 956 3463 1253 3523 
Q 1550 3584 1831 3584 
Q 2591 3584 2966 3190 
Q 3341 2797 3341 1997 
z
" id="DejaVuSans-61" transform="scale(0.015625)"/>
       <path d="M 544 1381 
L 544 3500 
L 1119 3500 
L 1119 1403 
Q 1119 906 1312 657 
Q 1506 409 1894 409 
Q 2359 409 2629 706 
Q 2900 1003 2900 1516 
L 2900 3500 
L 3475 3500 
L 3475 0 
L 2900 0 
L 2900 538 
Q 2691 219 2414 64 
Q 2138 -91 1772 -91 
Q 1169 -91 856 284 
Q 544 659 544 1381 
z
M 1991 3584 
L 1991 3584 
z
" id="DejaVuSans-75" transform="scale(0.015625)"/>
       <path d="M 2631 2963 
Q 2534 3019 2420 3045 
Q 2306 3072 2169 3072 
Q 1681 3072 1420 2755 
Q 1159 2438 1159 1844 
L 1159 0 
L 581 0 
L 581 3500 
L 1159 3500 
L 1159 2956 
Q 1341 3275 1631 3429 
Q 1922 3584 2338 3584 
Q 2397 3584 2469 3576 
Q 2541 3569 2628 3553 
L 2631 2963 
z
" id="DejaVuSans-72" transform="scale(0.015625)"/>
       <path d="M 2059 -325 
Q 1816 -950 1584 -1140 
Q 1353 -1331 966 -1331 
L 506 -1331 
L 506 -850 
L 844 -850 
Q 1081 -850 1212 -737 
Q 1344 -625 1503 -206 
L 1606 56 
L 191 3500 
L 800 3500 
L 1894 763 
L 2988 3500 
L 3597 3500 
L 2059 -325 
z
" id="DejaVuSans-79" transform="scale(0.015625)"/>
      </defs>
      <use xlink:href="#DejaVuSans-54"/>
      <use x="44.083984" xlink:href="#DejaVuSans-65"/>
      <use x="105.607422" xlink:href="#DejaVuSans-73"/>
      <use x="157.707031" xlink:href="#DejaVuSans-74"/>
      <use x="196.916016" xlink:href="#DejaVuSans-20"/>
      <use x="228.703125" xlink:href="#DejaVuSans-61"/>
      <use x="289.982422" xlink:href="#DejaVuSans-63"/>
      <use x="344.962891" xlink:href="#DejaVuSans-63"/>
      <use x="399.943359" xlink:href="#DejaVuSans-75"/>
      <use x="463.322266" xlink:href="#DejaVuSans-72"/>
      <use x="504.435547" xlink:href="#DejaVuSans-61"/>
      <use x="565.714844" xlink:href="#DejaVuSans-63"/>
      <use x="620.695312" xlink:href="#DejaVuSans-79"/>
     </g>
    </g>
   </g>
   <g id="line2d_13">
    <path clip-path="url(#p0933693b5e)" d="M 116.810795 438.202883 
L 123.178109 427.809167 
L 129.545423 412.755185 
L 135.912736 400.913405 
L 142.28005 391.012178 
L 148.647363 395.400473 
L 155.014677 384.944802 
L 161.381991 381.397623 
L 167.749304 389.644971 
L 174.116618 365.233704 
L 180.483931 337.766698 
L 186.851245 349.239899 
L 193.218558 338.220334 
L 199.585872 330.590435 
L 205.953186 314.669085 
L 212.320499 319.718931 
L 218.687813 303.725126 
L 225.055126 299.651856 
L 231.42244 285.737214 
L 237.789754 285.318231 
L 244.157067 286.376714 
L 250.524381 279.838375 
L 256.891694 277.688332 
L 263.259008 276.762159 
L 269.626322 254.644273 
L 275.993635 248.910823 
L 282.360949 241.10451 
L 288.728262 243.111217 
L 295.095576 235.084387 
L 301.462889 233.540766 
L 307.830203 218.964572 
L 314.197517 222.779521 
L 320.56483 216.230157 
L 326.932144 219.030727 
L 333.299457 232.806758 
L 339.666771 209.327965 
L 346.034085 200.844349 
L 352.401398 200.926256 
L 358.768712 213.032656 
L 365.136025 183.637698 
L 371.503339 189.613717 
L 377.870652 186.573729 
L 384.237966 175.081627 
L 390.60528 182.248439 
L 396.972593 181.980668 
L 403.339907 165.114244 
L 409.70722 158.145897 
L 416.074534 186.129544 
L 422.441848 163.372157 
L 428.809161 162.115209 
L 435.176475 157.153569 
L 441.543788 158.410518 
L 447.911102 159.20438 
L 454.278415 151.17755 
L 460.645729 145.774876 
L 467.013043 144.517927 
L 473.380356 140.300534 
L 479.74767 145.532307 
L 486.114983 117.967643 
L 492.482297 145.708721 
L 498.849611 112.807538 
L 505.216924 127.780663 
L 511.584238 122.907231 
L 517.951551 121.407713 
L 524.318865 110.558261 
L 530.686178 127.846818 
L 537.053492 131.705871 
L 543.420806 126.457559 
L 549.788119 108.579118 
L 556.155433 106.633053 
L 562.522746 102.818104 
L 568.89006 115.475797 
L 575.257374 106.037656 
L 581.624687 105.773036 
L 587.992001 102.090397 
L 594.359314 104.361725 
L 600.726628 99.752913 
L 607.093942 91.086583 
L 613.461255 114.681935 
L 619.828569 82.483257 
L 626.195882 94.526653 
L 632.563196 74.547784 
L 638.930509 103.237087 
L 645.297823 96.53336 
L 651.665137 85.022357 
L 658.03245 84.883746 
L 664.399764 80.170976 
L 670.767077 92.784566 
L 677.134391 91.505566 
L 683.501705 127.152189 
" style="fill:none;stroke:#00c0c7;stroke-linecap:square;stroke-width:1.5;"/>
   </g>
   <g id="line2d_14">
    <path clip-path="url(#p0933693b5e)" d="M 116.810795 431.446232 
L 123.178109 428.698587 
L 129.545423 421.928705 
L 135.912736 419.06198 
L 142.28005 414.056237 
L 148.647363 399.435939 
L 155.014677 412.264534 
L 161.381991 402.63344 
L 167.749304 415.842427 
L 174.116618 388.277763 
L 180.483931 368.188636 
L 186.851245 349.069785 
L 193.218558 375.906742 
L 199.585872 359.295488 
L 205.953186 352.553959 
L 212.320499 320.159966 
L 218.687813 333.170487 
L 225.055126 348.710657 
L 231.42244 332.292828 
L 237.789754 330.833004 
L 244.157067 327.481141 
L 250.524381 317.734275 
L 256.891694 317.232599 
L 263.259008 304.326823 
L 269.626322 303.510909 
L 275.993635 301.768822 
L 282.360949 300.533925 
L 288.728262 320.446638 
L 295.095576 300.269304 
L 301.462889 271.535899 
L 307.830203 268.436055 
L 314.197517 282.076626 
L 320.56483 262.516741 
L 326.932144 286.411366 
L 333.299457 249.329805 
L 339.666771 243.155321 
L 346.034085 256.606877 
L 352.401398 225.558039 
L 358.768712 246.33077 
L 365.136025 226.175488 
L 371.503339 242.692234 
L 377.870652 225.359574 
L 384.237966 231.247386 
L 390.60528 230.607886 
L 396.972593 234.86387 
L 403.339907 200.904204 
L 409.70722 211.577242 
L 416.074534 227.967978 
L 422.441848 207.122792 
L 428.809161 209.835155 
L 435.176475 194.48715 
L 441.543788 196.714375 
L 447.911102 183.461284 
L 454.278415 201.505901 
L 460.645729 184.034629 
L 467.013043 184.362255 
L 473.380356 190.323783 
L 479.74767 183.52744 
L 486.114983 177.104085 
L 492.482297 167.319417 
L 498.849611 181.123801 
L 505.216924 165.347362 
L 511.584238 180.374042 
L 517.951551 172.214902 
L 524.318865 162.975226 
L 530.686178 155.676103 
L 537.053492 167.892762 
L 543.420806 170.28065 
L 549.788119 143.780769 
L 556.155433 137.615735 
L 562.522746 158.807449 
L 568.89006 142.996358 
L 575.257374 156.180143 
L 581.624687 139.600391 
L 587.992001 137.725994 
L 594.359314 143.393289 
L 600.726628 114.313356 
L 607.093942 132.005145 
L 613.461255 121.892851 
L 619.828569 129.103767 
L 626.195882 125.685749 
L 632.563196 131.664918 
L 638.930509 119.643575 
L 645.297823 118.166109 
L 651.665137 117.961342 
L 658.03245 112.631124 
L 664.399764 126.240192 
L 670.767077 112.344451 
L 677.134391 117.658919 
L 683.501705 116.335815 
" style="fill:none;stroke:#5144d3;stroke-linecap:square;stroke-width:1.5;"/>
   </g>
   <g id="line2d_15">
    <path clip-path="url(#p0933693b5e)" d="M 116.810795 434.198288 
L 123.178109 433.086881 
L 129.545423 420.010205 
L 135.912736 412.68903 
L 142.28005 403.335946 
L 148.647363 395.62099 
L 155.014677 396.988197 
L 161.381991 389.203936 
L 167.749304 379.56733 
L 174.116618 388.23366 
L 180.483931 351.473424 
L 186.851245 376.215466 
L 193.218558 367.063998 
L 199.585872 355.552994 
L 205.953186 346.669297 
L 212.320499 327.525244 
L 218.687813 314.558826 
L 225.055126 307.744841 
L 231.42244 311.002197 
L 237.789754 297.314372 
L 244.157067 295.427374 
L 250.524381 301.129322 
L 256.891694 272.395916 
L 263.259008 274.667245 
L 269.626322 274.424675 
L 275.993635 271.624106 
L 282.360949 278.831871 
L 288.728262 263.370458 
L 295.095576 255.173514 
L 301.462889 256.540721 
L 307.830203 276.806262 
L 314.197517 239.611292 
L 320.56483 266.375794 
L 326.932144 238.700871 
L 333.299457 234.564596 
L 339.666771 238.43625 
L 346.034085 218.441631 
L 352.401398 243.574304 
L 358.768712 221.346159 
L 365.136025 225.888815 
L 371.503339 219.273296 
L 377.870652 234.507892 
L 384.237966 217.244537 
L 390.60528 209.989517 
L 396.972593 235.459267 
L 403.339907 207.117279 
L 409.70722 206.108412 
L 416.074534 205.160188 
L 422.441848 192.855322 
L 428.809161 202.580135 
L 435.176475 184.55127 
L 441.543788 183.902319 
L 447.911102 198.015427 
L 454.278415 175.024922 
L 460.645729 189.966545 
L 467.013043 169.590746 
L 473.380356 167.495831 
L 479.74767 168.976447 
L 486.114983 159.57926 
L 492.482297 172.589781 
L 498.849611 168.267642 
L 505.216924 157.186647 
L 511.584238 172.501574 
L 517.951551 159.138225 
L 524.318865 164.143968 
L 530.686178 165.467072 
L 537.053492 151.511476 
L 543.420806 159.932087 
L 549.788119 160.373122 
L 556.155433 159.393395 
L 562.522746 137.748046 
L 568.89006 154.23329 
L 575.257374 144.8046 
L 581.624687 152.258085 
L 587.992001 136.226476 
L 594.359314 150.912929 
L 600.726628 131.915363 
L 607.093942 136.182373 
L 613.461255 145.510255 
L 619.828569 131.397147 
L 626.195882 140.680926 
L 632.563196 138.299339 
L 638.930509 123.575083 
L 645.297823 127.516043 
L 651.665137 123.102546 
L 658.03245 133.3377 
L 664.399764 130.530829 
L 670.767077 115.453746 
L 677.134391 132.058699 
L 683.501705 127.648353 
" style="fill:none;stroke:#da3490;stroke-linecap:square;stroke-width:1.5;"/>
   </g>
   <g id="line2d_16">
    <path clip-path="url(#p0933693b5e)" d="M 116.810795 434.753992 
L 123.178109 421.531774 
L 129.545423 423.655041 
L 135.912736 423.317964 
L 142.28005 415.710117 
L 148.647363 400.708639 
L 155.014677 404.706303 
L 161.381991 381.48583 
L 167.749304 385.521297 
L 174.116618 377.573223 
L 180.483931 363.699534 
L 186.851245 367.747602 
L 193.218558 367.681447 
L 199.585872 347.239492 
L 205.953186 382.103279 
L 212.320499 364.991135 
L 218.687813 335.772592 
L 225.055126 343.040212 
L 231.42244 321.832747 
L 237.789754 318.6825 
L 244.157067 341.836818 
L 250.524381 316.102447 
L 256.891694 300.60008 
L 263.259008 300.622132 
L 269.626322 295.88101 
L 275.993635 284.811041 
L 282.360949 275.486309 
L 288.728262 271.205123 
L 295.095576 294.249182 
L 301.462889 265.865454 
L 307.830203 258.900257 
L 314.197517 268.051725 
L 320.56483 245.69127 
L 326.932144 272.06514 
L 333.299457 245.092723 
L 339.666771 248.778512 
L 346.034085 239.979871 
L 352.401398 250.807271 
L 358.768712 234.753611 
L 365.136025 244.257907 
L 371.503339 229.703765 
L 377.870652 234.129862 
L 384.237966 235.679784 
L 390.60528 219.443409 
L 396.972593 244.566631 
L 403.339907 217.443002 
L 409.70722 209.835155 
L 416.074534 213.565048 
L 422.441848 197.331823 
L 428.809161 188.511131 
L 435.176475 195.50153 
L 441.543788 206.262774 
L 447.911102 195.523581 
L 454.278415 198.699031 
L 460.645729 195.082547 
L 467.013043 184.960802 
L 473.380356 184.718233 
L 479.74767 163.891948 
L 486.114983 164.408589 
L 492.482297 188.400872 
L 498.849611 169.590746 
L 505.216924 179.558128 
L 511.584238 164.288879 
L 517.951551 172.788247 
L 524.318865 141.289554 
L 530.686178 147.142083 
L 537.053492 170.167241 
L 543.420806 132.398296 
L 549.788119 151.199602 
L 556.155433 156.255749 
L 562.522746 145.488203 
L 568.89006 152.267536 
L 575.257374 151.905257 
L 581.624687 138.960891 
L 587.992001 134.197717 
L 594.359314 127.86887 
L 600.726628 132.367423 
L 607.093942 130.581233 
L 613.461255 137.064442 
L 619.828569 142.709685 
L 626.195882 139.004994 
L 632.563196 128.999809 
L 638.930509 109.096547 
L 645.297823 122.598506 
L 651.665137 130.704723 
L 658.03245 124.539059 
L 664.399764 117.186382 
L 670.767077 121.848748 
L 677.134391 120.680006 
L 683.501705 116.005039 
" style="fill:none;stroke:#9089fa;stroke-linecap:square;stroke-width:1.5;"/>
   </g>
   <g id="patch_3">
    <path d="M 88.47625 484.739875 
L 88.47625 33.259875 
" style="fill:none;stroke:#000000;stroke-linecap:square;stroke-linejoin:miter;stroke-width:0.8;"/>
   </g>
   <g id="patch_4">
    <path d="M 711.83625 484.739875 
L 711.83625 33.259875 
" style="fill:none;stroke:#000000;stroke-linecap:square;stroke-linejoin:miter;stroke-width:0.8;"/>
   </g>
   <g id="patch_5">
    <path d="M 88.47625 484.739875 
L 711.83625 484.739875 
" style="fill:none;stroke:#000000;stroke-linecap:square;stroke-linejoin:miter;stroke-width:0.8;"/>
   </g>
   <g id="patch_6">
    <path d="M 88.47625 33.259875 
L 711.83625 33.259875 
" style="fill:none;stroke:#000000;stroke-linecap:square;stroke-linejoin:miter;stroke-width:0.8;"/>
   </g>
   <g id="text_15">
    <!-- Dataset: cifar10 -->
    <g transform="translate(293.939562 27.259875)scale(0.264 -0.264)">
     <defs>
      <path d="M 1259 4147 
L 1259 519 
L 2022 519 
Q 2988 519 3436 956 
Q 3884 1394 3884 2338 
Q 3884 3275 3436 3711 
Q 2988 4147 2022 4147 
L 1259 4147 
z
M 628 4666 
L 1925 4666 
Q 3281 4666 3915 4102 
Q 4550 3538 4550 2338 
Q 4550 1131 3912 565 
Q 3275 0 1925 0 
L 628 0 
L 628 4666 
z
" id="DejaVuSans-44" transform="scale(0.015625)"/>
      <path d="M 750 794 
L 1409 794 
L 1409 0 
L 750 0 
L 750 794 
z
M 750 3309 
L 1409 3309 
L 1409 2516 
L 750 2516 
L 750 3309 
z
" id="DejaVuSans-3a" transform="scale(0.015625)"/>
      <path d="M 2375 4863 
L 2375 4384 
L 1825 4384 
Q 1516 4384 1395 4259 
Q 1275 4134 1275 3809 
L 1275 3500 
L 2222 3500 
L 2222 3053 
L 1275 3053 
L 1275 0 
L 697 0 
L 697 3053 
L 147 3053 
L 147 3500 
L 697 3500 
L 697 3744 
Q 697 4328 969 4595 
Q 1241 4863 1831 4863 
L 2375 4863 
z
" id="DejaVuSans-66" transform="scale(0.015625)"/>
     </defs>
     <use xlink:href="#DejaVuSans-44"/>
     <use x="77.001953" xlink:href="#DejaVuSans-61"/>
     <use x="138.28125" xlink:href="#DejaVuSans-74"/>
     <use x="177.490234" xlink:href="#DejaVuSans-61"/>
     <use x="238.769531" xlink:href="#DejaVuSans-73"/>
     <use x="290.869141" xlink:href="#DejaVuSans-65"/>
     <use x="352.392578" xlink:href="#DejaVuSans-74"/>
     <use x="391.601562" xlink:href="#DejaVuSans-3a"/>
     <use x="425.292969" xlink:href="#DejaVuSans-20"/>
     <use x="457.080078" xlink:href="#DejaVuSans-63"/>
     <use x="512.060547" xlink:href="#DejaVuSans-69"/>
     <use x="539.84375" xlink:href="#DejaVuSans-66"/>
     <use x="575.048828" xlink:href="#DejaVuSans-61"/>
     <use x="636.328125" xlink:href="#DejaVuSans-72"/>
     <use x="677.441406" xlink:href="#DejaVuSans-31"/>
     <use x="741.064453" xlink:href="#DejaVuSans-30"/>
    </g>
   </g>
  </g>
  <g id="axes_2">
   <g id="patch_7">
    <path d="M 777.59625 484.739875 
L 1400.95625 484.739875 
L 1400.95625 33.259875 
L 777.59625 33.259875 
z
" style="fill:#ffffff;"/>
   </g>
   <g id="PolyCollection_5">
    <path clip-path="url(#pa0fd268c49)" d="M 805.930795 730.541686 
L 805.930795 766.357 
L 812.298109 704.76274 
L 818.665423 619.631825 
L 825.032736 559.125044 
L 831.40005 501.884157 
L 837.767363 421.193123 
L 844.134677 384.395971 
L 850.501991 357.335196 
L 856.869304 352.397979 
L 863.236618 310.77104 
L 869.603931 293.922251 
L 875.971245 286.851329 
L 882.338558 286.568919 
L 888.705872 273.431284 
L 895.073186 247.997687 
L 901.440499 279.598112 
L 907.807813 255.890326 
L 914.175126 244.501008 
L 920.54244 244.273906 
L 926.909754 240.449899 
L 933.277067 231.091887 
L 939.644381 239.668865 
L 946.011694 235.729278 
L 952.379008 228.209607 
L 958.746322 215.609929 
L 965.113635 218.384519 
L 971.480949 215.571529 
L 977.848262 205.794936 
L 984.215576 193.487266 
L 990.582889 209.581772 
L 996.950203 202.867054 
L 1003.317517 201.29784 
L 1009.68483 187.275483 
L 1016.052144 188.927592 
L 1022.419457 181.166428 
L 1028.786771 199.56768 
L 1035.154085 193.178774 
L 1041.521398 182.320857 
L 1047.888712 189.064247 
L 1054.256025 181.624222 
L 1060.623339 183.424176 
L 1066.990652 177.795937 
L 1073.357966 180.886478 
L 1079.72528 180.557895 
L 1086.092593 173.668415 
L 1092.459907 188.286774 
L 1098.82722 172.312034 
L 1105.194534 162.127544 
L 1111.561848 166.11349 
L 1117.929161 169.111525 
L 1124.296475 164.495906 
L 1130.663788 164.268738 
L 1137.031102 163.578225 
L 1143.398415 160.986564 
L 1149.765729 160.520612 
L 1156.133043 164.955256 
L 1162.500356 163.919761 
L 1168.86767 164.301821 
L 1175.234983 170.800492 
L 1181.602297 158.386966 
L 1187.969611 158.979488 
L 1194.336924 163.569709 
L 1200.704238 167.331896 
L 1207.071551 167.594279 
L 1213.438865 155.330116 
L 1219.806178 168.755775 
L 1226.173492 157.469685 
L 1232.540806 151.166563 
L 1238.908119 149.713209 
L 1245.275433 151.015346 
L 1251.642746 150.45368 
L 1258.01006 150.06718 
L 1264.377374 145.059475 
L 1270.744687 147.601531 
L 1277.112001 159.215524 
L 1283.479314 141.19268 
L 1289.846628 137.426684 
L 1296.213942 138.890625 
L 1302.581255 128.262548 
L 1308.948569 135.679788 
L 1315.315882 139.146932 
L 1321.683196 134.251685 
L 1328.050509 133.448079 
L 1334.417823 142.741768 
L 1340.785137 123.596027 
L 1347.15245 136.743915 
L 1353.519764 127.450805 
L 1359.887077 142.036716 
L 1366.254391 141.209387 
L 1372.621705 130.565148 
L 1372.621705 108.35224 
L 1372.621705 108.35224 
L 1366.254391 98.881849 
L 1359.887077 100.582808 
L 1353.519764 101.140232 
L 1347.15245 106.733421 
L 1340.785137 108.294397 
L 1334.417823 106.695104 
L 1328.050509 104.413347 
L 1321.683196 106.8002 
L 1315.315882 111.189675 
L 1308.948569 110.669462 
L 1302.581255 108.555458 
L 1296.213942 109.778731 
L 1289.846628 115.98572 
L 1283.479314 113.187898 
L 1277.112001 113.495142 
L 1270.744687 114.61975 
L 1264.377374 112.346019 
L 1258.01006 118.896202 
L 1251.642746 114.0207 
L 1245.275433 123.044744 
L 1238.908119 115.502889 
L 1232.540806 119.382015 
L 1226.173492 126.753721 
L 1219.806178 115.309613 
L 1213.438865 123.385234 
L 1207.071551 120.471723 
L 1200.704238 135.582782 
L 1194.336924 124.155175 
L 1187.969611 135.507564 
L 1181.602297 132.879528 
L 1175.234983 132.791406 
L 1168.86767 127.235561 
L 1162.500356 125.766553 
L 1156.133043 131.799228 
L 1149.765729 141.197644 
L 1143.398415 130.708836 
L 1137.031102 131.851918 
L 1130.663788 145.553584 
L 1124.296475 136.296816 
L 1117.929161 133.903482 
L 1111.561848 138.245924 
L 1105.194534 153.187784 
L 1098.82722 153.018626 
L 1092.459907 148.601774 
L 1086.092593 141.245598 
L 1079.72528 145.613019 
L 1073.357966 148.755816 
L 1066.990652 151.565436 
L 1060.623339 163.675345 
L 1054.256025 156.551044 
L 1047.888712 159.562781 
L 1041.521398 164.206789 
L 1035.154085 162.629294 
L 1028.786771 167.898605 
L 1022.419457 165.193525 
L 1016.052144 169.629488 
L 1009.68483 162.171734 
L 1003.317517 170.08378 
L 996.950203 164.880152 
L 990.582889 177.107528 
L 984.215576 173.397111 
L 977.848262 185.76784 
L 971.480949 191.973639 
L 965.113635 184.598193 
L 958.746322 192.160979 
L 952.379008 186.210598 
L 946.011694 195.305391 
L 939.644381 208.493379 
L 933.277067 210.497381 
L 926.909754 203.607459 
L 920.54244 221.918514 
L 914.175126 221.804282 
L 907.807813 225.429182 
L 901.440499 229.281742 
L 895.073186 225.456036 
L 888.705872 253.623865 
L 882.338558 239.557471 
L 875.971245 250.697505 
L 869.603931 266.657079 
L 863.236618 266.733774 
L 856.869304 279.239287 
L 850.501991 314.664382 
L 844.134677 334.060899 
L 837.767363 370.644296 
L 831.40005 416.668649 
L 825.032736 484.457623 
L 818.665423 582.969623 
L 812.298109 637.458898 
L 805.930795 730.541686 
z
" style="fill:#00c0c7;fill-opacity:0.1;stroke:#00c0c7;stroke-opacity:0.1;"/>
   </g>
   <g id="PolyCollection_6">
    <path clip-path="url(#pa0fd268c49)" d="M 805.930795 746.672486 
L 805.930795 759.406293 
L 812.298109 756.175173 
L 818.665423 627.586713 
L 825.032736 574.240245 
L 831.40005 530.751433 
L 837.767363 464.796428 
L 844.134677 412.450233 
L 850.501991 372.091318 
L 856.869304 335.995954 
L 863.236618 316.432278 
L 869.603931 291.582868 
L 875.971245 268.862314 
L 882.338558 271.620873 
L 888.705872 268.041514 
L 895.073186 282.551671 
L 901.440499 259.357898 
L 907.807813 255.176532 
L 914.175126 242.040196 
L 920.54244 238.390019 
L 926.909754 237.929151 
L 933.277067 222.231622 
L 939.644381 223.090365 
L 946.011694 217.429 
L 952.379008 219.980537 
L 958.746322 215.280252 
L 965.113635 211.458143 
L 971.480949 214.840898 
L 977.848262 201.714562 
L 984.215576 196.366335 
L 990.582889 202.876685 
L 996.950203 196.117996 
L 1003.317517 199.751564 
L 1009.68483 196.107589 
L 1016.052144 186.669804 
L 1022.419457 197.464661 
L 1028.786771 180.949735 
L 1035.154085 187.590747 
L 1041.521398 179.145317 
L 1047.888712 179.353864 
L 1054.256025 178.428939 
L 1060.623339 181.577838 
L 1066.990652 174.413525 
L 1073.357966 179.010178 
L 1079.72528 174.567804 
L 1086.092593 187.785915 
L 1092.459907 186.245873 
L 1098.82722 173.68799 
L 1105.194534 162.851727 
L 1111.561848 167.946374 
L 1117.929161 162.538952 
L 1124.296475 173.626637 
L 1130.663788 165.999443 
L 1137.031102 175.256652 
L 1143.398415 164.698951 
L 1149.765729 162.979148 
L 1156.133043 158.799429 
L 1162.500356 158.77537 
L 1168.86767 161.486606 
L 1175.234983 156.320801 
L 1181.602297 158.115253 
L 1187.969611 152.735164 
L 1194.336924 162.543371 
L 1200.704238 166.971477 
L 1207.071551 159.148396 
L 1213.438865 159.402644 
L 1219.806178 158.38197 
L 1226.173492 148.864711 
L 1232.540806 154.217274 
L 1238.908119 148.169209 
L 1245.275433 146.883571 
L 1251.642746 148.825582 
L 1258.01006 159.444463 
L 1264.377374 150.006661 
L 1270.744687 147.916897 
L 1277.112001 150.737756 
L 1283.479314 137.622226 
L 1289.846628 146.788098 
L 1296.213942 129.782606 
L 1302.581255 135.975813 
L 1308.948569 143.534019 
L 1315.315882 144.387467 
L 1321.683196 146.874318 
L 1328.050509 137.831507 
L 1334.417823 138.76924 
L 1340.785137 128.98485 
L 1347.15245 136.733686 
L 1353.519764 122.965902 
L 1359.887077 133.849328 
L 1366.254391 138.341649 
L 1372.621705 132.452829 
L 1372.621705 110.76616 
L 1372.621705 110.76616 
L 1366.254391 115.065022 
L 1359.887077 112.219001 
L 1353.519764 115.161396 
L 1347.15245 116.698784 
L 1340.785137 109.137432 
L 1334.417823 110.67014 
L 1328.050509 117.355285 
L 1321.683196 109.08644 
L 1315.315882 120.061115 
L 1308.948569 124.571551 
L 1302.581255 121.113645 
L 1296.213942 116.900238 
L 1289.846628 130.008462 
L 1283.479314 125.201028 
L 1277.112001 125.539602 
L 1270.744687 128.089573 
L 1264.377374 132.842239 
L 1258.01006 132.634695 
L 1251.642746 126.484318 
L 1245.275433 123.564679 
L 1238.908119 125.241251 
L 1232.540806 135.17307 
L 1226.173492 138.135297 
L 1219.806178 134.44213 
L 1213.438865 131.954146 
L 1207.071551 136.823523 
L 1200.704238 138.945543 
L 1194.336924 131.109517 
L 1187.969611 143.798597 
L 1181.602297 135.137753 
L 1175.234983 135.056055 
L 1168.86767 142.127866 
L 1162.500356 141.249836 
L 1156.133043 140.302751 
L 1149.765729 139.416328 
L 1143.398415 138.416385 
L 1137.031102 146.439594 
L 1130.663788 137.93859 
L 1124.296475 152.893995 
L 1117.929161 145.793486 
L 1111.561848 149.415664 
L 1105.194534 151.756283 
L 1098.82722 151.710392 
L 1092.459907 152.807271 
L 1086.092593 161.066853 
L 1079.72528 151.778686 
L 1073.357966 165.034328 
L 1066.990652 148.326141 
L 1060.623339 161.608856 
L 1054.256025 157.421205 
L 1047.888712 160.140727 
L 1041.521398 163.341583 
L 1035.154085 161.09397 
L 1028.786771 157.320844 
L 1022.419457 167.883251 
L 1016.052144 160.831032 
L 1009.68483 174.749812 
L 1003.317517 186.009694 
L 996.950203 176.279454 
L 990.582889 180.642223 
L 984.215576 182.780741 
L 977.848262 186.700395 
L 971.480949 188.505506 
L 965.113635 194.548768 
L 958.746322 196.812323 
L 952.379008 203.549532 
L 946.011694 191.467384 
L 939.644381 200.901216 
L 933.277067 204.729694 
L 926.909754 204.583143 
L 920.54244 196.253624 
L 914.175126 212.190512 
L 907.807813 213.802523 
L 901.440499 237.828624 
L 895.073186 237.931219 
L 888.705872 239.142781 
L 882.338558 248.636277 
L 875.971245 252.388092 
L 869.603931 248.58455 
L 863.236618 286.219972 
L 856.869304 292.405706 
L 850.501991 332.419837 
L 844.134677 362.093353 
L 837.767363 405.377788 
L 831.40005 435.236872 
L 825.032736 534.724251 
L 818.665423 583.547707 
L 812.298109 659.246423 
L 805.930795 746.672486 
z
" style="fill:#5144d3;fill-opacity:0.1;stroke:#5144d3;stroke-opacity:0.1;"/>
   </g>
   <g id="PolyCollection_7">
    <path clip-path="url(#pa0fd268c49)" d="M 805.930795 721.54971 
L 805.930795 764.212469 
L 812.298109 714.298656 
L 818.665423 626.271573 
L 825.032736 567.712365 
L 831.40005 526.098002 
L 837.767363 454.673267 
L 844.134677 466.385748 
L 850.501991 413.560736 
L 856.869304 371.124947 
L 863.236618 363.803387 
L 869.603931 333.791791 
L 875.971245 319.865558 
L 882.338558 327.884708 
L 888.705872 282.303586 
L 895.073186 272.335682 
L 901.440499 294.443284 
L 907.807813 267.545311 
L 914.175126 265.212013 
L 920.54244 245.715763 
L 926.909754 244.837067 
L 933.277067 237.208909 
L 939.644381 238.283057 
L 946.011694 241.360547 
L 952.379008 227.129436 
L 958.746322 224.98078 
L 965.113635 220.295965 
L 971.480949 220.363533 
L 977.848262 219.499808 
L 984.215576 208.43508 
L 990.582889 211.511235 
L 996.950203 224.541927 
L 1003.317517 199.977702 
L 1009.68483 203.928745 
L 1016.052144 193.729881 
L 1022.419457 189.812402 
L 1028.786771 194.314806 
L 1035.154085 198.801863 
L 1041.521398 186.20571 
L 1047.888712 199.089279 
L 1054.256025 181.920985 
L 1060.623339 186.560309 
L 1066.990652 181.433112 
L 1073.357966 172.349339 
L 1079.72528 186.525653 
L 1086.092593 176.482386 
L 1092.459907 183.321198 
L 1098.82722 184.25596 
L 1105.194534 183.127301 
L 1111.561848 180.319469 
L 1117.929161 170.700555 
L 1124.296475 172.28889 
L 1130.663788 172.551461 
L 1137.031102 168.197233 
L 1143.398415 164.199079 
L 1149.765729 161.005325 
L 1156.133043 165.741748 
L 1162.500356 172.20725 
L 1168.86767 168.226673 
L 1175.234983 155.641379 
L 1181.602297 164.719838 
L 1187.969611 163.59684 
L 1194.336924 160.390406 
L 1200.704238 162.829023 
L 1207.071551 152.172903 
L 1213.438865 161.500968 
L 1219.806178 163.424246 
L 1226.173492 152.175349 
L 1232.540806 155.926595 
L 1238.908119 155.877843 
L 1245.275433 155.463521 
L 1251.642746 146.203553 
L 1258.01006 159.009682 
L 1264.377374 151.998339 
L 1270.744687 153.63436 
L 1277.112001 147.438333 
L 1283.479314 155.901317 
L 1289.846628 137.688373 
L 1296.213942 144.683501 
L 1302.581255 140.612501 
L 1308.948569 142.580856 
L 1315.315882 138.258273 
L 1321.683196 135.5066 
L 1328.050509 137.626918 
L 1334.417823 138.839543 
L 1340.785137 134.492398 
L 1347.15245 140.550058 
L 1353.519764 132.828138 
L 1359.887077 147.459267 
L 1366.254391 159.700859 
L 1372.621705 140.915778 
L 1372.621705 113.660442 
L 1372.621705 113.660442 
L 1366.254391 117.434311 
L 1359.887077 116.334669 
L 1353.519764 117.9406 
L 1347.15245 126.346549 
L 1340.785137 119.401585 
L 1334.417823 122.448679 
L 1328.050509 117.679194 
L 1321.683196 119.61892 
L 1315.315882 120.511694 
L 1308.948569 116.833724 
L 1302.581255 126.183777 
L 1296.213942 132.993445 
L 1289.846628 124.728549 
L 1283.479314 123.807289 
L 1277.112001 128.588203 
L 1270.744687 126.835312 
L 1264.377374 130.188391 
L 1258.01006 132.398706 
L 1251.642746 127.415089 
L 1245.275433 130.814119 
L 1238.908119 133.151317 
L 1232.540806 130.260749 
L 1226.173492 136.743449 
L 1219.806178 138.146025 
L 1213.438865 135.160712 
L 1207.071551 136.091249 
L 1200.704238 133.652065 
L 1194.336924 126.913097 
L 1187.969611 141.330149 
L 1181.602297 141.846812 
L 1175.234983 136.121743 
L 1168.86767 145.202472 
L 1162.500356 149.556718 
L 1156.133043 143.290484 
L 1149.765729 139.087603 
L 1143.398415 140.962966 
L 1137.031102 145.417521 
L 1130.663788 142.327437 
L 1124.296475 151.484164 
L 1117.929161 148.264237 
L 1111.561848 145.59059 
L 1105.194534 158.343769 
L 1098.82722 153.372513 
L 1092.459907 164.922072 
L 1086.092593 158.351928 
L 1079.72528 158.308943 
L 1073.357966 152.146083 
L 1066.990652 161.392398 
L 1060.623339 162.06421 
L 1054.256025 166.904193 
L 1047.888712 160.892471 
L 1041.521398 160.592824 
L 1035.154085 162.183176 
L 1028.786771 174.403082 
L 1022.419457 167.540731 
L 1016.052144 177.603366 
L 1009.68483 169.697734 
L 1003.317517 177.882656 
L 996.950203 184.989753 
L 990.582889 176.582669 
L 984.215576 185.497966 
L 977.848262 191.115424 
L 971.480949 185.014531 
L 965.113635 186.436539 
L 958.746322 197.606196 
L 952.379008 201.409552 
L 946.011694 193.341143 
L 939.644381 202.603909 
L 933.277067 216.026035 
L 926.909754 217.460084 
L 920.54244 219.822011 
L 914.175126 224.592811 
L 907.807813 236.752021 
L 901.440499 219.382785 
L 895.073186 234.512512 
L 888.705872 255.721811 
L 882.338558 271.802823 
L 875.971245 264.359858 
L 869.603931 298.823681 
L 863.236618 305.690477 
L 856.869304 339.78719 
L 850.501991 381.627668 
L 844.134677 397.425108 
L 837.767363 430.221705 
L 831.40005 468.258296 
L 825.032736 498.022921 
L 818.665423 588.474687 
L 812.298109 625.294365 
L 805.930795 721.54971 
z
" style="fill:#da3490;fill-opacity:0.1;stroke:#da3490;stroke-opacity:0.1;"/>
   </g>
   <g id="PolyCollection_8">
    <path clip-path="url(#pa0fd268c49)" d="M 805.930795 738.212439 
L 805.930795 766.963381 
L 812.298109 748.629368 
L 818.665423 718.184815 
L 825.032736 605.109004 
L 831.40005 561.039015 
L 837.767363 482.609928 
L 844.134677 444.611373 
L 850.501991 416.917637 
L 856.869304 413.653722 
L 863.236618 382.968728 
L 869.603931 346.667013 
L 875.971245 357.080161 
L 882.338558 324.236318 
L 888.705872 323.703869 
L 895.073186 320.622907 
L 901.440499 290.536491 
L 907.807813 275.906794 
L 914.175126 260.770596 
L 920.54244 303.234231 
L 926.909754 244.885029 
L 933.277067 255.04364 
L 939.644381 254.842137 
L 946.011694 249.221737 
L 952.379008 238.587555 
L 958.746322 235.035033 
L 965.113635 231.434655 
L 971.480949 232.422746 
L 977.848262 228.950534 
L 984.215576 220.038863 
L 990.582889 216.39772 
L 996.950203 233.583611 
L 1003.317517 226.97971 
L 1009.68483 213.1352 
L 1016.052144 216.758798 
L 1022.419457 204.47078 
L 1028.786771 218.032833 
L 1035.154085 201.478664 
L 1041.521398 198.28771 
L 1047.888712 204.133376 
L 1054.256025 199.601385 
L 1060.623339 190.153948 
L 1066.990652 199.969854 
L 1073.357966 192.197868 
L 1079.72528 189.75702 
L 1086.092593 199.838995 
L 1092.459907 183.078907 
L 1098.82722 173.508332 
L 1105.194534 189.855583 
L 1111.561848 184.311372 
L 1117.929161 202.015155 
L 1124.296475 176.844873 
L 1130.663788 180.795042 
L 1137.031102 185.652301 
L 1143.398415 169.851027 
L 1149.765729 178.977989 
L 1156.133043 180.098637 
L 1162.500356 166.589734 
L 1168.86767 177.438489 
L 1175.234983 180.648011 
L 1181.602297 167.087107 
L 1187.969611 166.370661 
L 1194.336924 167.032027 
L 1200.704238 155.966459 
L 1207.071551 159.583757 
L 1213.438865 153.094294 
L 1219.806178 157.617997 
L 1226.173492 154.6095 
L 1232.540806 151.920706 
L 1238.908119 151.133222 
L 1245.275433 151.942565 
L 1251.642746 162.400175 
L 1258.01006 149.318496 
L 1264.377374 156.532579 
L 1270.744687 148.205034 
L 1277.112001 166.38308 
L 1283.479314 162.051485 
L 1289.846628 147.761436 
L 1296.213942 155.669442 
L 1302.581255 145.347644 
L 1308.948569 147.313998 
L 1315.315882 152.752364 
L 1321.683196 143.986292 
L 1328.050509 145.58035 
L 1334.417823 143.592133 
L 1340.785137 140.322016 
L 1347.15245 151.01666 
L 1353.519764 152.037222 
L 1359.887077 148.71105 
L 1366.254391 145.10092 
L 1372.621705 136.619914 
L 1372.621705 104.790289 
L 1372.621705 104.790289 
L 1366.254391 103.207252 
L 1359.887077 117.764175 
L 1353.519764 112.840266 
L 1347.15245 115.341038 
L 1340.785137 112.849599 
L 1334.417823 105.393259 
L 1328.050509 112.166262 
L 1321.683196 113.70299 
L 1315.315882 114.314802 
L 1308.948569 122.130963 
L 1302.581255 114.066936 
L 1296.213942 112.230454 
L 1289.846628 122.46609 
L 1283.479314 123.285571 
L 1277.112001 135.786656 
L 1270.744687 116.103088 
L 1264.377374 128.458343 
L 1258.01006 124.98525 
L 1251.642746 116.631211 
L 1245.275433 128.157324 
L 1238.908119 123.541382 
L 1232.540806 131.008457 
L 1226.173492 132.387283 
L 1219.806178 135.0832 
L 1213.438865 134.650656 
L 1207.071551 135.344742 
L 1200.704238 127.341088 
L 1194.336924 136.582445 
L 1187.969611 139.410915 
L 1181.602297 129.085469 
L 1175.234983 146.488569 
L 1168.86767 134.686381 
L 1162.500356 135.038226 
L 1156.133043 151.229183 
L 1149.765729 138.767807 
L 1143.398415 144.581408 
L 1137.031102 149.701215 
L 1130.663788 146.793018 
L 1124.296475 149.004989 
L 1117.929161 149.591641 
L 1111.561848 157.149665 
L 1105.194534 143.346953 
L 1098.82722 154.127384 
L 1092.459907 149.323865 
L 1086.092593 154.566977 
L 1079.72528 150.449906 
L 1073.357966 154.299679 
L 1066.990652 163.726931 
L 1060.623339 152.189983 
L 1054.256025 167.739489 
L 1047.888712 168.449683 
L 1041.521398 173.838852 
L 1035.154085 154.168878 
L 1028.786771 177.502967 
L 1022.419457 166.828068 
L 1016.052144 173.763066 
L 1009.68483 179.740093 
L 1003.317517 185.102832 
L 996.950203 181.636717 
L 990.582889 181.714741 
L 984.215576 186.936938 
L 977.848262 178.45919 
L 971.480949 199.818378 
L 965.113635 190.828761 
L 958.746322 194.474637 
L 952.379008 205.70486 
L 946.011694 207.075746 
L 939.644381 219.480147 
L 933.277067 209.862062 
L 926.909754 217.182798 
L 920.54244 224.979 
L 914.175126 232.14944 
L 907.807813 228.608753 
L 901.440499 245.135476 
L 895.073186 250.029444 
L 888.705872 260.866607 
L 882.338558 290.239691 
L 875.971245 300.878389 
L 869.603931 296.505567 
L 863.236618 322.372648 
L 856.869304 342.288887 
L 850.501991 362.378671 
L 844.134677 399.537529 
L 837.767363 415.535982 
L 831.40005 470.1774 
L 825.032736 527.385125 
L 818.665423 611.530827 
L 812.298109 676.082683 
L 805.930795 738.212439 
z
" style="fill:#9089fa;fill-opacity:0.1;stroke:#9089fa;stroke-opacity:0.1;"/>
   </g>
   <g id="matplotlib.axis_3">
    <g id="xtick_6">
     <g id="line2d_17">
      <g>
       <use style="stroke:#000000;stroke-width:0.8;" x="805.930795" xlink:href="#m7bd2922aff" y="484.739875"/>
      </g>
     </g>
     <g id="text_16">
      <!-- 0 -->
      <g transform="translate(798.932045 508.456438)scale(0.22 -0.22)">
       <use xlink:href="#DejaVuSans-30"/>
      </g>
     </g>
    </g>
    <g id="xtick_7">
     <g id="line2d_18">
      <g>
       <use style="stroke:#000000;stroke-width:0.8;" x="933.277067" xlink:href="#m7bd2922aff" y="484.739875"/>
      </g>
     </g>
     <g id="text_17">
      <!-- 20 -->
      <g transform="translate(919.279567 508.456438)scale(0.22 -0.22)">
       <use xlink:href="#DejaVuSans-32"/>
       <use x="63.623047" xlink:href="#DejaVuSans-30"/>
      </g>
     </g>
    </g>
    <g id="xtick_8">
     <g id="line2d_19">
      <g>
       <use style="stroke:#000000;stroke-width:0.8;" x="1060.623339" xlink:href="#m7bd2922aff" y="484.739875"/>
      </g>
     </g>
     <g id="text_18">
      <!-- 40 -->
      <g transform="translate(1046.625839 508.456438)scale(0.22 -0.22)">
       <use xlink:href="#DejaVuSans-34"/>
       <use x="63.623047" xlink:href="#DejaVuSans-30"/>
      </g>
     </g>
    </g>
    <g id="xtick_9">
     <g id="line2d_20">
      <g>
       <use style="stroke:#000000;stroke-width:0.8;" x="1187.969611" xlink:href="#m7bd2922aff" y="484.739875"/>
      </g>
     </g>
     <g id="text_19">
      <!-- 60 -->
      <g transform="translate(1173.972111 508.456438)scale(0.22 -0.22)">
       <use xlink:href="#DejaVuSans-36"/>
       <use x="63.623047" xlink:href="#DejaVuSans-30"/>
      </g>
     </g>
    </g>
    <g id="xtick_10">
     <g id="line2d_21">
      <g>
       <use style="stroke:#000000;stroke-width:0.8;" x="1315.315882" xlink:href="#m7bd2922aff" y="484.739875"/>
      </g>
     </g>
     <g id="text_20">
      <!-- 80 -->
      <g transform="translate(1301.318382 508.456438)scale(0.22 -0.22)">
       <use xlink:href="#DejaVuSans-38"/>
       <use x="63.623047" xlink:href="#DejaVuSans-30"/>
      </g>
     </g>
    </g>
    <g id="text_21">
     <!-- Time in seconds -->
     <g transform="translate(1000.380781 533.748312)scale(0.22 -0.22)">
      <use xlink:href="#DejaVuSans-54"/>
      <use x="57.958984" xlink:href="#DejaVuSans-69"/>
      <use x="85.742188" xlink:href="#DejaVuSans-6d"/>
      <use x="183.154297" xlink:href="#DejaVuSans-65"/>
      <use x="244.677734" xlink:href="#DejaVuSans-20"/>
      <use x="276.464844" xlink:href="#DejaVuSans-69"/>
      <use x="304.248047" xlink:href="#DejaVuSans-6e"/>
      <use x="367.626953" xlink:href="#DejaVuSans-20"/>
      <use x="399.414062" xlink:href="#DejaVuSans-73"/>
      <use x="451.513672" xlink:href="#DejaVuSans-65"/>
      <use x="513.037109" xlink:href="#DejaVuSans-63"/>
      <use x="568.017578" xlink:href="#DejaVuSans-6f"/>
      <use x="629.199219" xlink:href="#DejaVuSans-6e"/>
      <use x="692.578125" xlink:href="#DejaVuSans-64"/>
      <use x="756.054688" xlink:href="#DejaVuSans-73"/>
     </g>
    </g>
   </g>
   <g id="matplotlib.axis_4">
    <g id="ytick_8">
     <g id="line2d_22">
      <g>
       <use style="stroke:#000000;stroke-width:0.8;" x="777.59625" xlink:href="#m06a1b2b535" y="484.739875"/>
      </g>
     </g>
     <g id="text_22">
      <!-- 0.4 -->
      <g transform="translate(735.609375 493.098156)scale(0.22 -0.22)">
       <use xlink:href="#DejaVuSans-30"/>
       <use x="63.623047" xlink:href="#DejaVuSans-2e"/>
       <use x="95.410156" xlink:href="#DejaVuSans-34"/>
      </g>
     </g>
    </g>
    <g id="ytick_9">
     <g id="line2d_23">
      <g>
       <use style="stroke:#000000;stroke-width:0.8;" x="777.59625" xlink:href="#m06a1b2b535" y="394.443875"/>
      </g>
     </g>
     <g id="text_23">
      <!-- 0.5 -->
      <g transform="translate(735.609375 402.802156)scale(0.22 -0.22)">
       <use xlink:href="#DejaVuSans-30"/>
       <use x="63.623047" xlink:href="#DejaVuSans-2e"/>
       <use x="95.410156" xlink:href="#DejaVuSans-35"/>
      </g>
     </g>
    </g>
    <g id="ytick_10">
     <g id="line2d_24">
      <g>
       <use style="stroke:#000000;stroke-width:0.8;" x="777.59625" xlink:href="#m06a1b2b535" y="304.147875"/>
      </g>
     </g>
     <g id="text_24">
      <!-- 0.6 -->
      <g transform="translate(735.609375 312.506156)scale(0.22 -0.22)">
       <use xlink:href="#DejaVuSans-30"/>
       <use x="63.623047" xlink:href="#DejaVuSans-2e"/>
       <use x="95.410156" xlink:href="#DejaVuSans-36"/>
      </g>
     </g>
    </g>
    <g id="ytick_11">
     <g id="line2d_25">
      <g>
       <use style="stroke:#000000;stroke-width:0.8;" x="777.59625" xlink:href="#m06a1b2b535" y="213.851875"/>
      </g>
     </g>
     <g id="text_25">
      <!-- 0.7 -->
      <g transform="translate(735.609375 222.210156)scale(0.22 -0.22)">
       <defs>
        <path d="M 525 4666 
L 3525 4666 
L 3525 4397 
L 1831 0 
L 1172 0 
L 2766 4134 
L 525 4134 
L 525 4666 
z
" id="DejaVuSans-37" transform="scale(0.015625)"/>
       </defs>
       <use xlink:href="#DejaVuSans-30"/>
       <use x="63.623047" xlink:href="#DejaVuSans-2e"/>
       <use x="95.410156" xlink:href="#DejaVuSans-37"/>
      </g>
     </g>
    </g>
    <g id="ytick_12">
     <g id="line2d_26">
      <g>
       <use style="stroke:#000000;stroke-width:0.8;" x="777.59625" xlink:href="#m06a1b2b535" y="123.555875"/>
      </g>
     </g>
     <g id="text_26">
      <!-- 0.8 -->
      <g transform="translate(735.609375 131.914156)scale(0.22 -0.22)">
       <use xlink:href="#DejaVuSans-30"/>
       <use x="63.623047" xlink:href="#DejaVuSans-2e"/>
       <use x="95.410156" xlink:href="#DejaVuSans-38"/>
      </g>
     </g>
    </g>
    <g id="ytick_13">
     <g id="line2d_27">
      <g>
       <use style="stroke:#000000;stroke-width:0.8;" x="777.59625" xlink:href="#m06a1b2b535" y="33.259875"/>
      </g>
     </g>
     <g id="text_27">
      <!-- 0.9 -->
      <g transform="translate(735.609375 41.618156)scale(0.22 -0.22)">
       <defs>
        <path d="M 703 97 
L 703 672 
Q 941 559 1184 500 
Q 1428 441 1663 441 
Q 2288 441 2617 861 
Q 2947 1281 2994 2138 
Q 2813 1869 2534 1725 
Q 2256 1581 1919 1581 
Q 1219 1581 811 2004 
Q 403 2428 403 3163 
Q 403 3881 828 4315 
Q 1253 4750 1959 4750 
Q 2769 4750 3195 4129 
Q 3622 3509 3622 2328 
Q 3622 1225 3098 567 
Q 2575 -91 1691 -91 
Q 1453 -91 1209 -44 
Q 966 3 703 97 
z
M 1959 2075 
Q 2384 2075 2632 2365 
Q 2881 2656 2881 3163 
Q 2881 3666 2632 3958 
Q 2384 4250 1959 4250 
Q 1534 4250 1286 3958 
Q 1038 3666 1038 3163 
Q 1038 2656 1286 2365 
Q 1534 2075 1959 2075 
z
" id="DejaVuSans-39" transform="scale(0.015625)"/>
       </defs>
       <use xlink:href="#DejaVuSans-30"/>
       <use x="63.623047" xlink:href="#DejaVuSans-2e"/>
       <use x="95.410156" xlink:href="#DejaVuSans-39"/>
      </g>
     </g>
    </g>
   </g>
   <g id="line2d_28">
    <path clip-path="url(#pa0fd268c49)" d="M 823.052112 546.523625 
L 825.032736 521.791334 
L 831.40005 459.276403 
L 837.767363 395.91871 
L 844.134677 359.228435 
L 850.501991 335.999789 
L 856.869304 315.818633 
L 863.236618 288.752407 
L 869.603931 280.289665 
L 875.971245 268.774417 
L 882.338558 263.063195 
L 888.705872 263.527574 
L 895.073186 236.726862 
L 901.440499 254.439927 
L 907.807813 240.659754 
L 914.175126 233.152645 
L 920.54244 233.09621 
L 926.909754 222.028679 
L 933.277067 220.794634 
L 939.644381 224.081122 
L 946.011694 215.517335 
L 952.379008 207.210103 
L 958.746322 203.885454 
L 965.113635 201.491356 
L 971.480949 203.772584 
L 977.848262 195.781388 
L 984.215576 183.442189 
L 990.582889 193.34465 
L 996.950203 183.873603 
L 1003.317517 185.69081 
L 1009.68483 174.723608 
L 1016.052144 179.27854 
L 1022.419457 173.179977 
L 1028.786771 183.733143 
L 1035.154085 177.904034 
L 1041.521398 173.263823 
L 1047.888712 174.313514 
L 1054.256025 169.087633 
L 1060.623339 173.54976 
L 1066.990652 164.680687 
L 1073.357966 164.821147 
L 1079.72528 163.085457 
L 1086.092593 157.457007 
L 1092.459907 168.444274 
L 1098.82722 162.66533 
L 1105.194534 157.657664 
L 1111.561848 152.179707 
L 1117.929161 151.507503 
L 1124.296475 150.396361 
L 1130.663788 154.911161 
L 1137.031102 147.715071 
L 1143.398415 145.8477 
L 1149.765729 150.859128 
L 1156.133043 148.377242 
L 1162.500356 144.843157 
L 1168.86767 145.768691 
L 1175.234983 151.795949 
L 1181.602297 145.633247 
L 1187.969611 147.243526 
L 1194.336924 143.862442 
L 1200.704238 151.457339 
L 1207.071551 144.033001 
L 1213.438865 139.357675 
L 1219.806178 142.032694 
L 1226.173492 142.111703 
L 1232.540806 135.274289 
L 1238.908119 132.608049 
L 1245.275433 137.030045 
L 1251.642746 132.23719 
L 1258.01006 134.481691 
L 1264.377374 128.702747 
L 1270.744687 131.11064 
L 1277.112001 136.355333 
L 1283.479314 127.190289 
L 1289.846628 126.706202 
L 1296.213942 124.334678 
L 1302.581255 118.409003 
L 1308.948569 123.174625 
L 1315.315882 125.168304 
L 1321.683196 120.525943 
L 1328.050509 118.930713 
L 1334.417823 124.718436 
L 1340.785137 115.945212 
L 1347.15245 121.738668 
L 1353.519764 114.295519 
L 1359.887077 121.309762 
L 1366.254391 120.045618 
L 1372.621705 119.458694 
" style="fill:none;stroke:#00c0c7;stroke-linecap:square;stroke-width:1.5;"/>
   </g>
   <g id="line2d_29">
    <path clip-path="url(#pa0fd268c49)" d="M 825.741596 546.523625 
L 831.40005 482.994152 
L 837.767363 435.087108 
L 844.134677 387.271793 
L 850.501991 352.255577 
L 856.869304 314.20083 
L 863.236618 301.326125 
L 869.603931 270.083709 
L 875.971245 260.625203 
L 882.338558 260.128575 
L 888.705872 253.592148 
L 895.073186 260.241445 
L 901.440499 248.593261 
L 907.807813 234.489527 
L 914.175126 227.115354 
L 920.54244 217.321821 
L 926.909754 221.256147 
L 933.277067 213.480658 
L 939.644381 211.995791 
L 946.011694 204.448192 
L 952.379008 211.765034 
L 958.746322 206.046287 
L 965.113635 203.003456 
L 971.480949 201.673202 
L 977.848262 194.207479 
L 984.215576 189.573538 
L 990.582889 191.759454 
L 996.950203 186.198725 
L 1003.317517 192.880629 
L 1009.68483 185.428701 
L 1016.052144 173.750418 
L 1022.419457 182.673956 
L 1028.786771 169.135289 
L 1035.154085 174.342359 
L 1041.521398 171.24345 
L 1047.888712 169.747295 
L 1054.256025 167.925072 
L 1060.623339 171.593347 
L 1066.990652 161.369833 
L 1073.357966 172.022253 
L 1079.72528 163.173245 
L 1086.092593 174.426384 
L 1092.459907 169.526572 
L 1098.82722 162.699191 
L 1105.194534 157.304005 
L 1111.561848 158.681019 
L 1117.929161 154.166219 
L 1124.296475 163.260316 
L 1130.663788 151.969016 
L 1137.031102 160.848123 
L 1143.398415 151.557668 
L 1149.765729 151.197738 
L 1156.133043 149.55109 
L 1162.500356 150.012603 
L 1168.86767 151.807236 
L 1175.234983 145.688428 
L 1181.602297 146.626503 
L 1187.969611 148.26688 
L 1194.336924 146.826444 
L 1200.704238 152.95851 
L 1207.071551 147.985959 
L 1213.438865 145.678395 
L 1219.806178 146.41205 
L 1226.173492 143.500004 
L 1232.540806 144.695172 
L 1238.908119 136.70523 
L 1245.275433 135.224125 
L 1251.642746 137.65495 
L 1258.01006 146.039579 
L 1264.377374 141.42445 
L 1270.744687 138.003235 
L 1277.112001 138.138679 
L 1283.479314 131.411627 
L 1289.846628 138.39828 
L 1296.213942 123.341422 
L 1302.581255 128.544729 
L 1308.948569 134.052785 
L 1315.315882 132.224291 
L 1321.683196 127.980379 
L 1328.050509 127.593396 
L 1334.417823 124.71969 
L 1340.785137 119.061141 
L 1347.15245 126.716235 
L 1353.519764 119.063649 
L 1359.887077 123.034165 
L 1366.254391 126.703336 
L 1372.621705 121.609495 
" style="fill:none;stroke:#5144d3;stroke-linecap:square;stroke-width:1.5;"/>
   </g>
   <g id="line2d_30">
    <path clip-path="url(#pa0fd268c49)" d="M 823.865682 546.523625 
L 825.032736 532.867643 
L 831.40005 497.178149 
L 837.767363 442.447486 
L 844.134677 431.905428 
L 850.501991 397.594202 
L 856.869304 355.456069 
L 863.236618 334.746932 
L 869.603931 316.307736 
L 875.971245 292.112708 
L 882.338558 299.843766 
L 888.705872 269.012698 
L 895.073186 253.424097 
L 901.440499 256.913034 
L 907.807813 252.148666 
L 914.175126 244.902412 
L 920.54244 232.768887 
L 926.909754 231.148575 
L 933.277067 226.617472 
L 939.644381 220.443483 
L 946.011694 217.350845 
L 952.379008 214.269494 
L 958.746322 211.293488 
L 965.113635 203.366252 
L 971.480949 202.689032 
L 977.848262 205.307616 
L 984.215576 196.966523 
L 990.582889 194.046952 
L 996.950203 204.76584 
L 1003.317517 188.930179 
L 1009.68483 186.813239 
L 1016.052144 185.666624 
L 1022.419457 178.676567 
L 1028.786771 184.358944 
L 1035.154085 180.492519 
L 1041.521398 173.399267 
L 1047.888712 179.990875 
L 1054.256025 174.412589 
L 1060.623339 174.31226 
L 1066.990652 171.412755 
L 1073.357966 162.247711 
L 1079.72528 172.417298 
L 1086.092593 167.417157 
L 1092.459907 174.121635 
L 1098.82722 168.814237 
L 1105.194534 170.735535 
L 1111.561848 162.95503 
L 1117.929161 159.482396 
L 1124.296475 161.886527 
L 1130.663788 157.439449 
L 1137.031102 156.807377 
L 1143.398415 152.581023 
L 1149.765729 150.046464 
L 1156.133043 154.516116 
L 1162.500356 160.881984 
L 1168.86767 156.714573 
L 1175.234983 145.881561 
L 1181.602297 153.283325 
L 1187.969611 152.463494 
L 1194.336924 143.651751 
L 1200.704238 148.240544 
L 1207.071551 144.132076 
L 1213.438865 148.33084 
L 1219.806178 150.785135 
L 1226.173492 144.459399 
L 1232.540806 143.093672 
L 1238.908119 144.51458 
L 1245.275433 143.13882 
L 1251.642746 136.809321 
L 1258.01006 145.704194 
L 1264.377374 141.093365 
L 1270.744687 140.234836 
L 1277.112001 138.013268 
L 1283.479314 139.854303 
L 1289.846628 131.208461 
L 1296.213942 138.838473 
L 1302.581255 133.398139 
L 1308.948569 129.70729 
L 1315.315882 129.384983 
L 1321.683196 127.56276 
L 1328.050509 127.653056 
L 1334.417823 130.644111 
L 1340.785137 126.946991 
L 1347.15245 133.448303 
L 1353.519764 125.384369 
L 1359.887077 131.896968 
L 1366.254391 138.567585 
L 1372.621705 127.28811 
" style="fill:none;stroke:#da3490;stroke-linecap:square;stroke-width:1.5;"/>
   </g>
   <g id="line2d_31">
    <path clip-path="url(#pa0fd268c49)" d="M 827.512755 546.523625 
L 831.40005 515.608208 
L 837.767363 449.072955 
L 844.134677 422.074451 
L 850.501991 389.648154 
L 856.869304 377.971305 
L 863.236618 352.670688 
L 869.603931 321.58629 
L 875.971245 328.979275 
L 882.338558 307.238005 
L 888.705872 292.285238 
L 895.073186 285.326175 
L 901.440499 267.835984 
L 907.807813 252.257774 
L 914.175126 246.460018 
L 920.54244 264.106615 
L 926.909754 231.033914 
L 933.277067 232.452851 
L 939.644381 237.161142 
L 946.011694 228.148742 
L 952.379008 222.146208 
L 958.746322 214.754835 
L 965.113635 211.131708 
L 971.480949 216.120562 
L 977.848262 203.704862 
L 984.215576 203.487901 
L 990.582889 199.05623 
L 996.950203 207.610164 
L 1003.317517 206.041271 
L 1009.68483 196.437646 
L 1016.052144 195.260932 
L 1022.419457 185.649424 
L 1028.786771 197.7679 
L 1035.154085 177.823771 
L 1041.521398 186.063281 
L 1047.888712 186.291529 
L 1054.256025 183.670437 
L 1060.623339 171.171966 
L 1066.990652 181.848393 
L 1073.357966 173.248774 
L 1079.72528 170.103463 
L 1086.092593 177.202986 
L 1092.459907 166.201386 
L 1098.82722 163.817858 
L 1105.194534 166.601268 
L 1111.561848 170.730519 
L 1117.929161 175.803398 
L 1124.296475 162.924931 
L 1130.663788 163.79403 
L 1137.031102 167.676758 
L 1143.398415 157.216217 
L 1149.765729 158.872898 
L 1156.133043 165.66391 
L 1162.500356 150.81398 
L 1168.86767 156.062435 
L 1175.234983 163.56829 
L 1181.602297 148.086288 
L 1187.969611 152.890788 
L 1194.336924 151.807236 
L 1200.704238 141.653773 
L 1207.071551 147.464249 
L 1213.438865 143.872475 
L 1219.806178 146.350599 
L 1226.173492 143.498392 
L 1232.540806 141.464582 
L 1238.908119 137.337302 
L 1245.275433 140.049944 
L 1251.642746 139.515693 
L 1258.01006 137.151873 
L 1264.377374 142.495461 
L 1270.744687 132.154061 
L 1277.112001 151.084868 
L 1283.479314 142.668528 
L 1289.846628 135.113763 
L 1296.213942 133.949948 
L 1302.581255 129.70729 
L 1308.948569 134.72248 
L 1315.315882 133.533583 
L 1321.683196 128.844641 
L 1328.050509 128.873306 
L 1334.417823 124.492696 
L 1340.785137 126.585807 
L 1347.15245 133.178849 
L 1353.519764 132.438744 
L 1359.887077 133.237613 
L 1366.254391 124.154086 
L 1372.621705 120.705101 
" style="fill:none;stroke:#9089fa;stroke-linecap:square;stroke-width:1.5;"/>
   </g>
   <g id="patch_8">
    <path d="M 777.59625 484.739875 
L 777.59625 33.259875 
" style="fill:none;stroke:#000000;stroke-linecap:square;stroke-linejoin:miter;stroke-width:0.8;"/>
   </g>
   <g id="patch_9">
    <path d="M 1400.95625 484.739875 
L 1400.95625 33.259875 
" style="fill:none;stroke:#000000;stroke-linecap:square;stroke-linejoin:miter;stroke-width:0.8;"/>
   </g>
   <g id="patch_10">
    <path d="M 777.59625 484.739875 
L 1400.95625 484.739875 
" style="fill:none;stroke:#000000;stroke-linecap:square;stroke-linejoin:miter;stroke-width:0.8;"/>
   </g>
   <g id="patch_11">
    <path d="M 777.59625 33.259875 
L 1400.95625 33.259875 
" style="fill:none;stroke:#000000;stroke-linecap:square;stroke-linejoin:miter;stroke-width:0.8;"/>
   </g>
   <g id="text_28">
    <!-- Dataset: fashionmnist -->
    <g transform="translate(943.915375 27.259875)scale(0.264 -0.264)">
     <defs>
      <path d="M 3513 2113 
L 3513 0 
L 2938 0 
L 2938 2094 
Q 2938 2591 2744 2837 
Q 2550 3084 2163 3084 
Q 1697 3084 1428 2787 
Q 1159 2491 1159 1978 
L 1159 0 
L 581 0 
L 581 4863 
L 1159 4863 
L 1159 2956 
Q 1366 3272 1645 3428 
Q 1925 3584 2291 3584 
Q 2894 3584 3203 3211 
Q 3513 2838 3513 2113 
z
" id="DejaVuSans-68" transform="scale(0.015625)"/>
     </defs>
     <use xlink:href="#DejaVuSans-44"/>
     <use x="77.001953" xlink:href="#DejaVuSans-61"/>
     <use x="138.28125" xlink:href="#DejaVuSans-74"/>
     <use x="177.490234" xlink:href="#DejaVuSans-61"/>
     <use x="238.769531" xlink:href="#DejaVuSans-73"/>
     <use x="290.869141" xlink:href="#DejaVuSans-65"/>
     <use x="352.392578" xlink:href="#DejaVuSans-74"/>
     <use x="391.601562" xlink:href="#DejaVuSans-3a"/>
     <use x="425.292969" xlink:href="#DejaVuSans-20"/>
     <use x="457.080078" xlink:href="#DejaVuSans-66"/>
     <use x="492.285156" xlink:href="#DejaVuSans-61"/>
     <use x="553.564453" xlink:href="#DejaVuSans-73"/>
     <use x="605.664062" xlink:href="#DejaVuSans-68"/>
     <use x="669.042969" xlink:href="#DejaVuSans-69"/>
     <use x="696.826172" xlink:href="#DejaVuSans-6f"/>
     <use x="758.007812" xlink:href="#DejaVuSans-6e"/>
     <use x="821.386719" xlink:href="#DejaVuSans-6d"/>
     <use x="918.798828" xlink:href="#DejaVuSans-6e"/>
     <use x="982.177734" xlink:href="#DejaVuSans-69"/>
     <use x="1009.960938" xlink:href="#DejaVuSans-73"/>
     <use x="1062.060547" xlink:href="#DejaVuSans-74"/>
    </g>
   </g>
  </g>
  <g id="legend_1">
   <g id="patch_12">
    <path d="M 1226.882812 462.099875 
L 1370.43625 462.099875 
Q 1374.83625 462.099875 1374.83625 457.699875 
L 1374.83625 330.732375 
Q 1374.83625 326.332375 1370.43625 326.332375 
L 1226.882812 326.332375 
Q 1222.482812 326.332375 1222.482812 330.732375 
L 1222.482812 457.699875 
Q 1222.482812 462.099875 1226.882812 462.099875 
z
" style="fill:#ffffff;opacity:0.8;stroke:#cccccc;stroke-linejoin:miter;"/>
   </g>
   <g id="line2d_32">
    <path d="M 1231.282812 344.148938 
L 1275.282812 344.148938 
" style="fill:none;stroke:#00c0c7;stroke-linecap:square;stroke-width:4;"/>
   </g>
   <g id="line2d_33"/>
   <g id="text_29">
    <!-- k = 5 -->
    <g transform="translate(1292.882812 351.848938)scale(0.22 -0.22)">
     <defs>
      <path d="M 581 4863 
L 1159 4863 
L 1159 1991 
L 2875 3500 
L 3609 3500 
L 1753 1863 
L 3688 0 
L 2938 0 
L 1159 1709 
L 1159 0 
L 581 0 
L 581 4863 
z
" id="DejaVuSans-6b" transform="scale(0.015625)"/>
      <path d="M 678 2906 
L 4684 2906 
L 4684 2381 
L 678 2381 
L 678 2906 
z
M 678 1631 
L 4684 1631 
L 4684 1100 
L 678 1100 
L 678 1631 
z
" id="DejaVuSans-3d" transform="scale(0.015625)"/>
     </defs>
     <use xlink:href="#DejaVuSans-6b"/>
     <use x="57.910156" xlink:href="#DejaVuSans-20"/>
     <use x="89.697266" xlink:href="#DejaVuSans-3d"/>
     <use x="173.486328" xlink:href="#DejaVuSans-20"/>
     <use x="205.273438" xlink:href="#DejaVuSans-35"/>
    </g>
   </g>
   <g id="line2d_34">
    <path d="M 1231.282812 376.440813 
L 1275.282812 376.440813 
" style="fill:none;stroke:#5144d3;stroke-linecap:square;stroke-width:4;"/>
   </g>
   <g id="line2d_35"/>
   <g id="text_30">
    <!-- k = 10 -->
    <g transform="translate(1292.882812 384.140813)scale(0.22 -0.22)">
     <use xlink:href="#DejaVuSans-6b"/>
     <use x="57.910156" xlink:href="#DejaVuSans-20"/>
     <use x="89.697266" xlink:href="#DejaVuSans-3d"/>
     <use x="173.486328" xlink:href="#DejaVuSans-20"/>
     <use x="205.273438" xlink:href="#DejaVuSans-31"/>
     <use x="268.896484" xlink:href="#DejaVuSans-30"/>
    </g>
   </g>
   <g id="line2d_36">
    <path d="M 1231.282812 408.732688 
L 1275.282812 408.732688 
" style="fill:none;stroke:#da3490;stroke-linecap:square;stroke-width:4;"/>
   </g>
   <g id="line2d_37"/>
   <g id="text_31">
    <!-- k = 20 -->
    <g transform="translate(1292.882812 416.432688)scale(0.22 -0.22)">
     <use xlink:href="#DejaVuSans-6b"/>
     <use x="57.910156" xlink:href="#DejaVuSans-20"/>
     <use x="89.697266" xlink:href="#DejaVuSans-3d"/>
     <use x="173.486328" xlink:href="#DejaVuSans-20"/>
     <use x="205.273438" xlink:href="#DejaVuSans-32"/>
     <use x="268.896484" xlink:href="#DejaVuSans-30"/>
    </g>
   </g>
   <g id="line2d_38">
    <path d="M 1231.282812 441.024563 
L 1275.282812 441.024563 
" style="fill:none;stroke:#9089fa;stroke-linecap:square;stroke-width:4;"/>
   </g>
   <g id="line2d_39"/>
   <g id="text_32">
    <!-- k = 50 -->
    <g transform="translate(1292.882812 448.724563)scale(0.22 -0.22)">
     <use xlink:href="#DejaVuSans-6b"/>
     <use x="57.910156" xlink:href="#DejaVuSans-20"/>
     <use x="89.697266" xlink:href="#DejaVuSans-3d"/>
     <use x="173.486328" xlink:href="#DejaVuSans-20"/>
     <use x="205.273438" xlink:href="#DejaVuSans-35"/>
     <use x="268.896484" xlink:href="#DejaVuSans-30"/>
    </g>
   </g>
  </g>
 </g>
 <defs>
  <clipPath id="p0933693b5e">
   <rect height="451.48" width="623.36" x="88.47625" y="33.259875"/>
  </clipPath>
  <clipPath id="pa0fd268c49">
   <rect height="451.48" width="623.36" x="777.59625" y="33.259875"/>
  </clipPath>
 </defs>
</svg>
