<?xml version="1.0" encoding="utf-8" standalone="no"?>
<!DOCTYPE svg PUBLIC "-//W3C//DTD SVG 1.1//EN"
  "http://www.w3.org/Graphics/SVG/1.1/DTD/svg11.dtd">
<svg xmlns:xlink="http://www.w3.org/1999/xlink" width="1407.43pt" height="542.883625pt" viewBox="0 0 1407.43 542.883625" xmlns="http://www.w3.org/2000/svg" version="1.1">
 <metadata>
  <rdf:RDF xmlns:dc="http://purl.org/dc/elements/1.1/" xmlns:cc="http://creativecommons.org/ns#" xmlns:rdf="http://www.w3.org/1999/02/22-rdf-syntax-ns#">
   <cc:Work>
    <dc:type rdf:resource="http://purl.org/dc/dcmitype/StillImage"/>
    <dc:date>2023-04-12T14:00:22.798222</dc:date>
    <dc:format>image/svg+xml</dc:format>
    <dc:creator>
     <cc:Agent>
      <dc:title>Matplotlib v3.5.3, https://matplotlib.org/</dc:title>
     </cc:Agent>
    </dc:creator>
   </cc:Work>
  </rdf:RDF>
 </metadata>
 <defs>
  <style type="text/css">*{stroke-linejoin: round; stroke-linecap: butt}</style>
 </defs>
 <g id="figure_1">
  <g id="patch_1">
   <path d="M 0 542.883625 
L 1407.43 542.883625 
L 1407.43 0 
L 0 0 
L 0 542.883625 
z
" style="fill: none"/>
  </g>
  <g id="axes_1">
   <g id="patch_2">
    <path d="M 74.47875 482.099875 
L 1379.23375 482.099875 
L 1379.23375 33.259875 
L 74.47875 33.259875 
L 74.47875 482.099875 
z
" style="fill: none"/>
   </g>
   <g id="PolyCollection_1">
    <defs>
     <path id="mbabaa910b0" d="M 74.47875 -230.240675 
L 74.47875 -144.934428 
L 81.002525 -104.756317 
L 87.5263 -160.889112 
L 94.050075 -195.383945 
L 100.57385 -248.942385 
L 107.097625 -278.407812 
L 113.6214 -291.300107 
L 120.145175 -239.748091 
L 126.66895 -274.554437 
L 133.192725 -264.889604 
L 139.7165 -297.132447 
L 146.240275 -301.948434 
L 152.76405 -272.874566 
L 159.287825 -260.817317 
L 165.8116 -270.698917 
L 172.335375 -314.795309 
L 178.85915 -277.818298 
L 185.382925 -294.960125 
L 191.9067 -312.686471 
L 198.430475 -330.213527 
L 204.95425 -328.730735 
L 211.478025 -306.816625 
L 218.0018 -316.778044 
L 224.525575 -328.432093 
L 231.04935 -346.038675 
L 237.573125 -313.919686 
L 244.0969 -328.551986 
L 250.620675 -317.171138 
L 257.14445 -338.955785 
L 263.668225 -310.966767 
L 270.192 -347.607767 
L 276.715775 -325.361342 
L 283.23955 -305.392876 
L 289.763325 -301.331206 
L 296.2871 -311.040529 
L 302.810875 -336.637089 
L 309.33465 -339.799127 
L 315.858425 -347.204025 
L 322.3822 -336.265904 
L 328.905975 -345.589532 
L 335.42975 -330.943539 
L 341.953525 -301.496723 
L 348.4773 -333.489717 
L 355.001075 -356.744016 
L 361.52485 -350.73911 
L 368.048625 -343.94826 
L 374.5724 -323.477973 
L 381.096175 -342.521757 
L 387.61995 -351.245708 
L 394.143725 -365.434821 
L 400.6675 -316.069304 
L 407.191275 -364.220973 
L 413.71505 -384.63615 
L 420.238825 -318.127323 
L 426.7626 -321.292692 
L 433.286375 -323.517926 
L 439.81015 -340.188428 
L 446.333925 -343.320859 
L 452.8577 -392.981267 
L 459.381475 -314.786574 
L 465.90525 -334.881493 
L 472.429025 -332.675581 
L 478.9528 -346.814854 
L 485.476575 -341.502252 
L 492.00035 -337.117557 
L 498.524125 -342.289494 
L 505.0479 -352.929934 
L 511.571675 -341.595438 
L 518.09545 -327.047937 
L 524.619225 -328.507372 
L 531.143 -359.075195 
L 537.666775 -318.294727 
L 544.19055 -364.990086 
L 550.714325 -345.215837 
L 557.2381 -331.993804 
L 563.761875 -329.875898 
L 570.28565 -342.734654 
L 576.809425 -359.743724 
L 583.3332 -336.898982 
L 589.856975 -370.652877 
L 596.38075 -332.861374 
L 602.904525 -372.591548 
L 609.4283 -340.314466 
L 615.952075 -342.084594 
L 622.47585 -385.563883 
L 628.999625 -363.776504 
L 635.5234 -380.137783 
L 642.047175 -355.624892 
L 648.57095 -366.107025 
L 655.094725 -348.222405 
L 661.6185 -325.562386 
L 668.142275 -369.228429 
L 674.66605 -362.636068 
L 681.189825 -382.974449 
L 687.7136 -386.523834 
L 694.237375 -350.528326 
L 700.76115 -343.493076 
L 707.284925 -389.175101 
L 713.8087 -337.439105 
L 720.332475 -349.61798 
L 726.85625 -370.205142 
L 733.380025 -337.111222 
L 739.9038 -346.263895 
L 746.427575 -362.275797 
L 752.95135 -334.206473 
L 759.475125 -365.583946 
L 765.9989 -340.427669 
L 772.522675 -369.558736 
L 779.04645 -336.12019 
L 785.570225 -322.201201 
L 792.094 -315.793703 
L 798.617775 -361.350586 
L 805.14155 -369.917296 
L 811.665325 -370.292492 
L 818.1891 -330.928525 
L 824.712875 -360.455002 
L 831.23665 -371.334799 
L 837.760425 -400.108469 
L 844.2842 -362.095935 
L 850.807975 -356.809558 
L 857.33175 -353.906107 
L 863.855525 -369.993562 
L 870.3793 -383.095333 
L 876.903075 -363.956538 
L 883.42685 -378.734462 
L 889.950625 -327.241227 
L 896.4744 -346.383116 
L 902.998175 -372.734094 
L 909.52195 -367.382784 
L 916.045725 -346.44653 
L 922.5695 -347.45379 
L 929.093275 -355.52484 
L 935.61705 -384.54373 
L 942.140825 -371.393153 
L 948.6646 -369.781619 
L 955.188375 -382.199099 
L 961.71215 -355.623422 
L 968.235925 -363.964411 
L 974.7597 -368.789865 
L 981.283475 -357.719326 
L 987.80725 -392.201023 
L 994.331025 -378.069403 
L 1000.8548 -374.425644 
L 1007.378575 -403.944878 
L 1013.90235 -385.586619 
L 1020.426125 -354.61231 
L 1026.9499 -376.792969 
L 1033.473675 -357.991615 
L 1039.99745 -365.233799 
L 1046.521225 -382.68191 
L 1053.045 -371.207969 
L 1059.568775 -327.044903 
L 1066.09255 -342.908823 
L 1072.616325 -329.325843 
L 1079.1401 -364.909331 
L 1085.663875 -345.466498 
L 1092.18765 -347.982712 
L 1098.711425 -348.441737 
L 1105.2352 -366.574196 
L 1111.758975 -365.737249 
L 1118.28275 -360.356961 
L 1124.806525 -374.360659 
L 1131.3303 -369.371799 
L 1137.854075 -364.604022 
L 1144.37785 -394.440811 
L 1150.901625 -363.922231 
L 1157.4254 -367.394146 
L 1163.949175 -337.96563 
L 1170.47295 -372.904902 
L 1176.996725 -361.933423 
L 1183.5205 -369.042236 
L 1190.044275 -355.535409 
L 1196.56805 -367.469428 
L 1203.091825 -352.737579 
L 1209.6156 -380.935304 
L 1216.139375 -375.779832 
L 1222.66315 -379.125011 
L 1229.186925 -389.415814 
L 1235.7107 -389.585876 
L 1242.234475 -370.415768 
L 1248.75825 -346.854973 
L 1255.282025 -364.356111 
L 1261.8058 -354.114532 
L 1268.329575 -362.79439 
L 1274.85335 -352.584004 
L 1281.377125 -381.849583 
L 1287.9009 -360.04557 
L 1294.424675 -358.893203 
L 1300.94845 -366.000716 
L 1307.472225 -366.244004 
L 1313.996 -340.574279 
L 1320.519775 -368.64877 
L 1327.04355 -339.12585 
L 1333.567325 -375.607245 
L 1340.0911 -356.482119 
L 1346.614875 -342.751311 
L 1353.13865 -372.264069 
L 1359.662425 -367.665045 
L 1366.1862 -367.915322 
L 1372.709975 -331.34032 
L 1379.23375 -324.588036 
L 1385.757525 -308.952613 
L 1392.2813 -332.890918 
L 1398.805075 -437.191913 
L 1398.805075 -437.640989 
L 1398.805075 -437.640989 
L 1392.2813 -455.078042 
L 1385.757525 -422.373537 
L 1379.23375 -439.806913 
L 1372.709975 -451.303915 
L 1366.1862 -460.970432 
L 1359.662425 -464.545515 
L 1353.13865 -469.944 
L 1346.614875 -445.809961 
L 1340.0911 -461.67673 
L 1333.567325 -467.074406 
L 1327.04355 -442.669098 
L 1320.519775 -463.526305 
L 1313.996 -466.066875 
L 1307.472225 -461.1762 
L 1300.94845 -466.453243 
L 1294.424675 -458.346438 
L 1287.9009 -461.978231 
L 1281.377125 -478.866553 
L 1274.85335 -459.111276 
L 1268.329575 -461.104821 
L 1261.8058 -463.068503 
L 1255.282025 -463.010867 
L 1248.75825 -460.573811 
L 1242.234475 -456.897402 
L 1235.7107 -475.799564 
L 1229.186925 -465.485177 
L 1222.66315 -470.89105 
L 1216.139375 -460.635596 
L 1209.6156 -462.050964 
L 1203.091825 -453.250217 
L 1196.56805 -469.522063 
L 1190.044275 -463.18837 
L 1183.5205 -462.878907 
L 1176.996725 -474.456501 
L 1170.47295 -465.177742 
L 1163.949175 -451.611033 
L 1157.4254 -466.851964 
L 1150.901625 -476.163032 
L 1144.37785 -474.708718 
L 1137.854075 -466.080721 
L 1131.3303 -466.185186 
L 1124.806525 -467.855868 
L 1118.28275 -459.068782 
L 1111.758975 -469.818393 
L 1105.2352 -465.089132 
L 1098.711425 -455.231948 
L 1092.18765 -447.955193 
L 1085.663875 -455.736401 
L 1079.1401 -457.885186 
L 1072.616325 -460.863758 
L 1066.09255 -457.23241 
L 1059.568775 -444.660866 
L 1053.045 -464.781649 
L 1046.521225 -469.087497 
L 1039.99745 -456.869246 
L 1033.473675 -458.043256 
L 1026.9499 -462.893277 
L 1020.426125 -463.094671 
L 1013.90235 -471.218378 
L 1007.378575 -467.666573 
L 1000.8548 -462.596676 
L 994.331025 -462.200559 
L 987.80725 -466.979686 
L 981.283475 -457.157242 
L 974.7597 -454.984346 
L 968.235925 -449.445665 
L 961.71215 -449.952645 
L 955.188375 -459.196389 
L 948.6646 -453.562901 
L 942.140825 -458.883523 
L 935.61705 -463.568151 
L 929.093275 -461.666512 
L 922.5695 -452.895257 
L 916.045725 -453.110323 
L 909.52195 -458.917213 
L 902.998175 -452.013537 
L 896.4744 -439.047365 
L 889.950625 -439.946049 
L 883.42685 -458.789845 
L 876.903075 -462.042688 
L 870.3793 -456.319612 
L 863.855525 -459.99924 
L 857.33175 -452.24298 
L 850.807975 -449.295779 
L 844.2842 -455.419899 
L 837.760425 -466.22229 
L 831.23665 -458.282145 
L 824.712875 -453.178512 
L 818.1891 -429.540243 
L 811.665325 -459.463011 
L 805.14155 -460.031958 
L 798.617775 -461.144647 
L 792.094 -434.362929 
L 785.570225 -427.597492 
L 779.04645 -432.808324 
L 772.522675 -453.373281 
L 765.9989 -442.800945 
L 759.475125 -459.754338 
L 752.95135 -441.307015 
L 746.427575 -452.990277 
L 739.9038 -450.457002 
L 733.380025 -450.23158 
L 726.85625 -453.420991 
L 720.332475 -439.143684 
L 713.8087 -442.745186 
L 707.284925 -458.989665 
L 700.76115 -445.957457 
L 694.237375 -451.571502 
L 687.7136 -446.988937 
L 681.189825 -455.392051 
L 674.66605 -462.942843 
L 668.142275 -445.728532 
L 661.6185 -441.303093 
L 655.094725 -450.371942 
L 648.57095 -458.732818 
L 642.047175 -454.622661 
L 635.5234 -452.373027 
L 628.999625 -452.674194 
L 622.47585 -451.414651 
L 615.952075 -450.555168 
L 609.4283 -456.776096 
L 602.904525 -456.538653 
L 596.38075 -436.052068 
L 589.856975 -456.984053 
L 583.3332 -445.470252 
L 576.809425 -454.302293 
L 570.28565 -431.628057 
L 563.761875 -450.087068 
L 557.2381 -450.488451 
L 550.714325 -445.728382 
L 544.19055 -463.340695 
L 537.666775 -443.861865 
L 531.143 -443.072371 
L 524.619225 -437.877374 
L 518.09545 -436.179311 
L 511.571675 -449.419168 
L 505.0479 -434.990901 
L 498.524125 -447.761019 
L 492.00035 -446.381372 
L 485.476575 -438.729987 
L 478.9528 -446.726332 
L 472.429025 -425.338794 
L 465.90525 -431.222699 
L 459.381475 -422.795366 
L 452.8577 -445.131121 
L 446.333925 -437.494718 
L 439.81015 -441.97319 
L 433.286375 -435.347497 
L 426.7626 -432.256027 
L 420.238825 -435.354728 
L 413.71505 -447.441477 
L 407.191275 -438.200396 
L 400.6675 -420.429296 
L 394.143725 -438.330916 
L 387.61995 -434.155473 
L 381.096175 -436.227139 
L 374.5724 -421.305013 
L 368.048625 -437.674502 
L 361.52485 -433.4143 
L 355.001075 -440.465009 
L 348.4773 -430.900254 
L 341.953525 -413.837882 
L 335.42975 -431.587333 
L 328.905975 -440.320607 
L 322.3822 -436.701701 
L 315.858425 -443.828289 
L 309.33465 -428.642234 
L 302.810875 -422.795004 
L 296.2871 -406.373609 
L 289.763325 -409.067211 
L 283.23955 -407.014017 
L 276.715775 -432.424721 
L 270.192 -424.790338 
L 263.668225 -405.363781 
L 257.14445 -429.889964 
L 250.620675 -431.027544 
L 244.0969 -426.02751 
L 237.573125 -428.745623 
L 231.04935 -433.671766 
L 224.525575 -425.504321 
L 218.0018 -422.853911 
L 211.478025 -410.549028 
L 204.95425 -427.651338 
L 198.430475 -409.808232 
L 191.9067 -403.477371 
L 185.382925 -406.873307 
L 178.85915 -374.996383 
L 172.335375 -407.386524 
L 165.8116 -374.370581 
L 159.287825 -375.232118 
L 152.76405 -391.148911 
L 146.240275 -394.956812 
L 139.7165 -383.661917 
L 133.192725 -369.508281 
L 126.66895 -363.265113 
L 120.145175 -354.532846 
L 113.6214 -369.164627 
L 107.097625 -358.866564 
L 100.57385 -352.228344 
L 94.050075 -296.026174 
L 87.5263 -235.913826 
L 81.002525 -206.820651 
L 74.47875 -230.240675 
z
" style="stroke: #ff0000; stroke-opacity: 0.1"/>
    </defs>
    <g clip-path="url(#p6af00a6308)">
     <use xlink:href="#mbabaa910b0" x="0" y="542.883625" style="fill: #ff0000; fill-opacity: 0.1; stroke: #ff0000; stroke-opacity: 0.1"/>
    </g>
   </g>
   <g id="PolyCollection_2">
    <path d="M 74.47875 356.646517 
L 74.47875 457.227559 
L 81.002525 419.383188 
L 87.5263 411.308184 
L 94.050075 381.78573 
L 100.57385 335.968439 
L 107.097625 308.281812 
L 113.6214 296.745676 
L 120.145175 280.899474 
L 126.66895 312.786186 
L 133.192725 322.149553 
L 139.7165 293.400413 
L 146.240275 238.799266 
L 152.76405 246.556687 
L 159.287825 258.905877 
L 165.8116 245.082721 
L 172.335375 240.586238 
L 178.85915 217.8061 
L 185.382925 231.492551 
L 191.9067 226.903941 
L 198.430475 221.466007 
L 204.95425 196.194696 
L 211.478025 209.698971 
L 218.0018 248.80522 
L 224.525575 243.378052 
L 231.04935 242.240238 
L 237.573125 214.144138 
L 244.0969 209.680768 
L 250.620675 183.4896 
L 257.14445 193.004784 
L 263.668225 214.859288 
L 270.192 183.7743 
L 276.715775 199.02809 
L 283.23955 177.338694 
L 289.763325 165.12346 
L 296.2871 207.496037 
L 302.810875 186.01359 
L 309.33465 193.989269 
L 315.858425 158.677049 
L 322.3822 162.320048 
L 328.905975 167.252528 
L 335.42975 189.47537 
L 341.953525 211.393843 
L 348.4773 169.532152 
L 355.001075 221.762774 
L 361.52485 227.167625 
L 368.048625 160.309742 
L 374.5724 168.139345 
L 381.096175 172.62573 
L 387.61995 220.344807 
L 394.143725 181.459956 
L 400.6675 153.43495 
L 407.191275 187.775001 
L 413.71505 189.959901 
L 420.238825 215.080634 
L 426.7626 210.255069 
L 433.286375 163.485191 
L 439.81015 186.794187 
L 446.333925 170.639976 
L 452.8577 175.612639 
L 459.381475 170.877357 
L 465.90525 178.138265 
L 472.429025 178.406919 
L 478.9528 138.379831 
L 485.476575 155.013154 
L 492.00035 162.344906 
L 498.524125 153.866741 
L 505.0479 153.650677 
L 511.571675 147.036195 
L 518.09545 181.595778 
L 524.619225 191.522082 
L 531.143 176.310576 
L 537.666775 151.155917 
L 544.19055 164.055249 
L 550.714325 179.823029 
L 557.2381 180.941291 
L 563.761875 138.938315 
L 570.28565 186.777248 
L 576.809425 136.38029 
L 583.3332 149.461039 
L 589.856975 118.191992 
L 596.38075 188.125091 
L 602.904525 175.532342 
L 609.4283 139.069835 
L 615.952075 143.952912 
L 622.47585 168.217769 
L 628.999625 162.00836 
L 635.5234 156.892445 
L 642.047175 162.280242 
L 648.57095 172.92526 
L 655.094725 165.15929 
L 661.6185 126.119802 
L 668.142275 157.23755 
L 674.66605 116.27569 
L 681.189825 129.958449 
L 687.7136 148.127658 
L 694.237375 177.617176 
L 700.76115 172.985854 
L 707.284925 180.876191 
L 713.8087 152.163378 
L 720.332475 132.141779 
L 726.85625 141.745352 
L 733.380025 158.575624 
L 739.9038 146.277171 
L 746.427575 157.608404 
L 752.95135 133.858209 
L 759.475125 150.458295 
L 765.9989 142.741917 
L 772.522675 145.227799 
L 779.04645 149.015593 
L 785.570225 138.346861 
L 792.094 144.5284 
L 798.617775 153.082635 
L 805.14155 143.002858 
L 811.665325 150.376372 
L 818.1891 127.72532 
L 824.712875 161.357938 
L 831.23665 133.864586 
L 837.760425 145.702736 
L 844.2842 142.961927 
L 850.807975 113.704036 
L 857.33175 126.952182 
L 863.855525 148.609743 
L 870.3793 127.372292 
L 876.903075 165.968191 
L 883.42685 135.381153 
L 889.950625 132.530146 
L 896.4744 120.469154 
L 902.998175 138.244267 
L 909.52195 134.342497 
L 916.045725 171.962055 
L 922.5695 168.911186 
L 929.093275 126.934754 
L 935.61705 155.752951 
L 942.140825 137.483664 
L 948.6646 142.55889 
L 955.188375 127.589092 
L 961.71215 142.900781 
L 968.235925 104.058498 
L 974.7597 136.680305 
L 981.283475 146.402482 
L 987.80725 106.595353 
L 994.331025 164.813842 
L 1000.8548 147.076251 
L 1007.378575 146.416493 
L 1013.90235 147.005882 
L 1020.426125 124.38424 
L 1026.9499 124.447007 
L 1033.473675 148.384069 
L 1039.99745 136.408957 
L 1046.521225 137.828659 
L 1053.045 136.281894 
L 1059.568775 136.354984 
L 1066.09255 131.985363 
L 1072.616325 151.037419 
L 1079.1401 120.660283 
L 1085.663875 148.34894 
L 1092.18765 143.056965 
L 1098.711425 148.995894 
L 1105.2352 125.592512 
L 1111.758975 121.988765 
L 1118.28275 152.980679 
L 1124.806525 135.641232 
L 1131.3303 131.752169 
L 1137.854075 145.242194 
L 1144.37785 124.017191 
L 1150.901625 108.48032 
L 1157.4254 160.82611 
L 1163.949175 110.650188 
L 1170.47295 116.914359 
L 1176.996725 152.666752 
L 1183.5205 129.001365 
L 1190.044275 117.342982 
L 1196.56805 126.525676 
L 1203.091825 110.693616 
L 1209.6156 107.994176 
L 1216.139375 125.486409 
L 1222.66315 121.511139 
L 1229.186925 138.939147 
L 1235.7107 112.182952 
L 1242.234475 121.600116 
L 1248.75825 121.495805 
L 1255.282025 136.007169 
L 1261.8058 117.78418 
L 1268.329575 128.084003 
L 1274.85335 162.608878 
L 1281.377125 134.360474 
L 1287.9009 144.633926 
L 1294.424675 116.934723 
L 1300.94845 122.593643 
L 1307.472225 101.185429 
L 1313.996 127.08857 
L 1320.519775 134.684211 
L 1327.04355 159.760965 
L 1333.567325 129.292126 
L 1340.0911 125.817045 
L 1346.614875 122.865012 
L 1353.13865 130.91918 
L 1359.662425 122.807426 
L 1366.1862 127.435627 
L 1372.709975 129.500599 
L 1379.23375 141.297996 
L 1385.757525 133.21271 
L 1392.2813 118.838457 
L 1398.805075 137.631214 
L 1405.32885 123.901957 
L 1411.852625 118.417395 
L 1418.3764 122.064004 
L 1424.900175 139.923349 
L 1431.42395 133.453137 
L 1437.947725 115.198518 
L 1444.4715 125.913328 
L 1450.995275 163.622702 
L 1457.51905 134.960315 
L 1464.042825 141.567737 
L 1470.5666 137.74346 
L 1477.090375 123.989969 
L 1483.61415 150.848692 
L 1490.137925 146.659396 
L 1496.6617 135.253141 
L 1503.185475 127.295059 
L 1509.70925 139.001013 
L 1516.233025 125.821132 
L 1522.7568 108.597819 
L 1529.280575 149.887046 
L 1535.80435 149.621751 
L 1542.328125 139.172477 
L 1548.8519 122.83492 
L 1555.375675 126.692267 
L 1561.89945 120.723082 
L 1568.423225 109.201264 
L 1574.947 127.297057 
L 1581.470775 145.886699 
L 1587.99455 132.770771 
L 1594.518325 135.336068 
L 1601.0421 130.942285 
L 1607.565875 120.206334 
L 1614.08965 119.143433 
L 1620.613425 129.044209 
L 1627.1372 144.892247 
L 1633.660975 130.6522 
L 1640.18475 154.049056 
L 1646.708525 130.518683 
L 1653.2323 129.840762 
L 1659.756075 146.405373 
L 1666.27985 142.700034 
L 1672.803625 127.045675 
L 1679.3274 191.901342 
L 1685.851175 152.917165 
L 1692.37495 134.360895 
L 1698.898725 122.946358 
L 1705.4225 116.194991 
L 1711.946275 167.231841 
L 1718.47005 137.213574 
L 1724.993825 147.760674 
L 1731.5176 124.857141 
L 1738.041375 141.83347 
L 1744.56515 122.310584 
L 1751.088925 130.317268 
L 1757.6127 186.344512 
L 1764.136475 224.941493 
L 1770.66025 214.58006 
L 1777.184025 153.526369 
L 1777.184025 148.891954 
L 1777.184025 148.891954 
L 1770.66025 144.131156 
L 1764.136475 127.675258 
L 1757.6127 79.729556 
L 1751.088925 71.780353 
L 1744.56515 77.739675 
L 1738.041375 75.704666 
L 1731.5176 75.94797 
L 1724.993825 75.142806 
L 1718.47005 73.612271 
L 1711.946275 81.418105 
L 1705.4225 75.459291 
L 1698.898725 76.205936 
L 1692.37495 69.408737 
L 1685.851175 77.798614 
L 1679.3274 89.308832 
L 1672.803625 74.633942 
L 1666.27985 70.758091 
L 1659.756075 77.800157 
L 1653.2323 73.818869 
L 1646.708525 73.415276 
L 1640.18475 79.244782 
L 1633.660975 83.226727 
L 1627.1372 63.26215 
L 1620.613425 70.853396 
L 1614.08965 77.146147 
L 1607.565875 66.890773 
L 1601.0421 75.533366 
L 1594.518325 71.975589 
L 1587.99455 72.494872 
L 1581.470775 72.843037 
L 1574.947 72.556547 
L 1568.423225 76.41824 
L 1561.89945 77.71216 
L 1555.375675 76.574381 
L 1548.8519 69.302238 
L 1542.328125 63.50433 
L 1535.80435 76.356821 
L 1529.280575 69.348694 
L 1522.7568 65.801607 
L 1516.233025 68.990554 
L 1509.70925 69.332977 
L 1503.185475 73.944123 
L 1496.6617 69.088495 
L 1490.137925 67.154384 
L 1483.61415 67.397041 
L 1477.090375 78.041651 
L 1470.5666 76.393853 
L 1464.042825 71.256081 
L 1457.51905 70.161248 
L 1450.995275 77.733969 
L 1444.4715 76.202252 
L 1437.947725 74.064295 
L 1431.42395 71.680505 
L 1424.900175 74.710046 
L 1418.3764 72.267561 
L 1411.852625 77.30018 
L 1405.32885 80.917643 
L 1398.805075 77.9745 
L 1392.2813 74.1951 
L 1385.757525 75.66182 
L 1379.23375 75.297725 
L 1372.709975 74.907037 
L 1366.1862 79.83203 
L 1359.662425 73.859175 
L 1353.13865 76.040474 
L 1346.614875 76.691366 
L 1340.0911 76.585193 
L 1333.567325 81.717713 
L 1327.04355 84.44495 
L 1320.519775 77.53348 
L 1313.996 77.495067 
L 1307.472225 75.568014 
L 1300.94845 71.139605 
L 1294.424675 76.230834 
L 1287.9009 77.395833 
L 1281.377125 82.192541 
L 1274.85335 84.873766 
L 1268.329575 77.253247 
L 1261.8058 69.859339 
L 1255.282025 71.145903 
L 1248.75825 77.370812 
L 1242.234475 75.371468 
L 1235.7107 80.526439 
L 1229.186925 72.464538 
L 1222.66315 73.634432 
L 1216.139375 67.53727 
L 1209.6156 71.964105 
L 1203.091825 62.847804 
L 1196.56805 76.510317 
L 1190.044275 73.241224 
L 1183.5205 71.497877 
L 1176.996725 66.366673 
L 1170.47295 72.809297 
L 1163.949175 81.853639 
L 1157.4254 66.921101 
L 1150.901625 80.929048 
L 1144.37785 83.218112 
L 1137.854075 75.887804 
L 1131.3303 69.292894 
L 1124.806525 74.117618 
L 1118.28275 74.928959 
L 1111.758975 80.658859 
L 1105.2352 72.473156 
L 1098.711425 74.837878 
L 1092.18765 74.088761 
L 1085.663875 76.645763 
L 1079.1401 71.999271 
L 1072.616325 67.48848 
L 1066.09255 77.080383 
L 1059.568775 80.521563 
L 1053.045 83.305848 
L 1046.521225 72.663529 
L 1039.99745 73.168715 
L 1033.473675 72.813277 
L 1026.9499 72.694108 
L 1020.426125 75.425364 
L 1013.90235 65.607812 
L 1007.378575 75.297183 
L 1000.8548 73.332986 
L 994.331025 77.172807 
L 987.80725 80.052771 
L 981.283475 83.503333 
L 974.7597 74.67938 
L 968.235925 75.906967 
L 961.71215 66.258888 
L 955.188375 83.463884 
L 948.6646 72.078818 
L 942.140825 82.725919 
L 935.61705 85.687585 
L 929.093275 81.38891 
L 922.5695 86.947195 
L 916.045725 70.461847 
L 909.52195 72.947159 
L 902.998175 71.069403 
L 896.4744 69.554264 
L 889.950625 62.131422 
L 883.42685 74.701229 
L 876.903075 80.437739 
L 870.3793 76.221338 
L 863.855525 69.745991 
L 857.33175 67.071381 
L 850.807975 72.575473 
L 844.2842 71.585192 
L 837.760425 85.237535 
L 831.23665 80.013901 
L 824.712875 59.271576 
L 818.1891 70.192271 
L 811.665325 79.145287 
L 805.14155 78.7629 
L 798.617775 69.585129 
L 792.094 84.318819 
L 785.570225 87.545435 
L 779.04645 79.790214 
L 772.522675 78.429972 
L 765.9989 82.059862 
L 759.475125 69.173448 
L 752.95135 81.307503 
L 746.427575 80.505302 
L 739.9038 81.604629 
L 733.380025 75.318689 
L 726.85625 74.419425 
L 720.332475 77.379814 
L 713.8087 75.454421 
L 707.284925 74.879805 
L 700.76115 82.770142 
L 694.237375 74.718443 
L 687.7136 82.790164 
L 681.189825 75.076838 
L 674.66605 84.39192 
L 668.142275 78.674306 
L 661.6185 75.795894 
L 655.094725 85.646671 
L 648.57095 76.629231 
L 642.047175 74.094481 
L 635.5234 82.627437 
L 628.999625 76.821056 
L 622.47585 84.062202 
L 615.952075 78.566774 
L 609.4283 73.492956 
L 602.904525 80.189575 
L 596.38075 83.277328 
L 589.856975 90.013906 
L 583.3332 73.580728 
L 576.809425 82.631566 
L 570.28565 91.268355 
L 563.761875 91.231501 
L 557.2381 97.214597 
L 550.714325 85.432288 
L 544.19055 75.533221 
L 537.666775 81.306146 
L 531.143 81.155508 
L 524.619225 94.094162 
L 518.09545 81.983811 
L 511.571675 85.553638 
L 505.0479 91.398013 
L 498.524125 89.235781 
L 492.00035 88.055745 
L 485.476575 91.018774 
L 478.9528 81.408501 
L 472.429025 83.375825 
L 465.90525 87.073915 
L 459.381475 90.861834 
L 452.8577 89.559423 
L 446.333925 98.376189 
L 439.81015 93.687443 
L 433.286375 91.412798 
L 426.7626 93.51232 
L 420.238825 99.178948 
L 413.71505 89.401397 
L 407.191275 99.160194 
L 400.6675 96.953009 
L 394.143725 98.704365 
L 387.61995 110.846265 
L 381.096175 90.918735 
L 374.5724 94.484582 
L 368.048625 100.59429 
L 361.52485 109.739174 
L 355.001075 109.536143 
L 348.4773 97.270827 
L 341.953525 101.161805 
L 335.42975 103.233269 
L 328.905975 101.540069 
L 322.3822 100.601772 
L 315.858425 104.637078 
L 309.33465 100.125073 
L 302.810875 114.420404 
L 296.2871 103.290971 
L 289.763325 104.400401 
L 283.23955 101.577541 
L 276.715775 111.133424 
L 270.192 108.363181 
L 263.668225 103.757187 
L 257.14445 118.653603 
L 250.620675 121.96992 
L 244.0969 115.774254 
L 237.573125 124.468668 
L 231.04935 119.211831 
L 224.525575 142.508855 
L 218.0018 138.821391 
L 211.478025 130.098459 
L 204.95425 130.553209 
L 198.430475 135.402697 
L 191.9067 137.265794 
L 185.382925 148.922543 
L 178.85915 136.485135 
L 172.335375 145.728825 
L 165.8116 145.228373 
L 159.287825 156.877945 
L 152.76405 151.496305 
L 146.240275 157.183173 
L 139.7165 182.75442 
L 133.192725 220.641606 
L 126.66895 203.443437 
L 120.145175 180.843963 
L 113.6214 188.485465 
L 107.097625 207.883105 
L 100.57385 236.58639 
L 94.050075 298.927397 
L 87.5263 339.236352 
L 81.002525 344.003067 
L 74.47875 356.646517 
z
" clip-path="url(#p6af00a6308)" style="fill: #5144d3; fill-opacity: 0.1; stroke: #5144d3; stroke-opacity: 0.1"/>
   </g>
   <g id="PolyCollection_3">
    <defs>
     <path id="m4bebe428d0" d="M 74.47875 -207.195739 
L 74.47875 -118.953322 
L 81.002525 -129.664248 
L 87.5263 -148.437891 
L 94.050075 -201.705475 
L 100.57385 -254.251823 
L 107.097625 -292.181457 
L 113.6214 -314.662373 
L 120.145175 -314.978474 
L 126.66895 -319.995327 
L 133.192725 -330.0115 
L 139.7165 -314.814781 
L 146.240275 -333.628989 
L 152.76405 -339.075663 
L 159.287825 -336.04246 
L 165.8116 -358.2474 
L 172.335375 -362.832319 
L 178.85915 -341.463745 
L 185.382925 -363.29248 
L 191.9067 -357.071265 
L 198.430475 -380.443919 
L 204.95425 -358.807159 
L 211.478025 -364.769979 
L 218.0018 -370.753026 
L 224.525575 -387.239033 
L 231.04935 -383.957882 
L 237.573125 -385.826344 
L 244.0969 -369.294959 
L 250.620675 -376.165371 
L 257.14445 -391.831184 
L 263.668225 -381.835946 
L 270.192 -405.006139 
L 276.715775 -404.174765 
L 283.23955 -392.665027 
L 289.763325 -389.027699 
L 296.2871 -393.98367 
L 302.810875 -412.339242 
L 309.33465 -402.001407 
L 315.858425 -393.151751 
L 322.3822 -416.50783 
L 328.905975 -397.918211 
L 335.42975 -409.890013 
L 341.953525 -415.038724 
L 348.4773 -412.521391 
L 355.001075 -406.598281 
L 361.52485 -418.76596 
L 368.048625 -411.237286 
L 374.5724 -418.290583 
L 381.096175 -418.009363 
L 387.61995 -426.01171 
L 394.143725 -424.894405 
L 400.6675 -402.81628 
L 407.191275 -408.838674 
L 413.71505 -423.84884 
L 420.238825 -429.537386 
L 426.7626 -417.406698 
L 433.286375 -426.072681 
L 439.81015 -413.79485 
L 446.333925 -421.159345 
L 452.8577 -417.671892 
L 459.381475 -407.172165 
L 465.90525 -424.213552 
L 472.429025 -417.807134 
L 478.9528 -395.465041 
L 485.476575 -401.757492 
L 492.00035 -428.280714 
L 498.524125 -424.167835 
L 505.0479 -419.945429 
L 511.571675 -413.69034 
L 518.09545 -422.867645 
L 524.619225 -431.59757 
L 531.143 -422.267243 
L 537.666775 -417.361321 
L 544.19055 -418.909897 
L 550.714325 -422.166548 
L 557.2381 -420.668722 
L 563.761875 -425.072602 
L 570.28565 -420.003133 
L 576.809425 -430.148796 
L 583.3332 -428.758468 
L 589.856975 -429.367684 
L 596.38075 -431.118834 
L 602.904525 -426.801647 
L 609.4283 -406.257995 
L 615.952075 -425.496823 
L 622.47585 -429.126332 
L 628.999625 -428.262133 
L 635.5234 -420.666541 
L 642.047175 -418.264276 
L 648.57095 -429.380033 
L 655.094725 -420.951165 
L 661.6185 -426.998593 
L 668.142275 -424.541602 
L 674.66605 -413.957873 
L 681.189825 -418.474713 
L 687.7136 -426.488329 
L 694.237375 -427.495497 
L 700.76115 -430.266845 
L 707.284925 -426.460232 
L 713.8087 -429.045827 
L 720.332475 -430.748219 
L 726.85625 -426.625717 
L 733.380025 -427.116731 
L 739.9038 -427.416312 
L 746.427575 -423.275289 
L 752.95135 -433.495609 
L 759.475125 -423.692868 
L 765.9989 -423.466295 
L 772.522675 -427.738011 
L 779.04645 -427.986023 
L 785.570225 -429.889651 
L 792.094 -430.677095 
L 798.617775 -428.220014 
L 805.14155 -435.692997 
L 811.665325 -425.79113 
L 818.1891 -429.992121 
L 824.712875 -422.552368 
L 831.23665 -426.244454 
L 837.760425 -428.958233 
L 844.2842 -425.37168 
L 850.807975 -430.528202 
L 857.33175 -428.831232 
L 863.855525 -420.707751 
L 870.3793 -427.967799 
L 876.903075 -432.244025 
L 883.42685 -431.356931 
L 889.950625 -425.496405 
L 896.4744 -438.158471 
L 902.998175 -424.674004 
L 909.52195 -429.925214 
L 916.045725 -430.68496 
L 922.5695 -432.921205 
L 929.093275 -438.830394 
L 935.61705 -434.88678 
L 942.140825 -421.214079 
L 948.6646 -428.678345 
L 955.188375 -431.977244 
L 961.71215 -438.192788 
L 968.235925 -433.889039 
L 974.7597 -432.187267 
L 981.283475 -428.341398 
L 987.80725 -427.194324 
L 994.331025 -430.329765 
L 1000.8548 -434.890665 
L 1007.378575 -426.663043 
L 1013.90235 -431.419018 
L 1020.426125 -432.690961 
L 1026.9499 -426.818152 
L 1033.473675 -428.628754 
L 1039.99745 -429.782452 
L 1046.521225 -434.647197 
L 1053.045 -424.666657 
L 1059.568775 -425.817718 
L 1066.09255 -430.924679 
L 1072.616325 -434.488345 
L 1079.1401 -441.100783 
L 1085.663875 -436.511951 
L 1092.18765 -432.565425 
L 1098.711425 -433.37495 
L 1105.2352 -427.58618 
L 1111.758975 -432.847023 
L 1118.28275 -441.05642 
L 1124.806525 -435.583928 
L 1131.3303 -435.430115 
L 1137.854075 -427.162898 
L 1144.37785 -428.302456 
L 1150.901625 -427.436552 
L 1157.4254 -436.235999 
L 1163.949175 -432.692504 
L 1170.47295 -442.227389 
L 1176.996725 -435.51626 
L 1183.5205 -439.945734 
L 1190.044275 -433.694078 
L 1196.56805 -430.683948 
L 1203.091825 -440.151409 
L 1209.6156 -433.722451 
L 1216.139375 -435.803462 
L 1222.66315 -432.109949 
L 1229.186925 -431.096665 
L 1235.7107 -430.487539 
L 1242.234475 -434.699101 
L 1248.75825 -434.698063 
L 1255.282025 -432.492757 
L 1261.8058 -432.081296 
L 1268.329575 -434.370367 
L 1274.85335 -431.513118 
L 1281.377125 -431.794402 
L 1287.9009 -429.607992 
L 1294.424675 -428.890231 
L 1300.94845 -439.105464 
L 1307.472225 -432.796889 
L 1313.996 -439.284212 
L 1320.519775 -428.201705 
L 1327.04355 -435.120769 
L 1333.567325 -431.058709 
L 1340.0911 -436.892643 
L 1346.614875 -439.253981 
L 1353.13865 -433.197725 
L 1359.662425 -431.377784 
L 1366.1862 -431.548805 
L 1372.709975 -438.70432 
L 1379.23375 -442.882106 
L 1385.757525 -443.768177 
L 1392.2813 -485.361893 
L 1398.805075 -484.24187 
L 1398.805075 -486.933372 
L 1398.805075 -486.933372 
L 1392.2813 -487.428986 
L 1385.757525 -488.044502 
L 1379.23375 -484.922672 
L 1372.709975 -485.98658 
L 1366.1862 -486.541744 
L 1359.662425 -484.825522 
L 1353.13865 -484.408075 
L 1346.614875 -482.232755 
L 1340.0911 -485.453979 
L 1333.567325 -486.26357 
L 1327.04355 -487.407099 
L 1320.519775 -489.221932 
L 1313.996 -484.342747 
L 1307.472225 -483.544773 
L 1300.94845 -488.666888 
L 1294.424675 -484.507995 
L 1287.9009 -481.03016 
L 1281.377125 -487.093807 
L 1274.85335 -485.153137 
L 1268.329575 -482.705359 
L 1261.8058 -487.055467 
L 1255.282025 -483.535433 
L 1248.75825 -485.107752 
L 1242.234475 -485.555703 
L 1235.7107 -486.114046 
L 1229.186925 -483.996519 
L 1222.66315 -485.999244 
L 1216.139375 -485.208724 
L 1209.6156 -480.710727 
L 1203.091825 -483.439484 
L 1196.56805 -486.315915 
L 1190.044275 -482.364254 
L 1183.5205 -482.77417 
L 1176.996725 -482.462423 
L 1170.47295 -481.064891 
L 1163.949175 -482.116665 
L 1157.4254 -478.14218 
L 1150.901625 -482.282752 
L 1144.37785 -479.090673 
L 1137.854075 -483.715954 
L 1131.3303 -486.005263 
L 1124.806525 -480.559372 
L 1118.28275 -480.280359 
L 1111.758975 -480.781849 
L 1105.2352 -479.52263 
L 1098.711425 -477.758206 
L 1092.18765 -480.602744 
L 1085.663875 -481.932838 
L 1079.1401 -479.190087 
L 1072.616325 -472.863145 
L 1066.09255 -477.770126 
L 1059.568775 -480.127068 
L 1053.045 -480.079841 
L 1046.521225 -481.383612 
L 1039.99745 -474.441093 
L 1033.473675 -479.688262 
L 1026.9499 -475.808277 
L 1020.426125 -477.892191 
L 1013.90235 -482.511469 
L 1007.378575 -477.253942 
L 1000.8548 -478.957589 
L 994.331025 -476.61035 
L 987.80725 -478.713795 
L 981.283475 -479.166463 
L 974.7597 -479.952727 
L 968.235925 -469.395649 
L 961.71215 -479.30298 
L 955.188375 -480.252913 
L 948.6646 -483.211805 
L 942.140825 -483.564512 
L 935.61705 -479.956719 
L 929.093275 -478.467012 
L 922.5695 -472.9794 
L 916.045725 -473.053699 
L 909.52195 -474.534561 
L 902.998175 -481.274219 
L 896.4744 -476.073631 
L 889.950625 -479.177962 
L 883.42685 -475.28157 
L 876.903075 -477.966729 
L 870.3793 -476.760667 
L 863.855525 -475.615405 
L 857.33175 -474.170147 
L 850.807975 -478.600294 
L 844.2842 -472.687426 
L 837.760425 -477.343168 
L 831.23665 -479.365007 
L 824.712875 -474.061869 
L 818.1891 -478.944127 
L 811.665325 -479.676113 
L 805.14155 -477.456839 
L 798.617775 -478.534862 
L 792.094 -475.730758 
L 785.570225 -479.581471 
L 779.04645 -478.437537 
L 772.522675 -471.626245 
L 765.9989 -476.11678 
L 759.475125 -476.058514 
L 752.95135 -478.536186 
L 746.427575 -475.501114 
L 739.9038 -474.697964 
L 733.380025 -480.958876 
L 726.85625 -479.743744 
L 720.332475 -475.251567 
L 713.8087 -477.23347 
L 707.284925 -475.092913 
L 700.76115 -477.871845 
L 694.237375 -475.898534 
L 687.7136 -476.17595 
L 681.189825 -481.060274 
L 674.66605 -477.990202 
L 668.142275 -475.844653 
L 661.6185 -474.867293 
L 655.094725 -472.974727 
L 648.57095 -474.742756 
L 642.047175 -475.085422 
L 635.5234 -474.475105 
L 628.999625 -476.0178 
L 622.47585 -471.263415 
L 615.952075 -474.732288 
L 609.4283 -472.845701 
L 602.904525 -470.664209 
L 596.38075 -470.268017 
L 589.856975 -473.811115 
L 583.3332 -470.073236 
L 576.809425 -471.415476 
L 570.28565 -475.703724 
L 563.761875 -476.937474 
L 557.2381 -471.166211 
L 550.714325 -472.986441 
L 544.19055 -475.007547 
L 537.666775 -468.57685 
L 531.143 -471.202768 
L 524.619225 -469.70057 
L 518.09545 -466.190219 
L 511.571675 -468.251214 
L 505.0479 -468.787843 
L 498.524125 -464.624688 
L 492.00035 -465.178984 
L 485.476575 -478.007984 
L 478.9528 -465.327977 
L 472.429025 -465.60701 
L 465.90525 -464.310306 
L 459.381475 -462.970919 
L 452.8577 -460.38415 
L 446.333925 -458.361684 
L 439.81015 -465.202366 
L 433.286375 -456.83596 
L 426.7626 -459.691273 
L 420.238825 -464.610705 
L 413.71505 -463.657066 
L 407.191275 -457.533786 
L 400.6675 -460.41154 
L 394.143725 -458.679417 
L 387.61995 -457.757276 
L 381.096175 -452.541788 
L 374.5724 -459.536784 
L 368.048625 -460.885701 
L 361.52485 -458.462313 
L 355.001075 -451.860547 
L 348.4773 -460.342917 
L 341.953525 -453.804245 
L 335.42975 -451.50708 
L 328.905975 -455.22798 
L 322.3822 -450.583619 
L 315.858425 -457.153383 
L 309.33465 -444.487962 
L 302.810875 -454.85866 
L 296.2871 -450.104016 
L 289.763325 -452.307349 
L 283.23955 -447.217084 
L 276.715775 -444.518168 
L 270.192 -441.728478 
L 263.668225 -451.652043 
L 257.14445 -441.454602 
L 250.620675 -443.898567 
L 244.0969 -439.552508 
L 237.573125 -432.971219 
L 231.04935 -435.312609 
L 224.525575 -440.308565 
L 218.0018 -430.649996 
L 211.478025 -435.67415 
L 204.95425 -430.3664 
L 198.430475 -427.052797 
L 191.9067 -429.507844 
L 185.382925 -419.602476 
L 178.85915 -424.018929 
L 172.335375 -422.734366 
L 165.8116 -415.445905 
L 159.287825 -415.807835 
L 152.76405 -417.082449 
L 146.240275 -391.349688 
L 139.7165 -402.249811 
L 133.192725 -381.244616 
L 126.66895 -374.200595 
L 120.145175 -368.358463 
L 113.6214 -354.082675 
L 107.097625 -346.037422 
L 100.57385 -332.883232 
L 94.050075 -320.347973 
L 87.5263 -269.335897 
L 81.002525 -171.029688 
L 74.47875 -207.195739 
z
" style="stroke: #e8871a; stroke-opacity: 0.1"/>
    </defs>
    <g clip-path="url(#p6af00a6308)">
     <use xlink:href="#m4bebe428d0" x="0" y="542.883625" style="fill: #e8871a; fill-opacity: 0.1; stroke: #e8871a; stroke-opacity: 0.1"/>
    </g>
   </g>
   <g id="PolyCollection_4">
    <path d="M 74.47875 431.676486 
L 74.47875 461.698057 
L 81.002525 416.571636 
L 87.5263 346.746726 
L 94.050075 333.116744 
L 100.57385 291.789417 
L 107.097625 299.310358 
L 113.6214 258.032848 
L 120.145175 269.18908 
L 126.66895 228.197944 
L 133.192725 221.835233 
L 139.7165 239.019819 
L 146.240275 205.136034 
L 152.76405 197.468372 
L 159.287825 232.307694 
L 165.8116 205.42713 
L 172.335375 206.810295 
L 178.85915 211.862597 
L 185.382925 187.480957 
L 191.9067 211.667162 
L 198.430475 183.023562 
L 204.95425 203.501985 
L 211.478025 166.865025 
L 218.0018 174.31416 
L 224.525575 160.548312 
L 231.04935 178.26188 
L 237.573125 162.022153 
L 244.0969 186.34788 
L 250.620675 153.706921 
L 257.14445 167.239721 
L 263.668225 164.459136 
L 270.192 153.462995 
L 276.715775 149.608721 
L 283.23955 177.036871 
L 289.763325 168.666727 
L 296.2871 165.139172 
L 302.810875 148.051588 
L 309.33465 155.889588 
L 315.858425 182.926652 
L 322.3822 146.698227 
L 328.905975 149.368388 
L 335.42975 168.304393 
L 341.953525 152.502745 
L 348.4773 161.549241 
L 355.001075 159.004027 
L 361.52485 138.3211 
L 368.048625 154.811914 
L 374.5724 133.468132 
L 381.096175 141.19987 
L 387.61995 151.812055 
L 394.143725 137.32641 
L 400.6675 135.663832 
L 407.191275 130.509095 
L 413.71505 152.147619 
L 420.238825 147.651589 
L 426.7626 164.486152 
L 433.286375 132.399968 
L 439.81015 138.332918 
L 446.333925 118.997314 
L 452.8577 130.599256 
L 459.381475 127.444165 
L 465.90525 129.836417 
L 472.429025 139.645765 
L 478.9528 138.430685 
L 485.476575 133.830952 
L 492.00035 129.59637 
L 498.524125 148.01013 
L 505.0479 124.829538 
L 511.571675 122.422928 
L 518.09545 126.98575 
L 524.619225 129.697715 
L 531.143 114.846282 
L 537.666775 116.000887 
L 544.19055 120.510008 
L 550.714325 119.86842 
L 557.2381 117.020256 
L 563.761875 119.54078 
L 570.28565 125.099162 
L 576.809425 124.668688 
L 583.3332 110.096951 
L 589.856975 119.487783 
L 596.38075 122.817457 
L 602.904525 131.372736 
L 609.4283 115.745989 
L 615.952075 128.964407 
L 622.47585 120.65627 
L 628.999625 121.449357 
L 635.5234 122.913778 
L 642.047175 123.708865 
L 648.57095 114.429873 
L 655.094725 118.622386 
L 661.6185 118.490201 
L 668.142275 115.108511 
L 674.66605 112.595586 
L 681.189825 117.69608 
L 687.7136 127.558361 
L 694.237375 120.507612 
L 700.76115 123.469407 
L 707.284925 116.319655 
L 713.8087 121.955393 
L 720.332475 114.511909 
L 726.85625 117.176054 
L 733.380025 117.17857 
L 739.9038 122.147271 
L 746.427575 121.860721 
L 752.95135 117.034826 
L 759.475125 127.491567 
L 765.9989 112.089109 
L 772.522675 108.236735 
L 779.04645 117.384594 
L 785.570225 121.889766 
L 792.094 114.242911 
L 798.617775 117.426424 
L 805.14155 119.434774 
L 811.665325 116.279528 
L 818.1891 114.126363 
L 824.712875 109.699118 
L 831.23665 114.600326 
L 837.760425 112.908913 
L 844.2842 113.326144 
L 850.807975 124.068399 
L 857.33175 113.631202 
L 863.855525 116.851301 
L 870.3793 110.329926 
L 876.903075 118.309775 
L 883.42685 104.920267 
L 889.950625 109.454696 
L 896.4744 108.836831 
L 902.998175 105.394457 
L 909.52195 115.769077 
L 916.045725 105.516169 
L 922.5695 107.003957 
L 929.093275 112.229404 
L 935.61705 125.040421 
L 942.140825 106.837187 
L 948.6646 99.681181 
L 955.188375 127.235822 
L 961.71215 109.173514 
L 968.235925 106.426709 
L 974.7597 103.940397 
L 981.283475 115.003677 
L 987.80725 106.416008 
L 994.331025 103.071665 
L 1000.8548 108.705032 
L 1007.378575 105.53176 
L 1013.90235 104.778352 
L 1020.426125 106.604336 
L 1026.9499 102.588644 
L 1033.473675 107.756304 
L 1039.99745 110.689406 
L 1046.521225 98.982414 
L 1053.045 105.414217 
L 1059.568775 115.152731 
L 1066.09255 108.881255 
L 1072.616325 115.351748 
L 1079.1401 99.946195 
L 1085.663875 105.169857 
L 1092.18765 105.212852 
L 1098.711425 98.467182 
L 1105.2352 95.522765 
L 1111.758975 107.202108 
L 1118.28275 100.496269 
L 1124.806525 98.399332 
L 1131.3303 105.08403 
L 1137.854075 95.286521 
L 1144.37785 96.945411 
L 1150.901625 102.399311 
L 1157.4254 105.746714 
L 1163.949175 102.670565 
L 1170.47295 99.967125 
L 1176.996725 103.41396 
L 1183.5205 107.618789 
L 1190.044275 98.374941 
L 1196.56805 96.083704 
L 1203.091825 97.088587 
L 1209.6156 98.381405 
L 1216.139375 102.372863 
L 1222.66315 96.899863 
L 1229.186925 89.525051 
L 1235.7107 90.502369 
L 1242.234475 105.675319 
L 1248.75825 101.151361 
L 1255.282025 103.037664 
L 1261.8058 93.850673 
L 1268.329575 105.592856 
L 1274.85335 103.558846 
L 1281.377125 99.351336 
L 1287.9009 97.168212 
L 1294.424675 91.73237 
L 1300.94845 93.473599 
L 1307.472225 96.948232 
L 1313.996 89.756192 
L 1320.519775 93.60896 
L 1327.04355 97.005285 
L 1333.567325 91.058427 
L 1340.0911 95.223885 
L 1346.614875 92.721404 
L 1353.13865 84.895902 
L 1359.662425 94.533809 
L 1366.1862 102.52769 
L 1372.709975 100.059514 
L 1379.23375 102.763924 
L 1385.757525 109.886766 
L 1392.2813 105.871109 
L 1398.805075 102.286551 
L 1405.32885 89.996303 
L 1411.852625 107.507571 
L 1418.3764 94.688415 
L 1424.900175 108.442954 
L 1431.42395 92.001819 
L 1437.947725 93.324515 
L 1444.4715 100.74551 
L 1450.995275 109.644358 
L 1457.51905 101.729424 
L 1464.042825 95.926343 
L 1470.5666 92.204234 
L 1477.090375 99.018006 
L 1483.61415 103.06083 
L 1490.137925 105.605281 
L 1496.6617 98.712145 
L 1503.185475 96.880632 
L 1509.70925 103.189726 
L 1516.233025 92.613644 
L 1522.7568 100.089931 
L 1529.280575 104.964694 
L 1535.80435 107.840016 
L 1542.328125 96.893588 
L 1548.8519 90.346892 
L 1555.375675 89.566653 
L 1561.89945 97.442457 
L 1568.423225 102.556992 
L 1574.947 92.869119 
L 1581.470775 93.413848 
L 1587.99455 100.092218 
L 1594.518325 99.514507 
L 1601.0421 91.620609 
L 1607.565875 102.280056 
L 1614.08965 98.840473 
L 1620.613425 107.464023 
L 1627.1372 100.886439 
L 1633.660975 100.447965 
L 1640.18475 96.761791 
L 1646.708525 90.551264 
L 1653.2323 88.38481 
L 1659.756075 85.136734 
L 1666.27985 95.745971 
L 1672.803625 96.538128 
L 1679.3274 107.754981 
L 1685.851175 106.778061 
L 1692.37495 96.402176 
L 1698.898725 99.197567 
L 1705.4225 95.168915 
L 1711.946275 102.739014 
L 1718.47005 96.116083 
L 1724.993825 97.9393 
L 1731.5176 100.521006 
L 1738.041375 99.39154 
L 1744.56515 98.176141 
L 1751.088925 93.973093 
L 1757.6127 92.995959 
L 1764.136475 85.253897 
L 1770.66025 82.403571 
L 1777.184025 82.490699 
L 1783.7078 73.658618 
L 1783.7078 73.658618 
L 1783.7078 73.658618 
L 1777.184025 67.774558 
L 1770.66025 71.737788 
L 1764.136475 68.900643 
L 1757.6127 70.40339 
L 1751.088925 71.669804 
L 1744.56515 72.241258 
L 1738.041375 68.780009 
L 1731.5176 73.861004 
L 1724.993825 71.167451 
L 1718.47005 68.938778 
L 1711.946275 69.832566 
L 1705.4225 67.618642 
L 1698.898725 66.707555 
L 1692.37495 68.234331 
L 1685.851175 67.37478 
L 1679.3274 69.514549 
L 1672.803625 71.936703 
L 1666.27985 71.32557 
L 1659.756075 64.965628 
L 1653.2323 68.181471 
L 1646.708525 69.287337 
L 1640.18475 64.185976 
L 1633.660975 74.736133 
L 1627.1372 71.157058 
L 1620.613425 70.536407 
L 1614.08965 71.301924 
L 1607.565875 61.393817 
L 1601.0421 71.623823 
L 1594.518325 74.134164 
L 1587.99455 64.965569 
L 1581.470775 69.912011 
L 1574.947 69.417787 
L 1568.423225 72.308263 
L 1561.89945 68.925977 
L 1555.375675 69.265558 
L 1548.8519 67.853399 
L 1542.328125 64.891141 
L 1535.80435 70.93276 
L 1529.280575 69.256897 
L 1522.7568 69.691907 
L 1516.233025 65.446221 
L 1509.70925 65.097871 
L 1503.185475 69.854132 
L 1496.6617 77.977638 
L 1490.137925 75.390914 
L 1483.61415 69.743819 
L 1477.090375 72.068962 
L 1470.5666 73.109129 
L 1464.042825 75.155643 
L 1457.51905 75.173436 
L 1450.995275 75.190163 
L 1444.4715 71.474029 
L 1437.947725 73.301368 
L 1431.42395 71.26553 
L 1424.900175 71.085378 
L 1418.3764 75.939623 
L 1411.852625 73.144681 
L 1405.32885 71.714652 
L 1398.805075 70.84576 
L 1392.2813 71.720253 
L 1385.757525 72.49029 
L 1379.23375 75.811865 
L 1372.709975 73.77493 
L 1366.1862 66.430514 
L 1359.662425 68.838859 
L 1353.13865 68.064852 
L 1346.614875 67.728577 
L 1340.0911 64.05301 
L 1333.567325 65.762876 
L 1327.04355 70.088177 
L 1320.519775 65.316869 
L 1313.996 67.484518 
L 1307.472225 70.73137 
L 1300.94845 69.793749 
L 1294.424675 71.007892 
L 1287.9009 72.172095 
L 1281.377125 71.580959 
L 1274.85335 71.98412 
L 1268.329575 72.828854 
L 1261.8058 71.277327 
L 1255.282025 77.165219 
L 1248.75825 72.238399 
L 1242.234475 67.118096 
L 1235.7107 74.257846 
L 1229.186925 71.508608 
L 1222.66315 67.834162 
L 1216.139375 71.229974 
L 1209.6156 72.475996 
L 1203.091825 74.616054 
L 1196.56805 77.925557 
L 1190.044275 77.407801 
L 1183.5205 75.325228 
L 1176.996725 76.147252 
L 1170.47295 76.477399 
L 1163.949175 78.10524 
L 1157.4254 76.905464 
L 1150.901625 72.260974 
L 1144.37785 74.96987 
L 1137.854075 74.007952 
L 1131.3303 73.899386 
L 1124.806525 75.45559 
L 1118.28275 75.780354 
L 1111.758975 70.80076 
L 1105.2352 72.437169 
L 1098.711425 73.531477 
L 1092.18765 74.472696 
L 1085.663875 76.773709 
L 1079.1401 75.329571 
L 1072.616325 76.653302 
L 1066.09255 72.74686 
L 1059.568775 72.730096 
L 1053.045 78.776194 
L 1046.521225 77.637155 
L 1039.99745 77.832285 
L 1033.473675 76.984111 
L 1026.9499 74.2748 
L 1020.426125 80.739711 
L 1013.90235 83.010001 
L 1007.378575 77.249725 
L 1000.8548 76.236958 
L 994.331025 78.704997 
L 987.80725 76.85773 
L 981.283475 86.901442 
L 974.7597 82.573032 
L 968.235925 76.114179 
L 961.71215 77.7 
L 955.188375 80.357347 
L 948.6646 81.736294 
L 942.140825 81.359928 
L 935.61705 86.781267 
L 929.093275 81.906911 
L 922.5695 86.199315 
L 916.045725 80.543339 
L 909.52195 82.263098 
L 902.998175 79.345041 
L 896.4744 79.898086 
L 889.950625 84.130211 
L 883.42685 88.709539 
L 876.903075 84.282848 
L 870.3793 84.837646 
L 863.855525 91.43779 
L 857.33175 86.416191 
L 850.807975 85.839276 
L 844.2842 84.287189 
L 837.760425 86.878691 
L 831.23665 88.291213 
L 824.712875 91.197661 
L 818.1891 85.967839 
L 811.665325 90.713127 
L 805.14155 91.391071 
L 798.617775 85.177199 
L 792.094 91.512234 
L 785.570225 93.490447 
L 779.04645 84.589276 
L 772.522675 86.314832 
L 765.9989 86.286819 
L 759.475125 70.291329 
L 752.95135 88.515471 
L 746.427575 93.656993 
L 739.9038 92.988808 
L 733.380025 93.018698 
L 726.85625 90.267603 
L 720.332475 95.011886 
L 713.8087 95.560295 
L 707.284925 92.641151 
L 700.76115 87.373274 
L 694.237375 88.05087 
L 687.7136 88.135355 
L 681.189825 92.007308 
L 674.66605 89.854037 
L 668.142275 93.270377 
L 661.6185 90.674407 
L 655.094725 86.353588 
L 648.57095 92.916355 
L 642.047175 91.225172 
L 635.5234 90.785556 
L 628.999625 93.125493 
L 622.47585 94.509442 
L 615.952075 95.039081 
L 609.4283 90.387986 
L 602.904525 91.241106 
L 596.38075 94.042266 
L 589.856975 91.697247 
L 583.3332 89.888654 
L 576.809425 81.869372 
L 570.28565 91.755816 
L 563.761875 86.076865 
L 557.2381 87.901466 
L 550.714325 94.302345 
L 544.19055 92.740343 
L 537.666775 93.197175 
L 531.143 94.47547 
L 524.619225 91.034035 
L 518.09545 93.717715 
L 511.571675 97.063441 
L 505.0479 103.910717 
L 498.524125 81.653683 
L 492.00035 91.48873 
L 485.476575 90.465255 
L 478.9528 96.483083 
L 472.429025 91.121075 
L 465.90525 95.352198 
L 459.381475 93.177585 
L 452.8577 98.668554 
L 446.333925 97.356406 
L 439.81015 99.835975 
L 433.286375 98.517854 
L 426.7626 83.964446 
L 420.238825 97.43692 
L 413.71505 103.960379 
L 407.191275 105.20476 
L 400.6675 101.573642 
L 394.143725 106.747504 
L 387.61995 95.979884 
L 381.096175 108.220081 
L 374.5724 107.943764 
L 368.048625 108.402134 
L 361.52485 107.732828 
L 355.001075 99.85399 
L 348.4773 108.066852 
L 341.953525 106.066251 
L 335.42975 103.115712 
L 328.905975 110.127184 
L 322.3822 115.343342 
L 315.858425 99.534387 
L 309.33465 114.283411 
L 302.810875 112.918444 
L 296.2871 116.027002 
L 289.763325 111.471047 
L 283.23955 114.877456 
L 276.715775 121.26138 
L 270.192 114.682538 
L 263.668225 108.368979 
L 257.14445 111.418435 
L 250.620675 121.585212 
L 244.0969 108.629214 
L 237.573125 120.112027 
L 231.04935 112.272045 
L 224.525575 123.444881 
L 218.0018 121.849217 
L 211.478025 127.898142 
L 204.95425 113.104192 
L 198.430475 121.330774 
L 191.9067 131.182055 
L 185.382925 128.72977 
L 178.85915 135.722041 
L 172.335375 131.110237 
L 165.8116 137.119473 
L 159.287825 141.479128 
L 152.76405 144.462227 
L 146.240275 148.454647 
L 139.7165 150.773624 
L 133.192725 167.901701 
L 126.66895 164.24846 
L 120.145175 159.967385 
L 113.6214 174.604386 
L 107.097625 185.203239 
L 100.57385 204.758264 
L 94.050075 214.760439 
L 87.5263 239.408876 
L 81.002525 346.469519 
L 74.47875 431.676486 
z
" clip-path="url(#p6af00a6308)" style="fill: #00c0c7; fill-opacity: 0.1; stroke: #00c0c7; stroke-opacity: 0.1"/>
   </g>
   <g id="matplotlib.axis_1">
    <g id="xtick_1">
     <g id="line2d_1">
      <defs>
       <path id="me57bcb0805" d="M 0 0 
L 0 3.5 
" style="stroke: #000000; stroke-width: 0.8"/>
      </defs>
      <g>
       <use xlink:href="#me57bcb0805" x="74.47875" y="482.099875" style="stroke: #000000; stroke-width: 0.8"/>
      </g>
     </g>
     <g id="text_1">
      <!-- 0 -->
      <g transform="translate(67.48 505.816437)scale(0.22 -0.22)">
       <defs>
        <path id="DejaVuSans-30" d="M 2034 4250 
Q 1547 4250 1301 3770 
Q 1056 3291 1056 2328 
Q 1056 1369 1301 889 
Q 1547 409 2034 409 
Q 2525 409 2770 889 
Q 3016 1369 3016 2328 
Q 3016 3291 2770 3770 
Q 2525 4250 2034 4250 
z
M 2034 4750 
Q 2819 4750 3233 4129 
Q 3647 3509 3647 2328 
Q 3647 1150 3233 529 
Q 2819 -91 2034 -91 
Q 1250 -91 836 529 
Q 422 1150 422 2328 
Q 422 3509 836 4129 
Q 1250 4750 2034 4750 
z
" transform="scale(0.015625)"/>
       </defs>
       <use xlink:href="#DejaVuSans-30"/>
      </g>
     </g>
    </g>
    <g id="xtick_2">
     <g id="line2d_2">
      <g>
       <use xlink:href="#me57bcb0805" x="237.573125" y="482.099875" style="stroke: #000000; stroke-width: 0.8"/>
      </g>
     </g>
     <g id="text_2">
      <!-- 25 -->
      <g transform="translate(223.575625 505.816437)scale(0.22 -0.22)">
       <defs>
        <path id="DejaVuSans-32" d="M 1228 531 
L 3431 531 
L 3431 0 
L 469 0 
L 469 531 
Q 828 903 1448 1529 
Q 2069 2156 2228 2338 
Q 2531 2678 2651 2914 
Q 2772 3150 2772 3378 
Q 2772 3750 2511 3984 
Q 2250 4219 1831 4219 
Q 1534 4219 1204 4116 
Q 875 4013 500 3803 
L 500 4441 
Q 881 4594 1212 4672 
Q 1544 4750 1819 4750 
Q 2544 4750 2975 4387 
Q 3406 4025 3406 3419 
Q 3406 3131 3298 2873 
Q 3191 2616 2906 2266 
Q 2828 2175 2409 1742 
Q 1991 1309 1228 531 
z
" transform="scale(0.015625)"/>
        <path id="DejaVuSans-35" d="M 691 4666 
L 3169 4666 
L 3169 4134 
L 1269 4134 
L 1269 2991 
Q 1406 3038 1543 3061 
Q 1681 3084 1819 3084 
Q 2600 3084 3056 2656 
Q 3513 2228 3513 1497 
Q 3513 744 3044 326 
Q 2575 -91 1722 -91 
Q 1428 -91 1123 -41 
Q 819 9 494 109 
L 494 744 
Q 775 591 1075 516 
Q 1375 441 1709 441 
Q 2250 441 2565 725 
Q 2881 1009 2881 1497 
Q 2881 1984 2565 2268 
Q 2250 2553 1709 2553 
Q 1456 2553 1204 2497 
Q 953 2441 691 2322 
L 691 4666 
z
" transform="scale(0.015625)"/>
       </defs>
       <use xlink:href="#DejaVuSans-32"/>
       <use xlink:href="#DejaVuSans-35" x="63.623047"/>
      </g>
     </g>
    </g>
    <g id="xtick_3">
     <g id="line2d_3">
      <g>
       <use xlink:href="#me57bcb0805" x="400.6675" y="482.099875" style="stroke: #000000; stroke-width: 0.8"/>
      </g>
     </g>
     <g id="text_3">
      <!-- 50 -->
      <g transform="translate(386.67 505.816437)scale(0.22 -0.22)">
       <use xlink:href="#DejaVuSans-35"/>
       <use xlink:href="#DejaVuSans-30" x="63.623047"/>
      </g>
     </g>
    </g>
    <g id="xtick_4">
     <g id="line2d_4">
      <g>
       <use xlink:href="#me57bcb0805" x="563.761875" y="482.099875" style="stroke: #000000; stroke-width: 0.8"/>
      </g>
     </g>
     <g id="text_4">
      <!-- 75 -->
      <g transform="translate(549.764375 505.816437)scale(0.22 -0.22)">
       <defs>
        <path id="DejaVuSans-37" d="M 525 4666 
L 3525 4666 
L 3525 4397 
L 1831 0 
L 1172 0 
L 2766 4134 
L 525 4134 
L 525 4666 
z
" transform="scale(0.015625)"/>
       </defs>
       <use xlink:href="#DejaVuSans-37"/>
       <use xlink:href="#DejaVuSans-35" x="63.623047"/>
      </g>
     </g>
    </g>
    <g id="xtick_5">
     <g id="line2d_5">
      <g>
       <use xlink:href="#me57bcb0805" x="726.85625" y="482.099875" style="stroke: #000000; stroke-width: 0.8"/>
      </g>
     </g>
     <g id="text_5">
      <!-- 100 -->
      <g transform="translate(705.86 505.816437)scale(0.22 -0.22)">
       <defs>
        <path id="DejaVuSans-31" d="M 794 531 
L 1825 531 
L 1825 4091 
L 703 3866 
L 703 4441 
L 1819 4666 
L 2450 4666 
L 2450 531 
L 3481 531 
L 3481 0 
L 794 0 
L 794 531 
z
" transform="scale(0.015625)"/>
       </defs>
       <use xlink:href="#DejaVuSans-31"/>
       <use xlink:href="#DejaVuSans-30" x="63.623047"/>
       <use xlink:href="#DejaVuSans-30" x="127.246094"/>
      </g>
     </g>
    </g>
    <g id="xtick_6">
     <g id="line2d_6">
      <g>
       <use xlink:href="#me57bcb0805" x="889.950625" y="482.099875" style="stroke: #000000; stroke-width: 0.8"/>
      </g>
     </g>
     <g id="text_6">
      <!-- 125 -->
      <g transform="translate(868.954375 505.816437)scale(0.22 -0.22)">
       <use xlink:href="#DejaVuSans-31"/>
       <use xlink:href="#DejaVuSans-32" x="63.623047"/>
       <use xlink:href="#DejaVuSans-35" x="127.246094"/>
      </g>
     </g>
    </g>
    <g id="xtick_7">
     <g id="line2d_7">
      <g>
       <use xlink:href="#me57bcb0805" x="1053.045" y="482.099875" style="stroke: #000000; stroke-width: 0.8"/>
      </g>
     </g>
     <g id="text_7">
      <!-- 150 -->
      <g transform="translate(1032.04875 505.816437)scale(0.22 -0.22)">
       <use xlink:href="#DejaVuSans-31"/>
       <use xlink:href="#DejaVuSans-35" x="63.623047"/>
       <use xlink:href="#DejaVuSans-30" x="127.246094"/>
      </g>
     </g>
    </g>
    <g id="xtick_8">
     <g id="line2d_8">
      <g>
       <use xlink:href="#me57bcb0805" x="1216.139375" y="482.099875" style="stroke: #000000; stroke-width: 0.8"/>
      </g>
     </g>
     <g id="text_8">
      <!-- 175 -->
      <g transform="translate(1195.143125 505.816437)scale(0.22 -0.22)">
       <use xlink:href="#DejaVuSans-31"/>
       <use xlink:href="#DejaVuSans-37" x="63.623047"/>
       <use xlink:href="#DejaVuSans-35" x="127.246094"/>
      </g>
     </g>
    </g>
    <g id="xtick_9">
     <g id="line2d_9">
      <g>
       <use xlink:href="#me57bcb0805" x="1379.23375" y="482.099875" style="stroke: #000000; stroke-width: 0.8"/>
      </g>
     </g>
     <g id="text_9">
      <!-- 200 -->
      <g transform="translate(1358.2375 505.816437)scale(0.22 -0.22)">
       <use xlink:href="#DejaVuSans-32"/>
       <use xlink:href="#DejaVuSans-30" x="63.623047"/>
       <use xlink:href="#DejaVuSans-30" x="127.246094"/>
      </g>
     </g>
    </g>
    <g id="text_10">
     <!-- Time in seconds -->
     <g transform="translate(637.960781 531.108312)scale(0.22 -0.22)">
      <defs>
       <path id="DejaVuSans-54" d="M -19 4666 
L 3928 4666 
L 3928 4134 
L 2272 4134 
L 2272 0 
L 1638 0 
L 1638 4134 
L -19 4134 
L -19 4666 
z
" transform="scale(0.015625)"/>
       <path id="DejaVuSans-69" d="M 603 3500 
L 1178 3500 
L 1178 0 
L 603 0 
L 603 3500 
z
M 603 4863 
L 1178 4863 
L 1178 4134 
L 603 4134 
L 603 4863 
z
" transform="scale(0.015625)"/>
       <path id="DejaVuSans-6d" d="M 3328 2828 
Q 3544 3216 3844 3400 
Q 4144 3584 4550 3584 
Q 5097 3584 5394 3201 
Q 5691 2819 5691 2113 
L 5691 0 
L 5113 0 
L 5113 2094 
Q 5113 2597 4934 2840 
Q 4756 3084 4391 3084 
Q 3944 3084 3684 2787 
Q 3425 2491 3425 1978 
L 3425 0 
L 2847 0 
L 2847 2094 
Q 2847 2600 2669 2842 
Q 2491 3084 2119 3084 
Q 1678 3084 1418 2786 
Q 1159 2488 1159 1978 
L 1159 0 
L 581 0 
L 581 3500 
L 1159 3500 
L 1159 2956 
Q 1356 3278 1631 3431 
Q 1906 3584 2284 3584 
Q 2666 3584 2933 3390 
Q 3200 3197 3328 2828 
z
" transform="scale(0.015625)"/>
       <path id="DejaVuSans-65" d="M 3597 1894 
L 3597 1613 
L 953 1613 
Q 991 1019 1311 708 
Q 1631 397 2203 397 
Q 2534 397 2845 478 
Q 3156 559 3463 722 
L 3463 178 
Q 3153 47 2828 -22 
Q 2503 -91 2169 -91 
Q 1331 -91 842 396 
Q 353 884 353 1716 
Q 353 2575 817 3079 
Q 1281 3584 2069 3584 
Q 2775 3584 3186 3129 
Q 3597 2675 3597 1894 
z
M 3022 2063 
Q 3016 2534 2758 2815 
Q 2500 3097 2075 3097 
Q 1594 3097 1305 2825 
Q 1016 2553 972 2059 
L 3022 2063 
z
" transform="scale(0.015625)"/>
       <path id="DejaVuSans-20" transform="scale(0.015625)"/>
       <path id="DejaVuSans-6e" d="M 3513 2113 
L 3513 0 
L 2938 0 
L 2938 2094 
Q 2938 2591 2744 2837 
Q 2550 3084 2163 3084 
Q 1697 3084 1428 2787 
Q 1159 2491 1159 1978 
L 1159 0 
L 581 0 
L 581 3500 
L 1159 3500 
L 1159 2956 
Q 1366 3272 1645 3428 
Q 1925 3584 2291 3584 
Q 2894 3584 3203 3211 
Q 3513 2838 3513 2113 
z
" transform="scale(0.015625)"/>
       <path id="DejaVuSans-73" d="M 2834 3397 
L 2834 2853 
Q 2591 2978 2328 3040 
Q 2066 3103 1784 3103 
Q 1356 3103 1142 2972 
Q 928 2841 928 2578 
Q 928 2378 1081 2264 
Q 1234 2150 1697 2047 
L 1894 2003 
Q 2506 1872 2764 1633 
Q 3022 1394 3022 966 
Q 3022 478 2636 193 
Q 2250 -91 1575 -91 
Q 1294 -91 989 -36 
Q 684 19 347 128 
L 347 722 
Q 666 556 975 473 
Q 1284 391 1588 391 
Q 1994 391 2212 530 
Q 2431 669 2431 922 
Q 2431 1156 2273 1281 
Q 2116 1406 1581 1522 
L 1381 1569 
Q 847 1681 609 1914 
Q 372 2147 372 2553 
Q 372 3047 722 3315 
Q 1072 3584 1716 3584 
Q 2034 3584 2315 3537 
Q 2597 3491 2834 3397 
z
" transform="scale(0.015625)"/>
       <path id="DejaVuSans-63" d="M 3122 3366 
L 3122 2828 
Q 2878 2963 2633 3030 
Q 2388 3097 2138 3097 
Q 1578 3097 1268 2742 
Q 959 2388 959 1747 
Q 959 1106 1268 751 
Q 1578 397 2138 397 
Q 2388 397 2633 464 
Q 2878 531 3122 666 
L 3122 134 
Q 2881 22 2623 -34 
Q 2366 -91 2075 -91 
Q 1284 -91 818 406 
Q 353 903 353 1747 
Q 353 2603 823 3093 
Q 1294 3584 2113 3584 
Q 2378 3584 2631 3529 
Q 2884 3475 3122 3366 
z
" transform="scale(0.015625)"/>
       <path id="DejaVuSans-6f" d="M 1959 3097 
Q 1497 3097 1228 2736 
Q 959 2375 959 1747 
Q 959 1119 1226 758 
Q 1494 397 1959 397 
Q 2419 397 2687 759 
Q 2956 1122 2956 1747 
Q 2956 2369 2687 2733 
Q 2419 3097 1959 3097 
z
M 1959 3584 
Q 2709 3584 3137 3096 
Q 3566 2609 3566 1747 
Q 3566 888 3137 398 
Q 2709 -91 1959 -91 
Q 1206 -91 779 398 
Q 353 888 353 1747 
Q 353 2609 779 3096 
Q 1206 3584 1959 3584 
z
" transform="scale(0.015625)"/>
       <path id="DejaVuSans-64" d="M 2906 2969 
L 2906 4863 
L 3481 4863 
L 3481 0 
L 2906 0 
L 2906 525 
Q 2725 213 2448 61 
Q 2172 -91 1784 -91 
Q 1150 -91 751 415 
Q 353 922 353 1747 
Q 353 2572 751 3078 
Q 1150 3584 1784 3584 
Q 2172 3584 2448 3432 
Q 2725 3281 2906 2969 
z
M 947 1747 
Q 947 1113 1208 752 
Q 1469 391 1925 391 
Q 2381 391 2643 752 
Q 2906 1113 2906 1747 
Q 2906 2381 2643 2742 
Q 2381 3103 1925 3103 
Q 1469 3103 1208 2742 
Q 947 2381 947 1747 
z
" transform="scale(0.015625)"/>
      </defs>
      <use xlink:href="#DejaVuSans-54"/>
      <use xlink:href="#DejaVuSans-69" x="57.958984"/>
      <use xlink:href="#DejaVuSans-6d" x="85.742188"/>
      <use xlink:href="#DejaVuSans-65" x="183.154297"/>
      <use xlink:href="#DejaVuSans-20" x="244.677734"/>
      <use xlink:href="#DejaVuSans-69" x="276.464844"/>
      <use xlink:href="#DejaVuSans-6e" x="304.248047"/>
      <use xlink:href="#DejaVuSans-20" x="367.626953"/>
      <use xlink:href="#DejaVuSans-73" x="399.414062"/>
      <use xlink:href="#DejaVuSans-65" x="451.513672"/>
      <use xlink:href="#DejaVuSans-63" x="513.037109"/>
      <use xlink:href="#DejaVuSans-6f" x="568.017578"/>
      <use xlink:href="#DejaVuSans-6e" x="629.199219"/>
      <use xlink:href="#DejaVuSans-64" x="692.578125"/>
      <use xlink:href="#DejaVuSans-73" x="756.054688"/>
     </g>
    </g>
   </g>
   <g id="matplotlib.axis_2">
    <g id="ytick_1">
     <g id="line2d_10">
      <defs>
       <path id="mb0b24087b9" d="M 0 0 
L -3.5 0 
" style="stroke: #000000; stroke-width: 0.8"/>
      </defs>
      <g>
       <use xlink:href="#mb0b24087b9" x="74.47875" y="457.561306" style="stroke: #000000; stroke-width: 0.8"/>
      </g>
     </g>
     <g id="text_11">
      <!-- 0.0 -->
      <g transform="translate(32.491875 465.919587)scale(0.22 -0.22)">
       <defs>
        <path id="DejaVuSans-2e" d="M 684 794 
L 1344 794 
L 1344 0 
L 684 0 
L 684 794 
z
" transform="scale(0.015625)"/>
       </defs>
       <use xlink:href="#DejaVuSans-30"/>
       <use xlink:href="#DejaVuSans-2e" x="63.623047"/>
       <use xlink:href="#DejaVuSans-30" x="95.410156"/>
      </g>
     </g>
    </g>
    <g id="ytick_2">
     <g id="line2d_11">
      <g>
       <use xlink:href="#mb0b24087b9" x="74.47875" y="402.560921" style="stroke: #000000; stroke-width: 0.8"/>
      </g>
     </g>
     <g id="text_12">
      <!-- 0.1 -->
      <g transform="translate(32.491875 410.919202)scale(0.22 -0.22)">
       <use xlink:href="#DejaVuSans-30"/>
       <use xlink:href="#DejaVuSans-2e" x="63.623047"/>
       <use xlink:href="#DejaVuSans-31" x="95.410156"/>
      </g>
     </g>
    </g>
    <g id="ytick_3">
     <g id="line2d_12">
      <g>
       <use xlink:href="#mb0b24087b9" x="74.47875" y="347.560536" style="stroke: #000000; stroke-width: 0.8"/>
      </g>
     </g>
     <g id="text_13">
      <!-- 0.2 -->
      <g transform="translate(32.491875 355.918817)scale(0.22 -0.22)">
       <use xlink:href="#DejaVuSans-30"/>
       <use xlink:href="#DejaVuSans-2e" x="63.623047"/>
       <use xlink:href="#DejaVuSans-32" x="95.410156"/>
      </g>
     </g>
    </g>
    <g id="ytick_4">
     <g id="line2d_13">
      <g>
       <use xlink:href="#mb0b24087b9" x="74.47875" y="292.560151" style="stroke: #000000; stroke-width: 0.8"/>
      </g>
     </g>
     <g id="text_14">
      <!-- 0.3 -->
      <g transform="translate(32.491875 300.918432)scale(0.22 -0.22)">
       <defs>
        <path id="DejaVuSans-33" d="M 2597 2516 
Q 3050 2419 3304 2112 
Q 3559 1806 3559 1356 
Q 3559 666 3084 287 
Q 2609 -91 1734 -91 
Q 1441 -91 1130 -33 
Q 819 25 488 141 
L 488 750 
Q 750 597 1062 519 
Q 1375 441 1716 441 
Q 2309 441 2620 675 
Q 2931 909 2931 1356 
Q 2931 1769 2642 2001 
Q 2353 2234 1838 2234 
L 1294 2234 
L 1294 2753 
L 1863 2753 
Q 2328 2753 2575 2939 
Q 2822 3125 2822 3475 
Q 2822 3834 2567 4026 
Q 2313 4219 1838 4219 
Q 1578 4219 1281 4162 
Q 984 4106 628 3988 
L 628 4550 
Q 988 4650 1302 4700 
Q 1616 4750 1894 4750 
Q 2613 4750 3031 4423 
Q 3450 4097 3450 3541 
Q 3450 3153 3228 2886 
Q 3006 2619 2597 2516 
z
" transform="scale(0.015625)"/>
       </defs>
       <use xlink:href="#DejaVuSans-30"/>
       <use xlink:href="#DejaVuSans-2e" x="63.623047"/>
       <use xlink:href="#DejaVuSans-33" x="95.410156"/>
      </g>
     </g>
    </g>
    <g id="ytick_5">
     <g id="line2d_14">
      <g>
       <use xlink:href="#mb0b24087b9" x="74.47875" y="237.559766" style="stroke: #000000; stroke-width: 0.8"/>
      </g>
     </g>
     <g id="text_15">
      <!-- 0.4 -->
      <g transform="translate(32.491875 245.918047)scale(0.22 -0.22)">
       <defs>
        <path id="DejaVuSans-34" d="M 2419 4116 
L 825 1625 
L 2419 1625 
L 2419 4116 
z
M 2253 4666 
L 3047 4666 
L 3047 1625 
L 3713 1625 
L 3713 1100 
L 3047 1100 
L 3047 0 
L 2419 0 
L 2419 1100 
L 313 1100 
L 313 1709 
L 2253 4666 
z
" transform="scale(0.015625)"/>
       </defs>
       <use xlink:href="#DejaVuSans-30"/>
       <use xlink:href="#DejaVuSans-2e" x="63.623047"/>
       <use xlink:href="#DejaVuSans-34" x="95.410156"/>
      </g>
     </g>
    </g>
    <g id="ytick_6">
     <g id="line2d_15">
      <g>
       <use xlink:href="#mb0b24087b9" x="74.47875" y="182.559381" style="stroke: #000000; stroke-width: 0.8"/>
      </g>
     </g>
     <g id="text_16">
      <!-- 0.5 -->
      <g transform="translate(32.491875 190.917662)scale(0.22 -0.22)">
       <use xlink:href="#DejaVuSans-30"/>
       <use xlink:href="#DejaVuSans-2e" x="63.623047"/>
       <use xlink:href="#DejaVuSans-35" x="95.410156"/>
      </g>
     </g>
    </g>
    <g id="ytick_7">
     <g id="line2d_16">
      <g>
       <use xlink:href="#mb0b24087b9" x="74.47875" y="127.558996" style="stroke: #000000; stroke-width: 0.8"/>
      </g>
     </g>
     <g id="text_17">
      <!-- 0.6 -->
      <g transform="translate(32.491875 135.917277)scale(0.22 -0.22)">
       <defs>
        <path id="DejaVuSans-36" d="M 2113 2584 
Q 1688 2584 1439 2293 
Q 1191 2003 1191 1497 
Q 1191 994 1439 701 
Q 1688 409 2113 409 
Q 2538 409 2786 701 
Q 3034 994 3034 1497 
Q 3034 2003 2786 2293 
Q 2538 2584 2113 2584 
z
M 3366 4563 
L 3366 3988 
Q 3128 4100 2886 4159 
Q 2644 4219 2406 4219 
Q 1781 4219 1451 3797 
Q 1122 3375 1075 2522 
Q 1259 2794 1537 2939 
Q 1816 3084 2150 3084 
Q 2853 3084 3261 2657 
Q 3669 2231 3669 1497 
Q 3669 778 3244 343 
Q 2819 -91 2113 -91 
Q 1303 -91 875 529 
Q 447 1150 447 2328 
Q 447 3434 972 4092 
Q 1497 4750 2381 4750 
Q 2619 4750 2861 4703 
Q 3103 4656 3366 4563 
z
" transform="scale(0.015625)"/>
       </defs>
       <use xlink:href="#DejaVuSans-30"/>
       <use xlink:href="#DejaVuSans-2e" x="63.623047"/>
       <use xlink:href="#DejaVuSans-36" x="95.410156"/>
      </g>
     </g>
    </g>
    <g id="ytick_8">
     <g id="line2d_17">
      <g>
       <use xlink:href="#mb0b24087b9" x="74.47875" y="72.558611" style="stroke: #000000; stroke-width: 0.8"/>
      </g>
     </g>
     <g id="text_18">
      <!-- 0.7 -->
      <g transform="translate(32.491875 80.916892)scale(0.22 -0.22)">
       <use xlink:href="#DejaVuSans-30"/>
       <use xlink:href="#DejaVuSans-2e" x="63.623047"/>
       <use xlink:href="#DejaVuSans-37" x="95.410156"/>
      </g>
     </g>
    </g>
    <g id="text_19">
     <!-- Test accuracy -->
     <g transform="translate(23.916563 332.466125)rotate(-90)scale(0.22 -0.22)">
      <defs>
       <path id="DejaVuSans-74" d="M 1172 4494 
L 1172 3500 
L 2356 3500 
L 2356 3053 
L 1172 3053 
L 1172 1153 
Q 1172 725 1289 603 
Q 1406 481 1766 481 
L 2356 481 
L 2356 0 
L 1766 0 
Q 1100 0 847 248 
Q 594 497 594 1153 
L 594 3053 
L 172 3053 
L 172 3500 
L 594 3500 
L 594 4494 
L 1172 4494 
z
" transform="scale(0.015625)"/>
       <path id="DejaVuSans-61" d="M 2194 1759 
Q 1497 1759 1228 1600 
Q 959 1441 959 1056 
Q 959 750 1161 570 
Q 1363 391 1709 391 
Q 2188 391 2477 730 
Q 2766 1069 2766 1631 
L 2766 1759 
L 2194 1759 
z
M 3341 1997 
L 3341 0 
L 2766 0 
L 2766 531 
Q 2569 213 2275 61 
Q 1981 -91 1556 -91 
Q 1019 -91 701 211 
Q 384 513 384 1019 
Q 384 1609 779 1909 
Q 1175 2209 1959 2209 
L 2766 2209 
L 2766 2266 
Q 2766 2663 2505 2880 
Q 2244 3097 1772 3097 
Q 1472 3097 1187 3025 
Q 903 2953 641 2809 
L 641 3341 
Q 956 3463 1253 3523 
Q 1550 3584 1831 3584 
Q 2591 3584 2966 3190 
Q 3341 2797 3341 1997 
z
" transform="scale(0.015625)"/>
       <path id="DejaVuSans-75" d="M 544 1381 
L 544 3500 
L 1119 3500 
L 1119 1403 
Q 1119 906 1312 657 
Q 1506 409 1894 409 
Q 2359 409 2629 706 
Q 2900 1003 2900 1516 
L 2900 3500 
L 3475 3500 
L 3475 0 
L 2900 0 
L 2900 538 
Q 2691 219 2414 64 
Q 2138 -91 1772 -91 
Q 1169 -91 856 284 
Q 544 659 544 1381 
z
M 1991 3584 
L 1991 3584 
z
" transform="scale(0.015625)"/>
       <path id="DejaVuSans-72" d="M 2631 2963 
Q 2534 3019 2420 3045 
Q 2306 3072 2169 3072 
Q 1681 3072 1420 2755 
Q 1159 2438 1159 1844 
L 1159 0 
L 581 0 
L 581 3500 
L 1159 3500 
L 1159 2956 
Q 1341 3275 1631 3429 
Q 1922 3584 2338 3584 
Q 2397 3584 2469 3576 
Q 2541 3569 2628 3553 
L 2631 2963 
z
" transform="scale(0.015625)"/>
       <path id="DejaVuSans-79" d="M 2059 -325 
Q 1816 -950 1584 -1140 
Q 1353 -1331 966 -1331 
L 506 -1331 
L 506 -850 
L 844 -850 
Q 1081 -850 1212 -737 
Q 1344 -625 1503 -206 
L 1606 56 
L 191 3500 
L 800 3500 
L 1894 763 
L 2988 3500 
L 3597 3500 
L 2059 -325 
z
" transform="scale(0.015625)"/>
      </defs>
      <use xlink:href="#DejaVuSans-54"/>
      <use xlink:href="#DejaVuSans-65" x="44.083984"/>
      <use xlink:href="#DejaVuSans-73" x="105.607422"/>
      <use xlink:href="#DejaVuSans-74" x="157.707031"/>
      <use xlink:href="#DejaVuSans-20" x="196.916016"/>
      <use xlink:href="#DejaVuSans-61" x="228.703125"/>
      <use xlink:href="#DejaVuSans-63" x="289.982422"/>
      <use xlink:href="#DejaVuSans-63" x="344.962891"/>
      <use xlink:href="#DejaVuSans-75" x="399.943359"/>
      <use xlink:href="#DejaVuSans-72" x="463.322266"/>
      <use xlink:href="#DejaVuSans-61" x="504.435547"/>
      <use xlink:href="#DejaVuSans-63" x="565.714844"/>
      <use xlink:href="#DejaVuSans-79" x="620.695312"/>
     </g>
    </g>
   </g>
   <g id="line2d_18">
    <path d="M 74.47875 355.296074 
L 81.002525 387.095141 
L 87.5263 344.482156 
L 94.050075 297.178565 
L 100.57385 242.29826 
L 107.097625 224.246437 
L 113.6214 212.651258 
L 120.145175 245.743156 
L 126.66895 223.97385 
L 133.192725 225.684682 
L 139.7165 202.486443 
L 146.240275 194.431002 
L 152.76405 210.871886 
L 159.287825 224.858907 
L 165.8116 220.348876 
L 172.335375 181.792709 
L 178.85915 216.476285 
L 185.382925 191.966909 
L 191.9067 184.801704 
L 198.430475 172.872746 
L 204.95425 164.692589 
L 211.478025 184.200798 
L 218.0018 173.067648 
L 224.525575 165.915418 
L 231.04935 153.028405 
L 237.573125 171.55097 
L 244.0969 165.593877 
L 250.620675 168.784284 
L 257.14445 158.46075 
L 263.668225 184.718351 
L 270.192 156.684573 
L 276.715775 163.990594 
L 283.23955 186.680179 
L 289.763325 187.684416 
L 296.2871 184.176556 
L 302.810875 163.167578 
L 309.33465 158.662945 
L 315.858425 147.367468 
L 322.3822 156.399822 
L 328.905975 149.928555 
L 335.42975 161.618189 
L 341.953525 185.216322 
L 348.4773 160.688639 
L 355.001075 144.279113 
L 361.52485 150.80692 
L 368.048625 152.072244 
L 374.5724 170.492132 
L 381.096175 153.509177 
L 387.61995 150.183035 
L 394.143725 141.000756 
L 400.6675 174.634325 
L 407.191275 141.672941 
L 413.71505 126.844812 
L 420.238825 166.142599 
L 426.7626 166.109265 
L 433.286375 163.450914 
L 439.81015 151.802816 
L 446.333925 152.475837 
L 452.8577 123.827431 
L 459.381475 174.092655 
L 465.90525 159.831529 
L 472.429025 163.876437 
L 478.9528 146.113032 
L 485.476575 152.767505 
L 492.00035 151.134161 
L 498.524125 147.858368 
L 505.0479 148.923208 
L 511.571675 147.376322 
L 518.09545 161.270001 
L 524.619225 159.691252 
L 531.143 141.809842 
L 537.666775 161.805329 
L 544.19055 128.718234 
L 550.714325 147.411516 
L 557.2381 151.642498 
L 563.761875 152.902142 
L 570.28565 155.70227 
L 576.809425 135.860616 
L 583.3332 151.699008 
L 589.856975 129.06516 
L 596.38075 158.426904 
L 602.904525 128.318525 
L 609.4283 144.338344 
L 615.952075 146.563744 
L 622.47585 124.394358 
L 628.999625 134.658276 
L 635.5234 126.62822 
L 642.047175 137.759848 
L 648.57095 130.463703 
L 655.094725 143.586452 
L 661.6185 159.450886 
L 668.142275 135.405144 
L 674.66605 130.09417 
L 681.189825 123.700375 
L 687.7136 126.12724 
L 694.237375 141.833711 
L 700.76115 148.158359 
L 707.284925 118.801242 
L 713.8087 152.79148 
L 720.332475 148.502793 
L 726.85625 131.070559 
L 733.380025 149.212224 
L 739.9038 144.523177 
L 746.427575 135.250588 
L 752.95135 155.126881 
L 759.475125 130.214483 
L 765.9989 151.269318 
L 772.522675 131.417616 
L 779.04645 158.419368 
L 785.570225 167.984279 
L 792.094 167.805309 
L 798.617775 131.636008 
L 805.14155 127.908998 
L 811.665325 128.005874 
L 818.1891 162.649241 
L 824.712875 136.066868 
L 831.23665 128.075153 
L 837.760425 109.718246 
L 844.2842 134.125708 
L 850.807975 139.830957 
L 857.33175 139.809081 
L 863.855525 127.887224 
L 870.3793 123.176152 
L 876.903075 129.884012 
L 883.42685 124.121472 
L 889.950625 159.289987 
L 896.4744 150.168385 
L 902.998175 130.50981 
L 909.52195 129.733626 
L 916.045725 143.105198 
L 922.5695 142.709102 
L 929.093275 134.287949 
L 935.61705 118.827684 
L 942.140825 127.745287 
L 948.6646 131.211365 
L 955.188375 122.185881 
L 961.71215 140.095591 
L 968.235925 136.178587 
L 974.7597 130.99652 
L 981.283475 135.445341 
L 987.80725 113.293271 
L 994.331025 122.748644 
L 1000.8548 124.372465 
L 1007.378575 107.0779 
L 1013.90235 114.481126 
L 1020.426125 134.030135 
L 1026.9499 123.040502 
L 1033.473675 134.86619 
L 1039.99745 131.832102 
L 1046.521225 116.998922 
L 1053.045 124.888816 
L 1059.568775 157.03074 
L 1066.09255 142.813009 
L 1072.616325 147.788825 
L 1079.1401 131.486367 
L 1085.663875 142.282176 
L 1092.18765 144.914673 
L 1098.711425 141.046782 
L 1105.2352 127.051961 
L 1111.758975 125.105804 
L 1118.28275 133.170754 
L 1124.806525 121.775361 
L 1131.3303 125.105132 
L 1137.854075 127.541254 
L 1144.37785 108.308861 
L 1150.901625 122.840994 
L 1157.4254 125.76057 
L 1163.949175 148.095293 
L 1170.47295 123.842303 
L 1176.996725 124.688663 
L 1183.5205 126.923054 
L 1190.044275 133.521736 
L 1196.56805 124.38788 
L 1203.091825 139.889727 
L 1209.6156 121.390491 
L 1216.139375 124.675911 
L 1222.66315 117.875594 
L 1229.186925 115.433129 
L 1235.7107 110.190905 
L 1242.234475 129.22704 
L 1248.75825 139.169233 
L 1255.282025 129.200136 
L 1261.8058 134.292107 
L 1268.329575 130.934019 
L 1274.85335 137.035985 
L 1281.377125 112.525557 
L 1287.9009 131.871724 
L 1294.424675 134.263804 
L 1300.94845 126.656646 
L 1307.472225 129.173523 
L 1313.996 139.563048 
L 1320.519775 126.796087 
L 1327.04355 151.986151 
L 1333.567325 121.5428 
L 1340.0911 133.804201 
L 1346.614875 148.602989 
L 1353.13865 121.77959 
L 1359.662425 126.778345 
L 1366.1862 128.440748 
L 1372.709975 151.561507 
L 1379.23375 160.686151 
L 1385.757525 177.22055 
L 1392.2813 148.899145 
L 1398.805075 105.467174 
L 1398.805075 105.467174 
" clip-path="url(#p6af00a6308)" style="fill: none; stroke: #ff0000; stroke-width: 1.5; stroke-linecap: square"/>
   </g>
   <g id="line2d_19">
    <path d="M 74.47875 406.937038 
L 81.002525 381.693127 
L 87.5263 375.272268 
L 94.050075 340.356564 
L 100.57385 286.277414 
L 107.097625 258.082458 
L 113.6214 242.61557 
L 120.145175 230.871719 
L 126.66895 258.114811 
L 133.192725 271.395579 
L 139.7165 238.077416 
L 146.240275 197.991219 
L 152.76405 199.026496 
L 159.287825 207.891911 
L 165.8116 195.155547 
L 172.335375 193.157532 
L 178.85915 177.145617 
L 185.382925 190.207547 
L 191.9067 182.084867 
L 198.430475 178.434352 
L 204.95425 163.373952 
L 211.478025 169.898715 
L 218.0018 193.813306 
L 224.525575 192.943453 
L 231.04935 180.726034 
L 237.573125 169.306403 
L 244.0969 162.727511 
L 250.620675 152.72976 
L 257.14445 155.829194 
L 263.668225 159.308237 
L 270.192 146.068741 
L 276.715775 155.080757 
L 283.23955 139.458117 
L 289.763325 134.761931 
L 296.2871 155.393504 
L 302.810875 150.216997 
L 309.33465 147.057171 
L 315.858425 131.657064 
L 322.3822 131.46091 
L 328.905975 134.396298 
L 335.42975 146.354319 
L 341.953525 156.277824 
L 348.4773 133.401489 
L 355.001075 165.649458 
L 361.52485 168.4534 
L 368.048625 130.452016 
L 374.5724 131.311963 
L 381.096175 131.772233 
L 387.61995 165.595536 
L 394.143725 140.08216 
L 400.6675 125.193979 
L 407.191275 143.467598 
L 413.71505 139.680649 
L 420.238825 157.129791 
L 426.7626 151.883694 
L 433.286375 127.448995 
L 439.81015 140.240815 
L 446.333925 134.508083 
L 452.8577 132.586031 
L 459.381475 130.869596 
L 465.90525 132.60609 
L 472.429025 130.891372 
L 478.9528 109.894166 
L 485.476575 123.015964 
L 492.00035 125.200325 
L 498.524125 121.551261 
L 505.0479 122.524345 
L 511.571675 116.294917 
L 518.09545 131.789794 
L 524.619225 142.808122 
L 531.143 128.733042 
L 537.666775 116.231032 
L 544.19055 119.794235 
L 550.714325 132.627659 
L 557.2381 139.077944 
L 563.761875 115.084908 
L 570.28565 139.022801 
L 576.809425 109.505928 
L 583.3332 111.520883 
L 589.856975 104.102949 
L 596.38075 135.701209 
L 602.904525 127.860959 
L 609.4283 106.281396 
L 615.952075 111.259843 
L 622.47585 126.139986 
L 628.999625 119.414708 
L 635.5234 119.759941 
L 642.047175 118.187361 
L 648.57095 124.777245 
L 655.094725 125.402981 
L 661.6185 100.957848 
L 668.142275 117.955928 
L 674.66605 100.333805 
L 681.189825 102.517644 
L 687.7136 115.458911 
L 694.237375 126.167809 
L 700.76115 127.877998 
L 707.284925 127.877998 
L 713.8087 113.808899 
L 720.332475 104.760797 
L 726.85625 108.082389 
L 733.380025 116.947157 
L 739.9038 113.9409 
L 746.427575 119.056853 
L 752.95135 107.582856 
L 759.475125 109.815871 
L 765.9989 112.40089 
L 772.522675 111.828885 
L 779.04645 114.402904 
L 785.570225 112.946148 
L 792.094 114.42361 
L 798.617775 111.333882 
L 805.14155 110.882879 
L 811.665325 114.760829 
L 818.1891 98.958795 
L 824.712875 110.314757 
L 831.23665 106.939243 
L 837.760425 115.470135 
L 844.2842 107.273559 
L 850.807975 93.139755 
L 857.33175 97.011782 
L 863.855525 109.177867 
L 870.3793 101.796815 
L 876.903075 123.202965 
L 883.42685 105.041191 
L 889.950625 97.330784 
L 896.4744 95.011709 
L 902.998175 104.656835 
L 909.52195 103.644828 
L 916.045725 121.211951 
L 922.5695 127.929191 
L 929.093275 104.161832 
L 935.61705 120.720268 
L 942.140825 110.104792 
L 948.6646 107.318854 
L 955.188375 105.526488 
L 961.71215 104.579835 
L 968.235925 89.982733 
L 974.7597 105.679842 
L 981.283475 114.952907 
L 987.80725 93.324062 
L 994.331025 120.993325 
L 1000.8548 110.204619 
L 1007.378575 110.856838 
L 1013.90235 106.306847 
L 1020.426125 99.904802 
L 1026.9499 98.570557 
L 1033.473675 110.598673 
L 1039.99745 104.788836 
L 1046.521225 105.246094 
L 1053.045 109.793871 
L 1059.568775 108.438274 
L 1066.09255 104.532873 
L 1072.616325 109.262949 
L 1079.1401 96.329777 
L 1085.663875 112.497352 
L 1092.18765 108.572863 
L 1098.711425 111.916886 
L 1105.2352 99.032834 
L 1111.758975 101.323812 
L 1118.28275 113.954819 
L 1124.806525 104.879425 
L 1131.3303 100.522532 
L 1137.854075 110.564999 
L 1144.37785 103.617652 
L 1150.901625 94.704684 
L 1157.4254 113.873606 
L 1163.949175 96.251914 
L 1170.47295 94.861828 
L 1176.996725 109.516712 
L 1183.5205 100.249621 
L 1190.044275 95.292103 
L 1196.56805 101.517997 
L 1203.091825 86.77071 
L 1209.6156 89.979141 
L 1216.139375 96.51184 
L 1222.66315 97.572786 
L 1229.186925 105.701843 
L 1235.7107 96.354696 
L 1242.234475 98.485792 
L 1248.75825 99.433309 
L 1255.282025 103.576536 
L 1261.8058 93.821759 
L 1268.329575 102.668625 
L 1274.85335 123.741322 
L 1281.377125 108.276508 
L 1287.9009 111.01488 
L 1294.424675 96.582779 
L 1300.94845 96.866624 
L 1307.472225 88.376721 
L 1313.996 102.291819 
L 1320.519775 106.108845 
L 1327.04355 122.102957 
L 1333.567325 105.50492 
L 1340.0911 101.201119 
L 1346.614875 99.778189 
L 1353.13865 103.479827 
L 1359.662425 98.333301 
L 1366.1862 103.633828 
L 1372.709975 102.203818 
L 1379.23375 108.297861 
L 1385.757525 104.437265 
L 1392.2813 96.516778 
L 1398.805075 107.802857 
L 1405.32885 102.4098 
L 1408.43 100.246425 
L 1408.43 100.246425 
" clip-path="url(#p6af00a6308)" style="fill: none; stroke: #5144d3; stroke-width: 1.5; stroke-linecap: square"/>
   </g>
   <g id="line2d_20">
    <path d="M 74.47875 379.809095 
L 81.002525 392.536657 
L 87.5263 333.996731 
L 94.050075 281.856901 
L 100.57385 249.316098 
L 107.097625 223.774185 
L 113.6214 208.511101 
L 120.145175 201.215156 
L 126.66895 195.785664 
L 133.192725 187.255567 
L 139.7165 184.351329 
L 146.240275 180.394286 
L 152.76405 164.804569 
L 159.287825 166.958478 
L 165.8116 156.036973 
L 172.335375 150.100282 
L 178.85915 160.142288 
L 185.382925 151.436147 
L 191.9067 149.59407 
L 198.430475 139.135267 
L 204.95425 148.296846 
L 211.478025 142.66156 
L 218.0018 142.182114 
L 224.525575 129.109826 
L 231.04935 133.24838 
L 237.573125 133.484844 
L 244.0969 138.459892 
L 250.620675 132.851656 
L 257.14445 126.240732 
L 263.668225 126.139631 
L 270.192 119.516316 
L 276.715775 118.537158 
L 283.23955 122.94257 
L 289.763325 122.216101 
L 296.2871 120.839782 
L 302.810875 109.284674 
L 309.33465 119.63894 
L 315.858425 117.731058 
L 322.3822 109.3379 
L 328.905975 116.31053 
L 335.42975 112.185078 
L 341.953525 108.462141 
L 348.4773 106.451471 
L 355.001075 113.654211 
L 361.52485 104.269488 
L 368.048625 106.822132 
L 374.5724 103.969942 
L 381.096175 107.60805 
L 387.61995 100.999132 
L 394.143725 101.096714 
L 400.6675 111.269715 
L 407.191275 109.697395 
L 413.71505 99.130672 
L 420.238825 95.80958 
L 426.7626 104.334639 
L 433.286375 101.429305 
L 439.81015 103.385017 
L 446.333925 103.12311 
L 452.8577 103.855604 
L 459.381475 107.812083 
L 465.90525 98.621696 
L 472.429025 101.176553 
L 478.9528 112.487116 
L 485.476575 103.000887 
L 492.00035 96.153776 
L 498.524125 98.487364 
L 505.0479 98.516989 
L 511.571675 101.912848 
L 518.09545 98.354693 
L 524.619225 92.234555 
L 531.143 96.148619 
L 537.666775 99.91454 
L 544.19055 95.924903 
L 550.714325 95.307131 
L 557.2381 96.966159 
L 563.761875 91.878587 
L 570.28565 95.030196 
L 576.809425 92.101489 
L 583.3332 93.467773 
L 589.856975 91.294226 
L 596.38075 92.1902 
L 602.904525 94.150697 
L 609.4283 103.331777 
L 615.952075 92.76907 
L 622.47585 92.688752 
L 628.999625 90.743659 
L 635.5234 95.312802 
L 642.047175 96.208776 
L 648.57095 90.822231 
L 655.094725 95.920679 
L 661.6185 91.950682 
L 668.142275 92.690498 
L 674.66605 96.909588 
L 681.189825 93.116132 
L 687.7136 91.551485 
L 694.237375 91.18661 
L 700.76115 88.81428 
L 707.284925 92.107053 
L 713.8087 89.743977 
L 720.332475 89.883732 
L 726.85625 89.698895 
L 733.380025 88.845821 
L 739.9038 91.826487 
L 746.427575 93.495424 
L 752.95135 86.867727 
L 759.475125 93.007934 
L 772.522675 93.201497 
L 779.04645 89.671845 
L 785.570225 88.148064 
L 792.094 89.679698 
L 798.617775 89.506187 
L 805.14155 86.308707 
L 811.665325 90.150004 
L 818.1891 88.415501 
L 824.712875 94.576507 
L 831.23665 90.078895 
L 837.760425 89.732924 
L 844.2842 93.854072 
L 850.807975 88.319377 
L 857.33175 91.382936 
L 863.855525 94.722047 
L 870.3793 90.519392 
L 876.903075 87.778248 
L 883.42685 89.564375 
L 889.950625 90.546441 
L 896.4744 85.767574 
L 902.998175 89.909513 
L 909.52195 90.653737 
L 916.045725 91.014295 
L 922.5695 89.933322 
L 929.093275 84.234922 
L 935.61705 85.461876 
L 942.140825 90.494329 
L 948.6646 86.93855 
L 955.188375 86.768546 
L 961.71215 84.135741 
L 968.235925 91.241281 
L 974.7597 86.813628 
L 981.283475 89.129694 
L 987.80725 89.929566 
L 994.331025 89.413567 
L 1000.8548 85.959498 
L 1007.378575 90.925133 
L 1013.90235 85.918382 
L 1020.426125 87.592049 
L 1026.9499 91.57041 
L 1033.473675 88.725117 
L 1039.99745 90.771853 
L 1046.521225 84.868221 
L 1053.045 90.510376 
L 1059.568775 89.911232 
L 1066.09255 88.536222 
L 1072.616325 89.20788 
L 1079.1401 82.73819 
L 1085.663875 83.661231 
L 1092.18765 86.29954 
L 1098.711425 87.317047 
L 1105.2352 89.32922 
L 1111.758975 86.069189 
L 1118.28275 82.215236 
L 1124.806525 84.811975 
L 1131.3303 82.165936 
L 1137.854075 87.444199 
L 1144.37785 89.18706 
L 1150.901625 88.023973 
L 1157.4254 85.694536 
L 1163.949175 85.47904 
L 1170.47295 81.237485 
L 1176.996725 83.894283 
L 1183.5205 81.523673 
L 1190.044275 84.854459 
L 1196.56805 84.383693 
L 1203.091825 81.088179 
L 1209.6156 85.667036 
L 1216.139375 82.377532 
L 1229.186925 85.337033 
L 1235.7107 84.582833 
L 1242.234475 82.756223 
L 1248.75825 82.980717 
L 1255.282025 84.86953 
L 1261.8058 83.315243 
L 1268.329575 84.345762 
L 1274.85335 84.550498 
L 1281.377125 83.43952 
L 1287.9009 87.564549 
L 1294.424675 86.184512 
L 1300.94845 78.997449 
L 1307.472225 84.712794 
L 1313.996 81.070146 
L 1320.519775 84.171807 
L 1327.04355 81.619691 
L 1333.567325 84.222485 
L 1340.0911 81.710314 
L 1346.614875 82.140257 
L 1353.13865 84.080725 
L 1359.662425 84.781972 
L 1366.1862 83.838351 
L 1372.709975 80.538175 
L 1379.23375 78.981236 
L 1385.757525 76.977286 
L 1392.2813 56.488186 
L 1398.805075 57.296004 
L 1398.805075 57.296004 
" clip-path="url(#p6af00a6308)" style="fill: none; stroke: #e8871a; stroke-width: 1.5; stroke-linecap: square"/>
   </g>
   <g id="line2d_21">
    <path d="M 74.47875 446.687271 
L 81.002525 381.520577 
L 87.5263 293.077801 
L 94.050075 273.938592 
L 100.57385 248.273841 
L 107.097625 242.256798 
L 113.6214 216.318617 
L 120.145175 214.578232 
L 126.66895 196.223202 
L 133.192725 194.868467 
L 139.7165 194.896722 
L 146.240275 176.79534 
L 152.76405 170.965299 
L 159.287825 186.893411 
L 165.8116 171.273302 
L 172.335375 168.960266 
L 178.85915 173.792319 
L 185.382925 158.105363 
L 191.9067 171.424609 
L 198.430475 152.177168 
L 204.95425 158.303088 
L 211.478025 147.381583 
L 218.0018 148.081688 
L 224.525575 141.996597 
L 231.04935 145.266963 
L 237.573125 141.06709 
L 244.0969 147.488547 
L 250.620675 137.646066 
L 257.14445 139.329078 
L 263.668225 136.414058 
L 270.192 134.072767 
L 276.715775 135.435051 
L 283.23955 145.957164 
L 289.763325 140.068887 
L 296.2871 140.583087 
L 302.810875 130.485016 
L 309.33465 135.086499 
L 315.858425 141.23052 
L 322.3822 131.020785 
L 328.905975 129.747786 
L 335.42975 135.710053 
L 341.953525 129.284498 
L 348.4773 134.808046 
L 355.001075 129.429009 
L 361.52485 123.026964 
L 368.048625 131.607024 
L 374.5724 120.705948 
L 381.096175 124.709976 
L 387.61995 123.89597 
L 394.143725 122.036957 
L 400.6675 118.618737 
L 407.191275 117.856928 
L 413.71505 128.053999 
L 420.238825 122.544255 
L 426.7626 124.225299 
L 433.286375 115.458911 
L 439.81015 119.084446 
L 446.333925 108.17686 
L 452.8577 114.633905 
L 459.381475 110.310875 
L 465.90525 112.594308 
L 472.429025 115.38342 
L 478.9528 117.456884 
L 485.476575 112.148103 
L 492.00035 110.54255 
L 498.524125 114.831907 
L 505.0479 114.370128 
L 511.571675 109.743185 
L 518.09545 110.351732 
L 524.619225 110.365875 
L 531.143 104.660876 
L 537.666775 104.599031 
L 544.19055 106.625176 
L 550.714325 107.085383 
L 557.2381 102.460861 
L 563.761875 102.808822 
L 570.28565 108.427489 
L 576.809425 103.26903 
L 583.3332 99.992803 
L 589.856975 105.592515 
L 602.904525 111.306921 
L 609.4283 103.066987 
L 615.952075 112.001744 
L 622.47585 107.582856 
L 628.999625 107.287425 
L 635.5234 106.849667 
L 642.047175 107.467018 
L 648.57095 103.673114 
L 655.094725 102.487987 
L 661.6185 104.582304 
L 668.142275 104.189444 
L 674.66605 101.224811 
L 681.189825 104.851694 
L 687.7136 107.846858 
L 694.237375 104.279241 
L 700.76115 105.421341 
L 707.284925 104.480403 
L 713.8087 108.757844 
L 720.332475 104.761897 
L 726.85625 103.721829 
L 733.380025 105.098634 
L 739.9038 107.568039 
L 746.427575 107.758857 
L 752.95135 102.775149 
L 759.475125 98.891448 
L 765.9989 99.187964 
L 772.522675 97.275784 
L 779.04645 100.986935 
L 785.570225 107.690107 
L 792.094 102.877573 
L 798.617775 101.301812 
L 805.14155 105.412922 
L 811.665325 103.496327 
L 818.1891 100.047101 
L 824.712875 100.448389 
L 831.23665 101.445769 
L 837.760425 99.893802 
L 844.2842 98.806667 
L 850.807975 104.953837 
L 857.33175 100.023696 
L 863.855525 104.144546 
L 870.3793 97.583786 
L 876.903075 101.296312 
L 883.42685 96.814903 
L 889.950625 96.792454 
L 896.4744 94.367459 
L 902.998175 92.369749 
L 909.52195 99.016087 
L 916.045725 93.029754 
L 922.5695 96.601636 
L 929.093275 97.068157 
L 935.61705 105.910844 
L 942.140825 94.098557 
L 948.6646 90.708738 
L 955.188375 103.796584 
L 961.71215 93.436757 
L 968.235925 91.270444 
L 974.7597 93.256715 
L 981.283475 100.952559 
L 987.80725 91.636869 
L 994.331025 90.888331 
L 1000.8548 92.470995 
L 1007.378575 91.390742 
L 1013.90235 93.894177 
L 1020.426125 93.672024 
L 1026.9499 88.431722 
L 1033.473675 92.370208 
L 1039.99745 94.260846 
L 1046.521225 88.309785 
L 1053.045 92.095206 
L 1059.568775 93.941413 
L 1066.09255 90.814058 
L 1072.616325 96.002525 
L 1079.1401 87.637883 
L 1085.663875 90.971783 
L 1092.18765 89.842774 
L 1098.711425 85.99933 
L 1105.2352 83.979967 
L 1111.758975 89.001434 
L 1118.28275 88.138312 
L 1124.806525 86.927461 
L 1131.3303 89.491708 
L 1137.854075 84.647237 
L 1150.901625 87.330143 
L 1157.4254 91.326089 
L 1163.949175 90.387902 
L 1170.47295 88.222262 
L 1176.996725 89.780606 
L 1183.5205 91.472008 
L 1190.044275 87.891371 
L 1196.56805 87.00463 
L 1203.091825 85.852321 
L 1209.6156 85.428701 
L 1216.139375 86.801419 
L 1222.66315 82.367013 
L 1229.186925 80.51683 
L 1235.7107 82.380108 
L 1242.234475 86.396707 
L 1248.75825 86.69488 
L 1255.282025 90.101442 
L 1261.8058 82.564 
L 1268.329575 89.210855 
L 1274.85335 87.771483 
L 1281.377125 85.466148 
L 1287.9009 84.670154 
L 1294.424675 81.370131 
L 1300.94845 81.633674 
L 1307.472225 83.839801 
L 1313.996 78.620355 
L 1320.519775 79.462914 
L 1327.04355 83.546731 
L 1333.567325 78.410652 
L 1340.0911 79.638447 
L 1346.614875 80.224991 
L 1353.13865 76.480377 
L 1359.662425 81.686334 
L 1366.1862 84.479102 
L 1379.23375 89.287894 
L 1385.757525 91.188528 
L 1392.2813 88.795681 
L 1398.805075 86.566155 
L 1405.32885 80.855477 
L 1408.43 85.357457 
L 1408.43 85.357457 
" clip-path="url(#p6af00a6308)" style="fill: none; stroke: #00c0c7; stroke-width: 1.5; stroke-linecap: square"/>
   </g>
   <g id="patch_3">
    <path d="M 74.47875 482.099875 
L 74.47875 33.259875 
" style="fill: none; stroke: #000000; stroke-width: 0.8; stroke-linejoin: miter; stroke-linecap: square"/>
   </g>
   <g id="patch_4">
    <path d="M 1379.23375 482.099875 
L 1379.23375 33.259875 
" style="fill: none; stroke: #000000; stroke-width: 0.8; stroke-linejoin: miter; stroke-linecap: square"/>
   </g>
   <g id="patch_5">
    <path d="M 74.47875 482.099875 
L 1379.23375 482.099875 
" style="fill: none; stroke: #000000; stroke-width: 0.8; stroke-linejoin: miter; stroke-linecap: square"/>
   </g>
   <g id="patch_6">
    <path d="M 74.47875 33.259875 
L 1379.23375 33.259875 
" style="fill: none; stroke: #000000; stroke-width: 0.8; stroke-linejoin: miter; stroke-linecap: square"/>
   </g>
   <g id="text_20">
    <!-- Dataset: time -->
    <g transform="translate(636.702313 27.259875)scale(0.264 -0.264)">
     <defs>
      <path id="DejaVuSans-44" d="M 1259 4147 
L 1259 519 
L 2022 519 
Q 2988 519 3436 956 
Q 3884 1394 3884 2338 
Q 3884 3275 3436 3711 
Q 2988 4147 2022 4147 
L 1259 4147 
z
M 628 4666 
L 1925 4666 
Q 3281 4666 3915 4102 
Q 4550 3538 4550 2338 
Q 4550 1131 3912 565 
Q 3275 0 1925 0 
L 628 0 
L 628 4666 
z
" transform="scale(0.015625)"/>
      <path id="DejaVuSans-3a" d="M 750 794 
L 1409 794 
L 1409 0 
L 750 0 
L 750 794 
z
M 750 3309 
L 1409 3309 
L 1409 2516 
L 750 2516 
L 750 3309 
z
" transform="scale(0.015625)"/>
     </defs>
     <use xlink:href="#DejaVuSans-44"/>
     <use xlink:href="#DejaVuSans-61" x="77.001953"/>
     <use xlink:href="#DejaVuSans-74" x="138.28125"/>
     <use xlink:href="#DejaVuSans-61" x="177.490234"/>
     <use xlink:href="#DejaVuSans-73" x="238.769531"/>
     <use xlink:href="#DejaVuSans-65" x="290.869141"/>
     <use xlink:href="#DejaVuSans-74" x="352.392578"/>
     <use xlink:href="#DejaVuSans-3a" x="391.601562"/>
     <use xlink:href="#DejaVuSans-20" x="425.292969"/>
     <use xlink:href="#DejaVuSans-74" x="457.080078"/>
     <use xlink:href="#DejaVuSans-69" x="496.289062"/>
     <use xlink:href="#DejaVuSans-6d" x="524.072266"/>
     <use xlink:href="#DejaVuSans-65" x="621.484375"/>
    </g>
   </g>
  </g>
  <g id="legend_1">
   <g id="patch_7">
    <path d="M 1037.139688 461.219875 
L 1369.63875 461.219875 
Q 1374.03875 461.219875 1374.03875 456.819875 
L 1374.03875 329.852375 
Q 1374.03875 325.452375 1369.63875 325.452375 
L 1037.139688 325.452375 
Q 1032.739687 325.452375 1032.739687 329.852375 
L 1032.739687 456.819875 
Q 1032.739687 461.219875 1037.139688 461.219875 
L 1037.139688 461.219875 
z
" style="fill: none; opacity: 0"/>
   </g>
   <g id="line2d_22">
    <path d="M 1041.539687 343.268937 
L 1063.539687 343.268937 
L 1085.539687 343.268937 
" style="fill: none; stroke: #00c0c7; stroke-width: 4; stroke-linecap: square"/>
   </g>
   <g id="text_21">
    <!-- DataGossip-balanced -->
    <g transform="translate(1103.139687 350.968937)scale(0.22 -0.22)">
     <defs>
      <path id="DejaVuSans-47" d="M 3809 666 
L 3809 1919 
L 2778 1919 
L 2778 2438 
L 4434 2438 
L 4434 434 
Q 4069 175 3628 42 
Q 3188 -91 2688 -91 
Q 1594 -91 976 548 
Q 359 1188 359 2328 
Q 359 3472 976 4111 
Q 1594 4750 2688 4750 
Q 3144 4750 3555 4637 
Q 3966 4525 4313 4306 
L 4313 3634 
Q 3963 3931 3569 4081 
Q 3175 4231 2741 4231 
Q 1884 4231 1454 3753 
Q 1025 3275 1025 2328 
Q 1025 1384 1454 906 
Q 1884 428 2741 428 
Q 3075 428 3337 486 
Q 3600 544 3809 666 
z
" transform="scale(0.015625)"/>
      <path id="DejaVuSans-70" d="M 1159 525 
L 1159 -1331 
L 581 -1331 
L 581 3500 
L 1159 3500 
L 1159 2969 
Q 1341 3281 1617 3432 
Q 1894 3584 2278 3584 
Q 2916 3584 3314 3078 
Q 3713 2572 3713 1747 
Q 3713 922 3314 415 
Q 2916 -91 2278 -91 
Q 1894 -91 1617 61 
Q 1341 213 1159 525 
z
M 3116 1747 
Q 3116 2381 2855 2742 
Q 2594 3103 2138 3103 
Q 1681 3103 1420 2742 
Q 1159 2381 1159 1747 
Q 1159 1113 1420 752 
Q 1681 391 2138 391 
Q 2594 391 2855 752 
Q 3116 1113 3116 1747 
z
" transform="scale(0.015625)"/>
      <path id="DejaVuSans-2d" d="M 313 2009 
L 1997 2009 
L 1997 1497 
L 313 1497 
L 313 2009 
z
" transform="scale(0.015625)"/>
      <path id="DejaVuSans-62" d="M 3116 1747 
Q 3116 2381 2855 2742 
Q 2594 3103 2138 3103 
Q 1681 3103 1420 2742 
Q 1159 2381 1159 1747 
Q 1159 1113 1420 752 
Q 1681 391 2138 391 
Q 2594 391 2855 752 
Q 3116 1113 3116 1747 
z
M 1159 2969 
Q 1341 3281 1617 3432 
Q 1894 3584 2278 3584 
Q 2916 3584 3314 3078 
Q 3713 2572 3713 1747 
Q 3713 922 3314 415 
Q 2916 -91 2278 -91 
Q 1894 -91 1617 61 
Q 1341 213 1159 525 
L 1159 0 
L 581 0 
L 581 4863 
L 1159 4863 
L 1159 2969 
z
" transform="scale(0.015625)"/>
      <path id="DejaVuSans-6c" d="M 603 4863 
L 1178 4863 
L 1178 0 
L 603 0 
L 603 4863 
z
" transform="scale(0.015625)"/>
     </defs>
     <use xlink:href="#DejaVuSans-44"/>
     <use xlink:href="#DejaVuSans-61" x="77.001953"/>
     <use xlink:href="#DejaVuSans-74" x="138.28125"/>
     <use xlink:href="#DejaVuSans-61" x="177.490234"/>
     <use xlink:href="#DejaVuSans-47" x="238.769531"/>
     <use xlink:href="#DejaVuSans-6f" x="316.259766"/>
     <use xlink:href="#DejaVuSans-73" x="377.441406"/>
     <use xlink:href="#DejaVuSans-73" x="429.541016"/>
     <use xlink:href="#DejaVuSans-69" x="481.640625"/>
     <use xlink:href="#DejaVuSans-70" x="509.423828"/>
     <use xlink:href="#DejaVuSans-2d" x="572.900391"/>
     <use xlink:href="#DejaVuSans-62" x="608.984375"/>
     <use xlink:href="#DejaVuSans-61" x="672.460938"/>
     <use xlink:href="#DejaVuSans-6c" x="733.740234"/>
     <use xlink:href="#DejaVuSans-61" x="761.523438"/>
     <use xlink:href="#DejaVuSans-6e" x="822.802734"/>
     <use xlink:href="#DejaVuSans-63" x="886.181641"/>
     <use xlink:href="#DejaVuSans-65" x="941.162109"/>
     <use xlink:href="#DejaVuSans-64" x="1002.685547"/>
    </g>
   </g>
   <g id="line2d_23">
    <path d="M 1041.539687 375.560812 
L 1063.539687 375.560812 
L 1085.539687 375.560812 
" style="fill: none; stroke: #e8871a; stroke-width: 4; stroke-linecap: square"/>
   </g>
   <g id="text_22">
    <!-- Baseline-balanced -->
    <g transform="translate(1103.139687 383.260812)scale(0.22 -0.22)">
     <defs>
      <path id="DejaVuSans-42" d="M 1259 2228 
L 1259 519 
L 2272 519 
Q 2781 519 3026 730 
Q 3272 941 3272 1375 
Q 3272 1813 3026 2020 
Q 2781 2228 2272 2228 
L 1259 2228 
z
M 1259 4147 
L 1259 2741 
L 2194 2741 
Q 2656 2741 2882 2914 
Q 3109 3088 3109 3444 
Q 3109 3797 2882 3972 
Q 2656 4147 2194 4147 
L 1259 4147 
z
M 628 4666 
L 2241 4666 
Q 2963 4666 3353 4366 
Q 3744 4066 3744 3513 
Q 3744 3084 3544 2831 
Q 3344 2578 2956 2516 
Q 3422 2416 3680 2098 
Q 3938 1781 3938 1306 
Q 3938 681 3513 340 
Q 3088 0 2303 0 
L 628 0 
L 628 4666 
z
" transform="scale(0.015625)"/>
     </defs>
     <use xlink:href="#DejaVuSans-42"/>
     <use xlink:href="#DejaVuSans-61" x="68.603516"/>
     <use xlink:href="#DejaVuSans-73" x="129.882812"/>
     <use xlink:href="#DejaVuSans-65" x="181.982422"/>
     <use xlink:href="#DejaVuSans-6c" x="243.505859"/>
     <use xlink:href="#DejaVuSans-69" x="271.289062"/>
     <use xlink:href="#DejaVuSans-6e" x="299.072266"/>
     <use xlink:href="#DejaVuSans-65" x="362.451172"/>
     <use xlink:href="#DejaVuSans-2d" x="423.974609"/>
     <use xlink:href="#DejaVuSans-62" x="460.058594"/>
     <use xlink:href="#DejaVuSans-61" x="523.535156"/>
     <use xlink:href="#DejaVuSans-6c" x="584.814453"/>
     <use xlink:href="#DejaVuSans-61" x="612.597656"/>
     <use xlink:href="#DejaVuSans-6e" x="673.876953"/>
     <use xlink:href="#DejaVuSans-63" x="737.255859"/>
     <use xlink:href="#DejaVuSans-65" x="792.236328"/>
     <use xlink:href="#DejaVuSans-64" x="853.759766"/>
    </g>
   </g>
   <g id="line2d_24">
    <path d="M 1041.539687 407.852687 
L 1063.539687 407.852687 
L 1085.539687 407.852687 
" style="fill: none; stroke: #5144d3; stroke-width: 4; stroke-linecap: square"/>
   </g>
   <g id="text_23">
    <!-- DataGossip-imbalanced -->
    <g transform="translate(1103.139687 415.552687)scale(0.22 -0.22)">
     <use xlink:href="#DejaVuSans-44"/>
     <use xlink:href="#DejaVuSans-61" x="77.001953"/>
     <use xlink:href="#DejaVuSans-74" x="138.28125"/>
     <use xlink:href="#DejaVuSans-61" x="177.490234"/>
     <use xlink:href="#DejaVuSans-47" x="238.769531"/>
     <use xlink:href="#DejaVuSans-6f" x="316.259766"/>
     <use xlink:href="#DejaVuSans-73" x="377.441406"/>
     <use xlink:href="#DejaVuSans-73" x="429.541016"/>
     <use xlink:href="#DejaVuSans-69" x="481.640625"/>
     <use xlink:href="#DejaVuSans-70" x="509.423828"/>
     <use xlink:href="#DejaVuSans-2d" x="572.900391"/>
     <use xlink:href="#DejaVuSans-69" x="608.984375"/>
     <use xlink:href="#DejaVuSans-6d" x="636.767578"/>
     <use xlink:href="#DejaVuSans-62" x="734.179688"/>
     <use xlink:href="#DejaVuSans-61" x="797.65625"/>
     <use xlink:href="#DejaVuSans-6c" x="858.935547"/>
     <use xlink:href="#DejaVuSans-61" x="886.71875"/>
     <use xlink:href="#DejaVuSans-6e" x="947.998047"/>
     <use xlink:href="#DejaVuSans-63" x="1011.376953"/>
     <use xlink:href="#DejaVuSans-65" x="1066.357422"/>
     <use xlink:href="#DejaVuSans-64" x="1127.880859"/>
    </g>
   </g>
   <g id="line2d_25">
    <path d="M 1041.539687 440.144562 
L 1063.539687 440.144562 
L 1085.539687 440.144562 
" style="fill: none; stroke: #ff0000; stroke-width: 4; stroke-linecap: square"/>
   </g>
   <g id="text_24">
    <!-- Baseline-imbalanced -->
    <g transform="translate(1103.139687 447.844562)scale(0.22 -0.22)">
     <use xlink:href="#DejaVuSans-42"/>
     <use xlink:href="#DejaVuSans-61" x="68.603516"/>
     <use xlink:href="#DejaVuSans-73" x="129.882812"/>
     <use xlink:href="#DejaVuSans-65" x="181.982422"/>
     <use xlink:href="#DejaVuSans-6c" x="243.505859"/>
     <use xlink:href="#DejaVuSans-69" x="271.289062"/>
     <use xlink:href="#DejaVuSans-6e" x="299.072266"/>
     <use xlink:href="#DejaVuSans-65" x="362.451172"/>
     <use xlink:href="#DejaVuSans-2d" x="423.974609"/>
     <use xlink:href="#DejaVuSans-69" x="460.058594"/>
     <use xlink:href="#DejaVuSans-6d" x="487.841797"/>
     <use xlink:href="#DejaVuSans-62" x="585.253906"/>
     <use xlink:href="#DejaVuSans-61" x="648.730469"/>
     <use xlink:href="#DejaVuSans-6c" x="710.009766"/>
     <use xlink:href="#DejaVuSans-61" x="737.792969"/>
     <use xlink:href="#DejaVuSans-6e" x="799.072266"/>
     <use xlink:href="#DejaVuSans-63" x="862.451172"/>
     <use xlink:href="#DejaVuSans-65" x="917.431641"/>
     <use xlink:href="#DejaVuSans-64" x="978.955078"/>
    </g>
   </g>
  </g>
 </g>
 <defs>
  <clipPath id="p6af00a6308">
   <rect x="74.47875" y="33.259875" width="1304.755" height="448.84"/>
  </clipPath>
 </defs>
</svg>
