<?xml version="1.0" encoding="utf-8" standalone="no"?>
<!DOCTYPE svg PUBLIC "-//W3C//DTD SVG 1.1//EN"
  "http://www.w3.org/Graphics/SVG/1.1/DTD/svg11.dtd">
<svg height="545.523625pt" version="1.1" viewBox="0 0 1408.15625 545.523625" width="1408.15625pt" xmlns="http://www.w3.org/2000/svg" xmlns:xlink="http://www.w3.org/1999/xlink">
 <metadata>
  <rdf:RDF xmlns:cc="http://creativecommons.org/ns#" xmlns:dc="http://purl.org/dc/elements/1.1/" xmlns:rdf="http://www.w3.org/1999/02/22-rdf-syntax-ns#">
   <cc:Work>
    <dc:type rdf:resource="http://purl.org/dc/dcmitype/StillImage"/>
    <dc:date>2021-11-23T11:55:58.057407</dc:date>
    <dc:format>image/svg+xml</dc:format>
    <dc:creator>
     <cc:Agent>
      <dc:title>Matplotlib v3.4.3, https://matplotlib.org/</dc:title>
     </cc:Agent>
    </dc:creator>
   </cc:Work>
  </rdf:RDF>
 </metadata>
 <defs>
  <style type="text/css">*{stroke-linecap:butt;stroke-linejoin:round;}</style>
 </defs>
 <g id="figure_1">
  <g id="patch_1">
   <path d="M 0 545.523625 
L 1408.15625 545.523625 
L 1408.15625 0 
L 0 0 
z
" style="fill:none;"/>
  </g>
  <g id="axes_1">
   <g id="patch_2">
    <path d="M 88.47625 484.739875 
L 711.83625 484.739875 
L 711.83625 33.259875 
L 88.47625 33.259875 
z
" style="fill:#ffffff;"/>
   </g>
   <g id="PolyCollection_1">
    <defs>
     <path d="M 116.810795 -111.582206 
L 116.810795 -92.885764 
L 123.984098 -97.341853 
L 131.157401 -113.879461 
L 138.330703 -117.319727 
L 145.504006 -131.537493 
L 152.677309 -133.791061 
L 159.850611 -139.638592 
L 167.023914 -128.979717 
L 174.197217 -165.926961 
L 181.370519 -154.949496 
L 188.543822 -164.716689 
L 195.717125 -166.016294 
L 202.890427 -156.510436 
L 210.06373 -177.026132 
L 217.237033 -192.481532 
L 224.410335 -181.140971 
L 231.583638 -214.028911 
L 238.75694 -213.961591 
L 245.930243 -242.685258 
L 253.103546 -242.716811 
L 260.276848 -247.656967 
L 267.450151 -260.670545 
L 274.623454 -242.721323 
L 281.796756 -258.529168 
L 288.970059 -274.002089 
L 296.143362 -260.116851 
L 303.316664 -288.086214 
L 310.489967 -287.655363 
L 317.66327 -290.921062 
L 324.836572 -300.601873 
L 332.009875 -310.84043 
L 339.183178 -304.57384 
L 346.35648 -324.700059 
L 353.529783 -313.556403 
L 360.703085 -316.944209 
L 367.876388 -330.159239 
L 375.049691 -344.106701 
L 382.222993 -343.070172 
L 389.396296 -309.345453 
L 396.569599 -336.539653 
L 403.742901 -352.438108 
L 410.916204 -343.875491 
L 418.089507 -351.676864 
L 425.262809 -379.552906 
L 432.436112 -360.314338 
L 439.609415 -382.724626 
L 446.782717 -359.407826 
L 453.95602 -382.035425 
L 461.129322 -379.977998 
L 468.302625 -371.564604 
L 475.475928 -403.724556 
L 482.64923 -397.477325 
L 489.822533 -394.235973 
L 496.995836 -402.091752 
L 504.169138 -410.791916 
L 511.342441 -393.914142 
L 518.515744 -397.606415 
L 525.689046 -415.379117 
L 532.862349 -390.491403 
L 540.035652 -422.587106 
L 547.208954 -403.166175 
L 554.382257 -403.974796 
L 561.55556 -411.622257 
L 568.728862 -417.733811 
L 575.902165 -418.366869 
L 583.075467 -437.775008 
L 590.24877 -431.059578 
L 597.422073 -429.866875 
L 604.595375 -422.826914 
L 611.768678 -433.870107 
L 618.941981 -428.526291 
L 626.115283 -428.915891 
L 633.288586 -430.678206 
L 640.461889 -436.134872 
L 647.635191 -451.579597 
L 654.808494 -448.363883 
L 661.981797 -422.373949 
L 669.155099 -452.446849 
L 676.328402 -450.463232 
L 683.501705 -449.141949 
L 683.501705 -478.141705 
L 683.501705 -478.141705 
L 676.328402 -489.202752 
L 669.155099 -473.543387 
L 661.981797 -491.002865 
L 654.808494 -470.600501 
L 647.635191 -480.755289 
L 640.461889 -487.972145 
L 633.288586 -478.104385 
L 626.115283 -478.668132 
L 618.941981 -464.888759 
L 611.768678 -468.736839 
L 604.595375 -471.417649 
L 597.422073 -472.246847 
L 590.24877 -466.878988 
L 583.075467 -461.334534 
L 575.902165 -457.023095 
L 568.728862 -461.745081 
L 561.55556 -451.362958 
L 554.382257 -466.957184 
L 547.208954 -449.782109 
L 540.035652 -456.043304 
L 532.862349 -456.44852 
L 525.689046 -449.787664 
L 518.515744 -437.792761 
L 511.342441 -442.533567 
L 504.169138 -450.66189 
L 496.995836 -454.745255 
L 489.822533 -440.645837 
L 482.64923 -446.906802 
L 475.475928 -429.522372 
L 468.302625 -415.567137 
L 461.129322 -426.495159 
L 453.95602 -419.734861 
L 446.782717 -421.552212 
L 439.609415 -429.24125 
L 432.436112 -417.910551 
L 425.262809 -417.333431 
L 418.089507 -404.055101 
L 410.916204 -387.425886 
L 403.742901 -399.847696 
L 396.569599 -398.19187 
L 389.396296 -400.99564 
L 382.222993 -387.244757 
L 375.049691 -376.850773 
L 367.876388 -367.392528 
L 360.703085 -372.991907 
L 353.529783 -368.288085 
L 346.35648 -369.093894 
L 339.183178 -367.137141 
L 332.009875 -351.426869 
L 324.836572 -334.017304 
L 317.66327 -346.959255 
L 310.489967 -351.989671 
L 303.316664 -334.033363 
L 296.143362 -337.94686 
L 288.970059 -320.698732 
L 281.796756 -319.034715 
L 274.623454 -301.456093 
L 267.450151 -308.136031 
L 260.276848 -312.047389 
L 253.103546 -295.982422 
L 245.930243 -278.050974 
L 238.75694 -276.15338 
L 231.583638 -266.47682 
L 224.410335 -267.296594 
L 217.237033 -266.605182 
L 210.06373 -259.529225 
L 202.890427 -258.869068 
L 195.717125 -239.036553 
L 188.543822 -212.741497 
L 181.370519 -229.801848 
L 174.197217 -225.653635 
L 167.023914 -198.861197 
L 159.850611 -188.878349 
L 152.677309 -189.210741 
L 145.504006 -180.434033 
L 138.330703 -162.928546 
L 131.157401 -157.468366 
L 123.984098 -154.674965 
L 116.810795 -111.582206 
z
" id="m3b2f78109e" style="stroke:#00c0c7;stroke-opacity:0.1;"/>
    </defs>
    <g clip-path="url(#pf550c1889f)">
     <use style="fill:#00c0c7;fill-opacity:0.1;stroke:#00c0c7;stroke-opacity:0.1;" x="0" xlink:href="#m3b2f78109e" y="545.523625"/>
    </g>
   </g>
   <g id="PolyCollection_2">
    <defs>
     <path d="M 116.810795 -123.88302 
L 116.810795 -81.305568 
L 123.984098 -90.753335 
L 131.157401 -94.620077 
L 138.330703 -98.002963 
L 145.504006 -122.79238 
L 152.677309 -128.303783 
L 159.850611 -146.558086 
L 167.023914 -141.191567 
L 174.197217 -153.383952 
L 181.370519 -119.69291 
L 188.543822 -114.90026 
L 195.717125 -133.705486 
L 202.890427 -147.663703 
L 210.06373 -142.153537 
L 217.237033 -162.88546 
L 224.410335 -153.814544 
L 231.583638 -140.587696 
L 238.75694 -167.551785 
L 245.930243 -161.086983 
L 253.103546 -161.902386 
L 260.276848 -140.651154 
L 267.450151 -157.618934 
L 274.623454 -149.226237 
L 281.796756 -187.499059 
L 288.970059 -151.529066 
L 296.143362 -176.498415 
L 303.316664 -164.00326 
L 310.489967 -181.976348 
L 317.66327 -153.370399 
L 324.836572 -186.65996 
L 332.009875 -206.890453 
L 339.183178 -202.36028 
L 346.35648 -166.861796 
L 353.529783 -147.196434 
L 360.703085 -152.277407 
L 367.876388 -207.662492 
L 375.049691 -210.504729 
L 382.222993 -212.71714 
L 389.396296 -241.720447 
L 396.569599 -240.460833 
L 403.742901 -206.541321 
L 410.916204 -233.416585 
L 418.089507 -219.873776 
L 425.262809 -220.486233 
L 432.436112 -265.515838 
L 439.609415 -251.803913 
L 446.782717 -228.495259 
L 453.95602 -217.085291 
L 461.129322 -253.652016 
L 468.302625 -277.517651 
L 475.475928 -274.584439 
L 482.64923 -301.175197 
L 489.822533 -221.130954 
L 496.995836 -255.159483 
L 504.169138 -270.131993 
L 511.342441 -282.99975 
L 518.515744 -301.428176 
L 525.689046 -249.538527 
L 532.862349 -261.954916 
L 540.035652 -290.387349 
L 547.208954 -276.739702 
L 554.382257 -244.743661 
L 561.55556 -274.98705 
L 568.728862 -297.571824 
L 575.902165 -315.635614 
L 583.075467 -310.888653 
L 590.24877 -290.710122 
L 597.422073 -307.524728 
L 604.595375 -293.271721 
L 611.768678 -295.593689 
L 618.941981 -287.292517 
L 626.115283 -305.561673 
L 633.288586 -293.848308 
L 640.461889 -277.420924 
L 647.635191 -290.636909 
L 654.808494 -301.301588 
L 661.981797 -280.933344 
L 669.155099 -284.688657 
L 676.328402 -300.184519 
L 683.501705 -314.838841 
L 683.501705 -349.733848 
L 683.501705 -349.733848 
L 676.328402 -350.10646 
L 669.155099 -363.706294 
L 661.981797 -366.026774 
L 654.808494 -359.423956 
L 647.635191 -352.242903 
L 640.461889 -390.075237 
L 633.288586 -369.594451 
L 626.115283 -364.483877 
L 618.941981 -367.873051 
L 611.768678 -348.407087 
L 604.595375 -339.65394 
L 597.422073 -331.328586 
L 590.24877 -349.811185 
L 583.075467 -361.73191 
L 575.902165 -360.110835 
L 568.728862 -337.237055 
L 561.55556 -320.229415 
L 554.382257 -349.620872 
L 547.208954 -355.226415 
L 540.035652 -339.034502 
L 532.862349 -316.581619 
L 525.689046 -375.764585 
L 518.515744 -340.644543 
L 511.342441 -331.273086 
L 504.169138 -331.864056 
L 496.995836 -326.451693 
L 489.822533 -305.697798 
L 482.64923 -341.25623 
L 475.475928 -366.187964 
L 468.302625 -335.320352 
L 461.129322 -333.897061 
L 453.95602 -337.776505 
L 446.782717 -300.718902 
L 439.609415 -318.258141 
L 432.436112 -306.025887 
L 425.262809 -316.926972 
L 418.089507 -340.422448 
L 410.916204 -316.333619 
L 403.742901 -315.364162 
L 396.569599 -343.635679 
L 389.396296 -297.31335 
L 382.222993 -283.675224 
L 375.049691 -306.308379 
L 367.876388 -329.927505 
L 360.703085 -276.139759 
L 353.529783 -258.442763 
L 346.35648 -292.897496 
L 339.183178 -298.772157 
L 332.009875 -249.147242 
L 324.836572 -219.75046 
L 317.66327 -208.058016 
L 310.489967 -234.468933 
L 303.316664 -225.49407 
L 296.143362 -244.962375 
L 288.970059 -214.159008 
L 281.796756 -222.556733 
L 274.623454 -219.017634 
L 267.450151 -205.64786 
L 260.276848 -224.236233 
L 253.103546 -214.322741 
L 245.930243 -208.502043 
L 238.75694 -224.922822 
L 231.583638 -206.268199 
L 224.410335 -181.786883 
L 217.237033 -184.104951 
L 210.06373 -192.864989 
L 202.890427 -182.960648 
L 195.717125 -166.545251 
L 188.543822 -175.965134 
L 181.370519 -172.45999 
L 174.197217 -191.902596 
L 167.023914 -169.83835 
L 159.850611 -187.743024 
L 152.677309 -182.469915 
L 145.504006 -175.090883 
L 138.330703 -129.896336 
L 131.157401 -109.11126 
L 123.984098 -118.672493 
L 116.810795 -123.88302 
z
" id="m188bb5fd4f" style="stroke:#5144d3;stroke-opacity:0.1;"/>
    </defs>
    <g clip-path="url(#pf550c1889f)">
     <use style="fill:#5144d3;fill-opacity:0.1;stroke:#5144d3;stroke-opacity:0.1;" x="0" xlink:href="#m188bb5fd4f" y="545.523625"/>
    </g>
   </g>
   <g id="PolyCollection_3">
    <defs>
     <path d="M 116.810795 -117.187966 
L 116.810795 -99.636219 
L 123.984098 -98.157787 
L 131.157401 -91.518179 
L 138.330703 -89.408202 
L 145.504006 -100.077369 
L 152.677309 -123.440336 
L 159.850611 -133.918796 
L 167.023914 -148.749791 
L 174.197217 -181.341474 
L 181.370519 -153.972865 
L 188.543822 -145.039863 
L 195.717125 -170.641089 
L 202.890427 -212.29608 
L 210.06373 -211.311203 
L 217.237033 -210.076208 
L 224.410335 -212.71006 
L 231.583638 -221.958325 
L 238.75694 -236.045123 
L 245.930243 -248.098188 
L 253.103546 -256.234583 
L 260.276848 -254.770401 
L 267.450151 -270.884545 
L 274.623454 -260.063655 
L 281.796756 -283.45966 
L 288.970059 -295.564635 
L 296.143362 -262.633093 
L 303.316664 -298.556886 
L 310.489967 -304.527441 
L 317.66327 -294.928813 
L 324.836572 -320.832171 
L 332.009875 -318.01091 
L 339.183178 -322.089064 
L 346.35648 -331.297647 
L 353.529783 -336.280133 
L 360.703085 -344.361153 
L 367.876388 -352.591045 
L 375.049691 -345.157226 
L 382.222993 -353.082102 
L 389.396296 -368.104288 
L 396.569599 -358.394546 
L 403.742901 -367.441373 
L 410.916204 -346.661525 
L 418.089507 -371.122595 
L 425.262809 -368.395635 
L 432.436112 -373.530683 
L 439.609415 -385.333353 
L 446.782717 -394.659292 
L 453.95602 -379.91566 
L 461.129322 -384.422528 
L 468.302625 -388.404559 
L 475.475928 -394.696747 
L 482.64923 -400.058484 
L 489.822533 -423.834089 
L 496.995836 -378.267273 
L 504.169138 -397.8262 
L 511.342441 -413.051115 
L 518.515744 -409.489443 
L 525.689046 -415.05591 
L 532.862349 -415.781756 
L 540.035652 -416.566993 
L 547.208954 -427.338225 
L 554.382257 -413.275176 
L 561.55556 -425.74659 
L 568.728862 -423.030546 
L 575.902165 -414.463779 
L 583.075467 -422.097203 
L 590.24877 -414.37942 
L 597.422073 -438.508117 
L 604.595375 -440.121879 
L 611.768678 -424.211998 
L 618.941981 -436.782191 
L 626.115283 -448.32699 
L 633.288586 -450.800139 
L 640.461889 -450.860332 
L 647.635191 -438.872064 
L 654.808494 -452.316874 
L 661.981797 -446.507173 
L 669.155099 -456.291676 
L 676.328402 -440.197023 
L 683.501705 -451.641352 
L 683.501705 -490.804621 
L 683.501705 -490.804621 
L 676.328402 -487.138368 
L 669.155099 -486.64752 
L 661.981797 -487.195288 
L 654.808494 -464.728076 
L 647.635191 -480.949672 
L 640.461889 -474.188294 
L 633.288586 -491.600995 
L 626.115283 -487.079334 
L 618.941981 -465.892013 
L 611.768678 -483.349605 
L 604.595375 -459.522522 
L 597.422073 -476.22765 
L 590.24877 -467.355195 
L 583.075467 -464.345456 
L 575.902165 -467.181159 
L 568.728862 -465.878233 
L 561.55556 -448.608885 
L 554.382257 -446.022243 
L 547.208954 -452.468334 
L 540.035652 -439.789019 
L 532.862349 -455.326129 
L 525.689046 -453.854888 
L 518.515744 -455.475565 
L 511.342441 -448.909712 
L 504.169138 -429.064498 
L 496.995836 -425.134446 
L 489.822533 -440.727373 
L 482.64923 -441.949202 
L 475.475928 -430.182623 
L 468.302625 -428.717746 
L 461.129322 -428.924375 
L 453.95602 -434.561173 
L 446.782717 -428.926166 
L 439.609415 -422.46254 
L 432.436112 -432.7407 
L 425.262809 -390.077886 
L 418.089507 -401.519898 
L 410.916204 -406.583823 
L 403.742901 -388.386674 
L 396.569599 -399.585751 
L 389.396296 -396.108563 
L 382.222993 -386.335046 
L 375.049691 -394.753146 
L 367.876388 -369.554305 
L 360.703085 -373.45664 
L 353.529783 -368.925224 
L 346.35648 -374.580288 
L 339.183178 -354.643832 
L 332.009875 -353.565556 
L 324.836572 -343.755891 
L 317.66327 -352.963947 
L 310.489967 -346.154274 
L 303.316664 -342.843256 
L 296.143362 -331.193377 
L 288.970059 -332.159758 
L 281.796756 -315.881948 
L 274.623454 -317.576109 
L 267.450151 -300.872406 
L 260.276848 -296.809215 
L 253.103546 -298.178828 
L 245.930243 -294.887805 
L 238.75694 -287.250353 
L 231.583638 -260.309905 
L 224.410335 -276.418464 
L 217.237033 -258.749433 
L 210.06373 -231.723321 
L 202.890427 -262.586605 
L 195.717125 -214.820773 
L 188.543822 -215.043396 
L 181.370519 -225.615152 
L 174.197217 -197.735384 
L 167.023914 -193.442898 
L 159.850611 -198.723289 
L 152.677309 -162.838718 
L 145.504006 -155.576975 
L 138.330703 -133.514021 
L 131.157401 -131.179852 
L 123.984098 -108.712246 
L 116.810795 -117.187966 
z
" id="m8bee435889" style="stroke:#da3490;stroke-opacity:0.1;"/>
    </defs>
    <g clip-path="url(#pf550c1889f)">
     <use style="fill:#da3490;fill-opacity:0.1;stroke:#da3490;stroke-opacity:0.1;" x="0" xlink:href="#m8bee435889" y="545.523625"/>
    </g>
   </g>
   <g id="PolyCollection_4">
    <defs>
     <path d="M 116.810795 -97.947873 
L 116.810795 -96.860597 
L 123.984098 -90.530001 
L 131.157401 -96.390911 
L 138.330703 -108.191268 
L 145.504006 -137.779395 
L 152.677309 -134.977789 
L 159.850611 -144.007472 
L 167.023914 -152.919963 
L 174.197217 -157.070764 
L 181.370519 -163.843436 
L 188.543822 -189.015226 
L 195.717125 -190.885461 
L 202.890427 -173.348555 
L 210.06373 -194.88614 
L 217.237033 -201.065716 
L 224.410335 -209.827748 
L 231.583638 -226.987963 
L 238.75694 -248.169844 
L 245.930243 -241.512096 
L 253.103546 -239.116761 
L 260.276848 -243.54082 
L 267.450151 -255.171306 
L 274.623454 -265.17376 
L 281.796756 -269.040947 
L 288.970059 -276.143114 
L 296.143362 -276.575638 
L 303.316664 -279.9131 
L 310.489967 -274.738119 
L 317.66327 -277.141638 
L 324.836572 -302.765766 
L 332.009875 -310.941647 
L 339.183178 -304.751312 
L 346.35648 -289.465956 
L 353.529783 -300.016336 
L 360.703085 -290.205614 
L 367.876388 -303.056179 
L 375.049691 -300.572325 
L 382.222993 -318.409195 
L 389.396296 -320.990972 
L 396.569599 -316.298258 
L 403.742901 -339.683834 
L 410.916204 -319.734064 
L 418.089507 -345.047836 
L 425.262809 -356.47684 
L 432.436112 -367.144219 
L 439.609415 -362.463089 
L 446.782717 -376.84901 
L 453.95602 -356.074399 
L 461.129322 -361.109493 
L 468.302625 -377.653621 
L 475.475928 -361.551033 
L 482.64923 -400.19745 
L 489.822533 -381.310803 
L 496.995836 -382.518221 
L 504.169138 -386.626573 
L 511.342441 -417.899977 
L 518.515744 -390.038516 
L 525.689046 -392.621104 
L 532.862349 -361.05348 
L 540.035652 -416.41951 
L 547.208954 -418.722382 
L 554.382257 -420.327803 
L 561.55556 -410.482111 
L 568.728862 -410.910798 
L 575.902165 -366.923868 
L 583.075467 -420.231195 
L 590.24877 -430.71403 
L 597.422073 -397.937785 
L 604.595375 -415.904941 
L 611.768678 -430.087458 
L 618.941981 -419.124129 
L 626.115283 -419.49682 
L 633.288586 -434.963989 
L 640.461889 -442.050581 
L 647.635191 -425.492808 
L 654.808494 -423.666353 
L 661.981797 -435.818072 
L 669.155099 -448.75723 
L 676.328402 -434.562173 
L 683.501705 -443.612143 
L 683.501705 -474.396836 
L 683.501705 -474.396836 
L 676.328402 -491.741932 
L 669.155099 -473.511408 
L 661.981797 -466.049039 
L 654.808494 -451.947804 
L 647.635191 -468.348208 
L 640.461889 -453.718491 
L 633.288586 -466.185705 
L 626.115283 -469.277442 
L 618.941981 -473.909793 
L 611.768678 -464.60549 
L 604.595375 -465.291612 
L 597.422073 -467.493544 
L 590.24877 -455.997661 
L 583.075467 -444.733812 
L 575.902165 -443.302274 
L 568.728862 -434.63913 
L 561.55556 -476.81248 
L 554.382257 -455.443288 
L 547.208954 -447.811975 
L 540.035652 -445.944864 
L 532.862349 -448.04273 
L 525.689046 -437.369858 
L 518.515744 -427.621853 
L 511.342441 -447.603093 
L 504.169138 -440.046338 
L 496.995836 -439.31213 
L 489.822533 -425.722836 
L 482.64923 -444.518481 
L 475.475928 -432.909885 
L 468.302625 -427.138092 
L 461.129322 -415.030405 
L 453.95602 -413.250044 
L 446.782717 -413.253603 
L 439.609415 -435.737361 
L 432.436112 -399.893459 
L 425.262809 -400.113462 
L 418.089507 -373.743593 
L 410.916204 -390.627723 
L 403.742901 -397.312035 
L 396.569599 -381.365259 
L 389.396296 -394.751438 
L 382.222993 -369.488493 
L 375.049691 -381.137647 
L 367.876388 -333.214436 
L 360.703085 -361.552226 
L 353.529783 -372.725932 
L 346.35648 -376.550533 
L 339.183178 -355.75004 
L 332.009875 -371.548515 
L 324.836572 -367.887027 
L 317.66327 -340.135379 
L 310.489967 -330.836044 
L 303.316664 -333.149096 
L 296.143362 -329.536587 
L 288.970059 -337.851724 
L 281.796756 -328.417444 
L 274.623454 -315.33567 
L 267.450151 -296.865663 
L 260.276848 -277.557569 
L 253.103546 -268.261041 
L 245.930243 -269.928075 
L 238.75694 -257.279901 
L 231.583638 -260.750566 
L 224.410335 -258.244606 
L 217.237033 -249.994903 
L 210.06373 -236.041983 
L 202.890427 -250.360566 
L 195.717125 -223.273055 
L 188.543822 -216.444617 
L 181.370519 -226.236795 
L 174.197217 -207.675702 
L 167.023914 -212.23005 
L 159.850611 -214.569213 
L 152.677309 -183.136615 
L 145.504006 -152.535125 
L 138.330703 -148.359846 
L 131.157401 -119.145768 
L 123.984098 -123.020972 
L 116.810795 -97.947873 
z
" id="mb691cfabfc" style="stroke:#9089fa;stroke-opacity:0.1;"/>
    </defs>
    <g clip-path="url(#pf550c1889f)">
     <use style="fill:#9089fa;fill-opacity:0.1;stroke:#9089fa;stroke-opacity:0.1;" x="0" xlink:href="#mb691cfabfc" y="545.523625"/>
    </g>
   </g>
   <g id="matplotlib.axis_1">
    <g id="xtick_1">
     <g id="line2d_1">
      <defs>
       <path d="M 0 0 
L 0 3.5 
" id="m220ebd7dc5" style="stroke:#000000;stroke-width:0.8;"/>
      </defs>
      <g>
       <use style="stroke:#000000;stroke-width:0.8;" x="116.810795" xlink:href="#m220ebd7dc5" y="484.739875"/>
      </g>
     </g>
     <g id="text_1">
      <!-- 0 -->
      <g transform="translate(109.812045 508.456438)scale(0.22 -0.22)">
       <defs>
        <path d="M 2034 4250 
Q 1547 4250 1301 3770 
Q 1056 3291 1056 2328 
Q 1056 1369 1301 889 
Q 1547 409 2034 409 
Q 2525 409 2770 889 
Q 3016 1369 3016 2328 
Q 3016 3291 2770 3770 
Q 2525 4250 2034 4250 
z
M 2034 4750 
Q 2819 4750 3233 4129 
Q 3647 3509 3647 2328 
Q 3647 1150 3233 529 
Q 2819 -91 2034 -91 
Q 1250 -91 836 529 
Q 422 1150 422 2328 
Q 422 3509 836 4129 
Q 1250 4750 2034 4750 
z
" id="DejaVuSans-30" transform="scale(0.015625)"/>
       </defs>
       <use xlink:href="#DejaVuSans-30"/>
      </g>
     </g>
    </g>
    <g id="xtick_2">
     <g id="line2d_2">
      <g>
       <use style="stroke:#000000;stroke-width:0.8;" x="188.543822" xlink:href="#m220ebd7dc5" y="484.739875"/>
      </g>
     </g>
     <g id="text_2">
      <!-- 10 -->
      <g transform="translate(174.546322 508.456438)scale(0.22 -0.22)">
       <defs>
        <path d="M 794 531 
L 1825 531 
L 1825 4091 
L 703 3866 
L 703 4441 
L 1819 4666 
L 2450 4666 
L 2450 531 
L 3481 531 
L 3481 0 
L 794 0 
L 794 531 
z
" id="DejaVuSans-31" transform="scale(0.015625)"/>
       </defs>
       <use xlink:href="#DejaVuSans-31"/>
       <use x="63.623047" xlink:href="#DejaVuSans-30"/>
      </g>
     </g>
    </g>
    <g id="xtick_3">
     <g id="line2d_3">
      <g>
       <use style="stroke:#000000;stroke-width:0.8;" x="260.276848" xlink:href="#m220ebd7dc5" y="484.739875"/>
      </g>
     </g>
     <g id="text_3">
      <!-- 20 -->
      <g transform="translate(246.279348 508.456438)scale(0.22 -0.22)">
       <defs>
        <path d="M 1228 531 
L 3431 531 
L 3431 0 
L 469 0 
L 469 531 
Q 828 903 1448 1529 
Q 2069 2156 2228 2338 
Q 2531 2678 2651 2914 
Q 2772 3150 2772 3378 
Q 2772 3750 2511 3984 
Q 2250 4219 1831 4219 
Q 1534 4219 1204 4116 
Q 875 4013 500 3803 
L 500 4441 
Q 881 4594 1212 4672 
Q 1544 4750 1819 4750 
Q 2544 4750 2975 4387 
Q 3406 4025 3406 3419 
Q 3406 3131 3298 2873 
Q 3191 2616 2906 2266 
Q 2828 2175 2409 1742 
Q 1991 1309 1228 531 
z
" id="DejaVuSans-32" transform="scale(0.015625)"/>
       </defs>
       <use xlink:href="#DejaVuSans-32"/>
       <use x="63.623047" xlink:href="#DejaVuSans-30"/>
      </g>
     </g>
    </g>
    <g id="xtick_4">
     <g id="line2d_4">
      <g>
       <use style="stroke:#000000;stroke-width:0.8;" x="332.009875" xlink:href="#m220ebd7dc5" y="484.739875"/>
      </g>
     </g>
     <g id="text_4">
      <!-- 30 -->
      <g transform="translate(318.012375 508.456438)scale(0.22 -0.22)">
       <defs>
        <path d="M 2597 2516 
Q 3050 2419 3304 2112 
Q 3559 1806 3559 1356 
Q 3559 666 3084 287 
Q 2609 -91 1734 -91 
Q 1441 -91 1130 -33 
Q 819 25 488 141 
L 488 750 
Q 750 597 1062 519 
Q 1375 441 1716 441 
Q 2309 441 2620 675 
Q 2931 909 2931 1356 
Q 2931 1769 2642 2001 
Q 2353 2234 1838 2234 
L 1294 2234 
L 1294 2753 
L 1863 2753 
Q 2328 2753 2575 2939 
Q 2822 3125 2822 3475 
Q 2822 3834 2567 4026 
Q 2313 4219 1838 4219 
Q 1578 4219 1281 4162 
Q 984 4106 628 3988 
L 628 4550 
Q 988 4650 1302 4700 
Q 1616 4750 1894 4750 
Q 2613 4750 3031 4423 
Q 3450 4097 3450 3541 
Q 3450 3153 3228 2886 
Q 3006 2619 2597 2516 
z
" id="DejaVuSans-33" transform="scale(0.015625)"/>
       </defs>
       <use xlink:href="#DejaVuSans-33"/>
       <use x="63.623047" xlink:href="#DejaVuSans-30"/>
      </g>
     </g>
    </g>
    <g id="xtick_5">
     <g id="line2d_5">
      <g>
       <use style="stroke:#000000;stroke-width:0.8;" x="403.742901" xlink:href="#m220ebd7dc5" y="484.739875"/>
      </g>
     </g>
     <g id="text_5">
      <!-- 40 -->
      <g transform="translate(389.745401 508.456438)scale(0.22 -0.22)">
       <defs>
        <path d="M 2419 4116 
L 825 1625 
L 2419 1625 
L 2419 4116 
z
M 2253 4666 
L 3047 4666 
L 3047 1625 
L 3713 1625 
L 3713 1100 
L 3047 1100 
L 3047 0 
L 2419 0 
L 2419 1100 
L 313 1100 
L 313 1709 
L 2253 4666 
z
" id="DejaVuSans-34" transform="scale(0.015625)"/>
       </defs>
       <use xlink:href="#DejaVuSans-34"/>
       <use x="63.623047" xlink:href="#DejaVuSans-30"/>
      </g>
     </g>
    </g>
    <g id="xtick_6">
     <g id="line2d_6">
      <g>
       <use style="stroke:#000000;stroke-width:0.8;" x="475.475928" xlink:href="#m220ebd7dc5" y="484.739875"/>
      </g>
     </g>
     <g id="text_6">
      <!-- 50 -->
      <g transform="translate(461.478428 508.456438)scale(0.22 -0.22)">
       <defs>
        <path d="M 691 4666 
L 3169 4666 
L 3169 4134 
L 1269 4134 
L 1269 2991 
Q 1406 3038 1543 3061 
Q 1681 3084 1819 3084 
Q 2600 3084 3056 2656 
Q 3513 2228 3513 1497 
Q 3513 744 3044 326 
Q 2575 -91 1722 -91 
Q 1428 -91 1123 -41 
Q 819 9 494 109 
L 494 744 
Q 775 591 1075 516 
Q 1375 441 1709 441 
Q 2250 441 2565 725 
Q 2881 1009 2881 1497 
Q 2881 1984 2565 2268 
Q 2250 2553 1709 2553 
Q 1456 2553 1204 2497 
Q 953 2441 691 2322 
L 691 4666 
z
" id="DejaVuSans-35" transform="scale(0.015625)"/>
       </defs>
       <use xlink:href="#DejaVuSans-35"/>
       <use x="63.623047" xlink:href="#DejaVuSans-30"/>
      </g>
     </g>
    </g>
    <g id="xtick_7">
     <g id="line2d_7">
      <g>
       <use style="stroke:#000000;stroke-width:0.8;" x="547.208954" xlink:href="#m220ebd7dc5" y="484.739875"/>
      </g>
     </g>
     <g id="text_7">
      <!-- 60 -->
      <g transform="translate(533.211454 508.456438)scale(0.22 -0.22)">
       <defs>
        <path d="M 2113 2584 
Q 1688 2584 1439 2293 
Q 1191 2003 1191 1497 
Q 1191 994 1439 701 
Q 1688 409 2113 409 
Q 2538 409 2786 701 
Q 3034 994 3034 1497 
Q 3034 2003 2786 2293 
Q 2538 2584 2113 2584 
z
M 3366 4563 
L 3366 3988 
Q 3128 4100 2886 4159 
Q 2644 4219 2406 4219 
Q 1781 4219 1451 3797 
Q 1122 3375 1075 2522 
Q 1259 2794 1537 2939 
Q 1816 3084 2150 3084 
Q 2853 3084 3261 2657 
Q 3669 2231 3669 1497 
Q 3669 778 3244 343 
Q 2819 -91 2113 -91 
Q 1303 -91 875 529 
Q 447 1150 447 2328 
Q 447 3434 972 4092 
Q 1497 4750 2381 4750 
Q 2619 4750 2861 4703 
Q 3103 4656 3366 4563 
z
" id="DejaVuSans-36" transform="scale(0.015625)"/>
       </defs>
       <use xlink:href="#DejaVuSans-36"/>
       <use x="63.623047" xlink:href="#DejaVuSans-30"/>
      </g>
     </g>
    </g>
    <g id="xtick_8">
     <g id="line2d_8">
      <g>
       <use style="stroke:#000000;stroke-width:0.8;" x="618.941981" xlink:href="#m220ebd7dc5" y="484.739875"/>
      </g>
     </g>
     <g id="text_8">
      <!-- 70 -->
      <g transform="translate(604.944481 508.456438)scale(0.22 -0.22)">
       <defs>
        <path d="M 525 4666 
L 3525 4666 
L 3525 4397 
L 1831 0 
L 1172 0 
L 2766 4134 
L 525 4134 
L 525 4666 
z
" id="DejaVuSans-37" transform="scale(0.015625)"/>
       </defs>
       <use xlink:href="#DejaVuSans-37"/>
       <use x="63.623047" xlink:href="#DejaVuSans-30"/>
      </g>
     </g>
    </g>
    <g id="xtick_9">
     <g id="line2d_9">
      <g>
       <use style="stroke:#000000;stroke-width:0.8;" x="690.675007" xlink:href="#m220ebd7dc5" y="484.739875"/>
      </g>
     </g>
     <g id="text_9">
      <!-- 80 -->
      <g transform="translate(676.677507 508.456438)scale(0.22 -0.22)">
       <defs>
        <path d="M 2034 2216 
Q 1584 2216 1326 1975 
Q 1069 1734 1069 1313 
Q 1069 891 1326 650 
Q 1584 409 2034 409 
Q 2484 409 2743 651 
Q 3003 894 3003 1313 
Q 3003 1734 2745 1975 
Q 2488 2216 2034 2216 
z
M 1403 2484 
Q 997 2584 770 2862 
Q 544 3141 544 3541 
Q 544 4100 942 4425 
Q 1341 4750 2034 4750 
Q 2731 4750 3128 4425 
Q 3525 4100 3525 3541 
Q 3525 3141 3298 2862 
Q 3072 2584 2669 2484 
Q 3125 2378 3379 2068 
Q 3634 1759 3634 1313 
Q 3634 634 3220 271 
Q 2806 -91 2034 -91 
Q 1263 -91 848 271 
Q 434 634 434 1313 
Q 434 1759 690 2068 
Q 947 2378 1403 2484 
z
M 1172 3481 
Q 1172 3119 1398 2916 
Q 1625 2713 2034 2713 
Q 2441 2713 2670 2916 
Q 2900 3119 2900 3481 
Q 2900 3844 2670 4047 
Q 2441 4250 2034 4250 
Q 1625 4250 1398 4047 
Q 1172 3844 1172 3481 
z
" id="DejaVuSans-38" transform="scale(0.015625)"/>
       </defs>
       <use xlink:href="#DejaVuSans-38"/>
       <use x="63.623047" xlink:href="#DejaVuSans-30"/>
      </g>
     </g>
    </g>
    <g id="text_10">
     <!-- Time in seconds -->
     <g transform="translate(311.260781 533.748312)scale(0.22 -0.22)">
      <defs>
       <path d="M -19 4666 
L 3928 4666 
L 3928 4134 
L 2272 4134 
L 2272 0 
L 1638 0 
L 1638 4134 
L -19 4134 
L -19 4666 
z
" id="DejaVuSans-54" transform="scale(0.015625)"/>
       <path d="M 603 3500 
L 1178 3500 
L 1178 0 
L 603 0 
L 603 3500 
z
M 603 4863 
L 1178 4863 
L 1178 4134 
L 603 4134 
L 603 4863 
z
" id="DejaVuSans-69" transform="scale(0.015625)"/>
       <path d="M 3328 2828 
Q 3544 3216 3844 3400 
Q 4144 3584 4550 3584 
Q 5097 3584 5394 3201 
Q 5691 2819 5691 2113 
L 5691 0 
L 5113 0 
L 5113 2094 
Q 5113 2597 4934 2840 
Q 4756 3084 4391 3084 
Q 3944 3084 3684 2787 
Q 3425 2491 3425 1978 
L 3425 0 
L 2847 0 
L 2847 2094 
Q 2847 2600 2669 2842 
Q 2491 3084 2119 3084 
Q 1678 3084 1418 2786 
Q 1159 2488 1159 1978 
L 1159 0 
L 581 0 
L 581 3500 
L 1159 3500 
L 1159 2956 
Q 1356 3278 1631 3431 
Q 1906 3584 2284 3584 
Q 2666 3584 2933 3390 
Q 3200 3197 3328 2828 
z
" id="DejaVuSans-6d" transform="scale(0.015625)"/>
       <path d="M 3597 1894 
L 3597 1613 
L 953 1613 
Q 991 1019 1311 708 
Q 1631 397 2203 397 
Q 2534 397 2845 478 
Q 3156 559 3463 722 
L 3463 178 
Q 3153 47 2828 -22 
Q 2503 -91 2169 -91 
Q 1331 -91 842 396 
Q 353 884 353 1716 
Q 353 2575 817 3079 
Q 1281 3584 2069 3584 
Q 2775 3584 3186 3129 
Q 3597 2675 3597 1894 
z
M 3022 2063 
Q 3016 2534 2758 2815 
Q 2500 3097 2075 3097 
Q 1594 3097 1305 2825 
Q 1016 2553 972 2059 
L 3022 2063 
z
" id="DejaVuSans-65" transform="scale(0.015625)"/>
       <path id="DejaVuSans-20" transform="scale(0.015625)"/>
       <path d="M 3513 2113 
L 3513 0 
L 2938 0 
L 2938 2094 
Q 2938 2591 2744 2837 
Q 2550 3084 2163 3084 
Q 1697 3084 1428 2787 
Q 1159 2491 1159 1978 
L 1159 0 
L 581 0 
L 581 3500 
L 1159 3500 
L 1159 2956 
Q 1366 3272 1645 3428 
Q 1925 3584 2291 3584 
Q 2894 3584 3203 3211 
Q 3513 2838 3513 2113 
z
" id="DejaVuSans-6e" transform="scale(0.015625)"/>
       <path d="M 2834 3397 
L 2834 2853 
Q 2591 2978 2328 3040 
Q 2066 3103 1784 3103 
Q 1356 3103 1142 2972 
Q 928 2841 928 2578 
Q 928 2378 1081 2264 
Q 1234 2150 1697 2047 
L 1894 2003 
Q 2506 1872 2764 1633 
Q 3022 1394 3022 966 
Q 3022 478 2636 193 
Q 2250 -91 1575 -91 
Q 1294 -91 989 -36 
Q 684 19 347 128 
L 347 722 
Q 666 556 975 473 
Q 1284 391 1588 391 
Q 1994 391 2212 530 
Q 2431 669 2431 922 
Q 2431 1156 2273 1281 
Q 2116 1406 1581 1522 
L 1381 1569 
Q 847 1681 609 1914 
Q 372 2147 372 2553 
Q 372 3047 722 3315 
Q 1072 3584 1716 3584 
Q 2034 3584 2315 3537 
Q 2597 3491 2834 3397 
z
" id="DejaVuSans-73" transform="scale(0.015625)"/>
       <path d="M 3122 3366 
L 3122 2828 
Q 2878 2963 2633 3030 
Q 2388 3097 2138 3097 
Q 1578 3097 1268 2742 
Q 959 2388 959 1747 
Q 959 1106 1268 751 
Q 1578 397 2138 397 
Q 2388 397 2633 464 
Q 2878 531 3122 666 
L 3122 134 
Q 2881 22 2623 -34 
Q 2366 -91 2075 -91 
Q 1284 -91 818 406 
Q 353 903 353 1747 
Q 353 2603 823 3093 
Q 1294 3584 2113 3584 
Q 2378 3584 2631 3529 
Q 2884 3475 3122 3366 
z
" id="DejaVuSans-63" transform="scale(0.015625)"/>
       <path d="M 1959 3097 
Q 1497 3097 1228 2736 
Q 959 2375 959 1747 
Q 959 1119 1226 758 
Q 1494 397 1959 397 
Q 2419 397 2687 759 
Q 2956 1122 2956 1747 
Q 2956 2369 2687 2733 
Q 2419 3097 1959 3097 
z
M 1959 3584 
Q 2709 3584 3137 3096 
Q 3566 2609 3566 1747 
Q 3566 888 3137 398 
Q 2709 -91 1959 -91 
Q 1206 -91 779 398 
Q 353 888 353 1747 
Q 353 2609 779 3096 
Q 1206 3584 1959 3584 
z
" id="DejaVuSans-6f" transform="scale(0.015625)"/>
       <path d="M 2906 2969 
L 2906 4863 
L 3481 4863 
L 3481 0 
L 2906 0 
L 2906 525 
Q 2725 213 2448 61 
Q 2172 -91 1784 -91 
Q 1150 -91 751 415 
Q 353 922 353 1747 
Q 353 2572 751 3078 
Q 1150 3584 1784 3584 
Q 2172 3584 2448 3432 
Q 2725 3281 2906 2969 
z
M 947 1747 
Q 947 1113 1208 752 
Q 1469 391 1925 391 
Q 2381 391 2643 752 
Q 2906 1113 2906 1747 
Q 2906 2381 2643 2742 
Q 2381 3103 1925 3103 
Q 1469 3103 1208 2742 
Q 947 2381 947 1747 
z
" id="DejaVuSans-64" transform="scale(0.015625)"/>
      </defs>
      <use xlink:href="#DejaVuSans-54"/>
      <use x="57.958984" xlink:href="#DejaVuSans-69"/>
      <use x="85.742188" xlink:href="#DejaVuSans-6d"/>
      <use x="183.154297" xlink:href="#DejaVuSans-65"/>
      <use x="244.677734" xlink:href="#DejaVuSans-20"/>
      <use x="276.464844" xlink:href="#DejaVuSans-69"/>
      <use x="304.248047" xlink:href="#DejaVuSans-6e"/>
      <use x="367.626953" xlink:href="#DejaVuSans-20"/>
      <use x="399.414062" xlink:href="#DejaVuSans-73"/>
      <use x="451.513672" xlink:href="#DejaVuSans-65"/>
      <use x="513.037109" xlink:href="#DejaVuSans-63"/>
      <use x="568.017578" xlink:href="#DejaVuSans-6f"/>
      <use x="629.199219" xlink:href="#DejaVuSans-6e"/>
      <use x="692.578125" xlink:href="#DejaVuSans-64"/>
      <use x="756.054688" xlink:href="#DejaVuSans-73"/>
     </g>
    </g>
   </g>
   <g id="matplotlib.axis_2">
    <g id="ytick_1">
     <g id="line2d_10">
      <defs>
       <path d="M 0 0 
L -3.5 0 
" id="mcee94bbc2c" style="stroke:#000000;stroke-width:0.8;"/>
      </defs>
      <g>
       <use style="stroke:#000000;stroke-width:0.8;" x="88.47625" xlink:href="#mcee94bbc2c" y="449.150676"/>
      </g>
     </g>
     <g id="text_11">
      <!-- 0.10 -->
      <g transform="translate(32.491875 457.508957)scale(0.22 -0.22)">
       <defs>
        <path d="M 684 794 
L 1344 794 
L 1344 0 
L 684 0 
L 684 794 
z
" id="DejaVuSans-2e" transform="scale(0.015625)"/>
       </defs>
       <use xlink:href="#DejaVuSans-30"/>
       <use x="63.623047" xlink:href="#DejaVuSans-2e"/>
       <use x="95.410156" xlink:href="#DejaVuSans-31"/>
       <use x="159.033203" xlink:href="#DejaVuSans-30"/>
      </g>
     </g>
    </g>
    <g id="ytick_2">
     <g id="line2d_11">
      <g>
       <use style="stroke:#000000;stroke-width:0.8;" x="88.47625" xlink:href="#mcee94bbc2c" y="381.892894"/>
      </g>
     </g>
     <g id="text_12">
      <!-- 0.15 -->
      <g transform="translate(32.491875 390.251175)scale(0.22 -0.22)">
       <use xlink:href="#DejaVuSans-30"/>
       <use x="63.623047" xlink:href="#DejaVuSans-2e"/>
       <use x="95.410156" xlink:href="#DejaVuSans-31"/>
       <use x="159.033203" xlink:href="#DejaVuSans-35"/>
      </g>
     </g>
    </g>
    <g id="ytick_3">
     <g id="line2d_12">
      <g>
       <use style="stroke:#000000;stroke-width:0.8;" x="88.47625" xlink:href="#mcee94bbc2c" y="314.635112"/>
      </g>
     </g>
     <g id="text_13">
      <!-- 0.20 -->
      <g transform="translate(32.491875 322.993393)scale(0.22 -0.22)">
       <use xlink:href="#DejaVuSans-30"/>
       <use x="63.623047" xlink:href="#DejaVuSans-2e"/>
       <use x="95.410156" xlink:href="#DejaVuSans-32"/>
       <use x="159.033203" xlink:href="#DejaVuSans-30"/>
      </g>
     </g>
    </g>
    <g id="ytick_4">
     <g id="line2d_13">
      <g>
       <use style="stroke:#000000;stroke-width:0.8;" x="88.47625" xlink:href="#mcee94bbc2c" y="247.37733"/>
      </g>
     </g>
     <g id="text_14">
      <!-- 0.25 -->
      <g transform="translate(32.491875 255.735612)scale(0.22 -0.22)">
       <use xlink:href="#DejaVuSans-30"/>
       <use x="63.623047" xlink:href="#DejaVuSans-2e"/>
       <use x="95.410156" xlink:href="#DejaVuSans-32"/>
       <use x="159.033203" xlink:href="#DejaVuSans-35"/>
      </g>
     </g>
    </g>
    <g id="ytick_5">
     <g id="line2d_14">
      <g>
       <use style="stroke:#000000;stroke-width:0.8;" x="88.47625" xlink:href="#mcee94bbc2c" y="180.119549"/>
      </g>
     </g>
     <g id="text_15">
      <!-- 0.30 -->
      <g transform="translate(32.491875 188.47783)scale(0.22 -0.22)">
       <use xlink:href="#DejaVuSans-30"/>
       <use x="63.623047" xlink:href="#DejaVuSans-2e"/>
       <use x="95.410156" xlink:href="#DejaVuSans-33"/>
       <use x="159.033203" xlink:href="#DejaVuSans-30"/>
      </g>
     </g>
    </g>
    <g id="ytick_6">
     <g id="line2d_15">
      <g>
       <use style="stroke:#000000;stroke-width:0.8;" x="88.47625" xlink:href="#mcee94bbc2c" y="112.861767"/>
      </g>
     </g>
     <g id="text_16">
      <!-- 0.35 -->
      <g transform="translate(32.491875 121.220048)scale(0.22 -0.22)">
       <use xlink:href="#DejaVuSans-30"/>
       <use x="63.623047" xlink:href="#DejaVuSans-2e"/>
       <use x="95.410156" xlink:href="#DejaVuSans-33"/>
       <use x="159.033203" xlink:href="#DejaVuSans-35"/>
      </g>
     </g>
    </g>
    <g id="ytick_7">
     <g id="line2d_16">
      <g>
       <use style="stroke:#000000;stroke-width:0.8;" x="88.47625" xlink:href="#mcee94bbc2c" y="45.603985"/>
      </g>
     </g>
     <g id="text_17">
      <!-- 0.40 -->
      <g transform="translate(32.491875 53.962266)scale(0.22 -0.22)">
       <use xlink:href="#DejaVuSans-30"/>
       <use x="63.623047" xlink:href="#DejaVuSans-2e"/>
       <use x="95.410156" xlink:href="#DejaVuSans-34"/>
       <use x="159.033203" xlink:href="#DejaVuSans-30"/>
      </g>
     </g>
    </g>
    <g id="text_18">
     <!-- Test accuracy -->
     <g transform="translate(23.916563 333.786125)rotate(-90)scale(0.22 -0.22)">
      <defs>
       <path d="M 1172 4494 
L 1172 3500 
L 2356 3500 
L 2356 3053 
L 1172 3053 
L 1172 1153 
Q 1172 725 1289 603 
Q 1406 481 1766 481 
L 2356 481 
L 2356 0 
L 1766 0 
Q 1100 0 847 248 
Q 594 497 594 1153 
L 594 3053 
L 172 3053 
L 172 3500 
L 594 3500 
L 594 4494 
L 1172 4494 
z
" id="DejaVuSans-74" transform="scale(0.015625)"/>
       <path d="M 2194 1759 
Q 1497 1759 1228 1600 
Q 959 1441 959 1056 
Q 959 750 1161 570 
Q 1363 391 1709 391 
Q 2188 391 2477 730 
Q 2766 1069 2766 1631 
L 2766 1759 
L 2194 1759 
z
M 3341 1997 
L 3341 0 
L 2766 0 
L 2766 531 
Q 2569 213 2275 61 
Q 1981 -91 1556 -91 
Q 1019 -91 701 211 
Q 384 513 384 1019 
Q 384 1609 779 1909 
Q 1175 2209 1959 2209 
L 2766 2209 
L 2766 2266 
Q 2766 2663 2505 2880 
Q 2244 3097 1772 3097 
Q 1472 3097 1187 3025 
Q 903 2953 641 2809 
L 641 3341 
Q 956 3463 1253 3523 
Q 1550 3584 1831 3584 
Q 2591 3584 2966 3190 
Q 3341 2797 3341 1997 
z
" id="DejaVuSans-61" transform="scale(0.015625)"/>
       <path d="M 544 1381 
L 544 3500 
L 1119 3500 
L 1119 1403 
Q 1119 906 1312 657 
Q 1506 409 1894 409 
Q 2359 409 2629 706 
Q 2900 1003 2900 1516 
L 2900 3500 
L 3475 3500 
L 3475 0 
L 2900 0 
L 2900 538 
Q 2691 219 2414 64 
Q 2138 -91 1772 -91 
Q 1169 -91 856 284 
Q 544 659 544 1381 
z
M 1991 3584 
L 1991 3584 
z
" id="DejaVuSans-75" transform="scale(0.015625)"/>
       <path d="M 2631 2963 
Q 2534 3019 2420 3045 
Q 2306 3072 2169 3072 
Q 1681 3072 1420 2755 
Q 1159 2438 1159 1844 
L 1159 0 
L 581 0 
L 581 3500 
L 1159 3500 
L 1159 2956 
Q 1341 3275 1631 3429 
Q 1922 3584 2338 3584 
Q 2397 3584 2469 3576 
Q 2541 3569 2628 3553 
L 2631 2963 
z
" id="DejaVuSans-72" transform="scale(0.015625)"/>
       <path d="M 2059 -325 
Q 1816 -950 1584 -1140 
Q 1353 -1331 966 -1331 
L 506 -1331 
L 506 -850 
L 844 -850 
Q 1081 -850 1212 -737 
Q 1344 -625 1503 -206 
L 1606 56 
L 191 3500 
L 800 3500 
L 1894 763 
L 2988 3500 
L 3597 3500 
L 2059 -325 
z
" id="DejaVuSans-79" transform="scale(0.015625)"/>
      </defs>
      <use xlink:href="#DejaVuSans-54"/>
      <use x="44.083984" xlink:href="#DejaVuSans-65"/>
      <use x="105.607422" xlink:href="#DejaVuSans-73"/>
      <use x="157.707031" xlink:href="#DejaVuSans-74"/>
      <use x="196.916016" xlink:href="#DejaVuSans-20"/>
      <use x="228.703125" xlink:href="#DejaVuSans-61"/>
      <use x="289.982422" xlink:href="#DejaVuSans-63"/>
      <use x="344.962891" xlink:href="#DejaVuSans-63"/>
      <use x="399.943359" xlink:href="#DejaVuSans-75"/>
      <use x="463.322266" xlink:href="#DejaVuSans-72"/>
      <use x="504.435547" xlink:href="#DejaVuSans-61"/>
      <use x="565.714844" xlink:href="#DejaVuSans-63"/>
      <use x="620.695312" xlink:href="#DejaVuSans-79"/>
     </g>
    </g>
   </g>
   <g id="line2d_17">
    <path clip-path="url(#pf550c1889f)" d="M 116.810795 443.28964 
L 123.984098 419.515216 
L 131.157401 409.849712 
L 138.330703 405.399489 
L 145.504006 389.537862 
L 152.677309 384.022724 
L 159.850611 381.265155 
L 167.023914 381.603168 
L 174.197217 349.733327 
L 181.370519 353.147953 
L 188.543822 356.794532 
L 195.717125 342.997201 
L 202.890427 337.833873 
L 210.06373 327.245946 
L 217.237033 315.980268 
L 224.410335 321.304842 
L 231.583638 305.27076 
L 238.75694 300.46614 
L 245.930243 285.155509 
L 253.103546 276.174008 
L 260.276848 265.671447 
L 267.450151 261.120337 
L 274.623454 273.434917 
L 281.796756 256.741683 
L 288.970059 248.173214 
L 296.143362 246.49177 
L 303.316664 234.463836 
L 310.489967 225.701108 
L 317.66327 226.583466 
L 324.836572 228.214036 
L 332.009875 214.389975 
L 339.183178 209.668134 
L 346.35648 198.626648 
L 353.529783 204.601381 
L 360.703085 200.555567 
L 367.876388 196.747742 
L 375.049691 185.044888 
L 382.222993 180.366161 
L 389.396296 190.353079 
L 396.569599 178.157863 
L 403.742901 169.380723 
L 410.916204 179.872937 
L 418.089507 167.657643 
L 425.262809 147.080457 
L 432.436112 156.411181 
L 439.609415 139.540687 
L 446.782717 155.043606 
L 453.95602 144.638482 
L 461.129322 142.287046 
L 468.302625 151.957755 
L 475.475928 128.900161 
L 482.64923 123.331562 
L 489.822533 128.08272 
L 496.995836 117.105122 
L 504.169138 114.796722 
L 511.342441 127.299771 
L 518.515744 127.824037 
L 525.689046 112.940234 
L 532.862349 122.053664 
L 540.035652 106.20842 
L 547.208954 119.049483 
L 554.382257 110.057635 
L 561.55556 114.031018 
L 568.728862 105.784179 
L 575.902165 107.828643 
L 583.075467 95.968854 
L 590.24877 96.554342 
L 597.422073 94.466764 
L 604.595375 98.401344 
L 611.768678 94.220152 
L 618.941981 98.8161 
L 626.115283 91.731614 
L 633.288586 91.13233 
L 640.461889 83.470116 
L 647.635191 79.356182 
L 654.808494 86.041433 
L 661.981797 88.835218 
L 669.155099 82.528507 
L 676.328402 75.690633 
L 683.501705 81.881798 
" style="fill:none;stroke:#00c0c7;stroke-linecap:square;stroke-width:1.5;"/>
   </g>
   <g id="line2d_18">
    <path clip-path="url(#pf550c1889f)" d="M 116.810795 442.929331 
L 123.984098 440.810711 
L 131.157401 443.657957 
L 138.330703 431.573975 
L 145.504006 396.581993 
L 152.677309 390.136776 
L 159.850611 378.37307 
L 167.023914 390.008666 
L 174.197217 372.880351 
L 181.370519 399.447175 
L 188.543822 400.090928 
L 195.717125 395.398257 
L 202.890427 380.211449 
L 210.06373 378.014362 
L 217.237033 372.028419 
L 224.410335 377.722911 
L 231.583638 372.095677 
L 238.75694 349.286321 
L 245.930243 360.729112 
L 253.103546 357.411061 
L 260.276848 363.079932 
L 267.450151 363.890228 
L 274.623454 361.40169 
L 281.796756 340.495729 
L 288.970059 362.679588 
L 296.143362 334.79323 
L 303.316664 350.77496 
L 310.489967 337.300985 
L 317.66327 364.809417 
L 324.836572 342.318415 
L 332.009875 317.504778 
L 339.183178 294.957407 
L 346.35648 315.643979 
L 353.529783 342.704026 
L 360.703085 331.315042 
L 367.876388 276.728626 
L 375.049691 287.117071 
L 382.222993 297.327443 
L 389.396296 276.006726 
L 396.569599 253.475369 
L 403.742901 284.570884 
L 410.916204 270.648523 
L 418.089507 265.375513 
L 425.262809 276.817022 
L 432.436112 259.752762 
L 439.609415 260.492598 
L 446.782717 280.916544 
L 453.95602 268.092727 
L 461.129322 251.749086 
L 468.302625 239.104623 
L 475.475928 225.137424 
L 482.64923 224.307911 
L 489.822533 282.109249 
L 496.995836 254.718037 
L 504.169138 244.5256 
L 511.342441 238.387207 
L 518.515744 224.487265 
L 525.689046 232.872069 
L 532.862349 256.255358 
L 540.035652 230.8127 
L 547.208954 229.540567 
L 554.382257 248.341359 
L 561.55556 247.915393 
L 568.728862 228.119186 
L 575.902165 207.650401 
L 583.075467 209.213343 
L 590.24877 225.262972 
L 597.422073 226.096968 
L 604.595375 229.060795 
L 611.768678 223.523237 
L 618.941981 217.940841 
L 626.115283 210.50085 
L 633.288586 213.802246 
L 640.461889 211.775545 
L 647.635191 224.083719 
L 654.808494 215.160853 
L 661.981797 222.043566 
L 669.155099 221.32615 
L 676.328402 220.378135 
L 683.501705 213.23728 
" style="fill:none;stroke:#5144d3;stroke-dasharray:5.55,2.4;stroke-dashoffset:0;stroke-width:1.5;"/>
   </g>
   <g id="line2d_19">
    <path clip-path="url(#pf550c1889f)" d="M 116.810795 437.111533 
L 123.984098 442.088609 
L 131.157401 434.17461 
L 138.330703 434.062513 
L 145.504006 417.696453 
L 152.677309 402.384098 
L 159.850611 379.202583 
L 167.023914 374.42728 
L 174.197217 355.985196 
L 181.370519 355.729617 
L 188.543822 365.481995 
L 195.717125 352.792694 
L 202.890427 308.082283 
L 210.06373 324.006363 
L 217.237033 311.110804 
L 224.410335 300.959363 
L 231.583638 304.38951 
L 238.75694 283.875887 
L 245.930243 274.030629 
L 253.103546 268.31692 
L 260.276848 269.733817 
L 267.450151 259.64515 
L 274.623454 256.703743 
L 281.796756 245.852821 
L 288.970059 231.661429 
L 296.143362 248.61039 
L 303.316664 224.823554 
L 310.489967 220.182767 
L 317.66327 221.577245 
L 324.836572 213.229594 
L 332.009875 209.735392 
L 339.183178 207.157177 
L 346.35648 192.584658 
L 353.529783 192.920946 
L 360.703085 186.614729 
L 367.876388 184.45095 
L 375.049691 175.568439 
L 382.222993 175.815051 
L 389.396296 163.4172 
L 396.569599 166.533477 
L 403.742901 167.609601 
L 410.916204 168.900951 
L 418.089507 159.202379 
L 425.262809 166.286865 
L 432.436112 142.387933 
L 439.609415 141.625678 
L 446.782717 133.730896 
L 453.95602 138.285208 
L 461.129322 138.850174 
L 468.302625 136.962472 
L 475.475928 133.08394 
L 482.64923 124.519782 
L 489.822533 113.242894 
L 496.995836 143.822766 
L 504.169138 132.078276 
L 511.342441 114.543211 
L 518.515744 113.041121 
L 525.689046 111.068226 
L 532.862349 109.969682 
L 540.035652 117.345619 
L 547.208954 105.620346 
L 554.382257 115.874916 
L 561.55556 108.345887 
L 568.728862 101.069236 
L 575.902165 104.701156 
L 583.075467 102.302295 
L 590.24877 104.656318 
L 597.422073 88.155742 
L 604.595375 95.701424 
L 611.768678 91.742823 
L 618.941981 94.186523 
L 626.115283 77.820463 
L 633.288586 74.323058 
L 640.461889 82.999312 
L 647.635191 85.612757 
L 654.808494 87.00115 
L 661.981797 78.672395 
L 669.155099 74.054027 
L 676.328402 81.85593 
L 683.501705 74.300639 
" style="fill:none;stroke:#da3490;stroke-linecap:square;stroke-width:1.5;"/>
   </g>
   <g id="line2d_20">
    <path clip-path="url(#pf550c1889f)" d="M 116.810795 448.11939 
L 123.984098 438.748139 
L 131.157401 437.755286 
L 138.330703 417.248068 
L 145.504006 400.366365 
L 152.677309 386.466423 
L 159.850611 366.235282 
L 167.023914 362.948619 
L 174.197217 363.150392 
L 181.370519 350.48351 
L 188.543822 342.793703 
L 195.717125 338.444367 
L 202.890427 333.669064 
L 210.06373 330.059563 
L 217.237033 319.993315 
L 224.410335 311.487448 
L 231.583638 301.65436 
L 238.75694 292.798752 
L 245.930243 289.803539 
L 253.103546 291.834724 
L 260.276848 284.97443 
L 267.450151 269.505141 
L 274.623454 255.26891 
L 281.796756 246.79443 
L 288.970059 238.526206 
L 296.143362 242.467512 
L 303.316664 238.992527 
L 310.489967 242.736543 
L 317.66327 236.885116 
L 324.836572 210.197229 
L 332.009875 204.278544 
L 339.183178 215.272949 
L 346.35648 212.51538 
L 353.529783 209.152491 
L 360.703085 219.644705 
L 367.876388 227.388318 
L 375.049691 204.668639 
L 382.222993 201.574781 
L 389.396296 187.65242 
L 396.569599 196.691866 
L 403.742901 177.025691 
L 410.916204 190.342732 
L 418.089507 186.127911 
L 425.262809 167.228474 
L 432.436112 162.004786 
L 439.609415 146.4234 
L 446.782717 150.472318 
L 453.95602 160.861404 
L 461.129322 157.453676 
L 468.302625 143.127769 
L 475.475928 148.293166 
L 482.64923 123.165659 
L 489.822533 142.006806 
L 496.995836 134.60845 
L 504.169138 132.18717 
L 511.342441 112.77209 
L 518.515744 136.693441 
L 525.689046 130.528144 
L 532.862349 140.97552 
L 540.035652 114.341438 
L 547.208954 112.256447 
L 554.382257 107.638079 
L 561.55556 101.876329 
L 568.728862 122.748661 
L 575.902165 140.410554 
L 583.075467 113.041121 
L 590.24877 102.16778 
L 597.422073 112.807961 
L 604.595375 104.925349 
L 611.768678 98.177151 
L 618.941981 99.006664 
L 626.115283 101.136494 
L 633.288586 94.948778 
L 640.461889 97.639089 
L 647.635191 98.603117 
L 654.808494 107.716547 
L 661.981797 94.59007 
L 669.155099 84.389306 
L 676.328402 82.371573 
L 683.501705 86.519136 
" style="fill:none;stroke:#9089fa;stroke-linecap:square;stroke-width:1.5;"/>
   </g>
   <g id="patch_3">
    <path d="M 88.47625 484.739875 
L 88.47625 33.259875 
" style="fill:none;stroke:#000000;stroke-linecap:square;stroke-linejoin:miter;stroke-width:0.8;"/>
   </g>
   <g id="patch_4">
    <path d="M 711.83625 484.739875 
L 711.83625 33.259875 
" style="fill:none;stroke:#000000;stroke-linecap:square;stroke-linejoin:miter;stroke-width:0.8;"/>
   </g>
   <g id="patch_5">
    <path d="M 88.47625 484.739875 
L 711.83625 484.739875 
" style="fill:none;stroke:#000000;stroke-linecap:square;stroke-linejoin:miter;stroke-width:0.8;"/>
   </g>
   <g id="patch_6">
    <path d="M 88.47625 33.259875 
L 711.83625 33.259875 
" style="fill:none;stroke:#000000;stroke-linecap:square;stroke-linejoin:miter;stroke-width:0.8;"/>
   </g>
   <g id="text_19">
    <!-- Dataset: cifar10 -->
    <g transform="translate(293.939562 27.259875)scale(0.264 -0.264)">
     <defs>
      <path d="M 1259 4147 
L 1259 519 
L 2022 519 
Q 2988 519 3436 956 
Q 3884 1394 3884 2338 
Q 3884 3275 3436 3711 
Q 2988 4147 2022 4147 
L 1259 4147 
z
M 628 4666 
L 1925 4666 
Q 3281 4666 3915 4102 
Q 4550 3538 4550 2338 
Q 4550 1131 3912 565 
Q 3275 0 1925 0 
L 628 0 
L 628 4666 
z
" id="DejaVuSans-44" transform="scale(0.015625)"/>
      <path d="M 750 794 
L 1409 794 
L 1409 0 
L 750 0 
L 750 794 
z
M 750 3309 
L 1409 3309 
L 1409 2516 
L 750 2516 
L 750 3309 
z
" id="DejaVuSans-3a" transform="scale(0.015625)"/>
      <path d="M 2375 4863 
L 2375 4384 
L 1825 4384 
Q 1516 4384 1395 4259 
Q 1275 4134 1275 3809 
L 1275 3500 
L 2222 3500 
L 2222 3053 
L 1275 3053 
L 1275 0 
L 697 0 
L 697 3053 
L 147 3053 
L 147 3500 
L 697 3500 
L 697 3744 
Q 697 4328 969 4595 
Q 1241 4863 1831 4863 
L 2375 4863 
z
" id="DejaVuSans-66" transform="scale(0.015625)"/>
     </defs>
     <use xlink:href="#DejaVuSans-44"/>
     <use x="77.001953" xlink:href="#DejaVuSans-61"/>
     <use x="138.28125" xlink:href="#DejaVuSans-74"/>
     <use x="177.490234" xlink:href="#DejaVuSans-61"/>
     <use x="238.769531" xlink:href="#DejaVuSans-73"/>
     <use x="290.869141" xlink:href="#DejaVuSans-65"/>
     <use x="352.392578" xlink:href="#DejaVuSans-74"/>
     <use x="391.601562" xlink:href="#DejaVuSans-3a"/>
     <use x="425.292969" xlink:href="#DejaVuSans-20"/>
     <use x="457.080078" xlink:href="#DejaVuSans-63"/>
     <use x="512.060547" xlink:href="#DejaVuSans-69"/>
     <use x="539.84375" xlink:href="#DejaVuSans-66"/>
     <use x="575.048828" xlink:href="#DejaVuSans-61"/>
     <use x="636.328125" xlink:href="#DejaVuSans-72"/>
     <use x="677.441406" xlink:href="#DejaVuSans-31"/>
     <use x="741.064453" xlink:href="#DejaVuSans-30"/>
    </g>
   </g>
  </g>
  <g id="axes_2">
   <g id="patch_7">
    <path d="M 777.59625 484.739875 
L 1400.95625 484.739875 
L 1400.95625 33.259875 
L 777.59625 33.259875 
z
" style="fill:#ffffff;"/>
   </g>
   <g id="PolyCollection_5">
    <path clip-path="url(#p7e3c92aaac)" d="M 805.930795 697.99848 
L 805.930795 762.224981 
L 813.104098 693.720265 
L 820.277401 611.178366 
L 827.450703 526.04375 
L 834.624006 462.053236 
L 841.797309 397.946389 
L 848.970611 355.062804 
L 856.143914 329.508371 
L 863.317217 304.979969 
L 870.490519 279.589791 
L 877.663822 276.617263 
L 884.837125 255.655913 
L 892.010427 255.496705 
L 899.18373 242.877505 
L 906.357033 243.068711 
L 913.530335 229.158848 
L 920.703638 224.587591 
L 927.87694 215.514554 
L 935.050243 212.900767 
L 942.223546 213.981341 
L 949.396848 223.667022 
L 956.570151 213.568209 
L 963.743454 207.402239 
L 970.916756 209.915861 
L 978.090059 204.559027 
L 985.263362 202.12876 
L 992.436664 191.863493 
L 999.609967 195.312233 
L 1006.78327 189.827236 
L 1013.956572 190.087847 
L 1021.129875 184.42486 
L 1028.303178 177.218099 
L 1035.47648 182.703872 
L 1042.649783 175.423507 
L 1049.823085 169.998756 
L 1056.996388 169.610492 
L 1064.169691 171.860556 
L 1071.342993 172.746776 
L 1078.516296 175.201758 
L 1085.689599 168.821773 
L 1092.862901 165.173886 
L 1100.036204 159.966602 
L 1107.209507 169.58396 
L 1114.382809 164.849881 
L 1121.556112 157.101919 
L 1128.729415 156.068355 
L 1135.902717 158.568196 
L 1143.07602 155.03273 
L 1150.249322 160.654521 
L 1157.422625 160.770139 
L 1164.595928 159.834699 
L 1171.76923 164.818491 
L 1178.942533 149.959651 
L 1186.115836 150.773842 
L 1193.289138 154.083374 
L 1200.462441 139.69201 
L 1207.635744 152.896418 
L 1214.809046 155.361683 
L 1221.982349 145.83314 
L 1229.155652 143.14533 
L 1236.328954 140.468647 
L 1243.502257 142.872394 
L 1250.67556 138.837055 
L 1257.848862 136.324786 
L 1265.022165 140.811794 
L 1272.195467 145.139638 
L 1279.36877 144.644775 
L 1286.542073 136.957956 
L 1293.715375 129.33785 
L 1300.888678 140.634315 
L 1308.061981 135.294634 
L 1315.235283 135.990834 
L 1322.408586 134.21767 
L 1329.581889 128.023453 
L 1336.755191 122.570389 
L 1343.928494 123.498616 
L 1351.101797 126.904804 
L 1358.275099 126.889897 
L 1365.448402 127.242441 
L 1372.621705 122.498323 
L 1372.621705 107.417055 
L 1372.621705 107.417055 
L 1365.448402 111.519585 
L 1358.275099 110.931398 
L 1351.101797 109.687462 
L 1343.928494 111.502183 
L 1336.755191 110.655843 
L 1329.581889 115.561441 
L 1322.408586 113.766942 
L 1315.235283 111.554337 
L 1308.061981 114.114648 
L 1300.888678 115.637462 
L 1293.715375 113.758384 
L 1286.542073 113.394417 
L 1279.36877 122.207938 
L 1272.195467 119.068154 
L 1265.022165 122.01146 
L 1257.848862 123.173451 
L 1250.67556 125.479093 
L 1243.502257 125.358587 
L 1236.328954 124.451481 
L 1229.155652 125.88179 
L 1221.982349 126.150142 
L 1214.809046 125.125726 
L 1207.635744 131.467448 
L 1200.462441 130.23807 
L 1193.289138 131.424241 
L 1186.115836 137.583114 
L 1178.942533 138.473806 
L 1171.76923 136.832043 
L 1164.595928 141.285346 
L 1157.422625 138.131384 
L 1150.249322 138.170279 
L 1143.07602 143.229048 
L 1135.902717 141.605733 
L 1128.729415 145.672475 
L 1121.556112 139.752894 
L 1114.382809 145.694809 
L 1107.209507 149.654228 
L 1100.036204 146.616351 
L 1092.862901 147.111511 
L 1085.689599 151.482852 
L 1078.516296 151.659419 
L 1071.342993 147.249781 
L 1064.169691 152.221405 
L 1056.996388 153.109109 
L 1049.823085 152.84478 
L 1042.649783 153.262712 
L 1035.47648 152.130442 
L 1028.303178 157.280114 
L 1021.129875 166.877851 
L 1013.956572 167.405746 
L 1006.78327 164.985068 
L 999.609967 165.281523 
L 992.436664 175.502464 
L 985.263362 165.923195 
L 978.090059 174.327854 
L 970.916756 174.558679 
L 963.743454 178.074852 
L 956.570151 183.721723 
L 949.396848 176.265692 
L 942.223546 187.152811 
L 935.050243 187.573722 
L 927.87694 188.421283 
L 920.703638 187.032184 
L 913.530335 196.24473 
L 906.357033 209.749367 
L 899.18373 210.530506 
L 892.010427 210.954062 
L 884.837125 219.475811 
L 877.663822 227.84812 
L 870.490519 237.823035 
L 863.317217 251.104627 
L 856.143914 265.363374 
L 848.970611 281.607136 
L 841.797309 321.293046 
L 834.624006 342.692749 
L 827.450703 411.480721 
L 820.277401 520.579231 
L 813.104098 598.798442 
L 805.930795 697.99848 
z
" style="fill:#00c0c7;fill-opacity:0.1;stroke:#00c0c7;stroke-opacity:0.1;"/>
   </g>
   <g id="PolyCollection_6">
    <path clip-path="url(#p7e3c92aaac)" d="M 805.930795 731.526788 
L 805.930795 769.826501 
L 813.104098 742.268138 
L 820.277401 684.866418 
L 827.450703 603.862515 
L 834.624006 488.823804 
L 841.797309 470.499455 
L 848.970611 412.093647 
L 856.143914 404.537571 
L 863.317217 400.084732 
L 870.490519 380.350475 
L 877.663822 382.119968 
L 884.837125 370.80916 
L 892.010427 367.265741 
L 899.18373 401.83258 
L 906.357033 387.663649 
L 913.530335 302.010637 
L 920.703638 355.156678 
L 927.87694 352.65753 
L 935.050243 339.692482 
L 942.223546 333.381491 
L 949.396848 309.065567 
L 956.570151 318.446793 
L 963.743454 293.764623 
L 970.916756 301.682064 
L 978.090059 294.804348 
L 985.263362 313.000294 
L 992.436664 317.956597 
L 999.609967 281.520804 
L 1006.78327 269.281794 
L 1013.956572 266.102351 
L 1021.129875 256.480821 
L 1028.303178 273.810218 
L 1035.47648 297.383887 
L 1042.649783 269.375989 
L 1049.823085 252.609406 
L 1056.996388 273.104466 
L 1064.169691 271.039641 
L 1071.342993 256.393786 
L 1078.516296 251.85008 
L 1085.689599 265.841562 
L 1092.862901 274.901993 
L 1100.036204 246.693172 
L 1107.209507 250.839956 
L 1114.382809 251.6543 
L 1121.556112 225.944916 
L 1128.729415 231.248232 
L 1135.902717 217.168467 
L 1143.07602 209.58646 
L 1150.249322 213.842554 
L 1157.422625 231.339934 
L 1164.595928 229.72522 
L 1171.76923 209.144149 
L 1178.942533 209.302852 
L 1186.115836 216.447137 
L 1193.289138 242.779837 
L 1200.462441 220.346186 
L 1207.635744 225.885763 
L 1214.809046 227.826109 
L 1221.982349 207.745729 
L 1229.155652 220.385347 
L 1236.328954 238.360354 
L 1243.502257 222.464801 
L 1250.67556 221.000057 
L 1257.848862 218.149611 
L 1265.022165 201.899585 
L 1272.195467 191.044906 
L 1279.36877 192.693143 
L 1286.542073 192.477871 
L 1293.715375 223.789747 
L 1300.888678 224.768338 
L 1308.061981 220.5845 
L 1315.235283 205.653347 
L 1322.408586 211.011206 
L 1329.581889 194.077272 
L 1336.755191 215.833375 
L 1343.928494 231.173151 
L 1351.101797 230.629891 
L 1358.275099 210.122716 
L 1365.448402 182.945616 
L 1372.621705 175.447102 
L 1372.621705 158.219814 
L 1372.621705 158.219814 
L 1365.448402 164.552712 
L 1358.275099 162.229586 
L 1351.101797 175.543279 
L 1343.928494 184.895315 
L 1336.755191 167.525006 
L 1329.581889 160.418996 
L 1322.408586 153.620788 
L 1315.235283 169.472332 
L 1308.061981 166.004471 
L 1300.888678 169.11956 
L 1293.715375 188.824539 
L 1286.542073 157.674515 
L 1279.36877 165.076355 
L 1272.195467 163.699676 
L 1265.022165 159.578499 
L 1257.848862 187.140665 
L 1250.67556 173.903671 
L 1243.502257 189.447181 
L 1236.328954 168.007741 
L 1229.155652 174.112049 
L 1221.982349 155.328659 
L 1214.809046 178.527654 
L 1207.635744 187.731811 
L 1200.462441 182.375671 
L 1193.289138 173.140285 
L 1186.115836 182.790799 
L 1178.942533 171.730766 
L 1171.76923 173.110614 
L 1164.595928 181.04803 
L 1157.422625 191.171796 
L 1150.249322 164.401562 
L 1143.07602 191.5502 
L 1135.902717 193.146854 
L 1128.729415 182.662804 
L 1121.556112 187.879049 
L 1114.382809 214.856664 
L 1107.209507 217.9259 
L 1100.036204 181.665224 
L 1092.862901 181.403015 
L 1085.689599 183.510654 
L 1078.516296 182.458178 
L 1071.342993 178.985124 
L 1064.169691 194.528232 
L 1056.996388 190.085612 
L 1049.823085 214.12479 
L 1042.649783 213.250303 
L 1035.47648 235.740443 
L 1028.303178 219.245262 
L 1021.129875 204.722745 
L 1013.956572 205.394959 
L 1006.78327 228.270928 
L 999.609967 225.437035 
L 992.436664 225.24577 
L 985.263362 215.925272 
L 978.090059 236.157894 
L 970.916756 233.654518 
L 963.743454 244.642023 
L 956.570151 245.874805 
L 949.396848 235.581536 
L 942.223546 249.218597 
L 935.050243 265.131888 
L 927.87694 260.198168 
L 920.703638 284.67495 
L 913.530335 276.103675 
L 906.357033 279.843703 
L 899.18373 259.241182 
L 892.010427 301.889513 
L 884.837125 327.489128 
L 877.663822 324.498093 
L 870.490519 323.546165 
L 863.317217 349.537157 
L 856.143914 365.658907 
L 848.970611 354.982603 
L 841.797309 412.296135 
L 834.624006 402.978812 
L 827.450703 502.934877 
L 820.277401 588.810523 
L 813.104098 687.788934 
L 805.930795 731.526788 
z
" style="fill:#5144d3;fill-opacity:0.1;stroke:#5144d3;stroke-opacity:0.1;"/>
   </g>
   <g id="PolyCollection_7">
    <path clip-path="url(#p7e3c92aaac)" d="M 805.930795 726.619883 
L 805.930795 753.754635 
L 813.104098 658.0223 
L 820.277401 590.77126 
L 827.450703 520.237949 
L 834.624006 456.081813 
L 841.797309 405.655127 
L 848.970611 384.096673 
L 856.143914 352.381429 
L 863.317217 323.797562 
L 870.490519 318.906665 
L 877.663822 302.357134 
L 884.837125 271.170246 
L 892.010427 257.67843 
L 899.18373 252.262818 
L 906.357033 254.363439 
L 913.530335 263.11376 
L 920.703638 258.810567 
L 927.87694 254.344999 
L 935.050243 245.573455 
L 942.223546 226.242612 
L 949.396848 225.31612 
L 956.570151 224.102014 
L 963.743454 215.02289 
L 970.916756 215.084999 
L 978.090059 217.185367 
L 985.263362 208.055183 
L 992.436664 196.401373 
L 999.609967 196.089416 
L 1006.78327 197.105033 
L 1013.956572 193.352206 
L 1021.129875 190.690842 
L 1028.303178 187.249788 
L 1035.47648 191.304893 
L 1042.649783 189.19304 
L 1049.823085 188.366814 
L 1056.996388 183.143646 
L 1064.169691 173.740013 
L 1071.342993 185.337827 
L 1078.516296 172.347787 
L 1085.689599 168.607499 
L 1092.862901 181.432229 
L 1100.036204 157.297725 
L 1107.209507 161.013591 
L 1114.382809 167.433339 
L 1121.556112 169.363487 
L 1128.729415 153.502018 
L 1135.902717 162.658314 
L 1143.07602 164.518558 
L 1150.249322 158.067863 
L 1157.422625 155.09533 
L 1164.595928 157.995699 
L 1171.76923 153.17939 
L 1178.942533 157.396293 
L 1186.115836 152.959454 
L 1193.289138 152.440984 
L 1200.462441 145.913486 
L 1207.635744 146.516979 
L 1214.809046 148.202682 
L 1221.982349 141.234976 
L 1229.155652 144.845431 
L 1236.328954 149.880607 
L 1243.502257 151.839627 
L 1250.67556 142.658194 
L 1257.848862 137.97095 
L 1265.022165 137.720437 
L 1272.195467 166.499811 
L 1279.36877 137.378268 
L 1286.542073 135.190138 
L 1293.715375 131.411527 
L 1300.888678 135.002224 
L 1308.061981 129.266347 
L 1315.235283 132.712426 
L 1322.408586 132.156535 
L 1329.581889 135.641478 
L 1336.755191 136.235563 
L 1343.928494 128.450174 
L 1351.101797 129.367903 
L 1358.275099 125.643057 
L 1365.448402 130.714784 
L 1372.621705 133.314169 
L 1372.621705 115.445483 
L 1372.621705 115.445483 
L 1365.448402 115.774927 
L 1358.275099 114.270812 
L 1351.101797 115.779909 
L 1343.928494 113.176094 
L 1336.755191 117.274304 
L 1329.581889 119.009988 
L 1322.408586 117.302911 
L 1315.235283 118.593071 
L 1308.061981 119.419133 
L 1300.888678 118.891759 
L 1293.715375 118.476825 
L 1286.542073 118.139136 
L 1279.36877 126.212502 
L 1272.195467 117.249541 
L 1265.022165 120.226833 
L 1257.848862 122.02303 
L 1250.67556 126.769567 
L 1243.502257 126.288799 
L 1236.328954 132.885164 
L 1229.155652 128.311699 
L 1221.982349 123.961773 
L 1214.809046 132.840298 
L 1207.635744 130.444049 
L 1200.462441 126.526292 
L 1193.289138 135.484558 
L 1186.115836 136.27538 
L 1178.942533 138.091539 
L 1171.76923 141.32486 
L 1164.595928 138.575685 
L 1157.422625 136.93868 
L 1150.249322 141.438141 
L 1143.07602 148.277083 
L 1135.902717 141.079061 
L 1128.729415 147.348752 
L 1121.556112 145.690986 
L 1114.382809 150.312457 
L 1107.209507 144.587393 
L 1100.036204 149.288991 
L 1092.862901 151.325277 
L 1085.689599 149.838091 
L 1078.516296 157.452525 
L 1071.342993 159.454129 
L 1064.169691 155.876482 
L 1056.996388 168.972319 
L 1049.823085 169.658523 
L 1042.649783 175.544299 
L 1035.47648 165.087591 
L 1028.303178 172.077316 
L 1021.129875 171.999788 
L 1013.956572 165.410548 
L 1006.78327 174.976381 
L 999.609967 170.600037 
L 992.436664 173.828973 
L 985.263362 180.279511 
L 978.090059 186.086866 
L 970.916756 183.282584 
L 963.743454 195.447223 
L 956.570151 196.498451 
L 949.396848 197.614842 
L 942.223546 205.230996 
L 935.050243 205.110627 
L 927.87694 211.034757 
L 920.703638 220.632791 
L 913.530335 218.988314 
L 906.357033 225.582997 
L 899.18373 233.298094 
L 892.010427 228.072749 
L 884.837125 241.705206 
L 877.663822 235.86892 
L 870.490519 256.443945 
L 863.317217 279.481744 
L 856.143914 311.020679 
L 848.970611 322.712013 
L 841.797309 355.308585 
L 834.624006 392.739907 
L 827.450703 433.643167 
L 820.277401 517.145158 
L 813.104098 561.216186 
L 805.930795 726.619883 
z
" style="fill:#da3490;fill-opacity:0.1;stroke:#da3490;stroke-opacity:0.1;"/>
   </g>
   <g id="PolyCollection_8">
    <path clip-path="url(#p7e3c92aaac)" d="M 805.930795 746.099124 
L 805.930795 762.387548 
L 813.104098 738.295306 
L 820.277401 667.84357 
L 827.450703 557.680656 
L 834.624006 456.333167 
L 841.797309 417.433475 
L 848.970611 353.86138 
L 856.143914 331.219078 
L 863.317217 331.309426 
L 870.490519 289.314152 
L 877.663822 281.823748 
L 884.837125 261.705219 
L 892.010427 251.431137 
L 899.18373 255.989112 
L 906.357033 240.693355 
L 913.530335 247.188169 
L 920.703638 219.044727 
L 927.87694 220.170976 
L 935.050243 225.494268 
L 942.223546 216.357121 
L 949.396848 201.421985 
L 956.570151 217.12029 
L 963.743454 215.54002 
L 970.916756 198.615572 
L 978.090059 196.361846 
L 985.263362 198.365134 
L 992.436664 193.345442 
L 999.609967 180.245458 
L 1006.78327 196.185439 
L 1013.956572 181.996638 
L 1021.129875 192.572872 
L 1028.303178 185.515881 
L 1035.47648 181.374685 
L 1042.649783 175.435223 
L 1049.823085 180.029633 
L 1056.996388 168.300183 
L 1064.169691 198.098464 
L 1071.342993 183.760673 
L 1078.516296 167.928649 
L 1085.689599 176.02864 
L 1092.862901 156.049451 
L 1100.036204 157.507044 
L 1107.209507 166.058654 
L 1114.382809 158.55584 
L 1121.556112 161.76519 
L 1128.729415 169.279852 
L 1135.902717 155.967261 
L 1143.07602 160.805431 
L 1150.249322 164.23461 
L 1157.422625 167.12947 
L 1164.595928 167.414477 
L 1171.76923 154.804168 
L 1178.942533 161.954476 
L 1186.115836 152.07828 
L 1193.289138 145.031092 
L 1200.462441 146.06515 
L 1207.635744 158.217746 
L 1214.809046 143.92148 
L 1221.982349 138.734599 
L 1229.155652 148.097136 
L 1236.328954 150.146747 
L 1243.502257 156.417168 
L 1250.67556 149.942868 
L 1257.848862 150.165097 
L 1265.022165 143.344208 
L 1272.195467 152.333216 
L 1279.36877 145.589458 
L 1286.542073 140.810519 
L 1293.715375 136.634536 
L 1300.888678 132.747564 
L 1308.061981 139.216968 
L 1315.235283 141.065058 
L 1322.408586 151.188271 
L 1329.581889 137.656852 
L 1336.755191 141.136058 
L 1343.928494 138.97902 
L 1351.101797 136.818807 
L 1358.275099 139.045407 
L 1365.448402 130.857146 
L 1372.621705 124.169658 
L 1372.621705 96.906745 
L 1372.621705 96.906745 
L 1365.448402 108.228293 
L 1358.275099 113.896885 
L 1351.101797 119.277395 
L 1343.928494 113.349833 
L 1336.755191 119.279303 
L 1329.581889 120.551273 
L 1322.408586 112.873328 
L 1315.235283 122.841748 
L 1308.061981 117.75962 
L 1300.888678 114.747944 
L 1293.715375 114.247072 
L 1286.542073 108.261944 
L 1279.36877 116.24054 
L 1272.195467 117.465404 
L 1265.022165 129.253588 
L 1257.848862 118.978877 
L 1250.67556 121.780992 
L 1243.502257 113.08799 
L 1236.328954 121.706107 
L 1229.155652 127.032173 
L 1221.982349 122.282735 
L 1214.809046 126.283472 
L 1207.635744 124.673794 
L 1200.462441 121.014916 
L 1193.289138 132.668428 
L 1186.115836 122.167418 
L 1178.942533 132.31436 
L 1171.76923 134.385518 
L 1164.595928 142.452993 
L 1157.422625 143.86025 
L 1150.249322 130.95976 
L 1143.07602 130.799673 
L 1135.902717 135.131541 
L 1128.729415 137.15637 
L 1121.556112 141.10434 
L 1114.382809 139.482854 
L 1107.209507 139.625101 
L 1100.036204 134.712574 
L 1092.862901 140.363915 
L 1085.689599 142.9813 
L 1078.516296 136.949967 
L 1071.342993 150.148107 
L 1064.169691 139.602748 
L 1056.996388 144.366463 
L 1049.823085 141.508595 
L 1042.649783 145.538655 
L 1035.47648 151.879449 
L 1028.303178 145.706593 
L 1021.129875 157.605312 
L 1013.956572 163.939068 
L 1006.78327 157.191803 
L 999.609967 158.403862 
L 992.436664 158.599964 
L 985.263362 173.061634 
L 978.090059 177.390044 
L 970.916756 174.18821 
L 963.743454 178.144712 
L 956.570151 173.584674 
L 949.396848 180.208231 
L 942.223546 179.404419 
L 935.050243 190.51615 
L 927.87694 184.48472 
L 920.703638 183.634131 
L 913.530335 196.949453 
L 906.357033 211.977239 
L 899.18373 214.763256 
L 892.010427 229.547253 
L 884.837125 228.018984 
L 877.663822 241.051986 
L 870.490519 245.300062 
L 863.317217 269.694922 
L 856.143914 276.241434 
L 848.970611 293.442242 
L 841.797309 325.787073 
L 834.624006 372.310621 
L 827.450703 460.288046 
L 820.277401 568.957488 
L 813.104098 651.399454 
L 805.930795 746.099124 
z
" style="fill:#9089fa;fill-opacity:0.1;stroke:#9089fa;stroke-opacity:0.1;"/>
   </g>
   <g id="matplotlib.axis_3">
    <g id="xtick_10">
     <g id="line2d_21">
      <g>
       <use style="stroke:#000000;stroke-width:0.8;" x="805.930795" xlink:href="#m220ebd7dc5" y="484.739875"/>
      </g>
     </g>
     <g id="text_20">
      <!-- 0 -->
      <g transform="translate(798.932045 508.456438)scale(0.22 -0.22)">
       <use xlink:href="#DejaVuSans-30"/>
      </g>
     </g>
    </g>
    <g id="xtick_11">
     <g id="line2d_22">
      <g>
       <use style="stroke:#000000;stroke-width:0.8;" x="877.663822" xlink:href="#m220ebd7dc5" y="484.739875"/>
      </g>
     </g>
     <g id="text_21">
      <!-- 10 -->
      <g transform="translate(863.666322 508.456438)scale(0.22 -0.22)">
       <use xlink:href="#DejaVuSans-31"/>
       <use x="63.623047" xlink:href="#DejaVuSans-30"/>
      </g>
     </g>
    </g>
    <g id="xtick_12">
     <g id="line2d_23">
      <g>
       <use style="stroke:#000000;stroke-width:0.8;" x="949.396848" xlink:href="#m220ebd7dc5" y="484.739875"/>
      </g>
     </g>
     <g id="text_22">
      <!-- 20 -->
      <g transform="translate(935.399348 508.456438)scale(0.22 -0.22)">
       <use xlink:href="#DejaVuSans-32"/>
       <use x="63.623047" xlink:href="#DejaVuSans-30"/>
      </g>
     </g>
    </g>
    <g id="xtick_13">
     <g id="line2d_24">
      <g>
       <use style="stroke:#000000;stroke-width:0.8;" x="1021.129875" xlink:href="#m220ebd7dc5" y="484.739875"/>
      </g>
     </g>
     <g id="text_23">
      <!-- 30 -->
      <g transform="translate(1007.132375 508.456438)scale(0.22 -0.22)">
       <use xlink:href="#DejaVuSans-33"/>
       <use x="63.623047" xlink:href="#DejaVuSans-30"/>
      </g>
     </g>
    </g>
    <g id="xtick_14">
     <g id="line2d_25">
      <g>
       <use style="stroke:#000000;stroke-width:0.8;" x="1092.862901" xlink:href="#m220ebd7dc5" y="484.739875"/>
      </g>
     </g>
     <g id="text_24">
      <!-- 40 -->
      <g transform="translate(1078.865401 508.456438)scale(0.22 -0.22)">
       <use xlink:href="#DejaVuSans-34"/>
       <use x="63.623047" xlink:href="#DejaVuSans-30"/>
      </g>
     </g>
    </g>
    <g id="xtick_15">
     <g id="line2d_26">
      <g>
       <use style="stroke:#000000;stroke-width:0.8;" x="1164.595928" xlink:href="#m220ebd7dc5" y="484.739875"/>
      </g>
     </g>
     <g id="text_25">
      <!-- 50 -->
      <g transform="translate(1150.598428 508.456438)scale(0.22 -0.22)">
       <use xlink:href="#DejaVuSans-35"/>
       <use x="63.623047" xlink:href="#DejaVuSans-30"/>
      </g>
     </g>
    </g>
    <g id="xtick_16">
     <g id="line2d_27">
      <g>
       <use style="stroke:#000000;stroke-width:0.8;" x="1236.328954" xlink:href="#m220ebd7dc5" y="484.739875"/>
      </g>
     </g>
     <g id="text_26">
      <!-- 60 -->
      <g transform="translate(1222.331454 508.456438)scale(0.22 -0.22)">
       <use xlink:href="#DejaVuSans-36"/>
       <use x="63.623047" xlink:href="#DejaVuSans-30"/>
      </g>
     </g>
    </g>
    <g id="xtick_17">
     <g id="line2d_28">
      <g>
       <use style="stroke:#000000;stroke-width:0.8;" x="1308.061981" xlink:href="#m220ebd7dc5" y="484.739875"/>
      </g>
     </g>
     <g id="text_27">
      <!-- 70 -->
      <g transform="translate(1294.064481 508.456438)scale(0.22 -0.22)">
       <use xlink:href="#DejaVuSans-37"/>
       <use x="63.623047" xlink:href="#DejaVuSans-30"/>
      </g>
     </g>
    </g>
    <g id="xtick_18">
     <g id="line2d_29">
      <g>
       <use style="stroke:#000000;stroke-width:0.8;" x="1379.795007" xlink:href="#m220ebd7dc5" y="484.739875"/>
      </g>
     </g>
     <g id="text_28">
      <!-- 80 -->
      <g transform="translate(1365.797507 508.456438)scale(0.22 -0.22)">
       <use xlink:href="#DejaVuSans-38"/>
       <use x="63.623047" xlink:href="#DejaVuSans-30"/>
      </g>
     </g>
    </g>
    <g id="text_29">
     <!-- Time in seconds -->
     <g transform="translate(1000.380781 533.748312)scale(0.22 -0.22)">
      <use xlink:href="#DejaVuSans-54"/>
      <use x="57.958984" xlink:href="#DejaVuSans-69"/>
      <use x="85.742188" xlink:href="#DejaVuSans-6d"/>
      <use x="183.154297" xlink:href="#DejaVuSans-65"/>
      <use x="244.677734" xlink:href="#DejaVuSans-20"/>
      <use x="276.464844" xlink:href="#DejaVuSans-69"/>
      <use x="304.248047" xlink:href="#DejaVuSans-6e"/>
      <use x="367.626953" xlink:href="#DejaVuSans-20"/>
      <use x="399.414062" xlink:href="#DejaVuSans-73"/>
      <use x="451.513672" xlink:href="#DejaVuSans-65"/>
      <use x="513.037109" xlink:href="#DejaVuSans-63"/>
      <use x="568.017578" xlink:href="#DejaVuSans-6f"/>
      <use x="629.199219" xlink:href="#DejaVuSans-6e"/>
      <use x="692.578125" xlink:href="#DejaVuSans-64"/>
      <use x="756.054688" xlink:href="#DejaVuSans-73"/>
     </g>
    </g>
   </g>
   <g id="matplotlib.axis_4">
    <g id="ytick_8">
     <g id="line2d_30">
      <g>
       <use style="stroke:#000000;stroke-width:0.8;" x="777.59625" xlink:href="#mcee94bbc2c" y="484.739875"/>
      </g>
     </g>
     <g id="text_30">
      <!-- 0.4 -->
      <g transform="translate(735.609375 493.098156)scale(0.22 -0.22)">
       <use xlink:href="#DejaVuSans-30"/>
       <use x="63.623047" xlink:href="#DejaVuSans-2e"/>
       <use x="95.410156" xlink:href="#DejaVuSans-34"/>
      </g>
     </g>
    </g>
    <g id="ytick_9">
     <g id="line2d_31">
      <g>
       <use style="stroke:#000000;stroke-width:0.8;" x="777.59625" xlink:href="#mcee94bbc2c" y="394.443875"/>
      </g>
     </g>
     <g id="text_31">
      <!-- 0.5 -->
      <g transform="translate(735.609375 402.802156)scale(0.22 -0.22)">
       <use xlink:href="#DejaVuSans-30"/>
       <use x="63.623047" xlink:href="#DejaVuSans-2e"/>
       <use x="95.410156" xlink:href="#DejaVuSans-35"/>
      </g>
     </g>
    </g>
    <g id="ytick_10">
     <g id="line2d_32">
      <g>
       <use style="stroke:#000000;stroke-width:0.8;" x="777.59625" xlink:href="#mcee94bbc2c" y="304.147875"/>
      </g>
     </g>
     <g id="text_32">
      <!-- 0.6 -->
      <g transform="translate(735.609375 312.506156)scale(0.22 -0.22)">
       <use xlink:href="#DejaVuSans-30"/>
       <use x="63.623047" xlink:href="#DejaVuSans-2e"/>
       <use x="95.410156" xlink:href="#DejaVuSans-36"/>
      </g>
     </g>
    </g>
    <g id="ytick_11">
     <g id="line2d_33">
      <g>
       <use style="stroke:#000000;stroke-width:0.8;" x="777.59625" xlink:href="#mcee94bbc2c" y="213.851875"/>
      </g>
     </g>
     <g id="text_33">
      <!-- 0.7 -->
      <g transform="translate(735.609375 222.210156)scale(0.22 -0.22)">
       <use xlink:href="#DejaVuSans-30"/>
       <use x="63.623047" xlink:href="#DejaVuSans-2e"/>
       <use x="95.410156" xlink:href="#DejaVuSans-37"/>
      </g>
     </g>
    </g>
    <g id="ytick_12">
     <g id="line2d_34">
      <g>
       <use style="stroke:#000000;stroke-width:0.8;" x="777.59625" xlink:href="#mcee94bbc2c" y="123.555875"/>
      </g>
     </g>
     <g id="text_34">
      <!-- 0.8 -->
      <g transform="translate(735.609375 131.914156)scale(0.22 -0.22)">
       <use xlink:href="#DejaVuSans-30"/>
       <use x="63.623047" xlink:href="#DejaVuSans-2e"/>
       <use x="95.410156" xlink:href="#DejaVuSans-38"/>
      </g>
     </g>
    </g>
    <g id="ytick_13">
     <g id="line2d_35">
      <g>
       <use style="stroke:#000000;stroke-width:0.8;" x="777.59625" xlink:href="#mcee94bbc2c" y="33.259875"/>
      </g>
     </g>
     <g id="text_35">
      <!-- 0.9 -->
      <g transform="translate(735.609375 41.618156)scale(0.22 -0.22)">
       <defs>
        <path d="M 703 97 
L 703 672 
Q 941 559 1184 500 
Q 1428 441 1663 441 
Q 2288 441 2617 861 
Q 2947 1281 2994 2138 
Q 2813 1869 2534 1725 
Q 2256 1581 1919 1581 
Q 1219 1581 811 2004 
Q 403 2428 403 3163 
Q 403 3881 828 4315 
Q 1253 4750 1959 4750 
Q 2769 4750 3195 4129 
Q 3622 3509 3622 2328 
Q 3622 1225 3098 567 
Q 2575 -91 1691 -91 
Q 1453 -91 1209 -44 
Q 966 3 703 97 
z
M 1959 2075 
Q 2384 2075 2632 2365 
Q 2881 2656 2881 3163 
Q 2881 3666 2632 3958 
Q 2384 4250 1959 4250 
Q 1534 4250 1286 3958 
Q 1038 3666 1038 3163 
Q 1038 2656 1286 2365 
Q 1534 2075 1959 2075 
z
" id="DejaVuSans-39" transform="scale(0.015625)"/>
       </defs>
       <use xlink:href="#DejaVuSans-30"/>
       <use x="63.623047" xlink:href="#DejaVuSans-2e"/>
       <use x="95.410156" xlink:href="#DejaVuSans-39"/>
      </g>
     </g>
    </g>
   </g>
   <g id="line2d_36">
    <path clip-path="url(#p7e3c92aaac)" d="M 821.707028 546.523625 
L 827.450703 468.762235 
L 834.624006 402.372992 
L 841.797309 359.619718 
L 848.970611 318.33497 
L 856.143914 297.435872 
L 863.317217 278.042298 
L 870.490519 258.706413 
L 877.663822 252.232691 
L 884.837125 237.565862 
L 892.010427 233.225383 
L 899.18373 226.704006 
L 906.357033 226.409039 
L 913.530335 212.701789 
L 920.703638 205.809888 
L 927.87694 201.967918 
L 935.050243 200.237245 
L 942.223546 200.567076 
L 949.396848 199.966357 
L 956.570151 198.644966 
L 963.743454 192.738546 
L 970.916756 192.23727 
L 978.090059 189.44344 
L 985.263362 184.025977 
L 992.436664 183.682978 
L 999.609967 180.296878 
L 1006.78327 177.406152 
L 1013.956572 178.746797 
L 1021.129875 175.651355 
L 1028.303178 167.249106 
L 1035.47648 167.417157 
L 1042.649783 164.343109 
L 1049.823085 161.421768 
L 1056.996388 161.3598 
L 1064.169691 162.040981 
L 1071.342993 159.998278 
L 1078.516296 163.430589 
L 1085.689599 160.152313 
L 1092.862901 156.142698 
L 1100.036204 153.291477 
L 1107.209507 159.619094 
L 1114.382809 155.272345 
L 1121.556112 148.427407 
L 1128.729415 150.870415 
L 1135.902717 150.086964 
L 1143.07602 149.130889 
L 1150.249322 149.4124 
L 1157.422625 149.450761 
L 1164.595928 150.560022 
L 1171.76923 150.825267 
L 1178.942533 144.216729 
L 1186.115836 144.178478 
L 1193.289138 142.753808 
L 1200.462441 134.96504 
L 1207.635744 142.181933 
L 1214.809046 140.243704 
L 1221.982349 135.991641 
L 1229.155652 134.51356 
L 1236.328954 132.460064 
L 1243.502257 134.115491 
L 1250.67556 132.158074 
L 1257.848862 129.749118 
L 1265.022165 131.411627 
L 1272.195467 132.103896 
L 1279.36877 133.426356 
L 1286.542073 125.176187 
L 1293.715375 121.548117 
L 1300.888678 128.135889 
L 1308.061981 124.704641 
L 1315.235283 123.772585 
L 1322.408586 123.992306 
L 1329.581889 121.792447 
L 1336.755191 116.613116 
L 1343.928494 117.5004 
L 1351.101797 118.296133 
L 1358.275099 118.910647 
L 1365.448402 119.381013 
L 1372.621705 114.957689 
" style="fill:none;stroke:#00c0c7;stroke-linecap:square;stroke-width:1.5;"/>
   </g>
   <g id="line2d_37">
    <path clip-path="url(#p7e3c92aaac)" d="M 827.909477 546.523625 
L 834.624006 445.901308 
L 841.797309 441.397795 
L 848.970611 383.538125 
L 856.143914 385.098239 
L 863.317217 374.810945 
L 870.490519 351.94832 
L 877.663822 353.309031 
L 884.837125 349.149144 
L 892.010427 334.577627 
L 899.18373 330.536881 
L 906.357033 333.753676 
L 913.530335 289.057156 
L 920.703638 319.915814 
L 927.87694 306.427849 
L 935.050243 302.412185 
L 942.223546 291.300044 
L 949.396848 272.323551 
L 956.570151 282.160799 
L 963.743454 269.203323 
L 970.916756 267.668291 
L 978.090059 265.481121 
L 985.263362 264.462783 
L 992.436664 271.601183 
L 999.609967 253.47892 
L 1006.78327 248.776361 
L 1013.956572 235.748655 
L 1021.129875 230.601783 
L 1028.303178 246.52774 
L 1035.47648 266.562165 
L 1042.649783 241.313146 
L 1049.823085 233.367098 
L 1056.996388 231.595039 
L 1064.169691 232.783936 
L 1071.342993 217.689455 
L 1078.516296 217.154129 
L 1085.689599 224.676108 
L 1092.862901 228.152504 
L 1100.036204 214.179198 
L 1107.209507 234.382928 
L 1114.382809 233.255482 
L 1121.556112 206.911982 
L 1128.729415 206.955518 
L 1135.902717 205.15766 
L 1143.07602 200.56833 
L 1150.249322 189.122058 
L 1157.422625 211.255865 
L 1164.595928 205.386625 
L 1171.76923 191.127382 
L 1178.942533 190.516809 
L 1186.115836 199.618968 
L 1193.289138 207.960061 
L 1200.462441 201.360928 
L 1207.635744 206.808787 
L 1214.809046 203.176881 
L 1221.982349 181.537194 
L 1229.155652 197.248698 
L 1236.328954 203.184048 
L 1243.502257 205.955991 
L 1250.67556 197.451864 
L 1257.848862 202.645138 
L 1265.022165 180.739042 
L 1272.195467 177.372291 
L 1279.36877 178.884749 
L 1286.542073 175.076193 
L 1293.715375 206.307143 
L 1300.888678 196.943949 
L 1308.061981 193.294486 
L 1315.235283 187.56284 
L 1322.408586 182.315997 
L 1329.581889 177.248134 
L 1336.755191 191.679191 
L 1343.928494 208.034233 
L 1351.101797 203.086585 
L 1358.275099 186.176151 
L 1365.448402 173.749164 
L 1372.621705 166.833458 
" style="fill:none;stroke:#5144d3;stroke-dasharray:5.55,2.4;stroke-dashoffset:0;stroke-width:1.5;"/>
   </g>
   <g id="line2d_38">
    <path clip-path="url(#p7e3c92aaac)" d="M 820.969846 546.523625 
L 827.450703 476.940558 
L 834.624006 424.41086 
L 841.797309 380.481856 
L 848.970611 353.404343 
L 856.143914 331.701054 
L 863.317217 301.639653 
L 870.490519 287.675305 
L 877.663822 269.113027 
L 884.837125 256.437726 
L 892.010427 242.875589 
L 899.18373 242.780456 
L 906.357033 239.973218 
L 913.530335 241.051037 
L 920.703638 239.721679 
L 927.87694 232.689878 
L 935.050243 225.342041 
L 942.223546 215.736804 
L 949.396848 211.465481 
L 956.570151 210.300232 
L 963.743454 205.235057 
L 970.916756 199.183791 
L 978.090059 201.636116 
L 985.263362 194.167347 
L 992.436664 185.115173 
L 999.609967 183.344726 
L 1006.78327 186.040707 
L 1013.956572 179.381377 
L 1021.129875 181.345315 
L 1028.303178 179.663552 
L 1035.47648 178.196242 
L 1042.649783 182.36867 
L 1049.823085 179.012668 
L 1056.996388 176.057983 
L 1064.169691 164.808248 
L 1071.342993 172.395978 
L 1078.516296 164.900156 
L 1085.689599 159.222795 
L 1092.862901 166.378753 
L 1100.036204 153.293358 
L 1107.209507 152.800492 
L 1114.382809 158.872898 
L 1121.556112 157.527237 
L 1128.729415 150.425385 
L 1135.902717 151.868687 
L 1143.07602 156.39782 
L 1150.249322 149.753002 
L 1157.422625 146.017005 
L 1164.595928 148.285692 
L 1171.76923 147.252125 
L 1178.942533 147.743916 
L 1186.115836 144.617417 
L 1193.289138 143.962771 
L 1200.462441 136.219889 
L 1207.635744 138.480514 
L 1214.809046 140.52149 
L 1221.982349 132.598374 
L 1229.155652 136.578565 
L 1236.328954 141.382885 
L 1243.502257 139.064213 
L 1250.67556 134.713881 
L 1257.848862 129.99699 
L 1265.022165 128.973635 
L 1272.195467 141.874676 
L 1279.36877 131.795385 
L 1286.542073 126.664637 
L 1293.715375 124.944176 
L 1300.888678 126.946991 
L 1308.061981 124.34274 
L 1315.235283 125.652749 
L 1322.408586 124.729723 
L 1329.581889 127.325733 
L 1336.755191 126.754933 
L 1343.928494 120.813134 
L 1351.101797 122.573906 
L 1358.275099 119.956934 
L 1365.448402 123.244855 
L 1372.621705 124.379826 
" style="fill:none;stroke:#da3490;stroke-linecap:square;stroke-width:1.5;"/>
   </g>
   <g id="line2d_39">
    <path clip-path="url(#p7e3c92aaac)" d="M 824.989636 546.523625 
L 827.450703 508.984351 
L 834.624006 414.321894 
L 841.797309 371.610274 
L 848.970611 323.651811 
L 856.143914 303.730256 
L 863.317217 300.502174 
L 870.490519 267.307107 
L 877.663822 261.437867 
L 884.837125 244.862101 
L 892.010427 240.489195 
L 899.18373 235.376184 
L 906.357033 226.335297 
L 913.530335 222.068811 
L 920.703638 201.339429 
L 927.87694 202.327848 
L 935.050243 208.005209 
L 942.223546 197.88077 
L 949.396848 190.815108 
L 956.570151 195.352482 
L 963.743454 196.842366 
L 970.916756 186.401891 
L 978.090059 186.875945 
L 985.263362 185.713384 
L 992.436664 175.972703 
L 999.609967 169.32466 
L 1006.78327 176.688621 
L 1013.956572 172.967853 
L 1021.129875 175.089092 
L 1028.303178 165.611237 
L 1035.47648 166.627067 
L 1042.649783 160.486939 
L 1049.823085 160.769114 
L 1056.996388 156.333323 
L 1064.169691 168.850606 
L 1071.342993 166.95439 
L 1078.516296 152.439308 
L 1085.689599 159.50497 
L 1092.862901 148.206683 
L 1100.036204 146.109809 
L 1107.209507 152.841878 
L 1114.382809 149.019347 
L 1121.556112 151.434765 
L 1128.729415 153.218111 
L 1135.902717 145.549401 
L 1143.07602 145.802552 
L 1150.249322 147.597185 
L 1157.422625 155.49486 
L 1164.595928 154.933735 
L 1171.76923 144.594843 
L 1178.942533 147.134418 
L 1186.115836 137.122849 
L 1193.289138 138.84976 
L 1200.462441 133.540033 
L 1207.635744 141.44577 
L 1214.809046 135.102476 
L 1221.982349 130.508667 
L 1229.155652 137.564654 
L 1236.328954 135.926427 
L 1243.502257 134.752579 
L 1250.67556 135.86193 
L 1257.848862 134.571987 
L 1265.022165 136.298898 
L 1272.195467 134.89931 
L 1279.36877 130.914999 
L 1286.542073 124.536232 
L 1293.715375 125.440804 
L 1300.888678 123.747754 
L 1308.061981 128.488294 
L 1315.235283 131.953403 
L 1322.408586 132.0308 
L 1329.581889 129.104063 
L 1336.755191 130.20768 
L 1343.928494 126.164426 
L 1351.101797 128.048101 
L 1358.275099 126.471146 
L 1365.448402 119.542719 
L 1372.621705 110.538202 
" style="fill:none;stroke:#9089fa;stroke-linecap:square;stroke-width:1.5;"/>
   </g>
   <g id="patch_8">
    <path d="M 777.59625 484.739875 
L 777.59625 33.259875 
" style="fill:none;stroke:#000000;stroke-linecap:square;stroke-linejoin:miter;stroke-width:0.8;"/>
   </g>
   <g id="patch_9">
    <path d="M 1400.95625 484.739875 
L 1400.95625 33.259875 
" style="fill:none;stroke:#000000;stroke-linecap:square;stroke-linejoin:miter;stroke-width:0.8;"/>
   </g>
   <g id="patch_10">
    <path d="M 777.59625 484.739875 
L 1400.95625 484.739875 
" style="fill:none;stroke:#000000;stroke-linecap:square;stroke-linejoin:miter;stroke-width:0.8;"/>
   </g>
   <g id="patch_11">
    <path d="M 777.59625 33.259875 
L 1400.95625 33.259875 
" style="fill:none;stroke:#000000;stroke-linecap:square;stroke-linejoin:miter;stroke-width:0.8;"/>
   </g>
   <g id="text_36">
    <!-- Dataset: fashionmnist -->
    <g transform="translate(943.915375 27.259875)scale(0.264 -0.264)">
     <defs>
      <path d="M 3513 2113 
L 3513 0 
L 2938 0 
L 2938 2094 
Q 2938 2591 2744 2837 
Q 2550 3084 2163 3084 
Q 1697 3084 1428 2787 
Q 1159 2491 1159 1978 
L 1159 0 
L 581 0 
L 581 4863 
L 1159 4863 
L 1159 2956 
Q 1366 3272 1645 3428 
Q 1925 3584 2291 3584 
Q 2894 3584 3203 3211 
Q 3513 2838 3513 2113 
z
" id="DejaVuSans-68" transform="scale(0.015625)"/>
     </defs>
     <use xlink:href="#DejaVuSans-44"/>
     <use x="77.001953" xlink:href="#DejaVuSans-61"/>
     <use x="138.28125" xlink:href="#DejaVuSans-74"/>
     <use x="177.490234" xlink:href="#DejaVuSans-61"/>
     <use x="238.769531" xlink:href="#DejaVuSans-73"/>
     <use x="290.869141" xlink:href="#DejaVuSans-65"/>
     <use x="352.392578" xlink:href="#DejaVuSans-74"/>
     <use x="391.601562" xlink:href="#DejaVuSans-3a"/>
     <use x="425.292969" xlink:href="#DejaVuSans-20"/>
     <use x="457.080078" xlink:href="#DejaVuSans-66"/>
     <use x="492.285156" xlink:href="#DejaVuSans-61"/>
     <use x="553.564453" xlink:href="#DejaVuSans-73"/>
     <use x="605.664062" xlink:href="#DejaVuSans-68"/>
     <use x="669.042969" xlink:href="#DejaVuSans-69"/>
     <use x="696.826172" xlink:href="#DejaVuSans-6f"/>
     <use x="758.007812" xlink:href="#DejaVuSans-6e"/>
     <use x="821.386719" xlink:href="#DejaVuSans-6d"/>
     <use x="918.798828" xlink:href="#DejaVuSans-6e"/>
     <use x="982.177734" xlink:href="#DejaVuSans-69"/>
     <use x="1009.960938" xlink:href="#DejaVuSans-73"/>
     <use x="1062.060547" xlink:href="#DejaVuSans-74"/>
    </g>
   </g>
  </g>
  <g id="legend_1">
   <g id="patch_12">
    <path d="M 1057.781875 462.099875 
L 1370.43625 462.099875 
Q 1374.83625 462.099875 1374.83625 457.699875 
L 1374.83625 328.89675 
Q 1374.83625 324.49675 1370.43625 324.49675 
L 1057.781875 324.49675 
Q 1053.381875 324.49675 1053.381875 328.89675 
L 1053.381875 457.699875 
Q 1053.381875 462.099875 1057.781875 462.099875 
z
" style="fill:#ffffff;opacity:0.8;stroke:#cccccc;stroke-linejoin:miter;"/>
   </g>
   <g id="line2d_40">
    <path d="M 1062.181875 342.313313 
L 1106.181875 342.313313 
" style="fill:none;stroke:#00c0c7;stroke-linecap:square;stroke-width:4;"/>
   </g>
   <g id="line2d_41"/>
   <g id="text_37">
    <!-- active_bias -->
    <g transform="translate(1123.781875 350.013313)scale(0.22 -0.22)">
     <defs>
      <path d="M 191 3500 
L 800 3500 
L 1894 563 
L 2988 3500 
L 3597 3500 
L 2284 0 
L 1503 0 
L 191 3500 
z
" id="DejaVuSans-76" transform="scale(0.015625)"/>
      <path d="M 3263 -1063 
L 3263 -1509 
L -63 -1509 
L -63 -1063 
L 3263 -1063 
z
" id="DejaVuSans-5f" transform="scale(0.015625)"/>
      <path d="M 3116 1747 
Q 3116 2381 2855 2742 
Q 2594 3103 2138 3103 
Q 1681 3103 1420 2742 
Q 1159 2381 1159 1747 
Q 1159 1113 1420 752 
Q 1681 391 2138 391 
Q 2594 391 2855 752 
Q 3116 1113 3116 1747 
z
M 1159 2969 
Q 1341 3281 1617 3432 
Q 1894 3584 2278 3584 
Q 2916 3584 3314 3078 
Q 3713 2572 3713 1747 
Q 3713 922 3314 415 
Q 2916 -91 2278 -91 
Q 1894 -91 1617 61 
Q 1341 213 1159 525 
L 1159 0 
L 581 0 
L 581 4863 
L 1159 4863 
L 1159 2969 
z
" id="DejaVuSans-62" transform="scale(0.015625)"/>
     </defs>
     <use xlink:href="#DejaVuSans-61"/>
     <use x="61.279297" xlink:href="#DejaVuSans-63"/>
     <use x="116.259766" xlink:href="#DejaVuSans-74"/>
     <use x="155.46875" xlink:href="#DejaVuSans-69"/>
     <use x="183.251953" xlink:href="#DejaVuSans-76"/>
     <use x="242.431641" xlink:href="#DejaVuSans-65"/>
     <use x="303.955078" xlink:href="#DejaVuSans-5f"/>
     <use x="353.955078" xlink:href="#DejaVuSans-62"/>
     <use x="417.431641" xlink:href="#DejaVuSans-69"/>
     <use x="445.214844" xlink:href="#DejaVuSans-61"/>
     <use x="506.494141" xlink:href="#DejaVuSans-73"/>
    </g>
   </g>
   <g id="line2d_42">
    <path d="M 1062.181875 375.217063 
L 1106.181875 375.217063 
" style="fill:none;stroke:#5144d3;stroke-dasharray:14.8,6.4;stroke-dashoffset:0;stroke-width:4;"/>
   </g>
   <g id="line2d_43"/>
   <g id="text_38">
    <!-- hard_example_mining -->
    <g transform="translate(1123.781875 382.917063)scale(0.22 -0.22)">
     <defs>
      <path d="M 3513 3500 
L 2247 1797 
L 3578 0 
L 2900 0 
L 1881 1375 
L 863 0 
L 184 0 
L 1544 1831 
L 300 3500 
L 978 3500 
L 1906 2253 
L 2834 3500 
L 3513 3500 
z
" id="DejaVuSans-78" transform="scale(0.015625)"/>
      <path d="M 1159 525 
L 1159 -1331 
L 581 -1331 
L 581 3500 
L 1159 3500 
L 1159 2969 
Q 1341 3281 1617 3432 
Q 1894 3584 2278 3584 
Q 2916 3584 3314 3078 
Q 3713 2572 3713 1747 
Q 3713 922 3314 415 
Q 2916 -91 2278 -91 
Q 1894 -91 1617 61 
Q 1341 213 1159 525 
z
M 3116 1747 
Q 3116 2381 2855 2742 
Q 2594 3103 2138 3103 
Q 1681 3103 1420 2742 
Q 1159 2381 1159 1747 
Q 1159 1113 1420 752 
Q 1681 391 2138 391 
Q 2594 391 2855 752 
Q 3116 1113 3116 1747 
z
" id="DejaVuSans-70" transform="scale(0.015625)"/>
      <path d="M 603 4863 
L 1178 4863 
L 1178 0 
L 603 0 
L 603 4863 
z
" id="DejaVuSans-6c" transform="scale(0.015625)"/>
      <path d="M 2906 1791 
Q 2906 2416 2648 2759 
Q 2391 3103 1925 3103 
Q 1463 3103 1205 2759 
Q 947 2416 947 1791 
Q 947 1169 1205 825 
Q 1463 481 1925 481 
Q 2391 481 2648 825 
Q 2906 1169 2906 1791 
z
M 3481 434 
Q 3481 -459 3084 -895 
Q 2688 -1331 1869 -1331 
Q 1566 -1331 1297 -1286 
Q 1028 -1241 775 -1147 
L 775 -588 
Q 1028 -725 1275 -790 
Q 1522 -856 1778 -856 
Q 2344 -856 2625 -561 
Q 2906 -266 2906 331 
L 2906 616 
Q 2728 306 2450 153 
Q 2172 0 1784 0 
Q 1141 0 747 490 
Q 353 981 353 1791 
Q 353 2603 747 3093 
Q 1141 3584 1784 3584 
Q 2172 3584 2450 3431 
Q 2728 3278 2906 2969 
L 2906 3500 
L 3481 3500 
L 3481 434 
z
" id="DejaVuSans-67" transform="scale(0.015625)"/>
     </defs>
     <use xlink:href="#DejaVuSans-68"/>
     <use x="63.378906" xlink:href="#DejaVuSans-61"/>
     <use x="124.658203" xlink:href="#DejaVuSans-72"/>
     <use x="164.021484" xlink:href="#DejaVuSans-64"/>
     <use x="227.498047" xlink:href="#DejaVuSans-5f"/>
     <use x="277.498047" xlink:href="#DejaVuSans-65"/>
     <use x="337.271484" xlink:href="#DejaVuSans-78"/>
     <use x="396.451172" xlink:href="#DejaVuSans-61"/>
     <use x="457.730469" xlink:href="#DejaVuSans-6d"/>
     <use x="555.142578" xlink:href="#DejaVuSans-70"/>
     <use x="618.619141" xlink:href="#DejaVuSans-6c"/>
     <use x="646.402344" xlink:href="#DejaVuSans-65"/>
     <use x="707.925781" xlink:href="#DejaVuSans-5f"/>
     <use x="757.925781" xlink:href="#DejaVuSans-6d"/>
     <use x="855.337891" xlink:href="#DejaVuSans-69"/>
     <use x="883.121094" xlink:href="#DejaVuSans-6e"/>
     <use x="946.5" xlink:href="#DejaVuSans-69"/>
     <use x="974.283203" xlink:href="#DejaVuSans-6e"/>
     <use x="1037.662109" xlink:href="#DejaVuSans-67"/>
    </g>
   </g>
   <g id="line2d_44">
    <path d="M 1062.181875 408.120813 
L 1106.181875 408.120813 
" style="fill:none;stroke:#da3490;stroke-linecap:square;stroke-width:4;"/>
   </g>
   <g id="line2d_45"/>
   <g id="text_39">
    <!-- random -->
    <g transform="translate(1123.781875 415.820813)scale(0.22 -0.22)">
     <use xlink:href="#DejaVuSans-72"/>
     <use x="41.113281" xlink:href="#DejaVuSans-61"/>
     <use x="102.392578" xlink:href="#DejaVuSans-6e"/>
     <use x="165.771484" xlink:href="#DejaVuSans-64"/>
     <use x="229.248047" xlink:href="#DejaVuSans-6f"/>
     <use x="290.429688" xlink:href="#DejaVuSans-6d"/>
    </g>
   </g>
   <g id="line2d_46">
    <path d="M 1062.181875 440.412688 
L 1106.181875 440.412688 
" style="fill:none;stroke:#9089fa;stroke-linecap:square;stroke-width:4;"/>
   </g>
   <g id="line2d_47"/>
   <g id="text_40">
    <!-- self_paced_learning -->
    <g transform="translate(1123.781875 448.112688)scale(0.22 -0.22)">
     <use xlink:href="#DejaVuSans-73"/>
     <use x="52.099609" xlink:href="#DejaVuSans-65"/>
     <use x="113.623047" xlink:href="#DejaVuSans-6c"/>
     <use x="141.40625" xlink:href="#DejaVuSans-66"/>
     <use x="176.611328" xlink:href="#DejaVuSans-5f"/>
     <use x="226.611328" xlink:href="#DejaVuSans-70"/>
     <use x="290.087891" xlink:href="#DejaVuSans-61"/>
     <use x="351.367188" xlink:href="#DejaVuSans-63"/>
     <use x="406.347656" xlink:href="#DejaVuSans-65"/>
     <use x="467.871094" xlink:href="#DejaVuSans-64"/>
     <use x="531.347656" xlink:href="#DejaVuSans-5f"/>
     <use x="581.347656" xlink:href="#DejaVuSans-6c"/>
     <use x="609.130859" xlink:href="#DejaVuSans-65"/>
     <use x="670.654297" xlink:href="#DejaVuSans-61"/>
     <use x="731.933594" xlink:href="#DejaVuSans-72"/>
     <use x="771.296875" xlink:href="#DejaVuSans-6e"/>
     <use x="834.675781" xlink:href="#DejaVuSans-69"/>
     <use x="862.458984" xlink:href="#DejaVuSans-6e"/>
     <use x="925.837891" xlink:href="#DejaVuSans-67"/>
    </g>
   </g>
  </g>
 </g>
 <defs>
  <clipPath id="pf550c1889f">
   <rect height="451.48" width="623.36" x="88.47625" y="33.259875"/>
  </clipPath>
  <clipPath id="p7e3c92aaac">
   <rect height="451.48" width="623.36" x="777.59625" y="33.259875"/>
  </clipPath>
 </defs>
</svg>
