<?xml version="1.0" encoding="utf-8" standalone="no"?>
<!DOCTYPE svg PUBLIC "-//W3C//DTD SVG 1.1//EN"
  "http://www.w3.org/Graphics/SVG/1.1/DTD/svg11.dtd">
<svg height="545.523625pt" version="1.1" viewBox="0 0 1408.15625 545.523625" width="1408.15625pt" xmlns="http://www.w3.org/2000/svg" xmlns:xlink="http://www.w3.org/1999/xlink">
 <metadata>
  <rdf:RDF xmlns:cc="http://creativecommons.org/ns#" xmlns:dc="http://purl.org/dc/elements/1.1/" xmlns:rdf="http://www.w3.org/1999/02/22-rdf-syntax-ns#">
   <cc:Work>
    <dc:type rdf:resource="http://purl.org/dc/dcmitype/StillImage"/>
    <dc:date>2021-11-23T11:55:43.941037</dc:date>
    <dc:format>image/svg+xml</dc:format>
    <dc:creator>
     <cc:Agent>
      <dc:title>Matplotlib v3.4.3, https://matplotlib.org/</dc:title>
     </cc:Agent>
    </dc:creator>
   </cc:Work>
  </rdf:RDF>
 </metadata>
 <defs>
  <style type="text/css">*{stroke-linecap:butt;stroke-linejoin:round;}</style>
 </defs>
 <g id="figure_1">
  <g id="patch_1">
   <path d="M 0 545.523625 
L 1408.15625 545.523625 
L 1408.15625 0 
L 0 0 
z
" style="fill:none;"/>
  </g>
  <g id="axes_1">
   <g id="patch_2">
    <path d="M 88.47625 484.739875 
L 711.83625 484.739875 
L 711.83625 33.259875 
L 88.47625 33.259875 
z
" style="fill:#ffffff;"/>
   </g>
   <g id="PolyCollection_1">
    <defs>
     <path d="M 116.810795 -99.407715 
L 116.810795 -85.56339 
L 123.984098 -85.72944 
L 131.157401 -94.784567 
L 138.330703 -101.533959 
L 145.504006 -112.924109 
L 152.677309 -125.97338 
L 159.850611 -138.075628 
L 167.023914 -140.661734 
L 174.197217 -153.715196 
L 181.370519 -154.730625 
L 188.543822 -171.960589 
L 195.717125 -167.241532 
L 202.890427 -166.405578 
L 210.06373 -184.108924 
L 217.237033 -196.677683 
L 224.410335 -191.031335 
L 231.583638 -212.243556 
L 238.75694 -222.942197 
L 245.930243 -230.410715 
L 253.103546 -240.028558 
L 260.276848 -242.572466 
L 267.450151 -263.715081 
L 274.623454 -253.293191 
L 281.796756 -262.238412 
L 288.970059 -268.1349 
L 296.143362 -263.952567 
L 303.316664 -286.165057 
L 310.489967 -283.423751 
L 317.66327 -293.315789 
L 324.836572 -281.172639 
L 332.009875 -299.126919 
L 339.183178 -300.967832 
L 346.35648 -305.66516 
L 353.529783 -313.148576 
L 360.703085 -322.691965 
L 367.876388 -327.300376 
L 375.049691 -325.614488 
L 382.222993 -330.918351 
L 389.396296 -322.882582 
L 396.569599 -340.531304 
L 403.742901 -337.574527 
L 410.916204 -345.273779 
L 418.089507 -350.031488 
L 425.262809 -365.329683 
L 432.436112 -363.693971 
L 439.609415 -360.882022 
L 446.782717 -359.279974 
L 453.95602 -374.773259 
L 461.129322 -379.372287 
L 468.302625 -373.422277 
L 475.475928 -392.719274 
L 482.64923 -381.145959 
L 489.822533 -387.085086 
L 496.995836 -394.41003 
L 504.169138 -397.661193 
L 511.342441 -394.996498 
L 518.515744 -395.557179 
L 525.689046 -406.758059 
L 532.862349 -398.007528 
L 540.035652 -403.812172 
L 547.208954 -406.108862 
L 554.382257 -410.736412 
L 561.55556 -405.73573 
L 568.728862 -417.200051 
L 575.902165 -418.609023 
L 583.075467 -429.267442 
L 590.24877 -424.039453 
L 597.422073 -428.955388 
L 604.595375 -415.966877 
L 611.768678 -433.008054 
L 618.941981 -425.746438 
L 626.115283 -426.797143 
L 633.288586 -432.004663 
L 640.461889 -432.787204 
L 647.635191 -449.794285 
L 654.808494 -444.28338 
L 661.981797 -432.508926 
L 669.155099 -444.800898 
L 676.328402 -446.417077 
L 683.501705 -446.216901 
L 683.501705 -491.741932 
L 683.501705 -491.741932 
L 676.328402 -490.378671 
L 669.155099 -489.18261 
L 661.981797 -489.919723 
L 654.808494 -479.610559 
L 647.635191 -487.697816 
L 640.461889 -480.644285 
L 633.288586 -474.194916 
L 626.115283 -475.791759 
L 618.941981 -477.306891 
L 611.768678 -467.973215 
L 604.595375 -475.188296 
L 597.422073 -464.443773 
L 590.24877 -467.263465 
L 583.075467 -467.515255 
L 575.902165 -464.43101 
L 568.728862 -458.876718 
L 561.55556 -457.168652 
L 554.382257 -465.786659 
L 547.208954 -452.825327 
L 540.035652 -460.306308 
L 532.862349 -453.619424 
L 525.689046 -450.511237 
L 518.515744 -439.755184 
L 511.342441 -437.419246 
L 504.169138 -442.150218 
L 496.995836 -444.259466 
L 489.822533 -437.612905 
L 482.64923 -429.472824 
L 475.475928 -432.020582 
L 468.302625 -422.849087 
L 461.129322 -426.705077 
L 453.95602 -418.515937 
L 446.782717 -419.575372 
L 439.609415 -419.053452 
L 432.436112 -417.895332 
L 425.262809 -414.605792 
L 418.089507 -399.97604 
L 410.916204 -398.922123 
L 403.742901 -396.681712 
L 396.569599 -397.864733 
L 389.396296 -389.97313 
L 382.222993 -384.037655 
L 375.049691 -379.643865 
L 367.876388 -373.341468 
L 360.703085 -368.287845 
L 353.529783 -367.649562 
L 346.35648 -366.612525 
L 339.183178 -359.993907 
L 332.009875 -350.529821 
L 324.836572 -344.50319 
L 317.66327 -342.840296 
L 310.489967 -337.783134 
L 303.316664 -329.600519 
L 296.143362 -325.893331 
L 288.970059 -319.299549 
L 281.796756 -312.162923 
L 274.623454 -304.691568 
L 267.450151 -301.307588 
L 260.276848 -303.827596 
L 253.103546 -288.277859 
L 245.930243 -275.816955 
L 238.75694 -274.200675 
L 231.583638 -264.955706 
L 224.410335 -254.293299 
L 217.237033 -256.5651 
L 210.06373 -249.053308 
L 202.890427 -242.953321 
L 195.717125 -228.004825 
L 188.543822 -219.066114 
L 181.370519 -212.890333 
L 174.197217 -210.26698 
L 167.023914 -200.842218 
L 159.850611 -186.312115 
L 152.677309 -174.435466 
L 145.504006 -167.903997 
L 138.330703 -152.330578 
L 131.157401 -141.780058 
L 123.984098 -134.734618 
L 116.810795 -99.407715 
z
" id="m800f38e4f9" style="stroke:#00c0c7;stroke-opacity:0.1;"/>
    </defs>
    <g clip-path="url(#pc1744e7524)">
     <use style="fill:#00c0c7;fill-opacity:0.1;stroke:#00c0c7;stroke-opacity:0.1;" x="0" xlink:href="#m800f38e4f9" y="545.523625"/>
    </g>
   </g>
   <g id="PolyCollection_2">
    <defs>
     <path d="M 116.810795 -101.461843 
L 116.810795 -87.564494 
L 123.984098 -89.672462 
L 131.157401 -90.671862 
L 138.330703 -93.620814 
L 145.504006 -108.583926 
L 152.677309 -128.450694 
L 159.850611 -120.796233 
L 167.023914 -149.956087 
L 174.197217 -148.897639 
L 181.370519 -152.38114 
L 188.543822 -165.792724 
L 195.717125 -175.014134 
L 202.890427 -171.172435 
L 210.06373 -191.405034 
L 217.237033 -202.599964 
L 224.410335 -196.238602 
L 231.583638 -213.530986 
L 238.75694 -218.943776 
L 245.930243 -220.04437 
L 253.103546 -233.482654 
L 260.276848 -238.657397 
L 267.450151 -236.772904 
L 274.623454 -247.434667 
L 281.796756 -263.043542 
L 288.970059 -252.931734 
L 296.143362 -280.232173 
L 303.316664 -271.533305 
L 310.489967 -292.197447 
L 317.66327 -297.023549 
L 324.836572 -301.719843 
L 332.009875 -288.062102 
L 339.183178 -299.35481 
L 346.35648 -301.920122 
L 353.529783 -318.037832 
L 360.703085 -308.372172 
L 367.876388 -328.581771 
L 375.049691 -314.308374 
L 382.222993 -321.814374 
L 389.396296 -326.009906 
L 396.569599 -351.82785 
L 403.742901 -337.626109 
L 410.916204 -345.553576 
L 418.089507 -364.144391 
L 425.262809 -356.879214 
L 432.436112 -355.998618 
L 439.609415 -367.091582 
L 446.782717 -370.5935 
L 453.95602 -362.617917 
L 461.129322 -371.239831 
L 468.302625 -367.908603 
L 475.475928 -377.521846 
L 482.64923 -389.954122 
L 489.822533 -379.955837 
L 496.995836 -388.80317 
L 504.169138 -386.298724 
L 511.342441 -391.498472 
L 518.515744 -404.693792 
L 525.689046 -374.337933 
L 532.862349 -397.843443 
L 540.035652 -391.169941 
L 547.208954 -415.102265 
L 554.382257 -404.321139 
L 561.55556 -409.506504 
L 568.728862 -401.947243 
L 575.902165 -406.965125 
L 583.075467 -414.71261 
L 590.24877 -411.432876 
L 597.422073 -421.695371 
L 604.595375 -419.331081 
L 611.768678 -427.548063 
L 618.941981 -413.635031 
L 626.115283 -405.530233 
L 633.288586 -434.402702 
L 640.461889 -413.097608 
L 647.635191 -424.229985 
L 654.808494 -438.013381 
L 661.981797 -436.817514 
L 669.155099 -439.364968 
L 676.328402 -427.472558 
L 683.501705 -436.182974 
L 683.501705 -477.130176 
L 683.501705 -477.130176 
L 676.328402 -473.783349 
L 669.155099 -473.16191 
L 661.981797 -477.969299 
L 654.808494 -473.407881 
L 647.635191 -473.577104 
L 640.461889 -475.397716 
L 633.288586 -474.431921 
L 626.115283 -474.207066 
L 618.941981 -456.585083 
L 611.768678 -460.790963 
L 604.595375 -466.903939 
L 597.422073 -460.195759 
L 590.24877 -454.296586 
L 583.075467 -455.143108 
L 575.902165 -456.361132 
L 568.728862 -456.092377 
L 561.55556 -449.417313 
L 554.382257 -457.871531 
L 547.208954 -448.836968 
L 540.035652 -441.260092 
L 532.862349 -440.04495 
L 525.689046 -437.080344 
L 518.515744 -440.232905 
L 511.342441 -435.114165 
L 504.169138 -435.306188 
L 496.995836 -425.562433 
L 489.822533 -429.978472 
L 482.64923 -419.336722 
L 475.475928 -420.4727 
L 468.302625 -417.943852 
L 461.129322 -422.978839 
L 453.95602 -417.563168 
L 446.782717 -410.506477 
L 439.609415 -415.930547 
L 432.436112 -405.717021 
L 425.262809 -408.546347 
L 418.089507 -405.970098 
L 410.916204 -388.883838 
L 403.742901 -402.107389 
L 396.569599 -387.414427 
L 389.396296 -382.750319 
L 382.222993 -387.717515 
L 375.049691 -389.423336 
L 367.876388 -373.383528 
L 360.703085 -370.110975 
L 353.529783 -367.181295 
L 346.35648 -366.788619 
L 339.183178 -354.886475 
L 332.009875 -352.679192 
L 324.836572 -348.245491 
L 317.66327 -337.343036 
L 310.489967 -341.220189 
L 303.316664 -330.222901 
L 296.143362 -328.445785 
L 288.970059 -305.032564 
L 281.796756 -316.902451 
L 274.623454 -313.028057 
L 267.450151 -297.507395 
L 260.276848 -286.37187 
L 253.103546 -283.326252 
L 245.930243 -277.277557 
L 238.75694 -283.578636 
L 231.583638 -264.341061 
L 224.410335 -268.712546 
L 217.237033 -258.131149 
L 210.06373 -249.911683 
L 202.890427 -240.986192 
L 195.717125 -229.185476 
L 188.543822 -226.939107 
L 181.370519 -212.576756 
L 174.197217 -204.725852 
L 167.023914 -190.662894 
L 159.850611 -181.868194 
L 152.677309 -169.619271 
L 145.504006 -155.043886 
L 138.330703 -153.161208 
L 131.157401 -139.23002 
L 123.984098 -117.113322 
L 116.810795 -101.461843 
z
" id="mba6272d49b" style="stroke:#5144d3;stroke-opacity:0.1;"/>
    </defs>
    <g clip-path="url(#pc1744e7524)">
     <use style="fill:#5144d3;fill-opacity:0.1;stroke:#5144d3;stroke-opacity:0.1;" x="0" xlink:href="#mba6272d49b" y="545.523625"/>
    </g>
   </g>
   <g id="PolyCollection_3">
    <defs>
     <path d="M 116.810795 -104.118481 
L 116.810795 -81.305568 
L 123.984098 -86.331394 
L 131.157401 -91.251916 
L 138.330703 -97.78 
L 145.504006 -101.498965 
L 152.677309 -107.943968 
L 159.850611 -102.146983 
L 167.023914 -117.908995 
L 174.197217 -106.445928 
L 181.370519 -121.904276 
L 188.543822 -147.850905 
L 195.717125 -134.317932 
L 202.890427 -134.753199 
L 210.06373 -146.415561 
L 217.237033 -142.670365 
L 224.410335 -162.705018 
L 231.583638 -172.33584 
L 238.75694 -157.29078 
L 245.930243 -173.604732 
L 253.103546 -184.078068 
L 260.276848 -166.009069 
L 267.450151 -185.707536 
L 274.623454 -183.398026 
L 281.796756 -191.090974 
L 288.970059 -200.417696 
L 296.143362 -196.196252 
L 303.316664 -207.720952 
L 310.489967 -199.368091 
L 317.66327 -207.493103 
L 324.836572 -225.187901 
L 332.009875 -227.609808 
L 339.183178 -227.22389 
L 346.35648 -232.429726 
L 353.529783 -221.207498 
L 360.703085 -249.282043 
L 367.876388 -257.077253 
L 375.049691 -258.678875 
L 382.222993 -254.954862 
L 389.396296 -260.510304 
L 396.569599 -270.582626 
L 403.742901 -264.078015 
L 410.916204 -266.646865 
L 418.089507 -274.479449 
L 425.262809 -281.638157 
L 432.436112 -262.697902 
L 439.609415 -291.745013 
L 446.782717 -290.248522 
L 453.95602 -283.325253 
L 461.129322 -289.460972 
L 468.302625 -304.215798 
L 475.475928 -306.976029 
L 482.64923 -297.251962 
L 489.822533 -305.166181 
L 496.995836 -305.455129 
L 504.169138 -308.319601 
L 511.342441 -313.169728 
L 518.515744 -323.164836 
L 525.689046 -327.522803 
L 532.862349 -328.180372 
L 540.035652 -315.710417 
L 547.208954 -323.385544 
L 554.382257 -331.651962 
L 561.55556 -322.76392 
L 568.728862 -327.343171 
L 575.902165 -343.264306 
L 583.075467 -339.513743 
L 590.24877 -323.400516 
L 597.422073 -337.007454 
L 604.595375 -353.877938 
L 611.768678 -346.034253 
L 618.941981 -349.958379 
L 626.115283 -347.839998 
L 633.288586 -347.49972 
L 640.461889 -361.702219 
L 647.635191 -367.553319 
L 654.808494 -361.735695 
L 661.981797 -372.523988 
L 669.155099 -371.165364 
L 676.328402 -361.70126 
L 683.501705 -369.229582 
L 683.501705 -452.858016 
L 683.501705 -452.858016 
L 676.328402 -440.294504 
L 669.155099 -444.888253 
L 661.981797 -448.674054 
L 654.808494 -436.520091 
L 647.635191 -438.415084 
L 640.461889 -431.46273 
L 633.288586 -433.02522 
L 626.115283 -429.086318 
L 618.941981 -439.020028 
L 611.768678 -432.551222 
L 604.595375 -430.096465 
L 597.422073 -426.393966 
L 590.24877 -426.031163 
L 583.075467 -423.508098 
L 575.902165 -428.143726 
L 568.728862 -420.785741 
L 561.55556 -416.094483 
L 554.382257 -413.739261 
L 547.208954 -421.583923 
L 540.035652 -407.879771 
L 532.862349 -421.424436 
L 525.689046 -402.040187 
L 518.515744 -402.47553 
L 511.342441 -404.561087 
L 504.169138 -394.594647 
L 496.995836 -390.574296 
L 489.822533 -385.154087 
L 482.64923 -390.255809 
L 475.475928 -387.283351 
L 468.302625 -376.625209 
L 461.129322 -390.254246 
L 453.95602 -357.910698 
L 446.782717 -376.817755 
L 439.609415 -371.358862 
L 432.436112 -351.490663 
L 425.262809 -356.043277 
L 418.089507 -355.332177 
L 410.916204 -352.763528 
L 403.742901 -351.09574 
L 396.569599 -348.745897 
L 389.396296 -340.843995 
L 382.222993 -343.664229 
L 375.049691 -345.478475 
L 367.876388 -330.885467 
L 360.703085 -329.282577 
L 353.529783 -326.52154 
L 346.35648 -330.776794 
L 339.183178 -326.088991 
L 332.009875 -318.222224 
L 324.836572 -318.725689 
L 317.66327 -308.143125 
L 310.489967 -310.410103 
L 303.316664 -301.761272 
L 296.143362 -305.67705 
L 288.970059 -291.987349 
L 281.796756 -288.295373 
L 274.623454 -286.212852 
L 267.450151 -267.816711 
L 260.276848 -266.817117 
L 253.103546 -256.948383 
L 245.930243 -258.932079 
L 238.75694 -246.53083 
L 231.583638 -242.27051 
L 224.410335 -227.569368 
L 217.237033 -215.593825 
L 210.06373 -212.438095 
L 202.890427 -196.552334 
L 195.717125 -202.106777 
L 188.543822 -198.209294 
L 181.370519 -172.645271 
L 174.197217 -163.244858 
L 167.023914 -159.808788 
L 159.850611 -152.430072 
L 152.677309 -151.086428 
L 145.504006 -141.30506 
L 138.330703 -128.67217 
L 131.157401 -123.547151 
L 123.984098 -112.196845 
L 116.810795 -104.118481 
z
" id="m4a873448db" style="stroke:#da3490;stroke-opacity:0.1;"/>
    </defs>
    <g clip-path="url(#pc1744e7524)">
     <use style="fill:#da3490;fill-opacity:0.1;stroke:#da3490;stroke-opacity:0.1;" x="0" xlink:href="#m4a873448db" y="545.523625"/>
    </g>
   </g>
   <g id="PolyCollection_4">
    <defs>
     <path d="M 116.810795 -100.834047 
L 116.810795 -86.563818 
L 123.984098 -90.097872 
L 131.157401 -88.453888 
L 138.330703 -95.513738 
L 145.504006 -96.867582 
L 152.677309 -100.352933 
L 159.850611 -103.368783 
L 167.023914 -93.8791 
L 174.197217 -96.014611 
L 181.370519 -104.579118 
L 188.543822 -116.843917 
L 195.717125 -123.778908 
L 202.890427 -118.149202 
L 210.06373 -109.050522 
L 217.237033 -114.194231 
L 224.410335 -124.517322 
L 231.583638 -135.985802 
L 238.75694 -131.025083 
L 245.930243 -148.941123 
L 253.103546 -141.333257 
L 260.276848 -151.158129 
L 267.450151 -154.019622 
L 274.623454 -151.016053 
L 281.796756 -148.207118 
L 288.970059 -163.025319 
L 296.143362 -169.298262 
L 303.316664 -178.913217 
L 310.489967 -174.645475 
L 317.66327 -168.315151 
L 324.836572 -188.141232 
L 332.009875 -195.110062 
L 339.183178 -189.865691 
L 346.35648 -198.79721 
L 353.529783 -214.747736 
L 360.703085 -198.485075 
L 367.876388 -210.530981 
L 375.049691 -208.62003 
L 382.222993 -227.392641 
L 389.396296 -221.249231 
L 396.569599 -227.432736 
L 403.742901 -223.680598 
L 410.916204 -234.742719 
L 418.089507 -230.121859 
L 425.262809 -239.389386 
L 432.436112 -237.040539 
L 439.609415 -248.562045 
L 446.782717 -255.715978 
L 453.95602 -247.349615 
L 461.129322 -257.52434 
L 468.302625 -248.694622 
L 475.475928 -266.407666 
L 482.64923 -266.655171 
L 489.822533 -270.901381 
L 496.995836 -274.468072 
L 504.169138 -259.538026 
L 511.342441 -282.492021 
L 518.515744 -287.949491 
L 525.689046 -287.180652 
L 532.862349 -297.692521 
L 540.035652 -269.153607 
L 547.208954 -296.618844 
L 554.382257 -297.995919 
L 561.55556 -288.980169 
L 568.728862 -301.251952 
L 575.902165 -310.319142 
L 583.075467 -318.876055 
L 590.24877 -311.412726 
L 597.422073 -315.43283 
L 604.595375 -317.613257 
L 611.768678 -320.091727 
L 618.941981 -307.223676 
L 626.115283 -332.98537 
L 633.288586 -309.234103 
L 640.461889 -325.349774 
L 647.635191 -336.295856 
L 654.808494 -337.131101 
L 661.981797 -338.73056 
L 669.155099 -350.547248 
L 676.328402 -339.632323 
L 683.501705 -338.515168 
L 683.501705 -409.978725 
L 683.501705 -409.978725 
L 676.328402 -422.479866 
L 669.155099 -414.229076 
L 661.981797 -410.520568 
L 654.808494 -405.164337 
L 647.635191 -410.77961 
L 640.461889 -400.494226 
L 633.288586 -400.490255 
L 626.115283 -401.625586 
L 618.941981 -396.472061 
L 611.768678 -410.364392 
L 604.595375 -401.382229 
L 597.422073 -395.106509 
L 590.24877 -390.070282 
L 583.075467 -394.096167 
L 575.902165 -397.744442 
L 568.728862 -383.190152 
L 561.55556 -382.654464 
L 554.382257 -391.419129 
L 547.208954 -380.889006 
L 540.035652 -383.428519 
L 532.862349 -377.914303 
L 525.689046 -373.982934 
L 518.515744 -381.134364 
L 511.342441 -376.6443 
L 504.169138 -365.930761 
L 496.995836 -370.828181 
L 489.822533 -362.868148 
L 482.64923 -358.590333 
L 475.475928 -354.950939 
L 468.302625 -354.56874 
L 461.129322 -351.294732 
L 453.95602 -343.346081 
L 446.782717 -335.415427 
L 439.609415 -342.11936 
L 432.436112 -341.427325 
L 425.262809 -336.459205 
L 418.089507 -328.118659 
L 410.916204 -321.37816 
L 403.742901 -321.709235 
L 396.569599 -316.221984 
L 389.396296 -318.970377 
L 382.222993 -312.112464 
L 375.049691 -299.50189 
L 367.876388 -300.158205 
L 360.703085 -288.208914 
L 353.529783 -285.548998 
L 346.35648 -291.954207 
L 339.183178 -278.457019 
L 332.009875 -289.631935 
L 324.836572 -266.270992 
L 317.66327 -269.678954 
L 310.489967 -261.867547 
L 303.316664 -258.350927 
L 296.143362 -254.196235 
L 288.970059 -253.799564 
L 281.796756 -250.307244 
L 274.623454 -252.175213 
L 267.450151 -244.784148 
L 260.276848 -229.966596 
L 253.103546 -225.552309 
L 245.930243 -227.637375 
L 238.75694 -217.986736 
L 231.583638 -211.939663 
L 224.410335 -205.227468 
L 217.237033 -198.35683 
L 210.06373 -198.553596 
L 202.890427 -193.091505 
L 195.717125 -176.434566 
L 188.543822 -176.927004 
L 181.370519 -174.678073 
L 174.197217 -167.870835 
L 167.023914 -169.140698 
L 159.850611 -160.859625 
L 152.677309 -155.700457 
L 145.504006 -149.298958 
L 138.330703 -131.18181 
L 131.157401 -132.357724 
L 123.984098 -106.975133 
L 116.810795 -100.834047 
z
" id="m2eb34d8562" style="stroke:#9089fa;stroke-opacity:0.1;"/>
    </defs>
    <g clip-path="url(#pc1744e7524)">
     <use style="fill:#9089fa;fill-opacity:0.1;stroke:#9089fa;stroke-opacity:0.1;" x="0" xlink:href="#m2eb34d8562" y="545.523625"/>
    </g>
   </g>
   <g id="matplotlib.axis_1">
    <g id="xtick_1">
     <g id="line2d_1">
      <defs>
       <path d="M 0 0 
L 0 3.5 
" id="m929cf22f4b" style="stroke:#000000;stroke-width:0.8;"/>
      </defs>
      <g>
       <use style="stroke:#000000;stroke-width:0.8;" x="116.810795" xlink:href="#m929cf22f4b" y="484.739875"/>
      </g>
     </g>
     <g id="text_1">
      <!-- 0 -->
      <g transform="translate(109.812045 508.456438)scale(0.22 -0.22)">
       <defs>
        <path d="M 2034 4250 
Q 1547 4250 1301 3770 
Q 1056 3291 1056 2328 
Q 1056 1369 1301 889 
Q 1547 409 2034 409 
Q 2525 409 2770 889 
Q 3016 1369 3016 2328 
Q 3016 3291 2770 3770 
Q 2525 4250 2034 4250 
z
M 2034 4750 
Q 2819 4750 3233 4129 
Q 3647 3509 3647 2328 
Q 3647 1150 3233 529 
Q 2819 -91 2034 -91 
Q 1250 -91 836 529 
Q 422 1150 422 2328 
Q 422 3509 836 4129 
Q 1250 4750 2034 4750 
z
" id="DejaVuSans-30" transform="scale(0.015625)"/>
       </defs>
       <use xlink:href="#DejaVuSans-30"/>
      </g>
     </g>
    </g>
    <g id="xtick_2">
     <g id="line2d_2">
      <g>
       <use style="stroke:#000000;stroke-width:0.8;" x="188.543822" xlink:href="#m929cf22f4b" y="484.739875"/>
      </g>
     </g>
     <g id="text_2">
      <!-- 10 -->
      <g transform="translate(174.546322 508.456438)scale(0.22 -0.22)">
       <defs>
        <path d="M 794 531 
L 1825 531 
L 1825 4091 
L 703 3866 
L 703 4441 
L 1819 4666 
L 2450 4666 
L 2450 531 
L 3481 531 
L 3481 0 
L 794 0 
L 794 531 
z
" id="DejaVuSans-31" transform="scale(0.015625)"/>
       </defs>
       <use xlink:href="#DejaVuSans-31"/>
       <use x="63.623047" xlink:href="#DejaVuSans-30"/>
      </g>
     </g>
    </g>
    <g id="xtick_3">
     <g id="line2d_3">
      <g>
       <use style="stroke:#000000;stroke-width:0.8;" x="260.276848" xlink:href="#m929cf22f4b" y="484.739875"/>
      </g>
     </g>
     <g id="text_3">
      <!-- 20 -->
      <g transform="translate(246.279348 508.456438)scale(0.22 -0.22)">
       <defs>
        <path d="M 1228 531 
L 3431 531 
L 3431 0 
L 469 0 
L 469 531 
Q 828 903 1448 1529 
Q 2069 2156 2228 2338 
Q 2531 2678 2651 2914 
Q 2772 3150 2772 3378 
Q 2772 3750 2511 3984 
Q 2250 4219 1831 4219 
Q 1534 4219 1204 4116 
Q 875 4013 500 3803 
L 500 4441 
Q 881 4594 1212 4672 
Q 1544 4750 1819 4750 
Q 2544 4750 2975 4387 
Q 3406 4025 3406 3419 
Q 3406 3131 3298 2873 
Q 3191 2616 2906 2266 
Q 2828 2175 2409 1742 
Q 1991 1309 1228 531 
z
" id="DejaVuSans-32" transform="scale(0.015625)"/>
       </defs>
       <use xlink:href="#DejaVuSans-32"/>
       <use x="63.623047" xlink:href="#DejaVuSans-30"/>
      </g>
     </g>
    </g>
    <g id="xtick_4">
     <g id="line2d_4">
      <g>
       <use style="stroke:#000000;stroke-width:0.8;" x="332.009875" xlink:href="#m929cf22f4b" y="484.739875"/>
      </g>
     </g>
     <g id="text_4">
      <!-- 30 -->
      <g transform="translate(318.012375 508.456438)scale(0.22 -0.22)">
       <defs>
        <path d="M 2597 2516 
Q 3050 2419 3304 2112 
Q 3559 1806 3559 1356 
Q 3559 666 3084 287 
Q 2609 -91 1734 -91 
Q 1441 -91 1130 -33 
Q 819 25 488 141 
L 488 750 
Q 750 597 1062 519 
Q 1375 441 1716 441 
Q 2309 441 2620 675 
Q 2931 909 2931 1356 
Q 2931 1769 2642 2001 
Q 2353 2234 1838 2234 
L 1294 2234 
L 1294 2753 
L 1863 2753 
Q 2328 2753 2575 2939 
Q 2822 3125 2822 3475 
Q 2822 3834 2567 4026 
Q 2313 4219 1838 4219 
Q 1578 4219 1281 4162 
Q 984 4106 628 3988 
L 628 4550 
Q 988 4650 1302 4700 
Q 1616 4750 1894 4750 
Q 2613 4750 3031 4423 
Q 3450 4097 3450 3541 
Q 3450 3153 3228 2886 
Q 3006 2619 2597 2516 
z
" id="DejaVuSans-33" transform="scale(0.015625)"/>
       </defs>
       <use xlink:href="#DejaVuSans-33"/>
       <use x="63.623047" xlink:href="#DejaVuSans-30"/>
      </g>
     </g>
    </g>
    <g id="xtick_5">
     <g id="line2d_5">
      <g>
       <use style="stroke:#000000;stroke-width:0.8;" x="403.742901" xlink:href="#m929cf22f4b" y="484.739875"/>
      </g>
     </g>
     <g id="text_5">
      <!-- 40 -->
      <g transform="translate(389.745401 508.456438)scale(0.22 -0.22)">
       <defs>
        <path d="M 2419 4116 
L 825 1625 
L 2419 1625 
L 2419 4116 
z
M 2253 4666 
L 3047 4666 
L 3047 1625 
L 3713 1625 
L 3713 1100 
L 3047 1100 
L 3047 0 
L 2419 0 
L 2419 1100 
L 313 1100 
L 313 1709 
L 2253 4666 
z
" id="DejaVuSans-34" transform="scale(0.015625)"/>
       </defs>
       <use xlink:href="#DejaVuSans-34"/>
       <use x="63.623047" xlink:href="#DejaVuSans-30"/>
      </g>
     </g>
    </g>
    <g id="xtick_6">
     <g id="line2d_6">
      <g>
       <use style="stroke:#000000;stroke-width:0.8;" x="475.475928" xlink:href="#m929cf22f4b" y="484.739875"/>
      </g>
     </g>
     <g id="text_6">
      <!-- 50 -->
      <g transform="translate(461.478428 508.456438)scale(0.22 -0.22)">
       <defs>
        <path d="M 691 4666 
L 3169 4666 
L 3169 4134 
L 1269 4134 
L 1269 2991 
Q 1406 3038 1543 3061 
Q 1681 3084 1819 3084 
Q 2600 3084 3056 2656 
Q 3513 2228 3513 1497 
Q 3513 744 3044 326 
Q 2575 -91 1722 -91 
Q 1428 -91 1123 -41 
Q 819 9 494 109 
L 494 744 
Q 775 591 1075 516 
Q 1375 441 1709 441 
Q 2250 441 2565 725 
Q 2881 1009 2881 1497 
Q 2881 1984 2565 2268 
Q 2250 2553 1709 2553 
Q 1456 2553 1204 2497 
Q 953 2441 691 2322 
L 691 4666 
z
" id="DejaVuSans-35" transform="scale(0.015625)"/>
       </defs>
       <use xlink:href="#DejaVuSans-35"/>
       <use x="63.623047" xlink:href="#DejaVuSans-30"/>
      </g>
     </g>
    </g>
    <g id="xtick_7">
     <g id="line2d_7">
      <g>
       <use style="stroke:#000000;stroke-width:0.8;" x="547.208954" xlink:href="#m929cf22f4b" y="484.739875"/>
      </g>
     </g>
     <g id="text_7">
      <!-- 60 -->
      <g transform="translate(533.211454 508.456438)scale(0.22 -0.22)">
       <defs>
        <path d="M 2113 2584 
Q 1688 2584 1439 2293 
Q 1191 2003 1191 1497 
Q 1191 994 1439 701 
Q 1688 409 2113 409 
Q 2538 409 2786 701 
Q 3034 994 3034 1497 
Q 3034 2003 2786 2293 
Q 2538 2584 2113 2584 
z
M 3366 4563 
L 3366 3988 
Q 3128 4100 2886 4159 
Q 2644 4219 2406 4219 
Q 1781 4219 1451 3797 
Q 1122 3375 1075 2522 
Q 1259 2794 1537 2939 
Q 1816 3084 2150 3084 
Q 2853 3084 3261 2657 
Q 3669 2231 3669 1497 
Q 3669 778 3244 343 
Q 2819 -91 2113 -91 
Q 1303 -91 875 529 
Q 447 1150 447 2328 
Q 447 3434 972 4092 
Q 1497 4750 2381 4750 
Q 2619 4750 2861 4703 
Q 3103 4656 3366 4563 
z
" id="DejaVuSans-36" transform="scale(0.015625)"/>
       </defs>
       <use xlink:href="#DejaVuSans-36"/>
       <use x="63.623047" xlink:href="#DejaVuSans-30"/>
      </g>
     </g>
    </g>
    <g id="xtick_8">
     <g id="line2d_8">
      <g>
       <use style="stroke:#000000;stroke-width:0.8;" x="618.941981" xlink:href="#m929cf22f4b" y="484.739875"/>
      </g>
     </g>
     <g id="text_8">
      <!-- 70 -->
      <g transform="translate(604.944481 508.456438)scale(0.22 -0.22)">
       <defs>
        <path d="M 525 4666 
L 3525 4666 
L 3525 4397 
L 1831 0 
L 1172 0 
L 2766 4134 
L 525 4134 
L 525 4666 
z
" id="DejaVuSans-37" transform="scale(0.015625)"/>
       </defs>
       <use xlink:href="#DejaVuSans-37"/>
       <use x="63.623047" xlink:href="#DejaVuSans-30"/>
      </g>
     </g>
    </g>
    <g id="xtick_9">
     <g id="line2d_9">
      <g>
       <use style="stroke:#000000;stroke-width:0.8;" x="690.675007" xlink:href="#m929cf22f4b" y="484.739875"/>
      </g>
     </g>
     <g id="text_9">
      <!-- 80 -->
      <g transform="translate(676.677507 508.456438)scale(0.22 -0.22)">
       <defs>
        <path d="M 2034 2216 
Q 1584 2216 1326 1975 
Q 1069 1734 1069 1313 
Q 1069 891 1326 650 
Q 1584 409 2034 409 
Q 2484 409 2743 651 
Q 3003 894 3003 1313 
Q 3003 1734 2745 1975 
Q 2488 2216 2034 2216 
z
M 1403 2484 
Q 997 2584 770 2862 
Q 544 3141 544 3541 
Q 544 4100 942 4425 
Q 1341 4750 2034 4750 
Q 2731 4750 3128 4425 
Q 3525 4100 3525 3541 
Q 3525 3141 3298 2862 
Q 3072 2584 2669 2484 
Q 3125 2378 3379 2068 
Q 3634 1759 3634 1313 
Q 3634 634 3220 271 
Q 2806 -91 2034 -91 
Q 1263 -91 848 271 
Q 434 634 434 1313 
Q 434 1759 690 2068 
Q 947 2378 1403 2484 
z
M 1172 3481 
Q 1172 3119 1398 2916 
Q 1625 2713 2034 2713 
Q 2441 2713 2670 2916 
Q 2900 3119 2900 3481 
Q 2900 3844 2670 4047 
Q 2441 4250 2034 4250 
Q 1625 4250 1398 4047 
Q 1172 3844 1172 3481 
z
" id="DejaVuSans-38" transform="scale(0.015625)"/>
       </defs>
       <use xlink:href="#DejaVuSans-38"/>
       <use x="63.623047" xlink:href="#DejaVuSans-30"/>
      </g>
     </g>
    </g>
    <g id="text_10">
     <!-- Time in seconds -->
     <g transform="translate(311.260781 533.748312)scale(0.22 -0.22)">
      <defs>
       <path d="M -19 4666 
L 3928 4666 
L 3928 4134 
L 2272 4134 
L 2272 0 
L 1638 0 
L 1638 4134 
L -19 4134 
L -19 4666 
z
" id="DejaVuSans-54" transform="scale(0.015625)"/>
       <path d="M 603 3500 
L 1178 3500 
L 1178 0 
L 603 0 
L 603 3500 
z
M 603 4863 
L 1178 4863 
L 1178 4134 
L 603 4134 
L 603 4863 
z
" id="DejaVuSans-69" transform="scale(0.015625)"/>
       <path d="M 3328 2828 
Q 3544 3216 3844 3400 
Q 4144 3584 4550 3584 
Q 5097 3584 5394 3201 
Q 5691 2819 5691 2113 
L 5691 0 
L 5113 0 
L 5113 2094 
Q 5113 2597 4934 2840 
Q 4756 3084 4391 3084 
Q 3944 3084 3684 2787 
Q 3425 2491 3425 1978 
L 3425 0 
L 2847 0 
L 2847 2094 
Q 2847 2600 2669 2842 
Q 2491 3084 2119 3084 
Q 1678 3084 1418 2786 
Q 1159 2488 1159 1978 
L 1159 0 
L 581 0 
L 581 3500 
L 1159 3500 
L 1159 2956 
Q 1356 3278 1631 3431 
Q 1906 3584 2284 3584 
Q 2666 3584 2933 3390 
Q 3200 3197 3328 2828 
z
" id="DejaVuSans-6d" transform="scale(0.015625)"/>
       <path d="M 3597 1894 
L 3597 1613 
L 953 1613 
Q 991 1019 1311 708 
Q 1631 397 2203 397 
Q 2534 397 2845 478 
Q 3156 559 3463 722 
L 3463 178 
Q 3153 47 2828 -22 
Q 2503 -91 2169 -91 
Q 1331 -91 842 396 
Q 353 884 353 1716 
Q 353 2575 817 3079 
Q 1281 3584 2069 3584 
Q 2775 3584 3186 3129 
Q 3597 2675 3597 1894 
z
M 3022 2063 
Q 3016 2534 2758 2815 
Q 2500 3097 2075 3097 
Q 1594 3097 1305 2825 
Q 1016 2553 972 2059 
L 3022 2063 
z
" id="DejaVuSans-65" transform="scale(0.015625)"/>
       <path id="DejaVuSans-20" transform="scale(0.015625)"/>
       <path d="M 3513 2113 
L 3513 0 
L 2938 0 
L 2938 2094 
Q 2938 2591 2744 2837 
Q 2550 3084 2163 3084 
Q 1697 3084 1428 2787 
Q 1159 2491 1159 1978 
L 1159 0 
L 581 0 
L 581 3500 
L 1159 3500 
L 1159 2956 
Q 1366 3272 1645 3428 
Q 1925 3584 2291 3584 
Q 2894 3584 3203 3211 
Q 3513 2838 3513 2113 
z
" id="DejaVuSans-6e" transform="scale(0.015625)"/>
       <path d="M 2834 3397 
L 2834 2853 
Q 2591 2978 2328 3040 
Q 2066 3103 1784 3103 
Q 1356 3103 1142 2972 
Q 928 2841 928 2578 
Q 928 2378 1081 2264 
Q 1234 2150 1697 2047 
L 1894 2003 
Q 2506 1872 2764 1633 
Q 3022 1394 3022 966 
Q 3022 478 2636 193 
Q 2250 -91 1575 -91 
Q 1294 -91 989 -36 
Q 684 19 347 128 
L 347 722 
Q 666 556 975 473 
Q 1284 391 1588 391 
Q 1994 391 2212 530 
Q 2431 669 2431 922 
Q 2431 1156 2273 1281 
Q 2116 1406 1581 1522 
L 1381 1569 
Q 847 1681 609 1914 
Q 372 2147 372 2553 
Q 372 3047 722 3315 
Q 1072 3584 1716 3584 
Q 2034 3584 2315 3537 
Q 2597 3491 2834 3397 
z
" id="DejaVuSans-73" transform="scale(0.015625)"/>
       <path d="M 3122 3366 
L 3122 2828 
Q 2878 2963 2633 3030 
Q 2388 3097 2138 3097 
Q 1578 3097 1268 2742 
Q 959 2388 959 1747 
Q 959 1106 1268 751 
Q 1578 397 2138 397 
Q 2388 397 2633 464 
Q 2878 531 3122 666 
L 3122 134 
Q 2881 22 2623 -34 
Q 2366 -91 2075 -91 
Q 1284 -91 818 406 
Q 353 903 353 1747 
Q 353 2603 823 3093 
Q 1294 3584 2113 3584 
Q 2378 3584 2631 3529 
Q 2884 3475 3122 3366 
z
" id="DejaVuSans-63" transform="scale(0.015625)"/>
       <path d="M 1959 3097 
Q 1497 3097 1228 2736 
Q 959 2375 959 1747 
Q 959 1119 1226 758 
Q 1494 397 1959 397 
Q 2419 397 2687 759 
Q 2956 1122 2956 1747 
Q 2956 2369 2687 2733 
Q 2419 3097 1959 3097 
z
M 1959 3584 
Q 2709 3584 3137 3096 
Q 3566 2609 3566 1747 
Q 3566 888 3137 398 
Q 2709 -91 1959 -91 
Q 1206 -91 779 398 
Q 353 888 353 1747 
Q 353 2609 779 3096 
Q 1206 3584 1959 3584 
z
" id="DejaVuSans-6f" transform="scale(0.015625)"/>
       <path d="M 2906 2969 
L 2906 4863 
L 3481 4863 
L 3481 0 
L 2906 0 
L 2906 525 
Q 2725 213 2448 61 
Q 2172 -91 1784 -91 
Q 1150 -91 751 415 
Q 353 922 353 1747 
Q 353 2572 751 3078 
Q 1150 3584 1784 3584 
Q 2172 3584 2448 3432 
Q 2725 3281 2906 2969 
z
M 947 1747 
Q 947 1113 1208 752 
Q 1469 391 1925 391 
Q 2381 391 2643 752 
Q 2906 1113 2906 1747 
Q 2906 2381 2643 2742 
Q 2381 3103 1925 3103 
Q 1469 3103 1208 2742 
Q 947 2381 947 1747 
z
" id="DejaVuSans-64" transform="scale(0.015625)"/>
      </defs>
      <use xlink:href="#DejaVuSans-54"/>
      <use x="57.958984" xlink:href="#DejaVuSans-69"/>
      <use x="85.742188" xlink:href="#DejaVuSans-6d"/>
      <use x="183.154297" xlink:href="#DejaVuSans-65"/>
      <use x="244.677734" xlink:href="#DejaVuSans-20"/>
      <use x="276.464844" xlink:href="#DejaVuSans-69"/>
      <use x="304.248047" xlink:href="#DejaVuSans-6e"/>
      <use x="367.626953" xlink:href="#DejaVuSans-20"/>
      <use x="399.414062" xlink:href="#DejaVuSans-73"/>
      <use x="451.513672" xlink:href="#DejaVuSans-65"/>
      <use x="513.037109" xlink:href="#DejaVuSans-63"/>
      <use x="568.017578" xlink:href="#DejaVuSans-6f"/>
      <use x="629.199219" xlink:href="#DejaVuSans-6e"/>
      <use x="692.578125" xlink:href="#DejaVuSans-64"/>
      <use x="756.054688" xlink:href="#DejaVuSans-73"/>
     </g>
    </g>
   </g>
   <g id="matplotlib.axis_2">
    <g id="ytick_1">
     <g id="line2d_10">
      <defs>
       <path d="M 0 0 
L -3.5 0 
" id="m2926446f46" style="stroke:#000000;stroke-width:0.8;"/>
      </defs>
      <g>
       <use style="stroke:#000000;stroke-width:0.8;" x="88.47625" xlink:href="#m2926446f46" y="453.771714"/>
      </g>
     </g>
     <g id="text_11">
      <!-- 0.10 -->
      <g transform="translate(32.491875 462.129996)scale(0.22 -0.22)">
       <defs>
        <path d="M 684 794 
L 1344 794 
L 1344 0 
L 684 0 
L 684 794 
z
" id="DejaVuSans-2e" transform="scale(0.015625)"/>
       </defs>
       <use xlink:href="#DejaVuSans-30"/>
       <use x="63.623047" xlink:href="#DejaVuSans-2e"/>
       <use x="95.410156" xlink:href="#DejaVuSans-31"/>
       <use x="159.033203" xlink:href="#DejaVuSans-30"/>
      </g>
     </g>
    </g>
    <g id="ytick_2">
     <g id="line2d_11">
      <g>
       <use style="stroke:#000000;stroke-width:0.8;" x="88.47625" xlink:href="#m2926446f46" y="386.787027"/>
      </g>
     </g>
     <g id="text_12">
      <!-- 0.15 -->
      <g transform="translate(32.491875 395.145309)scale(0.22 -0.22)">
       <use xlink:href="#DejaVuSans-30"/>
       <use x="63.623047" xlink:href="#DejaVuSans-2e"/>
       <use x="95.410156" xlink:href="#DejaVuSans-31"/>
       <use x="159.033203" xlink:href="#DejaVuSans-35"/>
      </g>
     </g>
    </g>
    <g id="ytick_3">
     <g id="line2d_12">
      <g>
       <use style="stroke:#000000;stroke-width:0.8;" x="88.47625" xlink:href="#m2926446f46" y="319.80234"/>
      </g>
     </g>
     <g id="text_13">
      <!-- 0.20 -->
      <g transform="translate(32.491875 328.160622)scale(0.22 -0.22)">
       <use xlink:href="#DejaVuSans-30"/>
       <use x="63.623047" xlink:href="#DejaVuSans-2e"/>
       <use x="95.410156" xlink:href="#DejaVuSans-32"/>
       <use x="159.033203" xlink:href="#DejaVuSans-30"/>
      </g>
     </g>
    </g>
    <g id="ytick_4">
     <g id="line2d_13">
      <g>
       <use style="stroke:#000000;stroke-width:0.8;" x="88.47625" xlink:href="#m2926446f46" y="252.817653"/>
      </g>
     </g>
     <g id="text_14">
      <!-- 0.25 -->
      <g transform="translate(32.491875 261.175935)scale(0.22 -0.22)">
       <use xlink:href="#DejaVuSans-30"/>
       <use x="63.623047" xlink:href="#DejaVuSans-2e"/>
       <use x="95.410156" xlink:href="#DejaVuSans-32"/>
       <use x="159.033203" xlink:href="#DejaVuSans-35"/>
      </g>
     </g>
    </g>
    <g id="ytick_5">
     <g id="line2d_14">
      <g>
       <use style="stroke:#000000;stroke-width:0.8;" x="88.47625" xlink:href="#m2926446f46" y="185.832966"/>
      </g>
     </g>
     <g id="text_15">
      <!-- 0.30 -->
      <g transform="translate(32.491875 194.191248)scale(0.22 -0.22)">
       <use xlink:href="#DejaVuSans-30"/>
       <use x="63.623047" xlink:href="#DejaVuSans-2e"/>
       <use x="95.410156" xlink:href="#DejaVuSans-33"/>
       <use x="159.033203" xlink:href="#DejaVuSans-30"/>
      </g>
     </g>
    </g>
    <g id="ytick_6">
     <g id="line2d_15">
      <g>
       <use style="stroke:#000000;stroke-width:0.8;" x="88.47625" xlink:href="#m2926446f46" y="118.848279"/>
      </g>
     </g>
     <g id="text_16">
      <!-- 0.35 -->
      <g transform="translate(32.491875 127.206561)scale(0.22 -0.22)">
       <use xlink:href="#DejaVuSans-30"/>
       <use x="63.623047" xlink:href="#DejaVuSans-2e"/>
       <use x="95.410156" xlink:href="#DejaVuSans-33"/>
       <use x="159.033203" xlink:href="#DejaVuSans-35"/>
      </g>
     </g>
    </g>
    <g id="ytick_7">
     <g id="line2d_16">
      <g>
       <use style="stroke:#000000;stroke-width:0.8;" x="88.47625" xlink:href="#m2926446f46" y="51.863592"/>
      </g>
     </g>
     <g id="text_17">
      <!-- 0.40 -->
      <g transform="translate(32.491875 60.221874)scale(0.22 -0.22)">
       <use xlink:href="#DejaVuSans-30"/>
       <use x="63.623047" xlink:href="#DejaVuSans-2e"/>
       <use x="95.410156" xlink:href="#DejaVuSans-34"/>
       <use x="159.033203" xlink:href="#DejaVuSans-30"/>
      </g>
     </g>
    </g>
    <g id="text_18">
     <!-- Test accuracy -->
     <g transform="translate(23.916563 333.786125)rotate(-90)scale(0.22 -0.22)">
      <defs>
       <path d="M 1172 4494 
L 1172 3500 
L 2356 3500 
L 2356 3053 
L 1172 3053 
L 1172 1153 
Q 1172 725 1289 603 
Q 1406 481 1766 481 
L 2356 481 
L 2356 0 
L 1766 0 
Q 1100 0 847 248 
Q 594 497 594 1153 
L 594 3053 
L 172 3053 
L 172 3500 
L 594 3500 
L 594 4494 
L 1172 4494 
z
" id="DejaVuSans-74" transform="scale(0.015625)"/>
       <path d="M 2194 1759 
Q 1497 1759 1228 1600 
Q 959 1441 959 1056 
Q 959 750 1161 570 
Q 1363 391 1709 391 
Q 2188 391 2477 730 
Q 2766 1069 2766 1631 
L 2766 1759 
L 2194 1759 
z
M 3341 1997 
L 3341 0 
L 2766 0 
L 2766 531 
Q 2569 213 2275 61 
Q 1981 -91 1556 -91 
Q 1019 -91 701 211 
Q 384 513 384 1019 
Q 384 1609 779 1909 
Q 1175 2209 1959 2209 
L 2766 2209 
L 2766 2266 
Q 2766 2663 2505 2880 
Q 2244 3097 1772 3097 
Q 1472 3097 1187 3025 
Q 903 2953 641 2809 
L 641 3341 
Q 956 3463 1253 3523 
Q 1550 3584 1831 3584 
Q 2591 3584 2966 3190 
Q 3341 2797 3341 1997 
z
" id="DejaVuSans-61" transform="scale(0.015625)"/>
       <path d="M 544 1381 
L 544 3500 
L 1119 3500 
L 1119 1403 
Q 1119 906 1312 657 
Q 1506 409 1894 409 
Q 2359 409 2629 706 
Q 2900 1003 2900 1516 
L 2900 3500 
L 3475 3500 
L 3475 0 
L 2900 0 
L 2900 538 
Q 2691 219 2414 64 
Q 2138 -91 1772 -91 
Q 1169 -91 856 284 
Q 544 659 544 1381 
z
M 1991 3584 
L 1991 3584 
z
" id="DejaVuSans-75" transform="scale(0.015625)"/>
       <path d="M 2631 2963 
Q 2534 3019 2420 3045 
Q 2306 3072 2169 3072 
Q 1681 3072 1420 2755 
Q 1159 2438 1159 1844 
L 1159 0 
L 581 0 
L 581 3500 
L 1159 3500 
L 1159 2956 
Q 1341 3275 1631 3429 
Q 1922 3584 2338 3584 
Q 2397 3584 2469 3576 
Q 2541 3569 2628 3553 
L 2631 2963 
z
" id="DejaVuSans-72" transform="scale(0.015625)"/>
       <path d="M 2059 -325 
Q 1816 -950 1584 -1140 
Q 1353 -1331 966 -1331 
L 506 -1331 
L 506 -850 
L 844 -850 
Q 1081 -850 1212 -737 
Q 1344 -625 1503 -206 
L 1606 56 
L 191 3500 
L 800 3500 
L 1894 763 
L 2988 3500 
L 3597 3500 
L 2059 -325 
z
" id="DejaVuSans-79" transform="scale(0.015625)"/>
      </defs>
      <use xlink:href="#DejaVuSans-54"/>
      <use x="44.083984" xlink:href="#DejaVuSans-65"/>
      <use x="105.607422" xlink:href="#DejaVuSans-73"/>
      <use x="157.707031" xlink:href="#DejaVuSans-74"/>
      <use x="196.916016" xlink:href="#DejaVuSans-20"/>
      <use x="228.703125" xlink:href="#DejaVuSans-61"/>
      <use x="289.982422" xlink:href="#DejaVuSans-63"/>
      <use x="344.962891" xlink:href="#DejaVuSans-63"/>
      <use x="399.943359" xlink:href="#DejaVuSans-75"/>
      <use x="463.322266" xlink:href="#DejaVuSans-72"/>
      <use x="504.435547" xlink:href="#DejaVuSans-61"/>
      <use x="565.714844" xlink:href="#DejaVuSans-63"/>
      <use x="620.695312" xlink:href="#DejaVuSans-79"/>
     </g>
    </g>
   </g>
   <g id="line2d_17">
    <path clip-path="url(#pc1744e7524)" d="M 116.810795 453.038072 
L 123.984098 435.291596 
L 131.157401 427.241313 
L 138.330703 418.591357 
L 145.504006 405.109572 
L 152.677309 395.319202 
L 159.850611 383.329753 
L 167.023914 374.771649 
L 174.197217 363.532537 
L 181.370519 361.713146 
L 188.543822 350.010273 
L 195.717125 347.900446 
L 202.890427 340.844175 
L 210.06373 328.942509 
L 217.237033 318.902234 
L 224.410335 322.861308 
L 231.583638 306.923994 
L 238.75694 296.952189 
L 245.930243 292.40979 
L 253.103546 281.370416 
L 260.276848 272.323594 
L 267.450151 263.012291 
L 274.623454 266.531246 
L 281.796756 258.322957 
L 288.970059 251.806401 
L 296.143362 250.600676 
L 303.316664 237.640837 
L 310.489967 234.920182 
L 317.66327 227.445583 
L 324.836572 232.68571 
L 332.009875 220.695255 
L 339.183178 215.042756 
L 346.35648 209.384782 
L 353.529783 205.124556 
L 360.703085 200.03372 
L 367.876388 195.202703 
L 375.049691 192.894449 
L 382.222993 188.045622 
L 389.396296 189.095769 
L 396.569599 176.325606 
L 403.742901 178.395505 
L 410.916204 173.425674 
L 418.089507 170.519861 
L 425.262809 155.555888 
L 432.436112 154.728973 
L 439.609415 155.555888 
L 446.782717 156.095952 
L 453.95602 148.879027 
L 461.129322 142.484943 
L 468.302625 147.387943 
L 475.475928 133.153697 
L 482.64923 140.214234 
L 489.822533 133.174629 
L 496.995836 126.188877 
L 504.169138 125.617919 
L 511.342441 129.315753 
L 518.515744 127.867443 
L 525.689046 116.888977 
L 532.862349 119.710149 
L 540.035652 113.464385 
L 547.208954 116.056531 
L 554.382257 107.262089 
L 561.55556 114.071434 
L 568.728862 107.485241 
L 575.902165 104.003608 
L 583.075467 97.132276 
L 590.24877 99.872166 
L 597.422073 98.824045 
L 604.595375 99.946038 
L 611.768678 95.03299 
L 618.941981 93.996961 
L 626.115283 94.229174 
L 633.288586 92.423835 
L 640.461889 88.80788 
L 647.635191 76.777574 
L 654.808494 83.576655 
L 661.981797 84.3093 
L 669.155099 78.531871 
L 676.328402 77.125751 
L 683.501705 76.544208 
" style="fill:none;stroke:#00c0c7;stroke-linecap:square;stroke-width:1.5;"/>
   </g>
   <g id="line2d_18">
    <path clip-path="url(#pc1744e7524)" d="M 116.810795 451.010457 
L 123.984098 442.130733 
L 131.157401 430.572684 
L 138.330703 422.132614 
L 145.504006 413.709719 
L 152.677309 396.488643 
L 159.850611 394.191412 
L 167.023914 375.214134 
L 174.197217 368.711879 
L 181.370519 363.044677 
L 188.543822 349.15771 
L 195.717125 343.42382 
L 202.890427 339.444312 
L 210.06373 324.865266 
L 217.237033 315.158069 
L 224.410335 313.048051 
L 231.583638 306.587601 
L 238.75694 294.262419 
L 245.930243 296.862661 
L 253.103546 287.119172 
L 260.276848 283.008991 
L 267.450151 278.383476 
L 274.623454 265.292263 
L 281.796756 255.550629 
L 288.970059 266.541476 
L 296.143362 241.184646 
L 303.316664 244.645522 
L 310.489967 228.814807 
L 317.66327 228.340332 
L 324.836572 220.540958 
L 332.009875 225.152978 
L 339.183178 218.402982 
L 346.35648 211.169254 
L 353.529783 202.914062 
L 360.703085 206.282052 
L 367.876388 194.540976 
L 375.049691 193.65777 
L 382.222993 190.757681 
L 389.396296 191.143512 
L 396.569599 175.902487 
L 403.742901 175.656876 
L 410.916204 178.304918 
L 418.089507 160.466381 
L 425.262809 162.810845 
L 432.436112 164.665805 
L 439.609415 154.012561 
L 446.782717 154.973636 
L 453.95602 155.433083 
L 461.129322 148.41429 
L 468.302625 152.597398 
L 475.475928 146.526352 
L 482.64923 140.878203 
L 489.822533 140.556471 
L 496.995836 138.340823 
L 504.169138 134.721169 
L 511.342441 132.217307 
L 518.515744 123.060277 
L 525.689046 139.814486 
L 532.862349 126.579429 
L 540.035652 129.308608 
L 547.208954 113.554008 
L 554.382257 114.42729 
L 561.55556 116.061716 
L 568.728862 116.503815 
L 575.902165 113.860497 
L 583.075467 110.595766 
L 590.24877 112.658894 
L 597.422073 104.57806 
L 604.595375 102.406115 
L 611.768678 101.354112 
L 618.941981 110.413568 
L 626.115283 105.654975 
L 633.288586 91.106314 
L 640.461889 101.275963 
L 647.635191 96.620081 
L 654.808494 89.812994 
L 661.981797 88.130218 
L 669.155099 89.260186 
L 676.328402 94.895672 
L 683.501705 88.86705 
" style="fill:none;stroke:#5144d3;stroke-linecap:square;stroke-width:1.5;"/>
   </g>
   <g id="line2d_19">
    <path clip-path="url(#pc1744e7524)" d="M 116.810795 452.8116 
L 123.984098 446.259506 
L 131.157401 438.124091 
L 138.330703 432.29754 
L 145.504006 424.121612 
L 152.677309 416.008427 
L 159.850611 418.235097 
L 167.023914 406.664733 
L 174.197217 410.678232 
L 181.370519 398.248852 
L 188.543822 372.493526 
L 195.717125 377.31127 
L 202.890427 379.870858 
L 210.06373 366.096797 
L 217.237033 366.39153 
L 224.410335 350.386432 
L 231.583638 338.22045 
L 238.75694 343.61282 
L 245.930243 329.255219 
L 253.103546 325.0104 
L 260.276848 329.110532 
L 267.450151 318.761501 
L 274.623454 310.718186 
L 281.796756 305.830451 
L 288.970059 299.321102 
L 296.143362 294.586974 
L 303.316664 290.782513 
L 310.489967 290.634528 
L 317.66327 287.705511 
L 324.836572 273.56683 
L 332.009875 272.607609 
L 339.183178 268.867184 
L 346.35648 263.920365 
L 353.529783 271.659106 
L 360.703085 256.241315 
L 367.876388 251.542265 
L 375.049691 243.44495 
L 382.222993 246.21408 
L 389.396296 244.846476 
L 396.569599 235.859363 
L 403.742901 237.936748 
L 410.916204 235.818428 
L 418.089507 230.617812 
L 425.262809 226.682908 
L 432.436112 238.429343 
L 439.609415 213.971688 
L 446.782717 211.990487 
L 453.95602 224.90565 
L 461.129322 205.666016 
L 468.302625 205.103121 
L 475.475928 198.393935 
L 482.64923 201.76974 
L 489.822533 200.363491 
L 496.995836 197.508913 
L 504.169138 194.066501 
L 511.342441 186.658218 
L 518.515744 182.703442 
L 525.689046 180.74213 
L 532.862349 170.721221 
L 540.035652 183.728531 
L 547.208954 173.038891 
L 554.382257 172.828013 
L 561.55556 176.094423 
L 568.728862 171.459169 
L 575.902165 159.819609 
L 583.075467 164.012705 
L 590.24877 170.807786 
L 597.422073 163.822915 
L 604.595375 153.536424 
L 611.768678 156.230887 
L 618.941981 151.034422 
L 626.115283 157.060467 
L 633.288586 155.261155 
L 640.461889 148.94115 
L 647.635191 142.539424 
L 654.808494 146.395732 
L 661.981797 134.924604 
L 669.155099 137.496816 
L 676.328402 144.525743 
L 683.501705 134.479826 
" style="fill:none;stroke:#da3490;stroke-linecap:square;stroke-width:1.5;"/>
   </g>
   <g id="line2d_20">
    <path clip-path="url(#pc1744e7524)" d="M 116.810795 451.824693 
L 123.984098 446.987122 
L 131.157401 435.117819 
L 138.330703 432.175851 
L 145.504006 422.440355 
L 152.677309 417.49693 
L 159.850611 413.409421 
L 167.023914 414.013726 
L 174.197217 413.580902 
L 181.370519 405.895029 
L 188.543822 398.638164 
L 195.717125 395.416888 
L 202.890427 389.903271 
L 210.06373 391.721566 
L 217.237033 389.248094 
L 224.410335 380.65123 
L 231.583638 371.560893 
L 238.75694 371.017716 
L 245.930243 357.234376 
L 253.103546 362.080842 
L 260.276848 354.961263 
L 267.450151 346.12174 
L 274.623454 343.927992 
L 281.796756 346.266444 
L 288.970059 337.111183 
L 296.143362 333.776377 
L 303.316664 326.891553 
L 310.489967 327.267114 
L 317.66327 326.526572 
L 324.836572 318.317513 
L 332.009875 303.152627 
L 339.183178 311.36227 
L 346.35648 300.147917 
L 353.529783 295.375258 
L 360.703085 302.176631 
L 367.876388 290.179032 
L 375.049691 291.462665 
L 382.222993 275.771073 
L 389.396296 275.413821 
L 396.569599 273.696265 
L 403.742901 272.828708 
L 410.916204 267.463185 
L 418.089507 266.403366 
L 425.262809 257.599329 
L 432.436112 256.289693 
L 439.609415 250.182922 
L 446.782717 249.957922 
L 453.95602 250.175777 
L 461.129322 241.114089 
L 468.302625 243.891944 
L 475.475928 234.844322 
L 482.64923 232.900873 
L 489.822533 228.638861 
L 496.995836 222.875498 
L 504.169138 232.789232 
L 511.342441 215.955465 
L 518.515744 210.981697 
L 525.689046 214.941832 
L 532.862349 207.720213 
L 540.035652 219.232562 
L 547.208954 206.7697 
L 554.382257 200.816101 
L 561.55556 209.706309 
L 568.728862 203.302573 
L 575.902165 191.491833 
L 583.075467 189.037514 
L 590.24877 194.782121 
L 597.422073 190.253956 
L 604.595375 186.025882 
L 611.768678 180.295566 
L 618.941981 193.675757 
L 626.115283 178.218147 
L 633.288586 190.661446 
L 640.461889 182.601625 
L 647.635191 171.985892 
L 654.808494 174.375906 
L 661.981797 170.898061 
L 669.155099 163.135463 
L 676.328402 164.467531 
L 683.501705 171.276679 
" style="fill:none;stroke:#9089fa;stroke-linecap:square;stroke-width:1.5;"/>
   </g>
   <g id="patch_3">
    <path d="M 88.47625 484.739875 
L 88.47625 33.259875 
" style="fill:none;stroke:#000000;stroke-linecap:square;stroke-linejoin:miter;stroke-width:0.8;"/>
   </g>
   <g id="patch_4">
    <path d="M 711.83625 484.739875 
L 711.83625 33.259875 
" style="fill:none;stroke:#000000;stroke-linecap:square;stroke-linejoin:miter;stroke-width:0.8;"/>
   </g>
   <g id="patch_5">
    <path d="M 88.47625 484.739875 
L 711.83625 484.739875 
" style="fill:none;stroke:#000000;stroke-linecap:square;stroke-linejoin:miter;stroke-width:0.8;"/>
   </g>
   <g id="patch_6">
    <path d="M 88.47625 33.259875 
L 711.83625 33.259875 
" style="fill:none;stroke:#000000;stroke-linecap:square;stroke-linejoin:miter;stroke-width:0.8;"/>
   </g>
   <g id="text_19">
    <!-- Dataset: cifar10 -->
    <g transform="translate(293.939562 27.259875)scale(0.264 -0.264)">
     <defs>
      <path d="M 1259 4147 
L 1259 519 
L 2022 519 
Q 2988 519 3436 956 
Q 3884 1394 3884 2338 
Q 3884 3275 3436 3711 
Q 2988 4147 2022 4147 
L 1259 4147 
z
M 628 4666 
L 1925 4666 
Q 3281 4666 3915 4102 
Q 4550 3538 4550 2338 
Q 4550 1131 3912 565 
Q 3275 0 1925 0 
L 628 0 
L 628 4666 
z
" id="DejaVuSans-44" transform="scale(0.015625)"/>
      <path d="M 750 794 
L 1409 794 
L 1409 0 
L 750 0 
L 750 794 
z
M 750 3309 
L 1409 3309 
L 1409 2516 
L 750 2516 
L 750 3309 
z
" id="DejaVuSans-3a" transform="scale(0.015625)"/>
      <path d="M 2375 4863 
L 2375 4384 
L 1825 4384 
Q 1516 4384 1395 4259 
Q 1275 4134 1275 3809 
L 1275 3500 
L 2222 3500 
L 2222 3053 
L 1275 3053 
L 1275 0 
L 697 0 
L 697 3053 
L 147 3053 
L 147 3500 
L 697 3500 
L 697 3744 
Q 697 4328 969 4595 
Q 1241 4863 1831 4863 
L 2375 4863 
z
" id="DejaVuSans-66" transform="scale(0.015625)"/>
     </defs>
     <use xlink:href="#DejaVuSans-44"/>
     <use x="77.001953" xlink:href="#DejaVuSans-61"/>
     <use x="138.28125" xlink:href="#DejaVuSans-74"/>
     <use x="177.490234" xlink:href="#DejaVuSans-61"/>
     <use x="238.769531" xlink:href="#DejaVuSans-73"/>
     <use x="290.869141" xlink:href="#DejaVuSans-65"/>
     <use x="352.392578" xlink:href="#DejaVuSans-74"/>
     <use x="391.601562" xlink:href="#DejaVuSans-3a"/>
     <use x="425.292969" xlink:href="#DejaVuSans-20"/>
     <use x="457.080078" xlink:href="#DejaVuSans-63"/>
     <use x="512.060547" xlink:href="#DejaVuSans-69"/>
     <use x="539.84375" xlink:href="#DejaVuSans-66"/>
     <use x="575.048828" xlink:href="#DejaVuSans-61"/>
     <use x="636.328125" xlink:href="#DejaVuSans-72"/>
     <use x="677.441406" xlink:href="#DejaVuSans-31"/>
     <use x="741.064453" xlink:href="#DejaVuSans-30"/>
    </g>
   </g>
  </g>
  <g id="axes_2">
   <g id="patch_7">
    <path d="M 777.59625 484.739875 
L 1400.95625 484.739875 
L 1400.95625 33.259875 
L 777.59625 33.259875 
z
" style="fill:#ffffff;"/>
   </g>
   <g id="PolyCollection_5">
    <path clip-path="url(#pdf3c0d0fbc)" d="M 805.930795 705.323637 
L 805.930795 758.14145 
L 813.104098 699.109325 
L 820.277401 625.436174 
L 827.450703 538.81238 
L 834.624006 481.512903 
L 841.797309 403.293436 
L 848.970611 362.894962 
L 856.143914 338.917809 
L 863.317217 314.833825 
L 870.490519 284.299348 
L 877.663822 276.653624 
L 884.837125 256.997123 
L 892.010427 247.950828 
L 899.18373 240.538166 
L 906.357033 238.14516 
L 913.530335 226.873861 
L 920.703638 218.623579 
L 927.87694 217.237909 
L 935.050243 209.045062 
L 942.223546 208.066393 
L 949.396848 215.252766 
L 956.570151 208.892092 
L 963.743454 204.747039 
L 970.916756 202.143063 
L 978.090059 199.433285 
L 985.263362 194.15517 
L 992.436664 188.844191 
L 999.609967 189.450591 
L 1006.78327 186.72273 
L 1013.956572 186.477775 
L 1021.129875 180.06368 
L 1028.303178 175.598714 
L 1035.47648 177.812479 
L 1042.649783 172.410207 
L 1049.823085 170.031929 
L 1056.996388 167.351098 
L 1064.169691 171.435172 
L 1071.342993 168.349873 
L 1078.516296 170.265463 
L 1085.689599 167.945688 
L 1092.862901 159.981614 
L 1100.036204 160.734719 
L 1107.209507 163.284129 
L 1114.382809 158.273271 
L 1121.556112 155.21819 
L 1128.729415 153.203362 
L 1135.902717 153.942131 
L 1143.07602 150.38795 
L 1150.249322 152.364433 
L 1157.422625 153.310592 
L 1164.595928 152.782163 
L 1171.76923 155.847727 
L 1178.942533 148.23903 
L 1186.115836 146.332785 
L 1193.289138 148.364127 
L 1200.462441 139.391115 
L 1207.635744 146.121711 
L 1214.809046 146.457728 
L 1221.982349 140.813825 
L 1229.155652 139.939666 
L 1236.328954 138.0374 
L 1243.502257 138.474387 
L 1250.67556 133.764354 
L 1257.848862 133.448398 
L 1265.022165 134.337112 
L 1272.195467 138.003223 
L 1279.36877 136.315516 
L 1286.542073 132.271451 
L 1293.715375 129.988121 
L 1300.888678 133.486421 
L 1308.061981 130.430795 
L 1315.235283 130.847038 
L 1322.408586 129.164254 
L 1329.581889 125.556103 
L 1336.755191 123.278176 
L 1343.928494 123.921698 
L 1351.101797 123.614952 
L 1358.275099 124.997971 
L 1365.448402 124.790447 
L 1372.621705 122.029507 
L 1372.621705 106.527465 
L 1372.621705 106.527465 
L 1365.448402 108.251926 
L 1358.275099 108.239028 
L 1351.101797 105.992273 
L 1343.928494 110.182913 
L 1336.755191 109.144056 
L 1329.581889 110.037401 
L 1322.408586 109.140486 
L 1315.235283 110.991426 
L 1308.061981 112.604736 
L 1300.888678 113.444737 
L 1293.715375 112.497034 
L 1286.542073 112.969882 
L 1279.36877 117.381235 
L 1272.195467 116.529216 
L 1265.022165 116.082555 
L 1257.848862 117.133299 
L 1250.67556 119.528157 
L 1243.502257 122.985828 
L 1236.328954 120.79563 
L 1229.155652 121.752738 
L 1221.982349 123.454165 
L 1214.809046 120.004455 
L 1207.635744 125.866587 
L 1200.462441 125.465949 
L 1193.289138 124.030503 
L 1186.115836 127.871869 
L 1178.942533 130.863932 
L 1171.76923 130.564282 
L 1164.595928 130.765125 
L 1157.422625 130.77632 
L 1150.249322 131.257 
L 1143.07602 133.28508 
L 1135.902717 135.366481 
L 1128.729415 136.920116 
L 1121.556112 136.713211 
L 1114.382809 138.27664 
L 1107.209507 140.987191 
L 1100.036204 141.375894 
L 1092.862901 143.179726 
L 1085.689599 146.826397 
L 1078.516296 147.390037 
L 1071.342993 145.249831 
L 1064.169691 149.185549 
L 1056.996388 150.759736 
L 1049.823085 150.120685 
L 1042.649783 149.979677 
L 1035.47648 150.778677 
L 1028.303178 155.348768 
L 1021.129875 158.617023 
L 1013.956572 162.277872 
L 1006.78327 161.802439 
L 999.609967 162.475915 
L 992.436664 167.353726 
L 985.263362 164.442042 
L 978.090059 167.494958 
L 970.916756 170.37001 
L 963.743454 174.892811 
L 956.570151 175.557672 
L 949.396848 175.466563 
L 942.223546 179.649773 
L 935.050243 183.489446 
L 927.87694 187.152674 
L 920.703638 187.977996 
L 913.530335 194.545288 
L 906.357033 201.035687 
L 899.18373 207.24413 
L 892.010427 209.954784 
L 884.837125 218.780217 
L 877.663822 228.429694 
L 870.490519 237.884851 
L 863.317217 250.903879 
L 856.143914 268.19178 
L 848.970611 285.492212 
L 841.797309 328.153744 
L 834.624006 369.968034 
L 827.450703 415.678234 
L 820.277401 533.052003 
L 813.104098 608.283256 
L 805.930795 705.323637 
z
" style="fill:#00c0c7;fill-opacity:0.1;stroke:#00c0c7;stroke-opacity:0.1;"/>
   </g>
   <g id="PolyCollection_6">
    <path clip-path="url(#pdf3c0d0fbc)" d="M 805.930795 711.985072 
L 805.930795 765.281759 
L 813.104098 727.048224 
L 820.277401 656.333559 
L 827.450703 551.84838 
L 834.624006 495.392139 
L 841.797309 442.986267 
L 848.970611 395.955777 
L 856.143914 360.647566 
L 863.317217 336.01781 
L 870.490519 303.711772 
L 877.663822 305.360788 
L 884.837125 283.980258 
L 892.010427 265.229512 
L 899.18373 270.981823 
L 906.357033 241.868826 
L 913.530335 237.000585 
L 920.703638 235.295192 
L 927.87694 237.712454 
L 935.050243 223.28774 
L 942.223546 229.373621 
L 949.396848 222.389239 
L 956.570151 224.038096 
L 963.743454 213.15324 
L 970.916756 205.53068 
L 978.090059 202.54582 
L 985.263362 198.599132 
L 992.436664 202.94824 
L 999.609967 186.100864 
L 1006.78327 196.107603 
L 1013.956572 187.08668 
L 1021.129875 197.315054 
L 1028.303178 185.348708 
L 1035.47648 184.833289 
L 1042.649783 184.566662 
L 1049.823085 181.268696 
L 1056.996388 176.20835 
L 1064.169691 183.466198 
L 1071.342993 168.368106 
L 1078.516296 173.510991 
L 1085.689599 170.495388 
L 1092.862901 167.045084 
L 1100.036204 167.023652 
L 1107.209507 168.629366 
L 1114.382809 167.384716 
L 1121.556112 167.562041 
L 1128.729415 160.17365 
L 1135.902717 166.302926 
L 1143.07602 157.845354 
L 1150.249322 158.046956 
L 1157.422625 154.070313 
L 1164.595928 155.106396 
L 1171.76923 160.124388 
L 1178.942533 159.424935 
L 1186.115836 149.884495 
L 1193.289138 148.178904 
L 1200.462441 150.376155 
L 1207.635744 149.087279 
L 1214.809046 148.681294 
L 1221.982349 153.024654 
L 1229.155652 145.454853 
L 1236.328954 144.400643 
L 1243.502257 143.363132 
L 1250.67556 142.47565 
L 1257.848862 141.31879 
L 1265.022165 141.064089 
L 1272.195467 139.082841 
L 1279.36877 136.72826 
L 1286.542073 140.798675 
L 1293.715375 139.582502 
L 1300.888678 129.409346 
L 1308.061981 135.99658 
L 1315.235283 132.24508 
L 1322.408586 133.436681 
L 1329.581889 131.418418 
L 1336.755191 133.027138 
L 1343.928494 129.568977 
L 1351.101797 129.940318 
L 1358.275099 120.894447 
L 1365.448402 123.755138 
L 1372.621705 122.748905 
L 1372.621705 105.488244 
L 1372.621705 105.488244 
L 1365.448402 106.848378 
L 1358.275099 105.316435 
L 1351.101797 105.25236 
L 1343.928494 106.893156 
L 1336.755191 111.841776 
L 1329.581889 110.915852 
L 1322.408586 111.989544 
L 1315.235283 109.054891 
L 1308.061981 110.049677 
L 1300.888678 112.82126 
L 1293.715375 110.490957 
L 1286.542073 113.113298 
L 1279.36877 113.590218 
L 1272.195467 114.631804 
L 1265.022165 112.577191 
L 1257.848862 112.513171 
L 1250.67556 115.578847 
L 1243.502257 120.329221 
L 1236.328954 117.901474 
L 1229.155652 119.993005 
L 1221.982349 118.745644 
L 1214.809046 118.039251 
L 1207.635744 117.518088 
L 1200.462441 125.202914 
L 1193.289138 126.547943 
L 1186.115836 123.46953 
L 1178.942533 124.219514 
L 1171.76923 122.614778 
L 1164.595928 130.528207 
L 1157.422625 130.920609 
L 1150.249322 130.108431 
L 1143.07602 128.175763 
L 1135.902717 129.714303 
L 1128.729415 134.41255 
L 1121.556112 138.806459 
L 1114.382809 135.614947 
L 1107.209507 139.511193 
L 1100.036204 139.606843 
L 1092.862901 145.111655 
L 1085.689599 143.079862 
L 1078.516296 145.256278 
L 1071.342993 145.160222 
L 1064.169691 148.168252 
L 1056.996388 152.782718 
L 1049.823085 151.191928 
L 1042.649783 147.850182 
L 1035.47648 153.843765 
L 1028.303178 155.96216 
L 1021.129875 155.91365 
L 1013.956572 161.179164 
L 1006.78327 167.905598 
L 999.609967 169.226773 
L 992.436664 165.701926 
L 985.263362 168.652736 
L 978.090059 178.362028 
L 970.916756 178.972077 
L 963.743454 182.458249 
L 956.570151 181.966396 
L 949.396848 182.446404 
L 942.223546 184.681752 
L 935.050243 192.395355 
L 927.87694 194.054616 
L 920.703638 197.502315 
L 913.530335 204.040416 
L 906.357033 212.409311 
L 899.18373 213.083049 
L 892.010427 220.128234 
L 884.837125 226.560495 
L 877.663822 236.734313 
L 870.490519 257.416632 
L 863.317217 262.954233 
L 856.143914 284.168546 
L 848.970611 308.8019 
L 841.797309 348.808432 
L 834.624006 399.322523 
L 827.450703 484.576277 
L 820.277401 541.912475 
L 813.104098 617.029499 
L 805.930795 711.985072 
z
" style="fill:#5144d3;fill-opacity:0.1;stroke:#5144d3;stroke-opacity:0.1;"/>
   </g>
   <g id="PolyCollection_7">
    <path clip-path="url(#pdf3c0d0fbc)" d="M 805.930795 733.754874 
L 805.930795 764.723992 
L 813.104098 734.458414 
L 820.277401 659.930896 
L 827.450703 580.548309 
L 834.624006 533.150623 
L 841.797309 463.465909 
L 848.970611 439.938739 
L 856.143914 402.681794 
L 863.317217 377.148864 
L 870.490519 354.474855 
L 877.663822 326.304696 
L 884.837125 323.724662 
L 892.010427 312.689259 
L 899.18373 292.51191 
L 906.357033 288.147553 
L 913.530335 282.654112 
L 920.703638 264.575427 
L 927.87694 254.54246 
L 935.050243 267.520114 
L 942.223546 241.998178 
L 949.396848 238.672835 
L 956.570151 239.949901 
L 963.743454 238.056638 
L 970.916756 228.901996 
L 978.090059 223.556983 
L 985.263362 220.827124 
L 992.436664 221.442615 
L 999.609967 215.19272 
L 1006.78327 207.156858 
L 1013.956572 209.430106 
L 1021.129875 217.441615 
L 1028.303178 209.077835 
L 1035.47648 200.88026 
L 1042.649783 199.372812 
L 1049.823085 194.448297 
L 1056.996388 200.88399 
L 1064.169691 194.820789 
L 1071.342993 187.747433 
L 1078.516296 193.700201 
L 1085.689599 186.707189 
L 1092.862901 185.545273 
L 1100.036204 184.159627 
L 1107.209507 182.474689 
L 1114.382809 182.89657 
L 1121.556112 186.007024 
L 1128.729415 185.282217 
L 1135.902717 176.126362 
L 1143.07602 176.449053 
L 1150.249322 176.230296 
L 1157.422625 178.621371 
L 1164.595928 172.62848 
L 1171.76923 171.064254 
L 1178.942533 174.157194 
L 1186.115836 165.138477 
L 1193.289138 166.305709 
L 1200.462441 168.989711 
L 1207.635744 166.453365 
L 1214.809046 168.40208 
L 1221.982349 167.226442 
L 1229.155652 162.356508 
L 1236.328954 160.430238 
L 1243.502257 162.956232 
L 1250.67556 163.278438 
L 1257.848862 160.489359 
L 1265.022165 157.376182 
L 1272.195467 162.685536 
L 1279.36877 153.442852 
L 1286.542073 153.476141 
L 1293.715375 151.647881 
L 1300.888678 151.051602 
L 1308.061981 152.287783 
L 1315.235283 154.83627 
L 1322.408586 151.803633 
L 1329.581889 149.226261 
L 1336.755191 156.866184 
L 1343.928494 150.76443 
L 1351.101797 142.922689 
L 1358.275099 145.192295 
L 1365.448402 138.962302 
L 1372.621705 142.707402 
L 1372.621705 117.948748 
L 1372.621705 117.948748 
L 1365.448402 115.877724 
L 1358.275099 115.272318 
L 1351.101797 122.265191 
L 1343.928494 120.004872 
L 1336.755191 124.755056 
L 1329.581889 120.776893 
L 1322.408586 124.822009 
L 1315.235283 126.774571 
L 1308.061981 121.044761 
L 1300.888678 126.425403 
L 1293.715375 124.342172 
L 1286.542073 128.675616 
L 1279.36877 133.335057 
L 1272.195467 130.36032 
L 1265.022165 131.03271 
L 1257.848862 131.419526 
L 1250.67556 134.146243 
L 1243.502257 129.763206 
L 1236.328954 139.567606 
L 1229.155652 134.72611 
L 1221.982349 135.874301 
L 1214.809046 136.615964 
L 1207.635744 136.822497 
L 1200.462441 140.065095 
L 1193.289138 139.182405 
L 1186.115836 138.802995 
L 1178.942533 141.727273 
L 1171.76923 142.685944 
L 1164.595928 146.584626 
L 1157.422625 140.987444 
L 1150.249322 146.554662 
L 1143.07602 149.141208 
L 1135.902717 153.085698 
L 1128.729415 154.072541 
L 1121.556112 151.537538 
L 1114.382809 151.244107 
L 1107.209507 154.22198 
L 1100.036204 153.943129 
L 1092.862901 159.829164 
L 1085.689599 160.879383 
L 1078.516296 161.378202 
L 1071.342993 164.080314 
L 1064.169691 160.450089 
L 1056.996388 165.753106 
L 1049.823085 166.171169 
L 1042.649783 167.349269 
L 1035.47648 169.575826 
L 1028.303178 177.423577 
L 1021.129875 174.539872 
L 1013.956572 179.143606 
L 1006.78327 179.589689 
L 999.609967 183.972022 
L 992.436664 190.685075 
L 985.263362 188.574755 
L 978.090059 194.725024 
L 970.916756 197.761982 
L 963.743454 196.060864 
L 956.570151 205.090681 
L 949.396848 207.812483 
L 942.223546 210.186411 
L 935.050243 209.050703 
L 927.87694 220.618679 
L 920.703638 224.787592 
L 913.530335 230.554307 
L 906.357033 229.958428 
L 899.18373 246.05891 
L 892.010427 253.729786 
L 884.837125 253.8253 
L 877.663822 267.973928 
L 870.490519 284.273221 
L 863.317217 301.594184 
L 856.143914 336.945619 
L 848.970611 361.130233 
L 841.797309 397.122024 
L 834.624006 444.17614 
L 827.450703 506.538112 
L 820.277401 579.618547 
L 813.104098 646.028663 
L 805.930795 733.754874 
z
" style="fill:#da3490;fill-opacity:0.1;stroke:#da3490;stroke-opacity:0.1;"/>
   </g>
   <g id="PolyCollection_8">
    <path clip-path="url(#pdf3c0d0fbc)" d="M 805.930795 721.984831 
L 805.930795 759.382943 
L 813.104098 738.049432 
L 820.277401 665.406165 
L 827.450703 624.092531 
L 834.624006 557.202351 
L 841.797309 528.987137 
L 848.970611 464.412357 
L 856.143914 434.877159 
L 863.317217 410.420182 
L 870.490519 391.816 
L 877.663822 361.825391 
L 884.837125 349.935102 
L 892.010427 341.228773 
L 899.18373 316.362479 
L 906.357033 305.765305 
L 913.530335 287.740304 
L 920.703638 290.114893 
L 927.87694 287.424593 
L 935.050243 276.594446 
L 942.223546 268.944299 
L 949.396848 260.971221 
L 956.570151 261.31999 
L 963.743454 258.032255 
L 970.916756 253.249446 
L 978.090059 247.1414 
L 985.263362 250.90994 
L 992.436664 243.032019 
L 999.609967 241.168438 
L 1006.78327 229.224117 
L 1013.956572 235.586848 
L 1021.129875 236.46339 
L 1028.303178 228.948765 
L 1035.47648 220.66283 
L 1042.649783 215.928214 
L 1049.823085 227.772215 
L 1056.996388 216.889342 
L 1064.169691 215.836877 
L 1071.342993 209.830801 
L 1078.516296 215.827721 
L 1085.689599 211.636863 
L 1092.862901 208.452805 
L 1100.036204 217.030202 
L 1107.209507 207.447938 
L 1114.382809 207.64169 
L 1121.556112 203.359002 
L 1128.729415 196.004462 
L 1135.902717 199.402623 
L 1143.07602 196.921071 
L 1150.249322 200.531997 
L 1157.422625 192.508946 
L 1164.595928 201.610821 
L 1171.76923 191.723651 
L 1178.942533 191.534795 
L 1186.115836 178.621334 
L 1193.289138 187.853392 
L 1200.462441 192.724423 
L 1207.635744 188.477553 
L 1214.809046 188.143795 
L 1221.982349 189.763632 
L 1229.155652 181.181532 
L 1236.328954 175.498575 
L 1243.502257 177.044795 
L 1250.67556 174.843782 
L 1257.848862 175.280807 
L 1265.022165 174.433253 
L 1272.195467 177.62649 
L 1279.36877 171.331236 
L 1286.542073 165.004862 
L 1293.715375 171.471566 
L 1300.888678 165.965666 
L 1308.061981 167.892236 
L 1315.235283 166.058663 
L 1322.408586 161.695802 
L 1329.581889 169.266995 
L 1336.755191 167.689129 
L 1343.928494 156.104168 
L 1351.101797 164.439736 
L 1358.275099 161.337924 
L 1365.448402 159.266728 
L 1372.621705 167.458149 
L 1372.621705 120.056957 
L 1372.621705 120.056957 
L 1365.448402 126.220822 
L 1358.275099 128.088789 
L 1351.101797 126.030028 
L 1343.928494 124.946839 
L 1336.755191 134.126518 
L 1329.581889 133.171577 
L 1322.408586 129.751284 
L 1315.235283 132.234984 
L 1308.061981 128.729939 
L 1300.888678 135.717703 
L 1293.715375 132.667752 
L 1286.542073 136.944778 
L 1279.36877 139.575928 
L 1272.195467 136.513109 
L 1265.022165 136.462426 
L 1257.848862 136.80157 
L 1250.67556 145.526403 
L 1243.502257 140.65021 
L 1236.328954 145.909852 
L 1229.155652 145.167614 
L 1221.982349 144.814843 
L 1214.809046 150.389999 
L 1207.635744 149.269491 
L 1200.462441 142.384883 
L 1193.289138 146.275484 
L 1186.115836 146.094812 
L 1178.942533 149.889759 
L 1171.76923 149.815141 
L 1164.595928 149.753304 
L 1157.422625 154.300533 
L 1150.249322 155.301449 
L 1143.07602 160.602298 
L 1135.902717 154.291242 
L 1128.729415 157.585426 
L 1121.556112 158.693913 
L 1114.382809 161.484582 
L 1107.209507 163.043101 
L 1100.036204 168.351282 
L 1092.862901 161.933374 
L 1085.689599 163.897046 
L 1078.516296 167.455869 
L 1071.342993 168.859152 
L 1064.169691 168.620733 
L 1056.996388 171.248826 
L 1049.823085 171.088413 
L 1042.649783 174.650199 
L 1035.47648 179.83925 
L 1028.303178 185.725804 
L 1021.129875 185.473067 
L 1013.956572 184.346135 
L 1006.78327 186.777272 
L 999.609967 188.300453 
L 992.436664 198.295804 
L 985.263362 198.515641 
L 978.090059 201.739418 
L 970.916756 206.881855 
L 963.743454 210.400302 
L 956.570151 213.810406 
L 949.396848 210.768759 
L 942.223546 220.324905 
L 935.050243 226.132381 
L 927.87694 233.365595 
L 920.703638 239.470962 
L 913.530335 245.110482 
L 906.357033 247.24193 
L 899.18373 259.161466 
L 892.010427 263.91724 
L 884.837125 268.349643 
L 877.663822 287.076197 
L 870.490519 304.109362 
L 863.317217 329.999005 
L 856.143914 351.646961 
L 848.970611 372.930484 
L 841.797309 419.78473 
L 834.624006 453.441752 
L 827.450703 527.412304 
L 820.277401 577.02777 
L 813.104098 647.132463 
L 805.930795 721.984831 
z
" style="fill:#9089fa;fill-opacity:0.1;stroke:#9089fa;stroke-opacity:0.1;"/>
   </g>
   <g id="matplotlib.axis_3">
    <g id="xtick_10">
     <g id="line2d_21">
      <g>
       <use style="stroke:#000000;stroke-width:0.8;" x="805.930795" xlink:href="#m929cf22f4b" y="484.739875"/>
      </g>
     </g>
     <g id="text_20">
      <!-- 0 -->
      <g transform="translate(798.932045 508.456438)scale(0.22 -0.22)">
       <use xlink:href="#DejaVuSans-30"/>
      </g>
     </g>
    </g>
    <g id="xtick_11">
     <g id="line2d_22">
      <g>
       <use style="stroke:#000000;stroke-width:0.8;" x="877.663822" xlink:href="#m929cf22f4b" y="484.739875"/>
      </g>
     </g>
     <g id="text_21">
      <!-- 10 -->
      <g transform="translate(863.666322 508.456438)scale(0.22 -0.22)">
       <use xlink:href="#DejaVuSans-31"/>
       <use x="63.623047" xlink:href="#DejaVuSans-30"/>
      </g>
     </g>
    </g>
    <g id="xtick_12">
     <g id="line2d_23">
      <g>
       <use style="stroke:#000000;stroke-width:0.8;" x="949.396848" xlink:href="#m929cf22f4b" y="484.739875"/>
      </g>
     </g>
     <g id="text_22">
      <!-- 20 -->
      <g transform="translate(935.399348 508.456438)scale(0.22 -0.22)">
       <use xlink:href="#DejaVuSans-32"/>
       <use x="63.623047" xlink:href="#DejaVuSans-30"/>
      </g>
     </g>
    </g>
    <g id="xtick_13">
     <g id="line2d_24">
      <g>
       <use style="stroke:#000000;stroke-width:0.8;" x="1021.129875" xlink:href="#m929cf22f4b" y="484.739875"/>
      </g>
     </g>
     <g id="text_23">
      <!-- 30 -->
      <g transform="translate(1007.132375 508.456438)scale(0.22 -0.22)">
       <use xlink:href="#DejaVuSans-33"/>
       <use x="63.623047" xlink:href="#DejaVuSans-30"/>
      </g>
     </g>
    </g>
    <g id="xtick_14">
     <g id="line2d_25">
      <g>
       <use style="stroke:#000000;stroke-width:0.8;" x="1092.862901" xlink:href="#m929cf22f4b" y="484.739875"/>
      </g>
     </g>
     <g id="text_24">
      <!-- 40 -->
      <g transform="translate(1078.865401 508.456438)scale(0.22 -0.22)">
       <use xlink:href="#DejaVuSans-34"/>
       <use x="63.623047" xlink:href="#DejaVuSans-30"/>
      </g>
     </g>
    </g>
    <g id="xtick_15">
     <g id="line2d_26">
      <g>
       <use style="stroke:#000000;stroke-width:0.8;" x="1164.595928" xlink:href="#m929cf22f4b" y="484.739875"/>
      </g>
     </g>
     <g id="text_25">
      <!-- 50 -->
      <g transform="translate(1150.598428 508.456438)scale(0.22 -0.22)">
       <use xlink:href="#DejaVuSans-35"/>
       <use x="63.623047" xlink:href="#DejaVuSans-30"/>
      </g>
     </g>
    </g>
    <g id="xtick_16">
     <g id="line2d_27">
      <g>
       <use style="stroke:#000000;stroke-width:0.8;" x="1236.328954" xlink:href="#m929cf22f4b" y="484.739875"/>
      </g>
     </g>
     <g id="text_26">
      <!-- 60 -->
      <g transform="translate(1222.331454 508.456438)scale(0.22 -0.22)">
       <use xlink:href="#DejaVuSans-36"/>
       <use x="63.623047" xlink:href="#DejaVuSans-30"/>
      </g>
     </g>
    </g>
    <g id="xtick_17">
     <g id="line2d_28">
      <g>
       <use style="stroke:#000000;stroke-width:0.8;" x="1308.061981" xlink:href="#m929cf22f4b" y="484.739875"/>
      </g>
     </g>
     <g id="text_27">
      <!-- 70 -->
      <g transform="translate(1294.064481 508.456438)scale(0.22 -0.22)">
       <use xlink:href="#DejaVuSans-37"/>
       <use x="63.623047" xlink:href="#DejaVuSans-30"/>
      </g>
     </g>
    </g>
    <g id="xtick_18">
     <g id="line2d_29">
      <g>
       <use style="stroke:#000000;stroke-width:0.8;" x="1379.795007" xlink:href="#m929cf22f4b" y="484.739875"/>
      </g>
     </g>
     <g id="text_28">
      <!-- 80 -->
      <g transform="translate(1365.797507 508.456438)scale(0.22 -0.22)">
       <use xlink:href="#DejaVuSans-38"/>
       <use x="63.623047" xlink:href="#DejaVuSans-30"/>
      </g>
     </g>
    </g>
    <g id="text_29">
     <!-- Time in seconds -->
     <g transform="translate(1000.380781 533.748312)scale(0.22 -0.22)">
      <use xlink:href="#DejaVuSans-54"/>
      <use x="57.958984" xlink:href="#DejaVuSans-69"/>
      <use x="85.742188" xlink:href="#DejaVuSans-6d"/>
      <use x="183.154297" xlink:href="#DejaVuSans-65"/>
      <use x="244.677734" xlink:href="#DejaVuSans-20"/>
      <use x="276.464844" xlink:href="#DejaVuSans-69"/>
      <use x="304.248047" xlink:href="#DejaVuSans-6e"/>
      <use x="367.626953" xlink:href="#DejaVuSans-20"/>
      <use x="399.414062" xlink:href="#DejaVuSans-73"/>
      <use x="451.513672" xlink:href="#DejaVuSans-65"/>
      <use x="513.037109" xlink:href="#DejaVuSans-63"/>
      <use x="568.017578" xlink:href="#DejaVuSans-6f"/>
      <use x="629.199219" xlink:href="#DejaVuSans-6e"/>
      <use x="692.578125" xlink:href="#DejaVuSans-64"/>
      <use x="756.054688" xlink:href="#DejaVuSans-73"/>
     </g>
    </g>
   </g>
   <g id="matplotlib.axis_4">
    <g id="ytick_8">
     <g id="line2d_30">
      <g>
       <use style="stroke:#000000;stroke-width:0.8;" x="777.59625" xlink:href="#m2926446f46" y="484.739875"/>
      </g>
     </g>
     <g id="text_30">
      <!-- 0.4 -->
      <g transform="translate(735.609375 493.098156)scale(0.22 -0.22)">
       <use xlink:href="#DejaVuSans-30"/>
       <use x="63.623047" xlink:href="#DejaVuSans-2e"/>
       <use x="95.410156" xlink:href="#DejaVuSans-34"/>
      </g>
     </g>
    </g>
    <g id="ytick_9">
     <g id="line2d_31">
      <g>
       <use style="stroke:#000000;stroke-width:0.8;" x="777.59625" xlink:href="#m2926446f46" y="394.443875"/>
      </g>
     </g>
     <g id="text_31">
      <!-- 0.5 -->
      <g transform="translate(735.609375 402.802156)scale(0.22 -0.22)">
       <use xlink:href="#DejaVuSans-30"/>
       <use x="63.623047" xlink:href="#DejaVuSans-2e"/>
       <use x="95.410156" xlink:href="#DejaVuSans-35"/>
      </g>
     </g>
    </g>
    <g id="ytick_10">
     <g id="line2d_32">
      <g>
       <use style="stroke:#000000;stroke-width:0.8;" x="777.59625" xlink:href="#m2926446f46" y="304.147875"/>
      </g>
     </g>
     <g id="text_32">
      <!-- 0.6 -->
      <g transform="translate(735.609375 312.506156)scale(0.22 -0.22)">
       <use xlink:href="#DejaVuSans-30"/>
       <use x="63.623047" xlink:href="#DejaVuSans-2e"/>
       <use x="95.410156" xlink:href="#DejaVuSans-36"/>
      </g>
     </g>
    </g>
    <g id="ytick_11">
     <g id="line2d_33">
      <g>
       <use style="stroke:#000000;stroke-width:0.8;" x="777.59625" xlink:href="#m2926446f46" y="213.851875"/>
      </g>
     </g>
     <g id="text_33">
      <!-- 0.7 -->
      <g transform="translate(735.609375 222.210156)scale(0.22 -0.22)">
       <use xlink:href="#DejaVuSans-30"/>
       <use x="63.623047" xlink:href="#DejaVuSans-2e"/>
       <use x="95.410156" xlink:href="#DejaVuSans-37"/>
      </g>
     </g>
    </g>
    <g id="ytick_12">
     <g id="line2d_34">
      <g>
       <use style="stroke:#000000;stroke-width:0.8;" x="777.59625" xlink:href="#m2926446f46" y="123.555875"/>
      </g>
     </g>
     <g id="text_34">
      <!-- 0.8 -->
      <g transform="translate(735.609375 131.914156)scale(0.22 -0.22)">
       <use xlink:href="#DejaVuSans-30"/>
       <use x="63.623047" xlink:href="#DejaVuSans-2e"/>
       <use x="95.410156" xlink:href="#DejaVuSans-38"/>
      </g>
     </g>
    </g>
    <g id="ytick_13">
     <g id="line2d_35">
      <g>
       <use style="stroke:#000000;stroke-width:0.8;" x="777.59625" xlink:href="#m2926446f46" y="33.259875"/>
      </g>
     </g>
     <g id="text_35">
      <!-- 0.9 -->
      <g transform="translate(735.609375 41.618156)scale(0.22 -0.22)">
       <defs>
        <path d="M 703 97 
L 703 672 
Q 941 559 1184 500 
Q 1428 441 1663 441 
Q 2288 441 2617 861 
Q 2947 1281 2994 2138 
Q 2813 1869 2534 1725 
Q 2256 1581 1919 1581 
Q 1219 1581 811 2004 
Q 403 2428 403 3163 
Q 403 3881 828 4315 
Q 1253 4750 1959 4750 
Q 2769 4750 3195 4129 
Q 3622 3509 3622 2328 
Q 3622 1225 3098 567 
Q 2575 -91 1691 -91 
Q 1453 -91 1209 -44 
Q 966 3 703 97 
z
M 1959 2075 
Q 2384 2075 2632 2365 
Q 2881 2656 2881 3163 
Q 2881 3666 2632 3958 
Q 2384 4250 1959 4250 
Q 1534 4250 1286 3958 
Q 1038 3666 1038 3163 
Q 1038 2656 1286 2365 
Q 1534 2075 1959 2075 
z
" id="DejaVuSans-39" transform="scale(0.015625)"/>
       </defs>
       <use xlink:href="#DejaVuSans-30"/>
       <use x="63.623047" xlink:href="#DejaVuSans-2e"/>
       <use x="95.410156" xlink:href="#DejaVuSans-39"/>
      </g>
     </g>
    </g>
   </g>
   <g id="line2d_36">
    <path clip-path="url(#pdf3c0d0fbc)" d="M 822.578544 546.523625 
L 827.450703 477.245307 
L 834.624006 425.740469 
L 841.797309 365.72359 
L 848.970611 324.193587 
L 856.143914 303.554794 
L 863.317217 282.868852 
L 870.490519 261.092099 
L 877.663822 252.541659 
L 884.837125 237.88867 
L 892.010427 228.952806 
L 899.18373 223.891148 
L 906.357033 219.590423 
L 913.530335 210.709574 
L 920.703638 203.300787 
L 927.87694 202.195291 
L 935.050243 196.267254 
L 942.223546 193.858083 
L 949.396848 195.359665 
L 956.570151 192.224882 
L 963.743454 189.819925 
L 970.916756 186.256536 
L 978.090059 183.464121 
L 985.263362 179.298606 
L 992.436664 178.098959 
L 999.609967 175.963253 
L 1006.78327 174.262585 
L 1013.956572 174.377824 
L 1021.129875 169.340352 
L 1028.303178 165.473741 
L 1035.47648 164.295578 
L 1042.649783 161.194942 
L 1049.823085 160.076307 
L 1056.996388 159.055417 
L 1064.169691 160.31036 
L 1071.342993 156.799852 
L 1078.516296 158.82775 
L 1085.689599 157.386042 
L 1092.862901 151.58067 
L 1100.036204 151.055307 
L 1107.209507 152.13566 
L 1114.382809 148.274956 
L 1121.556112 145.9657 
L 1128.729415 145.061739 
L 1135.902717 144.654306 
L 1143.07602 141.836515 
L 1150.249322 141.810716 
L 1157.422625 142.043456 
L 1164.595928 141.773644 
L 1171.76923 143.206005 
L 1178.942533 139.551481 
L 1186.115836 137.102327 
L 1193.289138 136.197315 
L 1200.462441 132.428532 
L 1207.635744 135.994149 
L 1214.809046 133.231091 
L 1221.982349 132.133995 
L 1229.155652 130.846202 
L 1236.328954 129.416515 
L 1243.502257 130.730107 
L 1250.67556 126.646256 
L 1257.848862 125.290848 
L 1265.022165 125.209833 
L 1272.195467 127.26622 
L 1279.36877 126.848375 
L 1286.542073 122.620666 
L 1293.715375 121.242577 
L 1300.888678 123.465579 
L 1308.061981 121.517765 
L 1315.235283 120.919232 
L 1322.408586 119.15237 
L 1329.581889 117.796752 
L 1336.755191 116.211116 
L 1343.928494 117.052306 
L 1351.101797 114.803613 
L 1358.275099 116.618499 
L 1365.448402 116.521187 
L 1372.621705 114.278486 
" style="fill:none;stroke:#00c0c7;stroke-linecap:square;stroke-width:1.5;"/>
   </g>
   <g id="line2d_37">
    <path clip-path="url(#pdf3c0d0fbc)" d="M 824.940707 546.523625 
L 827.450703 518.212329 
L 834.624006 447.357331 
L 841.797309 395.897349 
L 848.970611 352.378838 
L 856.143914 322.408056 
L 863.317217 299.486022 
L 870.490519 280.564202 
L 877.663822 271.04755 
L 884.837125 255.270377 
L 892.010427 242.678873 
L 899.18373 242.032436 
L 906.357033 227.139068 
L 913.530335 220.5205 
L 920.703638 216.398753 
L 927.87694 215.883535 
L 935.050243 207.841548 
L 942.223546 207.027686 
L 949.396848 202.417822 
L 956.570151 203.002246 
L 963.743454 197.805745 
L 970.916756 192.251379 
L 978.090059 190.453924 
L 985.263362 183.625934 
L 992.436664 184.325083 
L 999.609967 177.663818 
L 1006.78327 182.0066 
L 1013.956572 174.132922 
L 1021.129875 176.614352 
L 1028.303178 170.655434 
L 1035.47648 169.338527 
L 1042.649783 166.208422 
L 1049.823085 166.230312 
L 1056.996388 164.495534 
L 1064.169691 165.817225 
L 1071.342993 156.764164 
L 1078.516296 159.383635 
L 1085.689599 156.787625 
L 1092.862901 156.07837 
L 1100.036204 153.315248 
L 1107.209507 154.07028 
L 1114.382809 151.499831 
L 1121.556112 153.18425 
L 1128.729415 147.2931 
L 1135.902717 148.008614 
L 1143.07602 143.010559 
L 1150.249322 144.077693 
L 1157.422625 142.495461 
L 1164.595928 142.817302 
L 1171.76923 141.369583 
L 1178.942533 141.822225 
L 1186.115836 136.677012 
L 1193.289138 137.363423 
L 1200.462441 137.789534 
L 1207.635744 133.302683 
L 1214.809046 133.360273 
L 1221.982349 135.885149 
L 1229.155652 132.723929 
L 1236.328954 131.151059 
L 1243.502257 131.846176 
L 1250.67556 129.027248 
L 1257.848862 126.915981 
L 1265.022165 126.82064 
L 1272.195467 126.857323 
L 1279.36877 125.159239 
L 1286.542073 126.955986 
L 1293.715375 125.036729 
L 1300.888678 121.115303 
L 1308.061981 123.023129 
L 1315.235283 120.649986 
L 1322.408586 122.713112 
L 1329.581889 121.167135 
L 1336.755191 122.434457 
L 1343.928494 118.231067 
L 1351.101797 117.596339 
L 1358.275099 113.105441 
L 1365.448402 115.301758 
L 1372.621705 114.118575 
" style="fill:none;stroke:#5144d3;stroke-linecap:square;stroke-width:1.5;"/>
   </g>
   <g id="line2d_38">
    <path clip-path="url(#pdf3c0d0fbc)" d="M 827.17025 546.523625 
L 827.450703 543.54321 
L 834.624006 488.663382 
L 841.797309 430.293967 
L 848.970611 400.534486 
L 856.143914 369.813706 
L 863.317217 339.371524 
L 870.490519 319.374038 
L 877.663822 297.139312 
L 884.837125 288.774981 
L 892.010427 283.209523 
L 899.18373 269.28541 
L 906.357033 259.05299 
L 913.530335 256.604209 
L 920.703638 244.681509 
L 927.87694 237.580569 
L 935.050243 238.285408 
L 942.223546 226.092295 
L 949.396848 223.242659 
L 956.570151 222.520291 
L 963.743454 217.058751 
L 970.916756 213.331989 
L 978.090059 209.141004 
L 985.263362 204.70094 
L 992.436664 206.063845 
L 999.609967 199.582371 
L 1006.78327 193.373273 
L 1013.956572 194.286856 
L 1021.129875 195.990744 
L 1028.303178 193.250706 
L 1035.47648 185.228043 
L 1042.649783 183.36104 
L 1049.823085 180.309733 
L 1056.996388 183.318548 
L 1064.169691 177.635439 
L 1071.342993 175.913874 
L 1078.516296 177.539202 
L 1085.689599 173.793286 
L 1092.862901 172.687219 
L 1100.036204 169.051378 
L 1107.209507 168.348335 
L 1114.382809 167.070338 
L 1121.556112 168.772281 
L 1128.729415 169.677379 
L 1135.902717 164.60603 
L 1143.07602 162.795131 
L 1150.249322 161.392479 
L 1157.422625 159.804407 
L 1164.595928 159.606553 
L 1171.76923 156.875099 
L 1178.942533 157.942234 
L 1186.115836 151.970736 
L 1193.289138 152.744057 
L 1200.462441 154.527403 
L 1207.635744 151.637931 
L 1214.809046 152.509022 
L 1221.982349 151.550371 
L 1229.155652 148.541309 
L 1236.328954 149.998922 
L 1243.502257 146.359719 
L 1250.67556 148.712341 
L 1257.848862 145.954443 
L 1265.022165 144.204446 
L 1272.195467 146.522928 
L 1279.36877 143.388954 
L 1286.542073 141.075879 
L 1293.715375 137.995026 
L 1300.888678 138.738502 
L 1308.061981 136.666272 
L 1315.235283 140.805421 
L 1322.408586 138.312821 
L 1329.581889 135.001577 
L 1336.755191 140.81062 
L 1343.928494 135.384651 
L 1351.101797 132.59394 
L 1358.275099 130.232307 
L 1365.448402 127.420013 
L 1372.621705 130.328075 
" style="fill:none;stroke:#da3490;stroke-linecap:square;stroke-width:1.5;"/>
   </g>
   <g id="line2d_39">
    <path clip-path="url(#pdf3c0d0fbc)" d="M 830.427643 546.523625 
L 834.624006 505.322051 
L 841.797309 474.385934 
L 848.970611 418.67142 
L 856.143914 393.26206 
L 863.317217 370.209594 
L 870.490519 347.962681 
L 877.663822 324.450794 
L 884.837125 309.142372 
L 892.010427 302.573007 
L 899.18373 287.761973 
L 906.357033 276.503618 
L 913.530335 266.425393 
L 920.703638 264.792928 
L 927.87694 260.395094 
L 935.050243 251.363413 
L 942.223546 244.634602 
L 949.396848 235.86999 
L 956.570151 237.565198 
L 963.743454 234.216279 
L 970.916756 230.065651 
L 978.090059 224.440409 
L 985.263362 224.712791 
L 992.436664 220.663911 
L 999.609967 214.734446 
L 1006.78327 208.000694 
L 1013.956572 209.966491 
L 1021.129875 210.968229 
L 1028.303178 207.337284 
L 1035.47648 200.25104 
L 1042.649783 195.289206 
L 1049.823085 199.430314 
L 1056.996388 194.069084 
L 1064.169691 192.228805 
L 1071.342993 189.344976 
L 1078.516296 191.641795 
L 1085.689599 187.766954 
L 1092.862901 185.19309 
L 1100.036204 192.690742 
L 1107.209507 185.24552 
L 1114.382809 184.563136 
L 1121.556112 181.026457 
L 1128.729415 176.794944 
L 1135.902717 176.846932 
L 1143.07602 178.761684 
L 1150.249322 177.916723 
L 1157.422625 173.404739 
L 1164.595928 175.682063 
L 1171.76923 170.769396 
L 1178.942533 170.712277 
L 1186.115836 162.358073 
L 1193.289138 167.064438 
L 1200.462441 167.554653 
L 1207.635744 168.873522 
L 1214.809046 169.266897 
L 1221.982349 167.289238 
L 1229.155652 163.174573 
L 1236.328954 160.704214 
L 1243.502257 158.847502 
L 1250.67556 160.185092 
L 1257.848862 156.041189 
L 1265.022165 155.44784 
L 1272.195467 157.0698 
L 1279.36877 155.453582 
L 1286.542073 150.97482 
L 1293.715375 152.069659 
L 1300.888678 150.841684 
L 1308.061981 148.311088 
L 1315.235283 149.146824 
L 1322.408586 145.723543 
L 1329.581889 151.219286 
L 1336.755191 150.907823 
L 1343.928494 140.525503 
L 1351.101797 145.234882 
L 1358.275099 144.713357 
L 1365.448402 142.743775 
L 1372.621705 143.757553 
" style="fill:none;stroke:#9089fa;stroke-linecap:square;stroke-width:1.5;"/>
   </g>
   <g id="patch_8">
    <path d="M 777.59625 484.739875 
L 777.59625 33.259875 
" style="fill:none;stroke:#000000;stroke-linecap:square;stroke-linejoin:miter;stroke-width:0.8;"/>
   </g>
   <g id="patch_9">
    <path d="M 1400.95625 484.739875 
L 1400.95625 33.259875 
" style="fill:none;stroke:#000000;stroke-linecap:square;stroke-linejoin:miter;stroke-width:0.8;"/>
   </g>
   <g id="patch_10">
    <path d="M 777.59625 484.739875 
L 1400.95625 484.739875 
" style="fill:none;stroke:#000000;stroke-linecap:square;stroke-linejoin:miter;stroke-width:0.8;"/>
   </g>
   <g id="patch_11">
    <path d="M 777.59625 33.259875 
L 1400.95625 33.259875 
" style="fill:none;stroke:#000000;stroke-linecap:square;stroke-linejoin:miter;stroke-width:0.8;"/>
   </g>
   <g id="text_36">
    <!-- Dataset: fashionmnist -->
    <g transform="translate(943.915375 27.259875)scale(0.264 -0.264)">
     <defs>
      <path d="M 3513 2113 
L 3513 0 
L 2938 0 
L 2938 2094 
Q 2938 2591 2744 2837 
Q 2550 3084 2163 3084 
Q 1697 3084 1428 2787 
Q 1159 2491 1159 1978 
L 1159 0 
L 581 0 
L 581 4863 
L 1159 4863 
L 1159 2956 
Q 1366 3272 1645 3428 
Q 1925 3584 2291 3584 
Q 2894 3584 3203 3211 
Q 3513 2838 3513 2113 
z
" id="DejaVuSans-68" transform="scale(0.015625)"/>
     </defs>
     <use xlink:href="#DejaVuSans-44"/>
     <use x="77.001953" xlink:href="#DejaVuSans-61"/>
     <use x="138.28125" xlink:href="#DejaVuSans-74"/>
     <use x="177.490234" xlink:href="#DejaVuSans-61"/>
     <use x="238.769531" xlink:href="#DejaVuSans-73"/>
     <use x="290.869141" xlink:href="#DejaVuSans-65"/>
     <use x="352.392578" xlink:href="#DejaVuSans-74"/>
     <use x="391.601562" xlink:href="#DejaVuSans-3a"/>
     <use x="425.292969" xlink:href="#DejaVuSans-20"/>
     <use x="457.080078" xlink:href="#DejaVuSans-66"/>
     <use x="492.285156" xlink:href="#DejaVuSans-61"/>
     <use x="553.564453" xlink:href="#DejaVuSans-73"/>
     <use x="605.664062" xlink:href="#DejaVuSans-68"/>
     <use x="669.042969" xlink:href="#DejaVuSans-69"/>
     <use x="696.826172" xlink:href="#DejaVuSans-6f"/>
     <use x="758.007812" xlink:href="#DejaVuSans-6e"/>
     <use x="821.386719" xlink:href="#DejaVuSans-6d"/>
     <use x="918.798828" xlink:href="#DejaVuSans-6e"/>
     <use x="982.177734" xlink:href="#DejaVuSans-69"/>
     <use x="1009.960938" xlink:href="#DejaVuSans-73"/>
     <use x="1062.060547" xlink:href="#DejaVuSans-74"/>
    </g>
   </g>
  </g>
  <g id="legend_1">
   <g id="patch_12">
    <path d="M 1245.875 462.099875 
L 1370.43625 462.099875 
Q 1374.83625 462.099875 1374.83625 457.699875 
L 1374.83625 330.732375 
Q 1374.83625 326.332375 1370.43625 326.332375 
L 1245.875 326.332375 
Q 1241.475 326.332375 1241.475 330.732375 
L 1241.475 457.699875 
Q 1241.475 462.099875 1245.875 462.099875 
z
" style="fill:#ffffff;opacity:0.8;stroke:#cccccc;stroke-linejoin:miter;"/>
   </g>
   <g id="line2d_40">
    <path d="M 1250.275 344.148938 
L 1294.275 344.148938 
" style="fill:none;stroke:#00c0c7;stroke-linecap:square;stroke-width:4;"/>
   </g>
   <g id="line2d_41"/>
   <g id="text_37">
    <!-- f = 1 -->
    <g transform="translate(1311.875 351.848938)scale(0.22 -0.22)">
     <defs>
      <path d="M 678 2906 
L 4684 2906 
L 4684 2381 
L 678 2381 
L 678 2906 
z
M 678 1631 
L 4684 1631 
L 4684 1100 
L 678 1100 
L 678 1631 
z
" id="DejaVuSans-3d" transform="scale(0.015625)"/>
     </defs>
     <use xlink:href="#DejaVuSans-66"/>
     <use x="35.205078" xlink:href="#DejaVuSans-20"/>
     <use x="66.992188" xlink:href="#DejaVuSans-3d"/>
     <use x="150.78125" xlink:href="#DejaVuSans-20"/>
     <use x="182.568359" xlink:href="#DejaVuSans-31"/>
    </g>
   </g>
   <g id="line2d_42">
    <path d="M 1250.275 376.440813 
L 1294.275 376.440813 
" style="fill:none;stroke:#5144d3;stroke-linecap:square;stroke-width:4;"/>
   </g>
   <g id="line2d_43"/>
   <g id="text_38">
    <!-- f = 2 -->
    <g transform="translate(1311.875 384.140813)scale(0.22 -0.22)">
     <use xlink:href="#DejaVuSans-66"/>
     <use x="35.205078" xlink:href="#DejaVuSans-20"/>
     <use x="66.992188" xlink:href="#DejaVuSans-3d"/>
     <use x="150.78125" xlink:href="#DejaVuSans-20"/>
     <use x="182.568359" xlink:href="#DejaVuSans-32"/>
    </g>
   </g>
   <g id="line2d_44">
    <path d="M 1250.275 408.732688 
L 1294.275 408.732688 
" style="fill:none;stroke:#da3490;stroke-linecap:square;stroke-width:4;"/>
   </g>
   <g id="line2d_45"/>
   <g id="text_39">
    <!-- f = 4 -->
    <g transform="translate(1311.875 416.432688)scale(0.22 -0.22)">
     <use xlink:href="#DejaVuSans-66"/>
     <use x="35.205078" xlink:href="#DejaVuSans-20"/>
     <use x="66.992188" xlink:href="#DejaVuSans-3d"/>
     <use x="150.78125" xlink:href="#DejaVuSans-20"/>
     <use x="182.568359" xlink:href="#DejaVuSans-34"/>
    </g>
   </g>
   <g id="line2d_46">
    <path d="M 1250.275 441.024563 
L 1294.275 441.024563 
" style="fill:none;stroke:#9089fa;stroke-linecap:square;stroke-width:4;"/>
   </g>
   <g id="line2d_47"/>
   <g id="text_40">
    <!-- f = 8 -->
    <g transform="translate(1311.875 448.724563)scale(0.22 -0.22)">
     <use xlink:href="#DejaVuSans-66"/>
     <use x="35.205078" xlink:href="#DejaVuSans-20"/>
     <use x="66.992188" xlink:href="#DejaVuSans-3d"/>
     <use x="150.78125" xlink:href="#DejaVuSans-20"/>
     <use x="182.568359" xlink:href="#DejaVuSans-38"/>
    </g>
   </g>
  </g>
 </g>
 <defs>
  <clipPath id="pc1744e7524">
   <rect height="451.48" width="623.36" x="88.47625" y="33.259875"/>
  </clipPath>
  <clipPath id="pdf3c0d0fbc">
   <rect height="451.48" width="623.36" x="777.59625" y="33.259875"/>
  </clipPath>
 </defs>
</svg>
